*
*
G04 PADS VX.2 Build Number: 5060570 generated Gerber (RS-274-X) file*
G04 PC Version=2.1*
*
%IN "Mercury-A1_connecter_V1"*%
*
%MOIN*%
*
%FSLAX35Y35*%
*
*
*
*
G04 PC Standard Apertures*
*
*
G04 Thermal Relief Aperture macro.*
%AMTER*
1,1,$1,0,0*
1,0,$1-$2,0,0*
21,0,$3,$4,0,0,45*
21,0,$3,$4,0,0,135*
%
*
*
G04 Annular Aperture macro.*
%AMANN*
1,1,$1,0,0*
1,0,$2,0,0*
%
*
*
G04 Odd Aperture macro.*
%AMODD*
1,1,$1,0,0*
1,0,$1-0.005,0,0*
%
*
*
G04 PC Custom Aperture Macros*
*
*
*
*
*
*
G04 PC Aperture Table*
*
%ADD010C,0.001*%
%ADD026C,0.01*%
*
*
*
*
G04 PC Circuitry*
G04 Layer Name Mercury-A1_connecter_V1 - circuitry*
%LPD*%
*
*
G04 PC Custom Flashes*
G04 Layer Name Mercury-A1_connecter_V1 - flashes*
%LPD*%
*
*
G04 PC Circuitry*
G04 Layer Name Mercury-A1_connecter_V1 - circuitry*
%LPD*%
*
G54D10*
G01X200000Y100000D02*
X231496D01*
Y147244*
X200000*
Y100000*
G54D26*
X204800Y104400D02*
X212800D01*
X208800Y100400D02*
Y108400D01*
X210800Y114000D02*
X218800D01*
X214800Y110000D02*
Y118000D01*
X218800Y104400D02*
X226800D01*
X222800Y100400D02*
Y108400D01*
X213600Y114400D02*
X221600D01*
X217600Y110400D02*
Y118400D01*
X225600Y114400D02*
X233600D01*
X229600Y110400D02*
Y118400D01*
X223200Y120000D02*
X231200D01*
X227200Y116000D02*
Y124000D01*
X202000Y127600D02*
X210000D01*
X206000Y123600D02*
Y131600D01*
X204800Y143200D02*
X212800D01*
X208800Y139200D02*
Y147200D01*
X211600Y139600D02*
X219600D01*
X215600Y135600D02*
Y143600D01*
X210400Y136800D02*
X218400D01*
X214400Y132800D02*
Y140800D01*
X218800Y143200D02*
X226800D01*
X222800Y139200D02*
Y147200D01*
X800000Y148000D02*
X1058000D01*
X800000Y124000D02*
X1058000D01*
X800000Y100000D02*
X1058000D01*
X800000Y148000D02*
Y100000D01*
X884000Y148000D02*
Y100000D01*
X920000Y148000D02*
Y100000D01*
X956000Y148000D02*
Y100000D01*
X1010000Y148000D02*
Y100000D01*
X1058000Y148000D02*
Y100000D01*
X828818Y130000D02*
X830364Y132375D01*
X830727Y134375*
Y137625*
X831091Y137875*
X838182*
X838545Y137625*
Y135000*
X838182Y134750*
X830727*
X834818D02*
X835545Y133000D01*
X837455Y131125*
X839727Y130000*
X845545Y132625D02*
X844818Y133875D01*
X843727Y134750*
X842182Y136500D02*
X852273D01*
X850091Y138250D02*
Y130000D01*
X849727Y129750*
X847091Y130250*
X888818Y133000D02*
X894091D01*
X893364D02*
X892545Y131500D01*
X891455Y130625*
X889182Y129750*
X893364D02*
X891455Y130875D01*
X889545Y131500*
Y131750*
X890727Y132625*
X891455Y133875*
Y134125D02*
Y138250D01*
X889182D02*
X889909Y137000D01*
X892545D02*
X893364Y138250D01*
X894091Y136500D02*
X889182D01*
X888818Y134375D02*
X890364Y135250D01*
X891455Y136500*
X893727Y135000*
X894455D02*
X895182Y136750D01*
Y138250*
Y136750D02*
X900091D01*
X899364D02*
X898545Y134125D01*
X896727Y131125*
X894818Y129750*
X899727D02*
X898182Y131125D01*
X896364Y134125*
X895545Y136750*
X902182Y130000D02*
X913091D01*
X912273Y131125D02*
X902909D01*
X903727Y132625D02*
Y134375D01*
X904091Y134750*
X911545*
X911909Y134375*
Y132625*
X911545Y132375*
X904091*
X903727Y132625*
Y133500D02*
X911909D01*
X907818Y134750D02*
Y130000D01*
X902545Y135625D02*
X913455D01*
X903727Y136750D02*
Y137875D01*
X904091Y138250*
X911545*
X911909Y137875*
Y136750*
X911545Y136500*
X904091*
X903727Y136750*
Y137375D02*
X911909D01*
X925545Y133500D02*
X927091Y134750D01*
X928182Y136125*
X927091Y134750D02*
Y129750D01*
X931545Y131750D02*
X930091Y133250D01*
X929364Y134750D02*
X936091D01*
X934545Y135875D02*
Y130000D01*
X934182Y129750*
X932727Y130000*
X931545Y131750D02*
X930091Y133250D01*
X924818Y136750D02*
X926364Y137625D01*
X926727Y138500*
X926364Y137625D02*
X930455D01*
X928909Y136500D02*
X927455Y137625D01*
X932364Y138500D02*
X931909Y137625D01*
X930818Y136750*
X931909Y137625D02*
X936091D01*
X934545Y136500D02*
X933455Y137625D01*
X938182Y134125D02*
X948727D01*
X941182D02*
X940455Y132625D01*
X940818Y132375*
X946818*
X947182Y132125*
X946818Y130000*
X946455Y129750*
X943455Y130000*
X940091Y135875D02*
Y137625D01*
X940455Y137875*
X946818*
X947182Y137625*
Y135875*
X946818Y135625*
X940455*
X940091Y135875*
X985500Y136000D02*
Y136375D01*
X985773Y137125*
X986045Y137500*
X986591Y137875*
X987682*
X988227Y137500*
X988500Y137125*
X988773Y136375*
Y135625*
X988500Y134875*
X988227Y134500*
X987136Y133750*
Y132625*
Y130750D02*
X986864Y130375D01*
X987136Y130000*
X987409Y130375*
X987136Y130750*
X991227Y136000D02*
Y136375D01*
X991500Y137125*
X991773Y137500*
X992318Y137875*
X993409*
X993955Y137500*
X994227Y137125*
X994500Y136375*
Y135625*
X994227Y134875*
X993955Y134500*
X992864Y133750*
Y132625*
Y130750D02*
X992591Y130375D01*
X992864Y130000*
X993136Y130375*
X992864Y130750*
X1026682Y137875D02*
Y130000D01*
X1024773Y137875D02*
X1028591D01*
X1032682D02*
X1032136Y137500D01*
X1031591Y136750*
X1031318Y136000*
X1031045Y134875*
Y133000*
X1031318Y131875*
X1031591Y131125*
X1032136Y130375*
X1032682Y130000*
X1033773*
X1034318Y130375*
X1034864Y131125*
X1035136Y131875*
X1035409Y133000*
Y134875*
X1035136Y136000*
X1034864Y136750*
X1034318Y137500*
X1033773Y137875*
X1032682*
X1037864D02*
Y130000D01*
X1041136*
X806000Y112375D02*
X806545Y112750D01*
X807364Y113875*
Y106000*
X809818Y112375D02*
X810364Y112750D01*
X811182Y113875*
Y106000*
X813909Y106750D02*
X813636Y106375D01*
X813909Y106000*
X814182Y106375*
X813909Y106750*
X818000Y113875D02*
X817182Y113500D01*
X816909Y112750*
Y112000*
X817182Y111250*
X817727Y110875*
X818818Y110500*
X819636Y110125*
X820182Y109375*
X820455Y108625*
Y107500*
X820182Y106750*
X819909Y106375*
X819091Y106000*
X818000*
X817182Y106375*
X816909Y106750*
X816636Y107500*
Y108625*
X816909Y109375*
X817455Y110125*
X818273Y110500*
X819364Y110875*
X819909Y111250*
X820182Y112000*
Y112750*
X819909Y113500*
X819091Y113875*
X818000*
X822909Y112375D02*
X823455Y112750D01*
X824273Y113875*
Y106000*
X898364Y112375D02*
X898909Y112750D01*
X899727Y113875*
Y106000*
X902182Y112375D02*
X902727Y112750D01*
X903545Y113875*
Y106000*
X932000Y112000D02*
X944000D01*
X938000Y106000D02*
Y118000D01*
X964636Y113875D02*
X966818Y110125D01*
Y106000*
X969000Y113875D02*
X966818Y110125D01*
X971455Y113875D02*
Y106000D01*
Y113875D02*
X975000D01*
X971455Y110125D02*
X973636D01*
X971455Y106000D02*
X975000D01*
X981273Y112750D02*
X980727Y113500D01*
X979909Y113875*
X978818*
X978000Y113500*
X977455Y112750*
Y112000*
X977727Y111250*
X978000Y110875*
X978545Y110500*
X980182Y109750*
X980727Y109375*
X981000Y109000*
X981273Y108250*
Y107125*
X980727Y106375*
X979909Y106000*
X978818*
X978000Y106375*
X977455Y107125*
X1017818Y112750D02*
Y106000D01*
X1015364Y109375D02*
X1020273D01*
X1027636Y115375D02*
X1022727Y103375D01*
X1030091Y109375D02*
X1035000D01*
X1039091Y113875D02*
X1038273Y113500D01*
X1037727Y112375*
X1037455Y110500*
Y109375*
X1037727Y107500*
X1038273Y106375*
X1039091Y106000*
X1039636*
X1040455Y106375*
X1041000Y107500*
X1041273Y109375*
Y110500*
X1041000Y112375*
X1040455Y113500*
X1039636Y113875*
X1039091*
X1044000Y106750D02*
X1043727Y106375D01*
X1044000Y106000*
X1044273Y106375*
X1044000Y106750*
X1048364Y113875D02*
X1047545Y113500D01*
X1047000Y112375*
X1046727Y110500*
Y109375*
X1047000Y107500*
X1047545Y106375*
X1048364Y106000*
X1048909*
X1049727Y106375*
X1050273Y107500*
X1050545Y109375*
Y110500*
X1050273Y112375*
X1049727Y113500*
X1048909Y113875*
X1048364*
X0Y0D02*
M02*
