*
*
G04 PADS VX.2 Build Number: 5060570 generated Gerber (RS-274-X) file*
G04 PC Version=2.1*
*
%IN "Mercury-A1_connecter_V1"*%
*
%MOIN*%
*
%FSLAX35Y35*%
*
*
*
*
G04 PC Standard Apertures*
*
*
G04 Thermal Relief Aperture macro.*
%AMTER*
1,1,$1,0,0*
1,0,$1-$2,0,0*
21,0,$3,$4,0,0,45*
21,0,$3,$4,0,0,135*
%
*
*
G04 Annular Aperture macro.*
%AMANN*
1,1,$1,0,0*
1,0,$2,0,0*
%
*
*
G04 Odd Aperture macro.*
%AMODD*
1,1,$1,0,0*
1,0,$1-0.005,0,0*
%
*
*
G04 PC Custom Aperture Macros*
*
*
*
*
*
*
G04 PC Aperture Table*
*
%ADD010C,0.001*%
%ADD026C,0.01*%
%ADD033C,0.005*%
%ADD181C,0.00591*%
%ADD190C,0.00787*%
*
*
*
*
G04 PC Circuitry*
G04 Layer Name Mercury-A1_connecter_V1 - circuitry*
%LPD*%
*
G54D10*
G01X217798Y106782D02*
X217714Y106908D01*
X217128Y107201*
X216794Y107326*
X217076Y107139*
X217083Y107133*
X217281Y106935*
X217478Y106787*
X217490Y106775*
X217682Y106486*
X217760Y106447*
X217767*
X217798Y106509*
Y106782*
X217713Y142121D02*
X217550Y142316D01*
X217438Y142167*
X217398Y142147*
X217448Y142097*
Y140997*
X217398Y140947*
X217448Y140897*
Y139797*
X217398Y139747*
X217448Y139697*
Y138697*
X217398Y138647*
X217426Y138638*
X217639Y138496*
X217598Y138942*
Y138947*
Y142047*
X217632Y142094*
X217713Y142121*
X216811Y108881D02*
X216510Y109015D01*
X216548Y108754*
Y108747*
Y104897*
X216547Y104889*
X216513Y104686*
X216698Y104778*
Y107297*
X216740Y107347*
X216730Y107350*
X216698Y107397*
Y108747*
X216713Y108783*
X216811Y108881*
X216089Y105097D02*
X215895Y105324D01*
X215683Y105112*
X215648Y105097*
X215148*
X215098Y105147*
Y106247*
X215148Y106297*
X214848*
X214898Y106247*
Y105147*
X214848Y105097*
X216089*
X215974Y107494D02*
X215765Y107668D01*
X215693Y107525*
X215648Y107497*
X215698Y107447*
Y106347*
X215648Y106297*
X215698Y106247*
Y106117*
X215893Y106182*
X215848Y106541*
Y106547*
Y107347*
X215863Y107383*
X215974Y107494*
X216039Y108597D02*
X215845Y108824D01*
X215633Y108612*
X215598Y108597*
X214848*
X214898Y108547*
Y107547*
X214848Y107497*
X215098*
X215048Y107547*
Y108547*
X215098Y108597*
X216039*
X217398Y139747D02*
X216398D01*
X216448Y139697*
Y138697*
X216398Y138647*
X216648*
X216598Y138697*
Y139697*
X216648Y139747*
X217398*
X215898Y138647D02*
X215457D01*
X215651Y138420*
X215863Y138632*
X215898Y138647*
X217398Y142147D02*
X216348D01*
X216398Y142097*
Y140997*
X216348Y140947*
X216648*
X216598Y140997*
Y142097*
X216648Y142147*
X217398*
X215848Y140947D02*
X215798Y140997D01*
Y141127*
X215603Y141062*
X215648Y140703*
Y140697*
Y139897*
X215633Y139861*
X215522Y139750*
X215732Y139576*
X215803Y139719*
X215848Y139747*
X215798Y139797*
Y140897*
X215848Y140947*
Y142147D02*
X215407D01*
X215601Y141920*
X215813Y142132*
X215848Y142147*
X214986Y138229D02*
X214949Y138490D01*
X214948Y138497*
Y142347*
X214949Y142355*
X214983Y142558*
X214798Y142466*
Y139947*
X214756Y139897*
X214766Y139894*
X214798Y139847*
Y138497*
X214783Y138461*
X214685Y138363*
X214986Y138229*
X214098Y107497D02*
X214048Y107547D01*
Y108547*
X214098Y108597*
X214070Y108606*
X213857Y108748*
X213898Y108302*
Y108297*
Y105197*
X213864Y105150*
X213783Y105123*
X213946Y104928*
X214058Y105077*
X214098Y105097*
X214048Y105147*
Y106247*
X214098Y106297*
X214048Y106347*
Y107447*
X214098Y107497*
X214702Y139918D02*
X214420Y140105D01*
X214413Y140111*
X214215Y140309*
X214018Y140457*
X214006Y140469*
X213814Y140758*
X213736Y140797*
X213729*
X213698Y140735*
Y140462*
X213782Y140336*
X214368Y140043*
X214702Y139918*
X213700Y140459D02*
Y140739D01*
X213800Y105103D02*
Y105129D01*
Y140327D02*
Y140765D01*
X213900Y104983D02*
Y108719D01*
Y140277D02*
Y140629D01*
X214000Y105000D02*
Y108653D01*
Y140227D02*
Y140479D01*
X214100Y140177D02*
Y140395D01*
X214200Y140127D02*
Y140320D01*
X214300Y140077D02*
Y140224D01*
X214400Y140031D02*
Y140124D01*
X214500Y139993D02*
Y140052D01*
X214600Y139956D02*
Y139985D01*
X214700Y138356D02*
Y138378D01*
Y139918D02*
Y139919D01*
X214800Y138312D02*
Y142467D01*
X214900Y105097D02*
Y106297D01*
Y107497D02*
Y108597D01*
Y138267D02*
Y142517D01*
X215000Y105097D02*
Y106297D01*
Y107497D02*
Y108597D01*
X215100Y105097D02*
Y105133D01*
Y106261D02*
Y106297D01*
Y108597D02*
X215100D01*
X215200Y105097D02*
X215200D01*
Y108597D02*
X215200D01*
X215300Y105097D02*
X215300D01*
Y108597D02*
X215300D01*
X215400Y105097D02*
X215400D01*
Y108597D02*
X215400D01*
X215500Y105097D02*
X215500D01*
Y108597D02*
X215500D01*
Y138596D02*
Y138647D01*
Y142038D02*
Y142147D01*
X215600Y105097D02*
X215600D01*
Y108597D02*
X215600D01*
Y138480D02*
Y138647D01*
Y139685D02*
Y139828D01*
Y141921D02*
Y142147D01*
X215700Y105097D02*
Y105129D01*
Y106117D02*
Y107539D01*
Y108597D02*
Y108679D01*
Y138470D02*
Y138647D01*
Y139602D02*
Y141095D01*
Y142020D02*
Y142147D01*
X215800Y105097D02*
Y105229D01*
Y106151D02*
Y107639D01*
Y108597D02*
Y108779D01*
Y138570D02*
Y138647D01*
Y139713D02*
Y139783D01*
Y140911D02*
Y140983D01*
Y142120D02*
Y142147D01*
X215900Y105097D02*
Y105318D01*
Y107420D02*
Y107556D01*
Y108597D02*
Y108760D01*
X216000Y105097D02*
Y105201D01*
Y108597D02*
Y108643D01*
X216400Y138647D02*
X216400D01*
Y139747D02*
X216400D01*
Y140947D02*
Y142147D01*
X216500Y138647D02*
Y139747D01*
Y140947D02*
Y142147D01*
X216600Y104729D02*
Y108975D01*
Y138647D02*
Y138683D01*
Y139711D02*
Y139747D01*
Y140947D02*
Y140983D01*
Y142111D02*
Y142147D01*
X216700Y107311D02*
Y107383D01*
Y108761D02*
Y108931D01*
Y139747D02*
X216700D01*
Y142147D02*
X216700D01*
X216800Y107323D02*
Y107324D01*
Y108870D02*
Y108886D01*
Y139747D02*
X216800D01*
Y142147D02*
X216800D01*
X216900Y107256D02*
Y107287D01*
Y139747D02*
X216900D01*
Y142147D02*
X216900D01*
X217000Y107189D02*
Y107249D01*
Y139747D02*
X217000D01*
Y142147D02*
X217000D01*
X217100Y107116D02*
Y107212D01*
Y139747D02*
X217100D01*
Y142147D02*
X217100D01*
X217200Y107016D02*
Y107165D01*
Y139747D02*
X217200D01*
Y142147D02*
X217200D01*
X217300Y106921D02*
Y107115D01*
Y139747D02*
X217300D01*
Y142147D02*
X217300D01*
X217400Y106846D02*
Y107065D01*
Y138647D02*
X217400D01*
Y139747D02*
X217400D01*
Y140947D02*
X217400D01*
Y142147D02*
X217400D01*
X217500Y106759D02*
Y107015D01*
Y138589D02*
Y142249D01*
X217600Y106609D02*
Y106965D01*
Y138522D02*
Y138923D01*
Y142061D02*
Y142256D01*
X217700Y106477D02*
Y106915D01*
Y142117D02*
Y142136D01*
*
G04 PC Custom Flashes*
G04 Layer Name Mercury-A1_connecter_V1 - flashes*
%LPD*%
*
*
G04 PC Circuitry*
G04 Layer Name Mercury-A1_connecter_V1 - circuitry*
%LPD*%
*
G54D10*
X200000Y100000D02*
X231496D01*
Y147244*
X200000*
Y100000*
G54D26*
G54D33*
X212884Y115073D02*
Y112573D01*
X212771Y112105*
X212657Y111948*
X212430Y111792*
X212203*
X211975Y111948*
X211862Y112105*
X211748Y112573*
Y112886*
X214134Y115073D02*
X215384D01*
X214703Y113823*
X215043*
X215271Y113667*
X215384Y113511*
X215498Y113042*
Y112730*
X215384Y112261*
X215157Y111948*
X214816Y111792*
X214475*
X214134Y111948*
X214021Y112105*
X213907Y112417*
X218612Y132171D02*
Y134671D01*
X218725Y135139*
X218839Y135296*
X219066Y135452*
X219293*
X219521Y135296*
X219634Y135139*
X219748Y134671*
Y134358*
X216453Y132171D02*
X217589Y134358D01*
X215884*
X216453Y132171D02*
Y135452D01*
G54D181*
X223622Y118750D02*
X226378D01*
Y117569*
X229528*
Y112992*
X206299Y101181D02*
X225197D01*
X207874Y118750D02*
X205118D01*
Y117569*
X201969*
Y112992*
X207874Y128494D02*
X205118D01*
Y129675*
X201969*
Y134252*
X225197Y146063D02*
X206299D01*
X223622Y128494D02*
X226378D01*
Y129675*
X229528*
Y134252*
G54D190*
X205906Y120866D02*
G75*
G03X205906I-985J0D01*
G01X227559Y126378D02*
G03X227559I-984J0D01*
G74*
G01X0Y0D02*
M02*
