*
*
G04 PADS VX.2 Build Number: 5060570 generated Gerber (RS-274-X) file*
G04 PC Version=2.1*
*
%IN "Mercury-A1_connecter_V1"*%
*
%MOIN*%
*
%FSLAX35Y35*%
*
*
*
*
G04 PC Standard Apertures*
*
*
G04 Thermal Relief Aperture macro.*
%AMTER*
1,1,$1,0,0*
1,0,$1-$2,0,0*
21,0,$3,$4,0,0,45*
21,0,$3,$4,0,0,135*
%
*
*
G04 Annular Aperture macro.*
%AMANN*
1,1,$1,0,0*
1,0,$2,0,0*
%
*
*
G04 Odd Aperture macro.*
%AMODD*
1,1,$1,0,0*
1,0,$1-0.005,0,0*
%
*
*
G04 PC Custom Aperture Macros*
*
*
*
*
*
*
G04 PC Aperture Table*
*
%ADD010C,0.001*%
%ADD026C,0.01*%
%ADD033C,0.005*%
%ADD181C,0.00591*%
%ADD190C,0.00787*%
*
*
*
*
G04 PC Circuitry*
G04 Layer Name Mercury-A1_connecter_V1 - circuitry*
%LPD*%
*
G54D10*
G01X218182Y104394D02*
X218011Y104565D01*
X217999Y104585*
X217929Y104795*
X217926Y104811*
Y109800*
X217717Y109747*
X217445Y109543*
X217415Y109533*
X215730*
X215695Y109548*
X215300Y109943*
X215199Y109893*
X214994Y109688*
X214981Y109679*
X214715Y109546*
X214669Y109452*
X214699Y109422*
X216081*
X216131Y109372*
Y107899*
X216081Y107849*
X215660*
X215620Y107869*
X215412Y108147*
X215370Y108189*
X215264Y108136*
X215061Y108000*
X214819Y107758*
X214994Y107583*
X215009Y107548*
Y106156*
X215064Y106045*
X215255Y105981*
X215262Y105979*
X215370Y105924*
X215400Y105955*
Y106215*
X215450Y106265*
X216081*
X216131Y106215*
Y104530*
X216081Y104480*
X215590*
X215549Y104503*
X215275Y104913*
X215169Y104966*
X215058Y104910*
X214649Y104501*
X214588Y104378*
Y104370*
X217415*
X217459Y104342*
X217592Y104076*
X217692Y104027*
X217876Y104150*
X218182Y104394*
X217535Y106215D02*
Y104530D01*
X217485Y104480*
X216573*
X216523Y104530*
Y106215*
X216573Y106265*
X217485*
X217535Y106215*
Y107688D02*
Y106425D01*
X217485Y106375*
X215450*
X215400Y106425*
Y107688*
X215450Y107738*
X217485*
X217535Y107688*
Y109372D02*
Y107899D01*
X217485Y107849*
X216573*
X216523Y107899*
Y109372*
X216573Y109422*
X217485*
X217535Y109372*
X219432Y140609D02*
X219301Y141003D01*
X219183Y141120*
X219076*
X218958Y141061*
X218828Y140866*
X218549Y140169*
X218545Y140161*
X218053Y139389*
X217961Y139416*
Y143455*
X217853Y143509*
X217578Y143578*
X217574Y143579*
X217430Y143627*
Y137103*
X217712Y137216*
X217721Y137219*
X218057Y137286*
X218186Y137416*
X218212Y137429*
X218186Y137480*
X217995Y137544*
X217961Y137591*
Y139205*
X217983Y139247*
X218403Y139527*
X218957Y139942*
X219092Y140145*
X219099Y140153*
X219371Y140425*
X219432Y140609*
X214066Y110141D02*
X213784Y110028D01*
X213775Y110025*
X213439Y109958*
X213310Y109828*
X213285Y109815*
X213310Y109764*
X213501Y109701*
X213535Y109653*
Y108039*
X213513Y107997*
X213093Y107718*
X212539Y107302*
X212404Y107099*
X212397Y107091*
X212125Y106819*
X212064Y106636*
X212195Y106242*
X212313Y106124*
X212420*
X212538Y106183*
X212668Y106378*
X212947Y107075*
X212951Y107083*
X213443Y107855*
X213535Y107829*
Y103789*
X213643Y103735*
X213918Y103667*
X213922Y103665*
X214066Y103617*
Y110141*
X216909Y142874D02*
X214081D01*
X214037Y142902*
X213904Y143168*
X213804Y143217*
X213620Y143094*
X213314Y142850*
X213485Y142679*
X213497Y142659*
X213567Y142449*
X213570Y142433*
Y137444*
X213779Y137497*
X214051Y137701*
X214081Y137711*
X215766*
X215801Y137696*
X216196Y137301*
X216196D02*
X216297Y137351D01*
X216502Y137556*
X216515Y137566*
X216781Y137698*
X216828Y137792*
X216797Y137822*
X216797D02*
X215415D01*
X215365Y137872*
Y139345*
X215415Y139395*
X215836*
X215876Y139375*
X216084Y139097*
X216126Y139055*
X216232Y139108*
X216435Y139244*
X216677Y139486*
X216502Y139661*
X216488Y139696*
Y141088*
X216432Y141199*
X216241Y141263*
X216234Y141266*
X216126Y141320*
X216096Y141290*
Y141030*
X216046Y140980*
X215415*
X215365Y141030*
Y142714*
X215415Y142764*
X215906*
X215948Y142742*
X216221Y142332*
X216221D02*
X216327Y142278D01*
X216438Y142334*
X216847Y142743*
X216909Y142866*
Y142874*
X214973Y139345D02*
Y137872D01*
X214923Y137822*
X214011*
X213961Y137872*
Y139345*
X214011Y139395*
X214923*
X214973Y139345*
X216096Y140819D02*
Y139556D01*
X216046Y139506*
X214011*
X213961Y139556*
Y140819*
X214011Y140869*
X216046*
X216096Y140819*
X214973Y142714D02*
Y141030D01*
X214923Y140980*
X214011*
X213961Y141030*
Y142714*
X214011Y142764*
X214923*
X214973Y142714*
X212100Y106527D02*
Y106744D01*
X212200Y106237D02*
Y106894D01*
X212300Y106137D02*
Y106994D01*
X212400Y106124D02*
Y107094D01*
X212500Y106164D02*
Y107244D01*
X212600Y106276D02*
Y107348D01*
X212700Y106457D02*
Y107423D01*
X212800Y106707D02*
Y107498D01*
X212900Y106957D02*
Y107573D01*
X213000Y107160D02*
Y107648D01*
X213100Y107317D02*
Y107722D01*
X213200Y107474D02*
Y107789D01*
X213300Y107631D02*
Y107856D01*
Y109784D02*
Y109821D01*
X213400Y107788D02*
Y107922D01*
Y109734D02*
Y109919D01*
Y142764D02*
Y142919D01*
X213500Y107876D02*
Y107989D01*
Y109701D02*
Y109970D01*
Y142651D02*
Y142999D01*
X213600Y103757D02*
Y109990D01*
Y137452D02*
Y143079D01*
X213700Y103721D02*
Y110010D01*
Y137477D02*
Y143148D01*
X213800Y103696D02*
Y110034D01*
Y137513D02*
Y143215D01*
X213900Y103671D02*
Y110074D01*
Y137588D02*
Y143170D01*
X214000Y103639D02*
Y110114D01*
Y137663D02*
Y137823D01*
Y139394D02*
Y139507D01*
Y140868D02*
Y140981D01*
Y142763D02*
Y142975D01*
X214100Y137711D02*
Y137822D01*
Y139395D02*
Y139506D01*
Y140869D02*
Y140980D01*
Y142764D02*
Y142874D01*
X214200Y137711D02*
Y137822D01*
Y139395D02*
Y139506D01*
Y140869D02*
Y140980D01*
Y142764D02*
Y142874D01*
X214300Y137711D02*
Y137822D01*
Y139395D02*
Y139506D01*
Y140869D02*
Y140980D01*
Y142764D02*
Y142874D01*
X214400Y137711D02*
Y137822D01*
Y139395D02*
Y139506D01*
Y140869D02*
Y140980D01*
Y142764D02*
Y142874D01*
X214500Y137711D02*
Y137822D01*
Y139395D02*
Y139506D01*
Y140869D02*
Y140980D01*
Y142764D02*
Y142874D01*
X214600Y104370D02*
Y104403D01*
Y137711D02*
Y137822D01*
Y139395D02*
Y139506D01*
Y140869D02*
Y140980D01*
Y142764D02*
Y142874D01*
X214700Y104370D02*
Y104552D01*
Y109422D02*
Y109515D01*
Y137711D02*
Y137822D01*
Y139395D02*
Y139506D01*
Y140869D02*
Y140980D01*
Y142764D02*
Y142874D01*
X214800Y104370D02*
Y104652D01*
Y109422D02*
Y109588D01*
Y137711D02*
Y137822D01*
Y139395D02*
Y139506D01*
Y140869D02*
Y140980D01*
Y142764D02*
Y142874D01*
X214900Y104370D02*
Y104752D01*
Y107677D02*
Y107840D01*
Y109422D02*
Y109638D01*
Y137711D02*
Y137822D01*
Y139395D02*
Y139506D01*
Y140869D02*
Y140980D01*
Y142764D02*
Y142874D01*
X215000Y104370D02*
Y104852D01*
Y107576D02*
Y107940D01*
Y109422D02*
Y109694D01*
Y137711D02*
Y139506D01*
Y140869D02*
Y142874D01*
X215100Y104370D02*
Y104931D01*
Y106033D02*
Y108027D01*
Y109422D02*
Y109794D01*
Y137711D02*
Y139506D01*
Y140869D02*
Y142874D01*
X215200Y104370D02*
Y104950D01*
Y106000D02*
Y108093D01*
Y109422D02*
Y109893D01*
Y137711D02*
Y139506D01*
Y140869D02*
Y142874D01*
X215300Y104370D02*
Y104875D01*
Y105959D02*
Y108154D01*
Y109422D02*
Y109943D01*
Y137711D02*
Y139506D01*
Y140869D02*
Y142874D01*
X215400Y104370D02*
Y104725D01*
Y106219D02*
Y106420D01*
Y107693D02*
Y108159D01*
Y109422D02*
Y109843D01*
Y137711D02*
Y137824D01*
Y139393D02*
Y139506D01*
Y140869D02*
Y140982D01*
Y142762D02*
Y142874D01*
X215500Y104370D02*
Y104575D01*
Y106265D02*
Y106375D01*
Y107738D02*
Y108029D01*
Y109422D02*
Y109743D01*
Y137711D02*
Y137822D01*
Y139395D02*
Y139506D01*
Y140869D02*
Y140980D01*
Y142764D02*
Y142874D01*
X215600Y104370D02*
Y104480D01*
Y106265D02*
Y106375D01*
Y107738D02*
Y107896D01*
Y109422D02*
Y109643D01*
Y137711D02*
Y137822D01*
Y139395D02*
Y139506D01*
Y140869D02*
Y140980D01*
Y142764D02*
Y142874D01*
X215700Y104370D02*
Y104480D01*
Y106265D02*
Y106375D01*
Y107738D02*
Y107849D01*
Y109422D02*
Y109543D01*
Y137711D02*
Y137822D01*
Y139395D02*
Y139506D01*
Y140869D02*
Y140980D01*
Y142764D02*
Y142874D01*
X215800Y104370D02*
Y104480D01*
Y106265D02*
Y106375D01*
Y107738D02*
Y107849D01*
Y109422D02*
Y109533D01*
Y137697D02*
Y137822D01*
Y139395D02*
Y139506D01*
Y140869D02*
Y140980D01*
Y142764D02*
Y142874D01*
X215900Y104370D02*
Y104480D01*
Y106265D02*
Y106375D01*
Y107738D02*
Y107849D01*
Y109422D02*
Y109533D01*
Y137597D02*
Y137822D01*
Y139343D02*
Y139506D01*
Y140869D02*
Y140980D01*
Y142764D02*
Y142874D01*
X216000Y104370D02*
Y104480D01*
Y106265D02*
Y106375D01*
Y107738D02*
Y107849D01*
Y109422D02*
Y109533D01*
Y137497D02*
Y137822D01*
Y139210D02*
Y139506D01*
Y140869D02*
Y140980D01*
Y142663D02*
Y142874D01*
X216100Y104370D02*
Y104484D01*
Y106261D02*
Y106375D01*
Y107738D02*
Y107852D01*
Y109419D02*
Y109533D01*
Y137397D02*
Y137822D01*
Y139082D02*
Y141293D01*
Y142513D02*
Y142874D01*
X216200Y104370D02*
Y106375D01*
Y107738D02*
Y109533D01*
Y137303D02*
Y137822D01*
Y139092D02*
Y141283D01*
Y142363D02*
Y142874D01*
X216300Y104370D02*
Y106375D01*
Y107738D02*
Y109533D01*
Y137354D02*
Y137822D01*
Y139154D02*
Y141243D01*
Y142292D02*
Y142874D01*
X216400Y104370D02*
Y106375D01*
Y107738D02*
Y109533D01*
Y137454D02*
Y137822D01*
Y139220D02*
Y141210D01*
Y142315D02*
Y142874D01*
X216500Y104370D02*
Y106375D01*
Y107738D02*
Y109533D01*
Y137554D02*
Y137822D01*
Y139308D02*
Y139663D01*
Y142396D02*
Y142874D01*
X216600Y104370D02*
Y104480D01*
Y106265D02*
Y106375D01*
Y107738D02*
Y107849D01*
Y109422D02*
Y109533D01*
Y137608D02*
Y137822D01*
Y139408D02*
Y139563D01*
Y142496D02*
Y142874D01*
X216700Y104370D02*
Y104480D01*
Y106265D02*
Y106375D01*
Y107738D02*
Y107849D01*
Y109422D02*
Y109533D01*
Y137658D02*
Y137822D01*
Y142596D02*
Y142874D01*
X216800Y104370D02*
Y104480D01*
Y106265D02*
Y106375D01*
Y107738D02*
Y107849D01*
Y109422D02*
Y109533D01*
Y137737D02*
Y137819D01*
Y142696D02*
Y142874D01*
X216900Y104370D02*
Y104480D01*
Y106265D02*
Y106375D01*
Y107738D02*
Y107849D01*
Y109422D02*
Y109533D01*
Y142849D02*
Y142874D01*
X217000Y104370D02*
Y104480D01*
Y106265D02*
Y106375D01*
Y107738D02*
Y107849D01*
Y109422D02*
Y109533D01*
X217100Y104370D02*
Y104480D01*
Y106265D02*
Y106375D01*
Y107738D02*
Y107849D01*
Y109422D02*
Y109533D01*
X217200Y104370D02*
Y104480D01*
Y106265D02*
Y106375D01*
Y107738D02*
Y107849D01*
Y109422D02*
Y109533D01*
X217300Y104370D02*
Y104480D01*
Y106265D02*
Y106375D01*
Y107738D02*
Y107849D01*
Y109422D02*
Y109533D01*
X217400Y104370D02*
Y104480D01*
Y106265D02*
Y106375D01*
Y107738D02*
Y107849D01*
Y109422D02*
Y109533D01*
X217500Y104261D02*
Y104483D01*
Y106262D02*
Y106377D01*
Y107736D02*
Y107851D01*
Y109420D02*
Y109584D01*
Y137132D02*
Y143603D01*
X217600Y104073D02*
Y109659D01*
Y137172D02*
Y143572D01*
X217700Y104032D02*
Y109734D01*
Y137212D02*
Y143547D01*
X217800Y104099D02*
Y109768D01*
Y137235D02*
Y143522D01*
X217900Y104169D02*
Y109793D01*
Y137255D02*
Y143485D01*
X218000Y104249D02*
Y104582D01*
Y137275D02*
Y137542D01*
Y139258D02*
Y139367D01*
X218100Y104329D02*
Y104476D01*
Y137329D02*
Y137509D01*
Y139324D02*
Y139462D01*
X218200Y137425D02*
Y137452D01*
Y139391D02*
Y139619D01*
X218300Y139458D02*
Y139776D01*
X218400Y139524D02*
Y139933D01*
X218500Y139599D02*
Y140091D01*
X218600Y139674D02*
Y140297D01*
X218700Y139749D02*
Y140547D01*
X218800Y139824D02*
Y140797D01*
X218900Y139899D02*
Y140974D01*
X219000Y140006D02*
Y141082D01*
X219100Y140154D02*
Y141120D01*
X219200Y140254D02*
Y141103D01*
X219300Y140354D02*
Y141003D01*
X219400Y140512D02*
Y140705D01*
*
G04 PC Custom Flashes*
G04 Layer Name Mercury-A1_connecter_V1 - flashes*
%LPD*%
*
*
G04 PC Circuitry*
G04 Layer Name Mercury-A1_connecter_V1 - circuitry*
%LPD*%
*
G54D10*
X200000Y100000D02*
X231496D01*
Y147244*
X200000*
Y100000*
G54D26*
G54D33*
X218612Y113892D02*
Y111392D01*
X218725Y110924*
X218839Y110767*
X219066Y110611*
X219293*
X219521Y110767*
X219634Y110924*
X219748Y111392*
Y111705*
X217475Y113111D02*
Y113267D01*
X217362Y113580*
X217248Y113736*
X217021Y113892*
X216566*
X216339Y113736*
X216225Y113580*
X216112Y113267*
Y112955*
X216225Y112642*
X216453Y112174*
X217589Y110611*
X215998*
X212884Y133352D02*
Y135852D01*
X212771Y136321*
X212657Y136477*
X212430Y136633*
X212203*
X211975Y136477*
X211862Y136321*
X211748Y135852*
Y135539*
X213907Y133977D02*
X214134Y133821D01*
X214475Y133352*
Y136633*
G54D181*
X208268Y117569D02*
X207087D01*
Y116388*
X203937*
Y107874*
X224016Y102362D02*
X207480D01*
X223228Y117569D02*
X224409D01*
Y116388*
X227559*
Y107874*
X223228Y129675D02*
X224409D01*
Y130856*
X227559*
Y139370*
X207480Y144882D02*
X224016D01*
X208268Y129675D02*
X207087D01*
Y130856*
X203937*
Y139370*
G54D190*
X225591Y119685D02*
G75*
G03X225591I-985J0D01*
G01X207874Y127559D02*
G03X207874I-984J0D01*
G74*
G01X0Y0D02*
M02*
