*
*
G04 PADS VX.2 Build Number: 5060570 generated Gerber (RS-274-X) file*
G04 PC Version=2.1*
*
%IN "Mercury-A1_connecter_V1"*%
*
%MOIN*%
*
%FSLAX35Y35*%
*
*
*
*
G04 PC Standard Apertures*
*
*
G04 Thermal Relief Aperture macro.*
%AMTER*
1,1,$1,0,0*
1,0,$1-$2,0,0*
21,0,$3,$4,0,0,45*
21,0,$3,$4,0,0,135*
%
*
*
G04 Annular Aperture macro.*
%AMANN*
1,1,$1,0,0*
1,0,$2,0,0*
%
*
*
G04 Odd Aperture macro.*
%AMODD*
1,1,$1,0,0*
1,0,$1-0.005,0,0*
%
*
*
G04 PC Custom Aperture Macros*
*
*
*
*
*
*
G04 PC Aperture Table*
*
%ADD010C,0.001*%
%ADD026C,0.01*%
%ADD126C,0.012*%
%ADD212C,0.01969*%
%ADD213R,0.02362X0.06693*%
%ADD214R,0.05118X0.11811*%
*
*
*
*
G04 PC Circuitry*
G04 Layer Name Mercury-A1_connecter_V1 - circuitry*
%LPD*%
*
*
G04 PC Custom Flashes*
G04 Layer Name Mercury-A1_connecter_V1 - flashes*
%LPD*%
*
*
G04 PC Circuitry*
G04 Layer Name Mercury-A1_connecter_V1 - circuitry*
%LPD*%
*
G54D10*
G01X200000Y100000D02*
X231496D01*
Y147244*
X200000*
Y100000*
G54D26*
X230396Y133046D02*
G75*
G03X229896Y133546I-500J-0D01*
G01X227038*
G03X226538Y133046I-0J-500*
X226541Y132992I500J-0*
G01X226550Y132809D02*
G03X226541Y132992I-1700J0D01*
G01X226550Y132809D02*
Y114702D01*
X226505Y114313D02*
G03X226550Y114702I-1655J389D01*
G01X226505Y114313D02*
G03X226492Y114198I487J-115D01*
X226992Y113698I500J0*
G01X229896*
G03X230396Y114198I0J500*
G01Y133046*
X224687Y145644D02*
G03X224187Y146144I-500J0D01*
G01X207309*
G03X206809Y145644I-0J-500*
G01Y134646*
X205709Y133546D02*
G03X206809Y134646I-0J1100D01*
G01X205709Y133546D02*
X201600D01*
G03X201100Y133046I0J-500*
G01Y114198*
G03X201600Y113698I500J0*
G01X205709*
X206809Y112598D02*
G03X205709Y113698I-1100J0D01*
G01X206809Y112598D02*
Y101600D01*
G03X207309Y101100I500J0*
G01X224187*
G03X224687Y101600I0J500*
G01Y110928*
G03X223834Y111281I-500J-0*
G01X223566Y111014*
X222364Y110516D02*
G03X223566Y111014I-0J1700D01*
G01X222364Y110516D02*
X216584D01*
X215382Y111014D02*
G03X216584Y110516I1202J1202D01*
G01X215382Y111014D02*
X214557Y111839D01*
G03X214319Y111972I-354J-353*
G01X212716Y114000D02*
G03X214319Y111972I2084J0D01*
G01X212736Y114292D02*
G03X212716Y114000I2064J-292D01*
G01X212736Y114292D02*
G03X212741Y114362I-495J70D01*
X212168Y114857I-500J-0*
G01X212008Y114845D02*
G03X212168Y114857I-0J1100D01*
G01X212008Y114845D02*
X209646D01*
X208546Y115945D02*
G03X209646Y114845I1100J-0D01*
G01X208546Y115945D02*
Y121127D01*
G03X208399Y121480I-500J-0*
G01X207244Y122636*
X206746Y123838D02*
G03X207244Y122636I1700J-0D01*
G01X206746Y123838D02*
Y131796D01*
X207244Y132998D02*
G03X206746Y131796I1202J-1202D01*
G01X207244Y132998D02*
X209847Y135602D01*
X211049Y136100D02*
G03X209847Y135602I0J-1700D01*
G01X211049Y136100D02*
X211823D01*
G03X212323Y136600I0J500*
G01X212323*
G03X212322Y136639I-500J0*
G01X212316Y136800D02*
G03X212322Y136639I2084J-0D01*
G01X212316Y136800D02*
X212316D01*
X213336Y138592D02*
G03X212316Y136800I1064J-1792D01*
G01X213336Y138592D02*
G03X213581Y139022I-255J430D01*
X213568Y139134I-500J0*
G01X213516Y139600D02*
G03X213568Y139134I2084J0D01*
G01X216694Y141374D02*
G03X213516Y139600I-1094J-1774D01*
G01X216694Y141374D02*
G03X216956Y141300I262J426D01*
G01X218060*
X219262Y140802D02*
G03X218060Y141300I-1202J-1202D01*
G01X219262Y140802D02*
X223834Y136230D01*
G03X224687Y136584I353J354*
G01Y145644*
X226550Y132597D02*
X230396D01*
X226550Y131697D02*
X230396D01*
X226550Y130797D02*
X230396D01*
X226550Y129897D02*
X230396D01*
X226550Y128997D02*
X230396D01*
X226550Y128097D02*
X230396D01*
X226550Y127197D02*
X230396D01*
X226550Y126297D02*
X230396D01*
X226550Y125397D02*
X230396D01*
X226550Y124497D02*
X230396D01*
X226550Y123597D02*
X230396D01*
X226550Y122697D02*
X230396D01*
X226550Y121797D02*
X230396D01*
X226550Y120897D02*
X230396D01*
X226550Y119997D02*
X230396D01*
X226550Y119097D02*
X230396D01*
X226550Y118197D02*
X230396D01*
X226550Y117297D02*
X230396D01*
X226550Y116397D02*
X230396D01*
X226550Y115497D02*
X230396D01*
X226547Y114597D02*
X230396D01*
X226823Y133497D02*
X230111D01*
X206809Y145197D02*
X224687D01*
X206809Y144297D02*
X224687D01*
X206809Y143397D02*
X224687D01*
X206809Y142497D02*
X224687D01*
X216196Y141597D02*
X224687D01*
X219367Y140697D02*
X224687D01*
X220267Y139797D02*
X224687D01*
X221167Y138897D02*
X224687D01*
X222067Y137997D02*
X224687D01*
X222967Y137097D02*
X224687D01*
X206809Y110097D02*
X224687D01*
X206809Y109197D02*
X224687D01*
X206809Y108297D02*
X224687D01*
X206809Y107397D02*
X224687D01*
X206809Y106497D02*
X224687D01*
X206809Y105597D02*
X224687D01*
X206809Y104697D02*
X224687D01*
X206809Y103797D02*
X224687D01*
X206809Y102897D02*
X224687D01*
X206809Y101997D02*
X224687D01*
X223549Y110997D02*
X224683D01*
X223870Y136197D02*
X224505D01*
X207097Y146097D02*
X224399D01*
X206809Y110997D02*
X215399D01*
X206809Y141597D02*
X215004D01*
X206809Y111897D02*
X214487D01*
X206809Y140697D02*
X213828D01*
X206809Y138897D02*
X213565D01*
X206809Y139797D02*
X213525D01*
X206791Y112797D02*
X213098D01*
X205762Y113697D02*
X212738D01*
X206809Y137997D02*
X212694D01*
X201100Y114597D02*
X212682D01*
X206809Y137097D02*
X212337D01*
X206809Y136197D02*
X212120D01*
X206809Y135297D02*
X209542D01*
X206780Y134397D02*
X208642D01*
X201100Y115497D02*
X208641D01*
X201100Y120897D02*
X208546D01*
X201100Y119997D02*
X208546D01*
X201100Y119097D02*
X208546D01*
X201100Y118197D02*
X208546D01*
X201100Y117297D02*
X208546D01*
X201100Y116397D02*
X208546D01*
X201100Y121797D02*
X208082D01*
X201385Y133497D02*
X207742D01*
X201100Y122697D02*
X207185D01*
X201100Y132597D02*
X206946D01*
X201100Y123597D02*
X206763D01*
X201100Y131697D02*
X206746D01*
X201100Y130797D02*
X206746D01*
X201100Y129897D02*
X206746D01*
X201100Y128997D02*
X206746D01*
X201100Y128097D02*
X206746D01*
X201100Y127197D02*
X206746D01*
X201100Y126297D02*
X206746D01*
X201100Y125397D02*
X206746D01*
X201100Y124497D02*
X206746D01*
G54D126*
X214800Y114000D02*
X216584Y112216D01*
X222364*
X224850Y114702*
X217600Y114400D02*
X222003D01*
X223050Y115448*
X215748Y119291D02*
Y127953D01*
X208446Y131796D02*
Y123838D01*
X210827Y121457*
Y119291*
X208446Y131796D02*
X211049Y134400D01*
X218169*
X220669Y131899*
Y127953*
X210827D02*
Y130118D01*
X213208Y132499*
X217426*
X218209Y131717*
Y123917*
X220669Y121457*
Y119291*
X215600Y139600D02*
X218060D01*
X224850Y132809*
Y114702*
X214400Y136800D02*
X218314D01*
X223050Y132064*
Y115448*
G54D212*
X208800Y104400D03*
X214800Y114000D03*
X222800Y104400D03*
X217600Y114400D03*
X229600D03*
X227200Y120000D03*
X206000Y127600D03*
X208800Y143200D03*
X215600Y139600D03*
X214400Y136800D03*
X222800Y143200D03*
G54D213*
X210827Y119291D03*
X215748D03*
X220669D03*
Y127953D03*
X215748D03*
X210827D03*
G54D214*
X228346Y106693D03*
X203150D03*
Y140551D03*
X228346D03*
G74*
X0Y0D02*
M02*
