%TF.GenerationSoftware,KiCad,Pcbnew,8.99.0-344-gfbc433deaa-dirty*%
%TF.CreationDate,2024-03-11T18:46:12+01:00*%
%TF.ProjectId,kit-dev-coldfire-xilinx_5213,6b69742d-6465-4762-9d63-6f6c64666972,2*%
%TF.SameCoordinates,Original*%
%TF.FileFunction,Plated,1,4,PTH,Mixed*%
%TF.FilePolarity,Positive*%
%FSLAX46Y46*%
G04 Gerber Fmt 4.6, Leading zero omitted, Abs format (unit mm)*
G04 Created by KiCad (PCBNEW 8.99.0-344-gfbc433deaa-dirty) date 2024-03-11 18:46:12*
%MOMM*%
%LPD*%
G01*
G04 APERTURE LIST*
%TA.AperFunction,ViaDrill*%
%ADD10C,0.400000*%
%TD*%
%TA.AperFunction,ComponentDrill*%
%ADD11C,0.750000*%
%TD*%
%TA.AperFunction,ComponentDrill*%
%ADD12C,0.800000*%
%TD*%
%TA.AperFunction,ComponentDrill*%
%ADD13C,0.812800*%
%TD*%
%TA.AperFunction,ComponentDrill*%
%ADD14C,1.000000*%
%TD*%
G04 aperture for slot hole*
%TA.AperFunction,ComponentDrill*%
%ADD15C,1.016000*%
%TD*%
%TA.AperFunction,ComponentDrill*%
%ADD16C,1.200000*%
%TD*%
G04 aperture for slot hole*
%TA.AperFunction,ComponentDrill*%
%ADD17C,1.200000*%
%TD*%
%TA.AperFunction,ComponentDrill*%
%ADD18C,1.500000*%
%TD*%
%TA.AperFunction,ComponentDrill*%
%ADD19C,1.600000*%
%TD*%
%TA.AperFunction,ComponentDrill*%
%ADD20C,3.200000*%
%TD*%
G04 APERTURE END LIST*
D10*
X80264000Y-108585000D03*
X81788000Y-108585000D03*
X83312000Y-115316000D03*
X83820000Y-108585000D03*
X84582000Y-102235000D03*
X84836000Y-108585000D03*
X85090000Y-119126000D03*
X86741000Y-131241000D03*
X87630000Y-112141000D03*
X95758000Y-115062000D03*
X95758000Y-117602000D03*
X97155000Y-88500000D03*
X97282000Y-90043000D03*
X97409000Y-112141000D03*
X98298000Y-100584000D03*
X100838000Y-113030000D03*
X100965000Y-139827000D03*
X101092000Y-115062000D03*
X101092000Y-118872000D03*
X102870000Y-100711000D03*
X103000000Y-85500000D03*
X103000000Y-95000000D03*
X103378000Y-112522000D03*
X104000000Y-75500000D03*
X104013000Y-100711000D03*
X104013000Y-101600000D03*
X104013000Y-102489000D03*
X104013000Y-103378000D03*
X106680000Y-90424000D03*
X107823000Y-83185000D03*
X111252000Y-83820000D03*
X112014000Y-71628000D03*
X116500000Y-70500000D03*
X117729000Y-75184000D03*
X117729000Y-116332000D03*
X118872000Y-105029000D03*
X120269000Y-85598000D03*
X121158000Y-102616000D03*
X121666000Y-98425000D03*
X121793000Y-85598000D03*
X122174000Y-93980000D03*
X122428000Y-115316000D03*
X122936000Y-90043000D03*
X123063000Y-93980000D03*
X123190000Y-85598000D03*
X123444000Y-105283000D03*
X123571000Y-99060000D03*
X123571000Y-110363000D03*
X123952000Y-93980000D03*
X124587000Y-85852000D03*
X124841000Y-93980000D03*
X125222000Y-71247000D03*
X125222000Y-74676000D03*
X125476000Y-92964000D03*
X127000000Y-76000000D03*
X128397000Y-113665000D03*
X129032000Y-89789000D03*
X129159000Y-95250000D03*
X129159000Y-99060000D03*
X129159000Y-112014000D03*
X129540000Y-105410000D03*
X129540000Y-106299000D03*
X130048000Y-95250000D03*
X130048000Y-107188000D03*
X130429000Y-104902000D03*
X130937000Y-89916000D03*
X130937000Y-95250000D03*
X131064000Y-106426000D03*
X131318000Y-104902000D03*
X131572000Y-71247000D03*
X131699000Y-82804000D03*
X131699000Y-102870000D03*
X131826000Y-96393000D03*
X132080000Y-91313000D03*
X132461000Y-92075000D03*
X132588000Y-95250000D03*
X132588000Y-102870000D03*
X132715000Y-75438000D03*
X132715000Y-135001000D03*
X133350000Y-96012000D03*
X133604000Y-135001000D03*
X133731000Y-89535000D03*
X133985000Y-104267000D03*
X134112000Y-97028000D03*
X134112000Y-105156000D03*
X134112000Y-106045000D03*
X134112000Y-106934000D03*
X134239000Y-110871000D03*
X134366000Y-82550000D03*
X134493000Y-135001000D03*
X134747000Y-85217000D03*
X135001000Y-106934000D03*
X135128000Y-110871000D03*
X135382000Y-135001000D03*
X135636000Y-88646000D03*
X135700000Y-105600000D03*
X135890000Y-96139000D03*
X136017000Y-85344000D03*
X136271000Y-97282000D03*
X136271000Y-135001000D03*
X136525000Y-88646000D03*
X136652000Y-120396000D03*
X136906000Y-105918000D03*
X137160000Y-85344000D03*
X137160000Y-135001000D03*
X137287000Y-113538000D03*
X138049000Y-135001000D03*
X138176000Y-85598000D03*
X138700000Y-106500000D03*
X138800000Y-113200000D03*
X138811000Y-96266000D03*
X138811000Y-98933000D03*
X138938000Y-135001000D03*
X139065000Y-85598000D03*
X139065000Y-107442000D03*
X139446000Y-116205000D03*
X139827000Y-102743000D03*
X139954000Y-85598000D03*
X140208000Y-82169000D03*
X140335000Y-96139000D03*
X140970000Y-101854000D03*
X140970000Y-103124000D03*
X141478000Y-82423000D03*
X141478000Y-105283000D03*
X141478000Y-106426000D03*
X141605000Y-89027000D03*
X141605000Y-96266000D03*
X142240000Y-108839000D03*
X142621000Y-116205000D03*
X143100000Y-94000000D03*
X145415000Y-112903000D03*
X146558000Y-106680000D03*
X146558000Y-107950000D03*
X146685000Y-109855000D03*
X146812000Y-98679000D03*
X146812000Y-100076000D03*
X146812000Y-103886000D03*
X146812000Y-105410000D03*
X147574000Y-95250000D03*
X148463000Y-95250000D03*
X148500000Y-118000000D03*
X148844000Y-84836000D03*
X149352000Y-95250000D03*
X149860000Y-84201000D03*
X150495000Y-95250000D03*
X150495000Y-96393000D03*
X150495000Y-97282000D03*
X150495000Y-98171000D03*
X150495000Y-99060000D03*
X150622000Y-88900000D03*
X150876000Y-75311000D03*
X151511000Y-83947000D03*
X151750000Y-118000000D03*
X152400000Y-84836000D03*
X153035000Y-88392000D03*
X153035000Y-92710000D03*
X154432000Y-91948000D03*
X154813000Y-87757000D03*
X155829000Y-88138000D03*
X157099000Y-89662000D03*
X157099000Y-90551000D03*
X157226000Y-87884000D03*
X157734000Y-97536000D03*
X158242000Y-74676000D03*
X159253000Y-71247000D03*
X159512000Y-115697000D03*
X161163000Y-92329000D03*
X162306000Y-106807000D03*
X163068000Y-75311000D03*
X163322000Y-93472000D03*
X163449000Y-100330000D03*
X164592000Y-71247000D03*
X166751000Y-105791000D03*
X168275000Y-115062000D03*
X172466000Y-92964000D03*
X174625000Y-106045000D03*
X174752000Y-89408000D03*
X177038000Y-89408000D03*
X177165000Y-77089000D03*
X178054000Y-105664000D03*
X178054000Y-110363000D03*
X178070000Y-87170000D03*
X178308000Y-88773000D03*
X178689000Y-118872000D03*
X179197000Y-86487000D03*
X179197000Y-93726000D03*
X179705000Y-92202000D03*
X179705000Y-102870000D03*
X179959000Y-91059000D03*
X180721000Y-111457740D03*
X181610000Y-104013000D03*
X181610000Y-104902000D03*
X181610000Y-107569000D03*
X181610000Y-108458000D03*
X181610000Y-109347000D03*
X181610000Y-110236000D03*
X181610000Y-118999000D03*
X181991000Y-90170000D03*
X184531000Y-118872000D03*
X187500000Y-76000000D03*
X188374020Y-108021120D03*
X188798200Y-105321100D03*
X189156340Y-116509800D03*
X189438280Y-110502700D03*
X190047880Y-101206300D03*
X191008000Y-73025000D03*
X191152780Y-96906080D03*
X192000000Y-76500000D03*
X192333880Y-123845320D03*
X193126360Y-108455460D03*
X193167000Y-113538000D03*
X193294000Y-105410000D03*
X193675000Y-109855000D03*
X193903600Y-107111800D03*
X193929000Y-83947000D03*
X194678300Y-99253040D03*
X194691000Y-73406000D03*
X194691000Y-125222000D03*
X197104000Y-98679000D03*
X199009000Y-102976680D03*
X199174100Y-124272040D03*
X199390000Y-96139000D03*
X199644000Y-97536000D03*
X200660000Y-120269000D03*
X202481180Y-102997000D03*
X203454000Y-98673920D03*
X203794360Y-124617480D03*
X204144880Y-116954300D03*
X204216000Y-120777000D03*
X204566520Y-85211920D03*
X205613000Y-120777000D03*
X205661260Y-78740000D03*
X206502000Y-126238000D03*
X206834740Y-109987080D03*
X207619600Y-102565200D03*
X209166460Y-124264420D03*
X209379820Y-113860580D03*
X209677000Y-98694240D03*
X209732880Y-118094760D03*
X209748120Y-112008920D03*
X210073240Y-125275340D03*
X210431380Y-103477060D03*
X210820000Y-109982000D03*
X210947000Y-113538000D03*
X211074000Y-107442000D03*
X211414360Y-102567740D03*
X212194140Y-80645000D03*
X212237320Y-76248260D03*
X214454740Y-110502700D03*
X214914480Y-108005880D03*
X216689940Y-115280440D03*
X218500000Y-70500000D03*
X220002100Y-115755420D03*
D11*
%TO.C,LV101*%
X186690000Y-89408000D03*
X187960000Y-88138000D03*
X189230000Y-89408000D03*
D12*
%TO.C,C212*%
X88900000Y-82630000D03*
X88900000Y-87630000D03*
%TO.C,C215*%
X88900000Y-95330000D03*
X88900000Y-100330000D03*
%TO.C,Y101*%
X123444000Y-120777000D03*
X123444000Y-125677000D03*
%TO.C,R302*%
X207010000Y-134620000D03*
X217170000Y-134620000D03*
D13*
%TO.C,RST_SW101*%
X168529000Y-87249000D03*
X168529000Y-92329000D03*
%TO.C,ABRT_SW101*%
X168529000Y-97790000D03*
X168529000Y-102870000D03*
%TO.C,SW201*%
X168529000Y-108077000D03*
X168529000Y-113157000D03*
%TO.C,SW202*%
X168656000Y-119761000D03*
X168656000Y-124841000D03*
%TO.C,RST_SW101*%
X176149000Y-87249000D03*
X176149000Y-92329000D03*
%TO.C,ABRT_SW101*%
X176149000Y-97790000D03*
X176149000Y-102870000D03*
%TO.C,SW201*%
X176149000Y-108077000D03*
X176149000Y-113157000D03*
%TO.C,SW202*%
X176276000Y-119761000D03*
X176276000Y-124841000D03*
D14*
%TO.C,BDM_PORT101*%
X76327000Y-106299000D03*
X76327000Y-108839000D03*
X76327000Y-111379000D03*
X76327000Y-113919000D03*
X76327000Y-116459000D03*
X76327000Y-118999000D03*
X76327000Y-121539000D03*
X76327000Y-124079000D03*
X76327000Y-126619000D03*
X76327000Y-129159000D03*
X76327000Y-131699000D03*
X76327000Y-134239000D03*
X76327000Y-136779000D03*
X78867000Y-106299000D03*
X78867000Y-108839000D03*
X78867000Y-111379000D03*
X78867000Y-113919000D03*
X78867000Y-116459000D03*
X78867000Y-118999000D03*
X78867000Y-121539000D03*
X78867000Y-124079000D03*
X78867000Y-126619000D03*
X78867000Y-129159000D03*
X78867000Y-131699000D03*
X78867000Y-134239000D03*
X78867000Y-136779000D03*
%TO.C,CLKOUT101*%
X83439000Y-134239000D03*
%TO.C,TA-101*%
X83439000Y-138557000D03*
%TO.C,CT101*%
X88900000Y-134620000D03*
%TO.C,GND101*%
X89535000Y-140970000D03*
%TO.C,JP201*%
X90500000Y-113000000D03*
%TO.C,CT101*%
X91440000Y-134620000D03*
%TO.C,JP201*%
X93040000Y-113000000D03*
%TO.C,VREF201*%
X95000000Y-86500000D03*
%TO.C,CAN_TERM201*%
X96647000Y-93218000D03*
X96647000Y-95758000D03*
%TO.C,RS201*%
X100457000Y-95758000D03*
%TO.C,COM_SEL201*%
X107000000Y-73533000D03*
X107000000Y-76073000D03*
X107000000Y-78613000D03*
%TO.C,COM_SEL202*%
X110744000Y-73533000D03*
X110744000Y-76073000D03*
X110744000Y-78613000D03*
%TO.C,MCU_PORT201*%
X110744000Y-136906000D03*
X110744000Y-139446000D03*
%TO.C,VDDA101*%
X112014000Y-108458000D03*
%TO.C,CAN_EN201*%
X112522000Y-86233000D03*
X112522000Y-88773000D03*
%TO.C,JP101*%
X112522000Y-93345000D03*
X112522000Y-95885000D03*
X112522000Y-98425000D03*
%TO.C,MCU_PORT201*%
X113284000Y-136906000D03*
X113284000Y-139446000D03*
%TO.C,COM_SEL203*%
X114500000Y-73533000D03*
X114500000Y-76073000D03*
X114500000Y-78613000D03*
%TO.C,VDDA101*%
X114554000Y-108458000D03*
%TO.C,CAN_EN201*%
X115062000Y-86233000D03*
X115062000Y-88773000D03*
%TO.C,JP101*%
X115062000Y-93345000D03*
X115062000Y-95885000D03*
X115062000Y-98425000D03*
%TO.C,MCU_PORT201*%
X115824000Y-136906000D03*
X115824000Y-139446000D03*
X118364000Y-136906000D03*
X118364000Y-139446000D03*
X120904000Y-136906000D03*
X120904000Y-139446000D03*
%TO.C,UARTCAN203*%
X121500000Y-66500000D03*
X122885000Y-63660000D03*
%TO.C,MCU_PORT201*%
X123444000Y-136906000D03*
X123444000Y-139446000D03*
%TO.C,UARTCAN203*%
X124270000Y-66500000D03*
X125655000Y-63660000D03*
%TO.C,MCU_PORT201*%
X125984000Y-136906000D03*
X125984000Y-139446000D03*
%TO.C,UARTCAN203*%
X127040000Y-66500000D03*
X128425000Y-63660000D03*
%TO.C,MCU_PORT201*%
X128524000Y-136906000D03*
X128524000Y-139446000D03*
%TO.C,UARTCAN203*%
X129810000Y-66500000D03*
%TO.C,MCU_PORT201*%
X131064000Y-136906000D03*
X131064000Y-139446000D03*
%TO.C,UARTCAN203*%
X131195000Y-63660000D03*
X132580000Y-66500000D03*
%TO.C,MCU_PORT201*%
X133604000Y-136906000D03*
X133604000Y-139446000D03*
%TO.C,UART_EN203*%
X135763000Y-74549000D03*
X135763000Y-77089000D03*
X135763000Y-79629000D03*
X135763000Y-82169000D03*
%TO.C,MCU_PORT201*%
X136144000Y-136906000D03*
X136144000Y-139446000D03*
%TO.C,UART_EN203*%
X138303000Y-74549000D03*
X138303000Y-77089000D03*
X138303000Y-79629000D03*
X138303000Y-82169000D03*
%TO.C,MCU_PORT201*%
X138684000Y-136906000D03*
X138684000Y-139446000D03*
X141224000Y-136906000D03*
X141224000Y-139446000D03*
X143764000Y-136906000D03*
X143764000Y-139446000D03*
X146304000Y-136906000D03*
X146304000Y-139446000D03*
X148844000Y-136906000D03*
X148844000Y-139446000D03*
X151384000Y-136906000D03*
X151384000Y-139446000D03*
%TO.C,ALLPST101*%
X152019000Y-102489000D03*
%TO.C,MCU_PORT201*%
X153924000Y-136906000D03*
X153924000Y-139446000D03*
X156464000Y-136906000D03*
X156464000Y-139446000D03*
%TO.C,UARTCAN202*%
X156500000Y-66500000D03*
%TO.C,PULUPEN201*%
X157607000Y-117983000D03*
X157607000Y-120523000D03*
%TO.C,UARTCAN202*%
X157885000Y-63660000D03*
%TO.C,MCU_PORT201*%
X159004000Y-136906000D03*
X159004000Y-139446000D03*
%TO.C,UARTCAN202*%
X159270000Y-66500000D03*
%TO.C,PULUPEN201*%
X160147000Y-117983000D03*
X160147000Y-120523000D03*
%TO.C,UARTCAN202*%
X160655000Y-63660000D03*
%TO.C,MCU_PORT201*%
X161544000Y-136906000D03*
X161544000Y-139446000D03*
%TO.C,UARTCAN202*%
X162040000Y-66500000D03*
%TO.C,PULUPEN201*%
X162687000Y-117983000D03*
X162687000Y-120523000D03*
%TO.C,UARTCAN202*%
X163425000Y-63660000D03*
%TO.C,MCU_PORT201*%
X164084000Y-136906000D03*
X164084000Y-139446000D03*
%TO.C,UARTCAN202*%
X164810000Y-66500000D03*
%TO.C,PULUPEN201*%
X165227000Y-117983000D03*
X165227000Y-120523000D03*
%TO.C,UARTCAN202*%
X166195000Y-63660000D03*
%TO.C,MCU_PORT201*%
X166624000Y-136906000D03*
X166624000Y-139446000D03*
%TO.C,UARTCAN202*%
X167580000Y-66500000D03*
%TO.C,MCU_PORT201*%
X169164000Y-136906000D03*
X169164000Y-139446000D03*
%TO.C,UART_EN202*%
X169545000Y-74549000D03*
X169545000Y-77089000D03*
X169545000Y-79629000D03*
X169545000Y-82169000D03*
%TO.C,MCU_PORT201*%
X171704000Y-136906000D03*
X171704000Y-139446000D03*
%TO.C,UART_EN202*%
X172085000Y-74549000D03*
X172085000Y-77089000D03*
X172085000Y-79629000D03*
X172085000Y-82169000D03*
%TO.C,MCU_PORT201*%
X174244000Y-136906000D03*
X174244000Y-139446000D03*
X176784000Y-136906000D03*
X176784000Y-139446000D03*
X179324000Y-136906000D03*
X179324000Y-139446000D03*
%TO.C,VX_EN201*%
X181864000Y-130302000D03*
%TO.C,MCU_PORT201*%
X181864000Y-136906000D03*
X181864000Y-139446000D03*
%TO.C,VX_EN201*%
X184404000Y-130302000D03*
%TO.C,MCU_PORT201*%
X184404000Y-136906000D03*
X184404000Y-139446000D03*
%TO.C,UARTCAN201*%
X192500000Y-66500000D03*
X193885000Y-63660000D03*
X195270000Y-66500000D03*
X196655000Y-63660000D03*
%TO.C,UART_EN201*%
X197485000Y-74549000D03*
X197485000Y-77089000D03*
X197485000Y-79629000D03*
X197485000Y-82169000D03*
%TO.C,P302*%
X197500000Y-87000000D03*
X197500000Y-89540000D03*
%TO.C,UARTCAN201*%
X198040000Y-66500000D03*
X199425000Y-63660000D03*
%TO.C,UART_EN201*%
X200025000Y-74549000D03*
X200025000Y-77089000D03*
X200025000Y-79629000D03*
X200025000Y-82169000D03*
%TO.C,P302*%
X200040000Y-87000000D03*
X200040000Y-89540000D03*
%TO.C,UARTCAN201*%
X200810000Y-66500000D03*
X202195000Y-63660000D03*
X203580000Y-66500000D03*
%TO.C,P303*%
X222250000Y-88900000D03*
X222250000Y-91440000D03*
X222250000Y-93980000D03*
X222250000Y-96520000D03*
X222250000Y-99060000D03*
X222250000Y-101600000D03*
X222250000Y-104140000D03*
X222250000Y-106680000D03*
X222250000Y-109220000D03*
X222250000Y-111760000D03*
X222250000Y-114300000D03*
X222250000Y-116840000D03*
X222250000Y-119380000D03*
X222250000Y-121920000D03*
X222250000Y-124460000D03*
X222250000Y-127000000D03*
X222250000Y-129540000D03*
X222250000Y-132080000D03*
X222250000Y-134620000D03*
X222250000Y-137160000D03*
%TO.C,P301*%
X223520000Y-63500000D03*
X223520000Y-66040000D03*
X223520000Y-68580000D03*
X223520000Y-71120000D03*
X223520000Y-73660000D03*
X223520000Y-76200000D03*
%TO.C,P303*%
X224790000Y-88900000D03*
X224790000Y-91440000D03*
X224790000Y-93980000D03*
X224790000Y-96520000D03*
X224790000Y-99060000D03*
X224790000Y-101600000D03*
X224790000Y-104140000D03*
X224790000Y-106680000D03*
X224790000Y-109220000D03*
X224790000Y-111760000D03*
X224790000Y-114300000D03*
X224790000Y-116840000D03*
X224790000Y-119380000D03*
X224790000Y-121920000D03*
X224790000Y-124460000D03*
X224790000Y-127000000D03*
X224790000Y-129540000D03*
X224790000Y-132080000D03*
X224790000Y-134620000D03*
X224790000Y-137160000D03*
D15*
%TO.C,J201*%
X98300000Y-64592000D02*
X98300000Y-61608000D01*
X103008000Y-60000000D02*
X105992000Y-60000000D01*
D16*
%TO.C,D201*%
X82300000Y-77000000D03*
X95000000Y-77000000D03*
D17*
%TO.C,J201*%
X102900000Y-67900000D02*
X105900000Y-67900000D01*
D18*
%TO.C,TB201*%
X76000000Y-65500000D03*
X76000000Y-70500000D03*
D19*
%TO.C,SW_ONOFF201*%
X84420000Y-71374000D03*
X89500000Y-71374000D03*
X94580000Y-71374000D03*
D20*
%TO.C,UARTCAN203*%
X114540000Y-65080000D03*
X139540000Y-65080000D03*
%TO.C,UARTCAN202*%
X149540000Y-65080000D03*
X174540000Y-65080000D03*
%TO.C,UARTCAN201*%
X185540000Y-65080000D03*
X210540000Y-65080000D03*
M02*
