%TF.GenerationSoftware,KiCad,Pcbnew,8.99.0-344-gfbc433deaa-dirty*%
%TF.CreationDate,2024-03-11T18:45:51+01:00*%
%TF.ProjectId,kit-dev-coldfire-xilinx_5213,6b69742d-6465-4762-9d63-6f6c64666972,2*%
%TF.SameCoordinates,Original*%
%TF.FileFunction,Soldermask,Bot*%
%TF.FilePolarity,Negative*%
%FSLAX46Y46*%
G04 Gerber Fmt 4.6, Leading zero omitted, Abs format (unit mm)*
G04 Created by KiCad (PCBNEW 8.99.0-344-gfbc433deaa-dirty) date 2024-03-11 18:45:51*
%MOMM*%
%LPD*%
G01*
G04 APERTURE LIST*
G04 Aperture macros list*
%AMRoundRect*
0 Rectangle with rounded corners*
0 $1 Rounding radius*
0 $2 $3 $4 $5 $6 $7 $8 $9 X,Y pos of 4 corners*
0 Add a 4 corners polygon primitive as box body*
4,1,4,$2,$3,$4,$5,$6,$7,$8,$9,$2,$3,0*
0 Add four circle primitives for the rounded corners*
1,1,$1+$1,$2,$3*
1,1,$1+$1,$4,$5*
1,1,$1+$1,$6,$7*
1,1,$1+$1,$8,$9*
0 Add four rect primitives between the rounded corners*
20,1,$1+$1,$2,$3,$4,$5,0*
20,1,$1+$1,$4,$5,$6,$7,0*
20,1,$1+$1,$6,$7,$8,$9,0*
20,1,$1+$1,$8,$9,$2,$3,0*%
G04 Aperture macros list end*
%ADD10C,1.397000*%
%ADD11R,1.700000X1.700000*%
%ADD12O,1.700000X1.700000*%
%ADD13R,1.600000X1.600000*%
%ADD14C,1.600000*%
%ADD15R,2.400000X2.400000*%
%ADD16O,2.400000X2.400000*%
%ADD17R,5.500000X4.800600*%
%ADD18O,5.000000X4.800600*%
%ADD19O,3.500000X4.800600*%
%ADD20R,1.300000X1.300000*%
%ADD21C,1.300000*%
%ADD22O,1.600000X1.600000*%
%ADD23R,2.540000X3.810000*%
%ADD24R,3.000000X3.000000*%
%ADD25C,3.000000*%
%ADD26C,1.500000*%
%ADD27C,4.000000*%
%ADD28RoundRect,0.250000X0.250000X0.475000X-0.250000X0.475000X-0.250000X-0.475000X0.250000X-0.475000X0*%
%ADD29RoundRect,0.250000X0.475000X-0.250000X0.475000X0.250000X-0.475000X0.250000X-0.475000X-0.250000X0*%
%ADD30RoundRect,0.250000X-0.475000X0.250000X-0.475000X-0.250000X0.475000X-0.250000X0.475000X0.250000X0*%
%TA.AperFunction,Profile*%
%ADD31C,0.381000*%
%TD*%
G04 APERTURE END LIST*
D10*
%TO.C,ABRT_SW101*%
X168529000Y-97790000D03*
X176149000Y-97790000D03*
X168529000Y-102870000D03*
X176149000Y-102870000D03*
%TD*%
D11*
%TO.C,ALLPST101*%
X152019000Y-102489000D03*
%TD*%
%TO.C,BDM_PORT101*%
X76327000Y-106299000D03*
D12*
X78867000Y-106299000D03*
X76327000Y-108839000D03*
X78867000Y-108839000D03*
X76327000Y-111379000D03*
X78867000Y-111379000D03*
X76327000Y-113919000D03*
X78867000Y-113919000D03*
X76327000Y-116459000D03*
X78867000Y-116459000D03*
X76327000Y-118999000D03*
X78867000Y-118999000D03*
X76327000Y-121539000D03*
X78867000Y-121539000D03*
X76327000Y-124079000D03*
X78867000Y-124079000D03*
X76327000Y-126619000D03*
X78867000Y-126619000D03*
X76327000Y-129159000D03*
X78867000Y-129159000D03*
X76327000Y-131699000D03*
X78867000Y-131699000D03*
X76327000Y-134239000D03*
X78867000Y-134239000D03*
X76327000Y-136779000D03*
X78867000Y-136779000D03*
%TD*%
D13*
%TO.C,C212*%
X88900000Y-87630000D03*
D14*
X88900000Y-82630000D03*
%TD*%
D13*
%TO.C,C215*%
X88900000Y-100330000D03*
D14*
X88900000Y-95330000D03*
%TD*%
D11*
%TO.C,CAN_TERM201*%
X96647000Y-95758000D03*
D12*
X96647000Y-93218000D03*
%TD*%
D11*
%TO.C,CLKOUT101*%
X83439000Y-134239000D03*
%TD*%
%TO.C,COM_SEL203*%
X114500000Y-78613000D03*
D12*
X114500000Y-76073000D03*
X114500000Y-73533000D03*
%TD*%
D11*
%TO.C,COM_SEL202*%
X110744000Y-78613000D03*
D12*
X110744000Y-76073000D03*
X110744000Y-73533000D03*
%TD*%
D11*
%TO.C,CT101*%
X91440000Y-134620000D03*
D12*
X88900000Y-134620000D03*
%TD*%
D15*
%TO.C,D201*%
X95000000Y-77000000D03*
D16*
X82300000Y-77000000D03*
%TD*%
D11*
%TO.C,GND101*%
X89535000Y-140970000D03*
%TD*%
D17*
%TO.C,J201*%
X104400000Y-67900000D03*
D18*
X104500000Y-60000000D03*
D19*
X98300000Y-63100000D03*
%TD*%
D20*
%TO.C,LV101*%
X186690000Y-89408000D03*
D21*
X187960000Y-88138000D03*
X189230000Y-89408000D03*
%TD*%
D11*
%TO.C,MCU_PORT201*%
X184404000Y-136906000D03*
D12*
X184404000Y-139446000D03*
X181864000Y-136906000D03*
X181864000Y-139446000D03*
X179324000Y-136906000D03*
X179324000Y-139446000D03*
X176784000Y-136906000D03*
X176784000Y-139446000D03*
X174244000Y-136906000D03*
X174244000Y-139446000D03*
X171704000Y-136906000D03*
X171704000Y-139446000D03*
X169164000Y-136906000D03*
X169164000Y-139446000D03*
X166624000Y-136906000D03*
X166624000Y-139446000D03*
X164084000Y-136906000D03*
X164084000Y-139446000D03*
X161544000Y-136906000D03*
X161544000Y-139446000D03*
X159004000Y-136906000D03*
X159004000Y-139446000D03*
X156464000Y-136906000D03*
X156464000Y-139446000D03*
X153924000Y-136906000D03*
X153924000Y-139446000D03*
X151384000Y-136906000D03*
X151384000Y-139446000D03*
X148844000Y-136906000D03*
X148844000Y-139446000D03*
X146304000Y-136906000D03*
X146304000Y-139446000D03*
X143764000Y-136906000D03*
X143764000Y-139446000D03*
X141224000Y-136906000D03*
X141224000Y-139446000D03*
X138684000Y-136906000D03*
X138684000Y-139446000D03*
X136144000Y-136906000D03*
X136144000Y-139446000D03*
X133604000Y-136906000D03*
X133604000Y-139446000D03*
X131064000Y-136906000D03*
X131064000Y-139446000D03*
X128524000Y-136906000D03*
X128524000Y-139446000D03*
X125984000Y-136906000D03*
X125984000Y-139446000D03*
X123444000Y-136906000D03*
X123444000Y-139446000D03*
X120904000Y-136906000D03*
X120904000Y-139446000D03*
X118364000Y-136906000D03*
X118364000Y-139446000D03*
X115824000Y-136906000D03*
X115824000Y-139446000D03*
X113284000Y-136906000D03*
X113284000Y-139446000D03*
X110744000Y-136906000D03*
X110744000Y-139446000D03*
%TD*%
D11*
%TO.C,P301*%
X223520000Y-63500000D03*
D12*
X223520000Y-66040000D03*
X223520000Y-68580000D03*
X223520000Y-71120000D03*
X223520000Y-73660000D03*
X223520000Y-76200000D03*
%TD*%
D11*
%TO.C,P303*%
X222250000Y-88900000D03*
D12*
X224790000Y-88900000D03*
X222250000Y-91440000D03*
X224790000Y-91440000D03*
X222250000Y-93980000D03*
X224790000Y-93980000D03*
X222250000Y-96520000D03*
X224790000Y-96520000D03*
X222250000Y-99060000D03*
X224790000Y-99060000D03*
X222250000Y-101600000D03*
X224790000Y-101600000D03*
X222250000Y-104140000D03*
X224790000Y-104140000D03*
X222250000Y-106680000D03*
X224790000Y-106680000D03*
X222250000Y-109220000D03*
X224790000Y-109220000D03*
X222250000Y-111760000D03*
X224790000Y-111760000D03*
X222250000Y-114300000D03*
X224790000Y-114300000D03*
X222250000Y-116840000D03*
X224790000Y-116840000D03*
X222250000Y-119380000D03*
X224790000Y-119380000D03*
X222250000Y-121920000D03*
X224790000Y-121920000D03*
X222250000Y-124460000D03*
X224790000Y-124460000D03*
X222250000Y-127000000D03*
X224790000Y-127000000D03*
X222250000Y-129540000D03*
X224790000Y-129540000D03*
X222250000Y-132080000D03*
X224790000Y-132080000D03*
X222250000Y-134620000D03*
X224790000Y-134620000D03*
X222250000Y-137160000D03*
X224790000Y-137160000D03*
%TD*%
D11*
%TO.C,PULUPEN201*%
X165227000Y-117983000D03*
D12*
X165227000Y-120523000D03*
X162687000Y-117983000D03*
X162687000Y-120523000D03*
X160147000Y-117983000D03*
X160147000Y-120523000D03*
X157607000Y-117983000D03*
X157607000Y-120523000D03*
%TD*%
D14*
%TO.C,R302*%
X207010000Y-134620000D03*
D22*
X217170000Y-134620000D03*
%TD*%
D11*
%TO.C,RS201*%
X100457000Y-95758000D03*
%TD*%
D10*
%TO.C,RST_SW101*%
X176149000Y-92329000D03*
X168529000Y-92329000D03*
X176149000Y-87249000D03*
X168529000Y-87249000D03*
%TD*%
%TO.C,SW201*%
X168529000Y-108077000D03*
X176149000Y-108077000D03*
X168529000Y-113157000D03*
X176149000Y-113157000D03*
%TD*%
%TO.C,SW202*%
X168656000Y-119761000D03*
X176276000Y-119761000D03*
X168656000Y-124841000D03*
X176276000Y-124841000D03*
%TD*%
D23*
%TO.C,SW_ONOFF201*%
X84420000Y-71374000D03*
X89500000Y-71374000D03*
X94580000Y-71374000D03*
%TD*%
D11*
%TO.C,TA-101*%
X83439000Y-138557000D03*
%TD*%
D24*
%TO.C,TB201*%
X76000000Y-65500000D03*
D25*
X76000000Y-70500000D03*
%TD*%
D11*
%TO.C,UART_EN201*%
X197485000Y-74549000D03*
D12*
X200025000Y-74549000D03*
X197485000Y-77089000D03*
X200025000Y-77089000D03*
X197485000Y-79629000D03*
X200025000Y-79629000D03*
X197485000Y-82169000D03*
X200025000Y-82169000D03*
%TD*%
D11*
%TO.C,UART_EN202*%
X169545000Y-74549000D03*
D12*
X172085000Y-74549000D03*
X169545000Y-77089000D03*
X172085000Y-77089000D03*
X169545000Y-79629000D03*
X172085000Y-79629000D03*
X169545000Y-82169000D03*
X172085000Y-82169000D03*
%TD*%
D11*
%TO.C,UART_EN203*%
X135763000Y-74549000D03*
D12*
X138303000Y-74549000D03*
X135763000Y-77089000D03*
X138303000Y-77089000D03*
X135763000Y-79629000D03*
X138303000Y-79629000D03*
X135763000Y-82169000D03*
X138303000Y-82169000D03*
%TD*%
D11*
%TO.C,VDDA101*%
X112014000Y-108458000D03*
D12*
X114554000Y-108458000D03*
%TD*%
D26*
%TO.C,Y101*%
X123444000Y-120777000D03*
X123444000Y-125677000D03*
%TD*%
D11*
%TO.C,CAN_EN201*%
X112522000Y-86233000D03*
D12*
X115062000Y-86233000D03*
X112522000Y-88773000D03*
X115062000Y-88773000D03*
%TD*%
D11*
%TO.C,VX_EN201*%
X181864000Y-130302000D03*
D12*
X184404000Y-130302000D03*
%TD*%
D11*
%TO.C,JP101*%
X112522000Y-93345000D03*
D12*
X115062000Y-93345000D03*
X112522000Y-95885000D03*
X115062000Y-95885000D03*
X112522000Y-98425000D03*
X115062000Y-98425000D03*
%TD*%
D11*
%TO.C,P302*%
X197500000Y-87000000D03*
D12*
X200040000Y-87000000D03*
X197500000Y-89540000D03*
X200040000Y-89540000D03*
%TD*%
D11*
%TO.C,COM_SEL201*%
X107000000Y-78613000D03*
D12*
X107000000Y-76073000D03*
X107000000Y-73533000D03*
%TD*%
D11*
%TO.C,JP201*%
X90500000Y-113000000D03*
D12*
X93040000Y-113000000D03*
%TD*%
D27*
%TO.C,UARTCAN201*%
X210540000Y-65080000D03*
X185540000Y-65080000D03*
D13*
X192500000Y-66500000D03*
D14*
X195270000Y-66500000D03*
X198040000Y-66500000D03*
X200810000Y-66500000D03*
X203580000Y-66500000D03*
X193885000Y-63660000D03*
X196655000Y-63660000D03*
X199425000Y-63660000D03*
X202195000Y-63660000D03*
%TD*%
D27*
%TO.C,UARTCAN202*%
X174540000Y-65080000D03*
X149540000Y-65080000D03*
D13*
X156500000Y-66500000D03*
D14*
X159270000Y-66500000D03*
X162040000Y-66500000D03*
X164810000Y-66500000D03*
X167580000Y-66500000D03*
X157885000Y-63660000D03*
X160655000Y-63660000D03*
X163425000Y-63660000D03*
X166195000Y-63660000D03*
%TD*%
D27*
%TO.C,UARTCAN203*%
X139540000Y-65080000D03*
X114540000Y-65080000D03*
D13*
X121500000Y-66500000D03*
D14*
X124270000Y-66500000D03*
X127040000Y-66500000D03*
X129810000Y-66500000D03*
X132580000Y-66500000D03*
X122885000Y-63660000D03*
X125655000Y-63660000D03*
X128425000Y-63660000D03*
X131195000Y-63660000D03*
%TD*%
D11*
%TO.C,VREF201*%
X95000000Y-86500000D03*
%TD*%
D28*
%TO.C,C112*%
X130871000Y-91440000D03*
X128971000Y-91440000D03*
%TD*%
D29*
%TO.C,C117*%
X145288000Y-105725000D03*
X145288000Y-103825000D03*
%TD*%
D30*
%TO.C,C118*%
X145415000Y-98364000D03*
X145415000Y-100264000D03*
%TD*%
D29*
%TO.C,C301*%
X209296000Y-101788000D03*
X209296000Y-99888000D03*
%TD*%
D28*
%TO.C,C302*%
X191958000Y-107315000D03*
X190058000Y-107315000D03*
%TD*%
D29*
%TO.C,C303*%
X203454000Y-101788000D03*
X203454000Y-99888000D03*
%TD*%
D30*
%TO.C,C304*%
X208280000Y-109540000D03*
X208280000Y-111440000D03*
%TD*%
%TO.C,C305*%
X201422000Y-122494000D03*
X201422000Y-124394000D03*
%TD*%
%TO.C,C306*%
X208280000Y-118430000D03*
X208280000Y-120330000D03*
%TD*%
%TO.C,C307*%
X190500000Y-98110000D03*
X190500000Y-100010000D03*
%TD*%
D29*
%TO.C,C308*%
X199009000Y-101788000D03*
X199009000Y-99888000D03*
%TD*%
D30*
%TO.C,C309*%
X205359000Y-122494000D03*
X205359000Y-124394000D03*
%TD*%
%TO.C,C310*%
X197485000Y-122494000D03*
X197485000Y-124394000D03*
%TD*%
D28*
%TO.C,C311*%
X191958000Y-115189000D03*
X190058000Y-115189000D03*
%TD*%
D31*
X71120000Y-147320000D02*
X228600000Y-147320000D01*
X71120000Y-55880000D02*
X71120000Y-147320000D01*
X228600000Y-55880000D02*
X228600000Y-147320000D01*
X228600000Y-55880000D02*
X71120000Y-55880000D01*
M02*
