%TF.GenerationSoftware,KiCad,Pcbnew,8.99.0-344-gfbc433deaa-dirty*%
%TF.CreationDate,2024-03-11T18:45:51+01:00*%
%TF.ProjectId,kit-dev-coldfire-xilinx_5213,6b69742d-6465-4762-9d63-6f6c64666972,2*%
%TF.SameCoordinates,Original*%
%TF.FileFunction,Copper,L1,Top*%
%TF.FilePolarity,Positive*%
%FSLAX46Y46*%
G04 Gerber Fmt 4.6, Leading zero omitted, Abs format (unit mm)*
G04 Created by KiCad (PCBNEW 8.99.0-344-gfbc433deaa-dirty) date 2024-03-11 18:45:51*
%MOMM*%
%LPD*%
G01*
G04 APERTURE LIST*
G04 Aperture macros list*
%AMRoundRect*
0 Rectangle with rounded corners*
0 $1 Rounding radius*
0 $2 $3 $4 $5 $6 $7 $8 $9 X,Y pos of 4 corners*
0 Add a 4 corners polygon primitive as box body*
4,1,4,$2,$3,$4,$5,$6,$7,$8,$9,$2,$3,0*
0 Add four circle primitives for the rounded corners*
1,1,$1+$1,$2,$3*
1,1,$1+$1,$4,$5*
1,1,$1+$1,$6,$7*
1,1,$1+$1,$8,$9*
0 Add four rect primitives between the rounded corners*
20,1,$1+$1,$2,$3,$4,$5,0*
20,1,$1+$1,$4,$5,$6,$7,0*
20,1,$1+$1,$6,$7,$8,$9,0*
20,1,$1+$1,$8,$9,$2,$3,0*%
G04 Aperture macros list end*
%ADD10C,0.200000*%
%TA.AperFunction,NonConductor*%
%ADD11C,0.200000*%
%TD*%
%ADD12C,0.304800*%
%TA.AperFunction,NonConductor*%
%ADD13C,0.304800*%
%TD*%
%TA.AperFunction,ComponentPad*%
%ADD14C,1.397000*%
%TD*%
%TA.AperFunction,ComponentPad*%
%ADD15R,1.700000X1.700000*%
%TD*%
%TA.AperFunction,ComponentPad*%
%ADD16O,1.700000X1.700000*%
%TD*%
%TA.AperFunction,SMDPad,CuDef*%
%ADD17RoundRect,0.250000X-0.475000X0.250000X-0.475000X-0.250000X0.475000X-0.250000X0.475000X0.250000X0*%
%TD*%
%TA.AperFunction,SMDPad,CuDef*%
%ADD18RoundRect,0.250000X0.475000X-0.250000X0.475000X0.250000X-0.475000X0.250000X-0.475000X-0.250000X0*%
%TD*%
%TA.AperFunction,SMDPad,CuDef*%
%ADD19RoundRect,0.250000X0.250000X0.475000X-0.250000X0.475000X-0.250000X-0.475000X0.250000X-0.475000X0*%
%TD*%
%TA.AperFunction,SMDPad,CuDef*%
%ADD20RoundRect,0.250000X-0.250000X-0.475000X0.250000X-0.475000X0.250000X0.475000X-0.250000X0.475000X0*%
%TD*%
%TA.AperFunction,SMDPad,CuDef*%
%ADD21R,2.032000X1.524000*%
%TD*%
%TA.AperFunction,SMDPad,CuDef*%
%ADD22R,1.524000X2.032000*%
%TD*%
%TA.AperFunction,ComponentPad*%
%ADD23R,1.600000X1.600000*%
%TD*%
%TA.AperFunction,ComponentPad*%
%ADD24C,1.600000*%
%TD*%
%TA.AperFunction,SMDPad,CuDef*%
%ADD25R,0.900000X0.800000*%
%TD*%
%TA.AperFunction,ComponentPad*%
%ADD26R,2.400000X2.400000*%
%TD*%
%TA.AperFunction,ComponentPad*%
%ADD27O,2.400000X2.400000*%
%TD*%
%TA.AperFunction,SMDPad,CuDef*%
%ADD28RoundRect,0.250000X0.375000X0.625000X-0.375000X0.625000X-0.375000X-0.625000X0.375000X-0.625000X0*%
%TD*%
%TA.AperFunction,SMDPad,CuDef*%
%ADD29R,3.556000X4.191000*%
%TD*%
%TA.AperFunction,SMDPad,CuDef*%
%ADD30RoundRect,0.250000X0.400000X0.625000X-0.400000X0.625000X-0.400000X-0.625000X0.400000X-0.625000X0*%
%TD*%
%TA.AperFunction,ComponentPad*%
%ADD31R,5.500000X4.800600*%
%TD*%
%TA.AperFunction,ComponentPad*%
%ADD32O,5.000000X4.800600*%
%TD*%
%TA.AperFunction,ComponentPad*%
%ADD33O,3.500000X4.800600*%
%TD*%
%TA.AperFunction,SMDPad,CuDef*%
%ADD34RoundRect,0.250000X-0.400000X-0.625000X0.400000X-0.625000X0.400000X0.625000X-0.400000X0.625000X0*%
%TD*%
%TA.AperFunction,SMDPad,CuDef*%
%ADD35RoundRect,0.250000X-0.375000X-0.625000X0.375000X-0.625000X0.375000X0.625000X-0.375000X0.625000X0*%
%TD*%
%TA.AperFunction,SMDPad,CuDef*%
%ADD36RoundRect,0.250000X0.625000X-0.375000X0.625000X0.375000X-0.625000X0.375000X-0.625000X-0.375000X0*%
%TD*%
%TA.AperFunction,ComponentPad*%
%ADD37R,1.300000X1.300000*%
%TD*%
%TA.AperFunction,ComponentPad*%
%ADD38C,1.300000*%
%TD*%
%TA.AperFunction,SMDPad,CuDef*%
%ADD39R,0.914400X0.914400*%
%TD*%
%TA.AperFunction,SMDPad,CuDef*%
%ADD40RoundRect,0.250000X0.450000X-0.262500X0.450000X0.262500X-0.450000X0.262500X-0.450000X-0.262500X0*%
%TD*%
%TA.AperFunction,SMDPad,CuDef*%
%ADD41RoundRect,0.250000X-0.262500X-0.450000X0.262500X-0.450000X0.262500X0.450000X-0.262500X0.450000X0*%
%TD*%
%TA.AperFunction,SMDPad,CuDef*%
%ADD42RoundRect,0.250000X0.262500X0.450000X-0.262500X0.450000X-0.262500X-0.450000X0.262500X-0.450000X0*%
%TD*%
%TA.AperFunction,SMDPad,CuDef*%
%ADD43RoundRect,0.250000X-0.450000X0.262500X-0.450000X-0.262500X0.450000X-0.262500X0.450000X0.262500X0*%
%TD*%
%TA.AperFunction,ComponentPad*%
%ADD44O,1.600000X1.600000*%
%TD*%
%TA.AperFunction,ComponentPad*%
%ADD45R,2.540000X3.810000*%
%TD*%
%TA.AperFunction,ComponentPad*%
%ADD46R,3.000000X3.000000*%
%TD*%
%TA.AperFunction,ComponentPad*%
%ADD47C,3.000000*%
%TD*%
%TA.AperFunction,SMDPad,CuDef*%
%ADD48RoundRect,0.075000X-0.075000X0.725000X-0.075000X-0.725000X0.075000X-0.725000X0.075000X0.725000X0*%
%TD*%
%TA.AperFunction,SMDPad,CuDef*%
%ADD49RoundRect,0.075000X-0.725000X0.075000X-0.725000X-0.075000X0.725000X-0.075000X0.725000X0.075000X0*%
%TD*%
%TA.AperFunction,SMDPad,CuDef*%
%ADD50R,0.508000X0.304800*%
%TD*%
%TA.AperFunction,SMDPad,CuDef*%
%ADD51RoundRect,0.150000X-0.825000X-0.150000X0.825000X-0.150000X0.825000X0.150000X-0.825000X0.150000X0*%
%TD*%
%TA.AperFunction,SMDPad,CuDef*%
%ADD52RoundRect,0.150000X0.825000X0.150000X-0.825000X0.150000X-0.825000X-0.150000X0.825000X-0.150000X0*%
%TD*%
%TA.AperFunction,SMDPad,CuDef*%
%ADD53RoundRect,0.088235X-0.886765X-0.211765X0.886765X-0.211765X0.886765X0.211765X-0.886765X0.211765X0*%
%TD*%
%TA.AperFunction,SMDPad,CuDef*%
%ADD54RoundRect,0.250000X0.300000X-2.050000X0.300000X2.050000X-0.300000X2.050000X-0.300000X-2.050000X0*%
%TD*%
%TA.AperFunction,SMDPad,CuDef*%
%ADD55RoundRect,0.250000X2.375000X-2.025000X2.375000X2.025000X-2.375000X2.025000X-2.375000X-2.025000X0*%
%TD*%
%TA.AperFunction,SMDPad,CuDef*%
%ADD56RoundRect,0.250002X5.149998X-4.449998X5.149998X4.449998X-5.149998X4.449998X-5.149998X-4.449998X0*%
%TD*%
%TA.AperFunction,ComponentPad*%
%ADD57C,1.500000*%
%TD*%
%TA.AperFunction,SMDPad,CuDef*%
%ADD58RoundRect,0.075000X-0.075000X0.662500X-0.075000X-0.662500X0.075000X-0.662500X0.075000X0.662500X0*%
%TD*%
%TA.AperFunction,SMDPad,CuDef*%
%ADD59RoundRect,0.075000X-0.662500X0.075000X-0.662500X-0.075000X0.662500X-0.075000X0.662500X0.075000X0*%
%TD*%
%TA.AperFunction,ComponentPad*%
%ADD60C,4.000000*%
%TD*%
%TA.AperFunction,ViaPad*%
%ADD61C,0.635000*%
%TD*%
%TA.AperFunction,ViaPad*%
%ADD62C,0.889000*%
%TD*%
%TA.AperFunction,ViaPad*%
%ADD63C,0.600000*%
%TD*%
%TA.AperFunction,ViaPad*%
%ADD64C,0.800000*%
%TD*%
%TA.AperFunction,ViaPad*%
%ADD65C,1.143000*%
%TD*%
%TA.AperFunction,Conductor*%
%ADD66C,0.254000*%
%TD*%
%TA.AperFunction,Conductor*%
%ADD67C,0.381000*%
%TD*%
%TA.AperFunction,Conductor*%
%ADD68C,0.431800*%
%TD*%
%TA.AperFunction,Conductor*%
%ADD69C,0.762000*%
%TD*%
%TA.AperFunction,Conductor*%
%ADD70C,0.400000*%
%TD*%
%TA.AperFunction,Conductor*%
%ADD71C,0.200000*%
%TD*%
%TA.AperFunction,Conductor*%
%ADD72C,0.300000*%
%TD*%
%TA.AperFunction,Conductor*%
%ADD73C,0.558800*%
%TD*%
%TA.AperFunction,Conductor*%
%ADD74C,0.203200*%
%TD*%
%TA.AperFunction,Conductor*%
%ADD75C,1.524000*%
%TD*%
%TA.AperFunction,Profile*%
%ADD76C,0.381000*%
%TD*%
G04 APERTURE END LIST*
D10*
D11*
X105476190Y-92952219D02*
X105476190Y-93666504D01*
X105476190Y-93666504D02*
X105428571Y-93809361D01*
X105428571Y-93809361D02*
X105333333Y-93904600D01*
X105333333Y-93904600D02*
X105190476Y-93952219D01*
X105190476Y-93952219D02*
X105095238Y-93952219D01*
X105809524Y-92952219D02*
X106380952Y-92952219D01*
X106095238Y-93952219D02*
X106095238Y-92952219D01*
X106666667Y-93666504D02*
X107142857Y-93666504D01*
X106571429Y-93952219D02*
X106904762Y-92952219D01*
X106904762Y-92952219D02*
X107238095Y-93952219D01*
X108095238Y-92999838D02*
X108000000Y-92952219D01*
X108000000Y-92952219D02*
X107857143Y-92952219D01*
X107857143Y-92952219D02*
X107714286Y-92999838D01*
X107714286Y-92999838D02*
X107619048Y-93095076D01*
X107619048Y-93095076D02*
X107571429Y-93190314D01*
X107571429Y-93190314D02*
X107523810Y-93380790D01*
X107523810Y-93380790D02*
X107523810Y-93523647D01*
X107523810Y-93523647D02*
X107571429Y-93714123D01*
X107571429Y-93714123D02*
X107619048Y-93809361D01*
X107619048Y-93809361D02*
X107714286Y-93904600D01*
X107714286Y-93904600D02*
X107857143Y-93952219D01*
X107857143Y-93952219D02*
X107952381Y-93952219D01*
X107952381Y-93952219D02*
X108095238Y-93904600D01*
X108095238Y-93904600D02*
X108142857Y-93856980D01*
X108142857Y-93856980D02*
X108142857Y-93523647D01*
X108142857Y-93523647D02*
X107952381Y-93523647D01*
X108333334Y-94047457D02*
X109095238Y-94047457D01*
X109333334Y-93428409D02*
X109666667Y-93428409D01*
X109809524Y-93952219D02*
X109333334Y-93952219D01*
X109333334Y-93952219D02*
X109333334Y-92952219D01*
X109333334Y-92952219D02*
X109809524Y-92952219D01*
X110238096Y-93952219D02*
X110238096Y-92952219D01*
X110238096Y-92952219D02*
X110809524Y-93952219D01*
X110809524Y-93952219D02*
X110809524Y-92952219D01*
D12*
D13*
X205794429Y-59150668D02*
X205721857Y-59247430D01*
X205721857Y-59247430D02*
X205504143Y-59344191D01*
X205504143Y-59344191D02*
X205359000Y-59344191D01*
X205359000Y-59344191D02*
X205141286Y-59247430D01*
X205141286Y-59247430D02*
X204996143Y-59053906D01*
X204996143Y-59053906D02*
X204923572Y-58860382D01*
X204923572Y-58860382D02*
X204851000Y-58473334D01*
X204851000Y-58473334D02*
X204851000Y-58183049D01*
X204851000Y-58183049D02*
X204923572Y-57796001D01*
X204923572Y-57796001D02*
X204996143Y-57602477D01*
X204996143Y-57602477D02*
X205141286Y-57408953D01*
X205141286Y-57408953D02*
X205359000Y-57312191D01*
X205359000Y-57312191D02*
X205504143Y-57312191D01*
X205504143Y-57312191D02*
X205721857Y-57408953D01*
X205721857Y-57408953D02*
X205794429Y-57505715D01*
X206375000Y-58763620D02*
X207100715Y-58763620D01*
X206229857Y-59344191D02*
X206737857Y-57312191D01*
X206737857Y-57312191D02*
X207245857Y-59344191D01*
X208624715Y-59344191D02*
X208116715Y-58376572D01*
X207753858Y-59344191D02*
X207753858Y-57312191D01*
X207753858Y-57312191D02*
X208334429Y-57312191D01*
X208334429Y-57312191D02*
X208479572Y-57408953D01*
X208479572Y-57408953D02*
X208552143Y-57505715D01*
X208552143Y-57505715D02*
X208624715Y-57699239D01*
X208624715Y-57699239D02*
X208624715Y-57989525D01*
X208624715Y-57989525D02*
X208552143Y-58183049D01*
X208552143Y-58183049D02*
X208479572Y-58279810D01*
X208479572Y-58279810D02*
X208334429Y-58376572D01*
X208334429Y-58376572D02*
X207753858Y-58376572D01*
X209060143Y-57312191D02*
X209931001Y-57312191D01*
X209495572Y-59344191D02*
X209495572Y-57312191D01*
X210439001Y-58279810D02*
X210947001Y-58279810D01*
X211164715Y-59344191D02*
X210439001Y-59344191D01*
X210439001Y-59344191D02*
X210439001Y-57312191D01*
X210439001Y-57312191D02*
X211164715Y-57312191D01*
X213849858Y-59150668D02*
X213777286Y-59247430D01*
X213777286Y-59247430D02*
X213559572Y-59344191D01*
X213559572Y-59344191D02*
X213414429Y-59344191D01*
X213414429Y-59344191D02*
X213196715Y-59247430D01*
X213196715Y-59247430D02*
X213051572Y-59053906D01*
X213051572Y-59053906D02*
X212979001Y-58860382D01*
X212979001Y-58860382D02*
X212906429Y-58473334D01*
X212906429Y-58473334D02*
X212906429Y-58183049D01*
X212906429Y-58183049D02*
X212979001Y-57796001D01*
X212979001Y-57796001D02*
X213051572Y-57602477D01*
X213051572Y-57602477D02*
X213196715Y-57408953D01*
X213196715Y-57408953D02*
X213414429Y-57312191D01*
X213414429Y-57312191D02*
X213559572Y-57312191D01*
X213559572Y-57312191D02*
X213777286Y-57408953D01*
X213777286Y-57408953D02*
X213849858Y-57505715D01*
X214793286Y-57312191D02*
X215083572Y-57312191D01*
X215083572Y-57312191D02*
X215228715Y-57408953D01*
X215228715Y-57408953D02*
X215373858Y-57602477D01*
X215373858Y-57602477D02*
X215446429Y-57989525D01*
X215446429Y-57989525D02*
X215446429Y-58666858D01*
X215446429Y-58666858D02*
X215373858Y-59053906D01*
X215373858Y-59053906D02*
X215228715Y-59247430D01*
X215228715Y-59247430D02*
X215083572Y-59344191D01*
X215083572Y-59344191D02*
X214793286Y-59344191D01*
X214793286Y-59344191D02*
X214648144Y-59247430D01*
X214648144Y-59247430D02*
X214503001Y-59053906D01*
X214503001Y-59053906D02*
X214430429Y-58666858D01*
X214430429Y-58666858D02*
X214430429Y-57989525D01*
X214430429Y-57989525D02*
X214503001Y-57602477D01*
X214503001Y-57602477D02*
X214648144Y-57408953D01*
X214648144Y-57408953D02*
X214793286Y-57312191D01*
X216825286Y-59344191D02*
X216099572Y-59344191D01*
X216099572Y-59344191D02*
X216099572Y-57312191D01*
X217333286Y-59344191D02*
X217333286Y-57312191D01*
X217333286Y-57312191D02*
X217696143Y-57312191D01*
X217696143Y-57312191D02*
X217913857Y-57408953D01*
X217913857Y-57408953D02*
X218059000Y-57602477D01*
X218059000Y-57602477D02*
X218131571Y-57796001D01*
X218131571Y-57796001D02*
X218204143Y-58183049D01*
X218204143Y-58183049D02*
X218204143Y-58473334D01*
X218204143Y-58473334D02*
X218131571Y-58860382D01*
X218131571Y-58860382D02*
X218059000Y-59053906D01*
X218059000Y-59053906D02*
X217913857Y-59247430D01*
X217913857Y-59247430D02*
X217696143Y-59344191D01*
X217696143Y-59344191D02*
X217333286Y-59344191D01*
X219365286Y-58279810D02*
X218857286Y-58279810D01*
X218857286Y-59344191D02*
X218857286Y-57312191D01*
X218857286Y-57312191D02*
X219583000Y-57312191D01*
X220163572Y-59344191D02*
X220163572Y-57312191D01*
X221760143Y-59344191D02*
X221252143Y-58376572D01*
X220889286Y-59344191D02*
X220889286Y-57312191D01*
X220889286Y-57312191D02*
X221469857Y-57312191D01*
X221469857Y-57312191D02*
X221615000Y-57408953D01*
X221615000Y-57408953D02*
X221687571Y-57505715D01*
X221687571Y-57505715D02*
X221760143Y-57699239D01*
X221760143Y-57699239D02*
X221760143Y-57989525D01*
X221760143Y-57989525D02*
X221687571Y-58183049D01*
X221687571Y-58183049D02*
X221615000Y-58279810D01*
X221615000Y-58279810D02*
X221469857Y-58376572D01*
X221469857Y-58376572D02*
X220889286Y-58376572D01*
X222413286Y-58279810D02*
X222921286Y-58279810D01*
X223139000Y-59344191D02*
X222413286Y-59344191D01*
X222413286Y-59344191D02*
X222413286Y-57312191D01*
X222413286Y-57312191D02*
X223139000Y-57312191D01*
D10*
D11*
X107166667Y-96452219D02*
X107166667Y-95452219D01*
X107166667Y-95452219D02*
X107500000Y-96166504D01*
X107500000Y-96166504D02*
X107833333Y-95452219D01*
X107833333Y-95452219D02*
X107833333Y-96452219D01*
X108500000Y-95452219D02*
X108690476Y-95452219D01*
X108690476Y-95452219D02*
X108785714Y-95499838D01*
X108785714Y-95499838D02*
X108880952Y-95595076D01*
X108880952Y-95595076D02*
X108928571Y-95785552D01*
X108928571Y-95785552D02*
X108928571Y-96118885D01*
X108928571Y-96118885D02*
X108880952Y-96309361D01*
X108880952Y-96309361D02*
X108785714Y-96404600D01*
X108785714Y-96404600D02*
X108690476Y-96452219D01*
X108690476Y-96452219D02*
X108500000Y-96452219D01*
X108500000Y-96452219D02*
X108404762Y-96404600D01*
X108404762Y-96404600D02*
X108309524Y-96309361D01*
X108309524Y-96309361D02*
X108261905Y-96118885D01*
X108261905Y-96118885D02*
X108261905Y-95785552D01*
X108261905Y-95785552D02*
X108309524Y-95595076D01*
X108309524Y-95595076D02*
X108404762Y-95499838D01*
X108404762Y-95499838D02*
X108500000Y-95452219D01*
X109357143Y-96452219D02*
X109357143Y-95452219D01*
X109357143Y-95452219D02*
X109595238Y-95452219D01*
X109595238Y-95452219D02*
X109738095Y-95499838D01*
X109738095Y-95499838D02*
X109833333Y-95595076D01*
X109833333Y-95595076D02*
X109880952Y-95690314D01*
X109880952Y-95690314D02*
X109928571Y-95880790D01*
X109928571Y-95880790D02*
X109928571Y-96023647D01*
X109928571Y-96023647D02*
X109880952Y-96214123D01*
X109880952Y-96214123D02*
X109833333Y-96309361D01*
X109833333Y-96309361D02*
X109738095Y-96404600D01*
X109738095Y-96404600D02*
X109595238Y-96452219D01*
X109595238Y-96452219D02*
X109357143Y-96452219D01*
X110880952Y-96452219D02*
X110309524Y-96452219D01*
X110595238Y-96452219D02*
X110595238Y-95452219D01*
X110595238Y-95452219D02*
X110500000Y-95595076D01*
X110500000Y-95595076D02*
X110404762Y-95690314D01*
X110404762Y-95690314D02*
X110309524Y-95737933D01*
D10*
D11*
X107166667Y-99952219D02*
X107166667Y-98952219D01*
X107166667Y-98952219D02*
X107500000Y-99666504D01*
X107500000Y-99666504D02*
X107833333Y-98952219D01*
X107833333Y-98952219D02*
X107833333Y-99952219D01*
X108500000Y-98952219D02*
X108690476Y-98952219D01*
X108690476Y-98952219D02*
X108785714Y-98999838D01*
X108785714Y-98999838D02*
X108880952Y-99095076D01*
X108880952Y-99095076D02*
X108928571Y-99285552D01*
X108928571Y-99285552D02*
X108928571Y-99618885D01*
X108928571Y-99618885D02*
X108880952Y-99809361D01*
X108880952Y-99809361D02*
X108785714Y-99904600D01*
X108785714Y-99904600D02*
X108690476Y-99952219D01*
X108690476Y-99952219D02*
X108500000Y-99952219D01*
X108500000Y-99952219D02*
X108404762Y-99904600D01*
X108404762Y-99904600D02*
X108309524Y-99809361D01*
X108309524Y-99809361D02*
X108261905Y-99618885D01*
X108261905Y-99618885D02*
X108261905Y-99285552D01*
X108261905Y-99285552D02*
X108309524Y-99095076D01*
X108309524Y-99095076D02*
X108404762Y-98999838D01*
X108404762Y-98999838D02*
X108500000Y-98952219D01*
X109357143Y-99952219D02*
X109357143Y-98952219D01*
X109357143Y-98952219D02*
X109595238Y-98952219D01*
X109595238Y-98952219D02*
X109738095Y-98999838D01*
X109738095Y-98999838D02*
X109833333Y-99095076D01*
X109833333Y-99095076D02*
X109880952Y-99190314D01*
X109880952Y-99190314D02*
X109928571Y-99380790D01*
X109928571Y-99380790D02*
X109928571Y-99523647D01*
X109928571Y-99523647D02*
X109880952Y-99714123D01*
X109880952Y-99714123D02*
X109833333Y-99809361D01*
X109833333Y-99809361D02*
X109738095Y-99904600D01*
X109738095Y-99904600D02*
X109595238Y-99952219D01*
X109595238Y-99952219D02*
X109357143Y-99952219D01*
X110547619Y-98952219D02*
X110642857Y-98952219D01*
X110642857Y-98952219D02*
X110738095Y-98999838D01*
X110738095Y-98999838D02*
X110785714Y-99047457D01*
X110785714Y-99047457D02*
X110833333Y-99142695D01*
X110833333Y-99142695D02*
X110880952Y-99333171D01*
X110880952Y-99333171D02*
X110880952Y-99571266D01*
X110880952Y-99571266D02*
X110833333Y-99761742D01*
X110833333Y-99761742D02*
X110785714Y-99856980D01*
X110785714Y-99856980D02*
X110738095Y-99904600D01*
X110738095Y-99904600D02*
X110642857Y-99952219D01*
X110642857Y-99952219D02*
X110547619Y-99952219D01*
X110547619Y-99952219D02*
X110452381Y-99904600D01*
X110452381Y-99904600D02*
X110404762Y-99856980D01*
X110404762Y-99856980D02*
X110357143Y-99761742D01*
X110357143Y-99761742D02*
X110309524Y-99571266D01*
X110309524Y-99571266D02*
X110309524Y-99333171D01*
X110309524Y-99333171D02*
X110357143Y-99142695D01*
X110357143Y-99142695D02*
X110404762Y-99047457D01*
X110404762Y-99047457D02*
X110452381Y-98999838D01*
X110452381Y-98999838D02*
X110547619Y-98952219D01*
D14*
%TO.P,ABRT_SW101,1,1*%
%TO.N,Net-(ABRT_SW101-Pad1)*%
X168529000Y-97790000D03*
X176149000Y-97790000D03*
%TO.P,ABRT_SW101,2,2*%
%TO.N,+3.3V*%
X168529000Y-102870000D03*
X176149000Y-102870000D03*
%TD*%
D15*
%TO.P,ALLPST101,1,1*%
%TO.N,/ALLPST*%
X152019000Y-102489000D03*
%TD*%
%TO.P,BDM_PORT101,1,P1*%
%TO.N,unconnected-(BDM_PORT101-P1-Pad1)*%
X76327000Y-106299000D03*
D16*
%TO.P,BDM_PORT101,2,P2*%
%TO.N,/BKPT-*%
X78867000Y-106299000D03*
%TO.P,BDM_PORT101,3,P3*%
%TO.N,GND*%
X76327000Y-108839000D03*
%TO.P,BDM_PORT101,4,P4*%
%TO.N,/DSCLK*%
X78867000Y-108839000D03*
%TO.P,BDM_PORT101,5,P5*%
%TO.N,GND*%
X76327000Y-111379000D03*
%TO.P,BDM_PORT101,6,P6*%
%TO.N,Net-(BDM_PORT101-P6)*%
X78867000Y-111379000D03*
%TO.P,BDM_PORT101,7,P7*%
%TO.N,/RSTI-*%
X76327000Y-113919000D03*
%TO.P,BDM_PORT101,8,P8*%
%TO.N,/DSI*%
X78867000Y-113919000D03*
%TO.P,BDM_PORT101,9,P9*%
%TO.N,+3.3V*%
X76327000Y-116459000D03*
%TO.P,BDM_PORT101,10,P10*%
%TO.N,/DSO*%
X78867000Y-116459000D03*
%TO.P,BDM_PORT101,11,P11*%
%TO.N,GND*%
X76327000Y-118999000D03*
%TO.P,BDM_PORT101,12,P12*%
%TO.N,/PST3*%
X78867000Y-118999000D03*
%TO.P,BDM_PORT101,13,P13*%
%TO.N,/PST2*%
X76327000Y-121539000D03*
%TO.P,BDM_PORT101,14,P14*%
%TO.N,/PST1*%
X78867000Y-121539000D03*
%TO.P,BDM_PORT101,15,P15*%
%TO.N,/PST0*%
X76327000Y-124079000D03*
%TO.P,BDM_PORT101,16,P16*%
%TO.N,/DDAT3*%
X78867000Y-124079000D03*
%TO.P,BDM_PORT101,17,P17*%
%TO.N,/DDAT2*%
X76327000Y-126619000D03*
%TO.P,BDM_PORT101,18,P18*%
%TO.N,/DDAT1*%
X78867000Y-126619000D03*
%TO.P,BDM_PORT101,19,P19*%
%TO.N,/DDAT0*%
X76327000Y-129159000D03*
%TO.P,BDM_PORT101,20,P20*%
%TO.N,GND*%
X78867000Y-129159000D03*
%TO.P,BDM_PORT101,21,P21*%
%TO.N,unconnected-(BDM_PORT101-P21-Pad21)*%
X76327000Y-131699000D03*
%TO.P,BDM_PORT101,22,P22*%
%TO.N,unconnected-(BDM_PORT101-P22-Pad22)*%
X78867000Y-131699000D03*
%TO.P,BDM_PORT101,23,P23*%
%TO.N,GND*%
X76327000Y-134239000D03*
%TO.P,BDM_PORT101,24,P20*%
%TO.N,/TCLK*%
X78867000Y-134239000D03*
%TO.P,BDM_PORT101,25,P24*%
%TO.N,+3.3V*%
X76327000Y-136779000D03*
%TO.P,BDM_PORT101,26,P22*%
%TO.N,Net-(BDM_PORT101-P22-Pad26)*%
X78867000Y-136779000D03*
%TD*%
D17*
%TO.P,C107,1*%
%TO.N,/CLKIN{slash}EXTAL*%
X136652000Y-116779000D03*
%TO.P,C107,2*%
%TO.N,GND*%
X136652000Y-118679000D03*
%TD*%
D18*
%TO.P,C106,1*%
%TO.N,/XTAL*%
X136652000Y-124013000D03*
%TO.P,C106,2*%
%TO.N,GND*%
X136652000Y-122113000D03*
%TD*%
%TO.P,C105,1*%
%TO.N,Net-(D102-K)*%
X164846000Y-95311000D03*
%TO.P,C105,2*%
%TO.N,GND*%
X164846000Y-93411000D03*
%TD*%
D19*
%TO.P,C110,1*%
%TO.N,+3.3V*%
X142555000Y-91059000D03*
%TO.P,C110,2*%
%TO.N,GND*%
X140655000Y-91059000D03*
%TD*%
%TO.P,C111,1*%
%TO.N,+3.3V*%
X135443000Y-91440000D03*
%TO.P,C111,2*%
%TO.N,GND*%
X133543000Y-91440000D03*
%TD*%
D17*
%TO.P,C113,1*%
%TO.N,+3.3V*%
X125349000Y-98872000D03*
%TO.P,C113,2*%
%TO.N,GND*%
X125349000Y-100772000D03*
%TD*%
D19*
%TO.P,C114,1*%
%TO.N,+3.3V*%
X125537000Y-103505000D03*
%TO.P,C114,2*%
%TO.N,GND*%
X123637000Y-103505000D03*
%TD*%
%TO.P,C115,1*%
%TO.N,+3.3V*%
X132903000Y-112268000D03*
%TO.P,C115,2*%
%TO.N,GND*%
X131003000Y-112268000D03*
%TD*%
%TO.P,C116,1*%
%TO.N,+3.3V*%
X138618000Y-111760000D03*
%TO.P,C116,2*%
%TO.N,GND*%
X136718000Y-111760000D03*
%TD*%
D20*
%TO.P,C101,1*%
%TO.N,GND*%
X159451000Y-105537000D03*
%TO.P,C101,2*%
%TO.N,+3.3V*%
X161351000Y-105537000D03*
%TD*%
D19*
%TO.P,C104,1*%
%TO.N,Net-(C104-Pad1)*%
X161351000Y-111252000D03*
%TO.P,C104,2*%
%TO.N,GND*%
X159451000Y-111252000D03*
%TD*%
D21*
%TO.P,C108,1*%
%TO.N,/VCCA*%
X120777000Y-107696000D03*
%TO.P,C108,2*%
%TO.N,GNDA*%
X120777000Y-104394000D03*
%TD*%
D22*
%TO.P,C119,1*%
%TO.N,+3.3V*%
X148590000Y-120015000D03*
%TO.P,C119,2*%
%TO.N,GND*%
X151892000Y-120015000D03*
%TD*%
D20*
%TO.P,C109,1*%
%TO.N,/VCCA*%
X122875000Y-108712000D03*
%TO.P,C109,2*%
%TO.N,GNDA*%
X124775000Y-108712000D03*
%TD*%
D17*
%TO.P,C102,1*%
%TO.N,/VDDPLL*%
X141732000Y-111445000D03*
%TO.P,C102,2*%
%TO.N,GND*%
X141732000Y-113345000D03*
%TD*%
%TO.P,C103,1*%
%TO.N,/VDDPLL*%
X143891000Y-111445000D03*
%TO.P,C103,2*%
%TO.N,GND*%
X143891000Y-113345000D03*
%TD*%
%TO.P,C203,1*%
%TO.N,+3.3V*%
X192532000Y-73218000D03*
%TO.P,C203,2*%
%TO.N,GND*%
X192532000Y-75118000D03*
%TD*%
D19*
%TO.P,C204,1*%
%TO.N,+3.3V*%
X190180000Y-71247000D03*
%TO.P,C204,2*%
%TO.N,Net-(U202-V+)*%
X188280000Y-71247000D03*
%TD*%
D17*
%TO.P,C205,1*%
%TO.N,Net-(U202-C1+)*%
X181102000Y-72964000D03*
%TO.P,C205,2*%
%TO.N,Net-(U202-C1-)*%
X181102000Y-74864000D03*
%TD*%
%TO.P,C206,1*%
%TO.N,Net-(U202-C2+)*%
X181102000Y-77282000D03*
%TO.P,C206,2*%
%TO.N,Net-(U202-C2-)*%
X181102000Y-79182000D03*
%TD*%
D20*
%TO.P,C202,1*%
%TO.N,+3.3V*%
X101666000Y-111252000D03*
%TO.P,C202,2*%
%TO.N,GND*%
X103566000Y-111252000D03*
%TD*%
D18*
%TO.P,C207,1*%
%TO.N,Net-(U202-V-)*%
X178562000Y-79055000D03*
%TO.P,C207,2*%
%TO.N,GND*%
X178562000Y-77155000D03*
%TD*%
D17*
%TO.P,C208,1*%
%TO.N,+3.3V*%
X164592000Y-73218000D03*
%TO.P,C208,2*%
%TO.N,GND*%
X164592000Y-75118000D03*
%TD*%
D19*
%TO.P,C209,1*%
%TO.N,+3.3V*%
X162240000Y-71247000D03*
%TO.P,C209,2*%
%TO.N,Net-(U203-V+)*%
X160340000Y-71247000D03*
%TD*%
D17*
%TO.P,C210,1*%
%TO.N,Net-(U203-C1+)*%
X153162000Y-72837000D03*
%TO.P,C210,2*%
%TO.N,Net-(U203-C1-)*%
X153162000Y-74737000D03*
%TD*%
%TO.P,C211,1*%
%TO.N,Net-(U203-C2+)*%
X153035000Y-77155000D03*
%TO.P,C211,2*%
%TO.N,Net-(U203-C2-)*%
X153035000Y-79055000D03*
%TD*%
D18*
%TO.P,C214,1*%
%TO.N,Net-(U203-V-)*%
X150876000Y-79055000D03*
%TO.P,C214,2*%
%TO.N,GND*%
X150876000Y-77155000D03*
%TD*%
D20*
%TO.P,C219,1*%
%TO.N,+3.3V*%
X107508000Y-84328000D03*
%TO.P,C219,2*%
%TO.N,GND*%
X109408000Y-84328000D03*
%TD*%
D19*
%TO.P,C217,1*%
%TO.N,+3.3V*%
X129220000Y-71247000D03*
%TO.P,C217,2*%
%TO.N,Net-(U204-V+)*%
X127320000Y-71247000D03*
%TD*%
D17*
%TO.P,C220,1*%
%TO.N,Net-(U204-C2+)*%
X120142000Y-77155000D03*
%TO.P,C220,2*%
%TO.N,Net-(U204-C2-)*%
X120142000Y-79055000D03*
%TD*%
D23*
%TO.P,C212,1*%
%TO.N,Net-(D201-K)*%
X88900000Y-87630000D03*
D24*
%TO.P,C212,2*%
%TO.N,GND*%
X88900000Y-82630000D03*
%TD*%
D23*
%TO.P,C215,1*%
%TO.N,+3.3V*%
X88900000Y-100330000D03*
D24*
%TO.P,C215,2*%
%TO.N,GND*%
X88900000Y-95330000D03*
%TD*%
D18*
%TO.P,C213,1*%
%TO.N,Net-(D201-K)*%
X104000000Y-78450000D03*
%TO.P,C213,2*%
%TO.N,GND*%
X104000000Y-76550000D03*
%TD*%
D20*
%TO.P,C201,1*%
%TO.N,GND*%
X182819000Y-125730000D03*
%TO.P,C201,2*%
%TO.N,Net-(MCU_PORT201-P1)*%
X184719000Y-125730000D03*
%TD*%
D17*
%TO.P,C218,1*%
%TO.N,Net-(U204-C1+)*%
X120142000Y-72837000D03*
%TO.P,C218,2*%
%TO.N,Net-(U204-C1-)*%
X120142000Y-74737000D03*
%TD*%
D18*
%TO.P,C221,1*%
%TO.N,Net-(U204-V-)*%
X117602000Y-79055000D03*
%TO.P,C221,2*%
%TO.N,GND*%
X117602000Y-77155000D03*
%TD*%
D17*
%TO.P,C216,1*%
%TO.N,+3.3V*%
X130937000Y-73599000D03*
%TO.P,C216,2*%
%TO.N,GND*%
X130937000Y-75499000D03*
%TD*%
D15*
%TO.P,CAN_TERM201,1,1*%
%TO.N,/inout_user/CAN_H*%
X96647000Y-95758000D03*
D16*
%TO.P,CAN_TERM201,2,2*%
%TO.N,Net-(CAN_TERM201-Pad2)*%
X96647000Y-93218000D03*
%TD*%
D15*
%TO.P,CLKOUT101,1,1*%
%TO.N,/TCLK*%
X83439000Y-134239000D03*
%TD*%
%TO.P,COM_SEL203,1,P1*%
%TO.N,/inout_user/CAN_H*%
X114500000Y-78613000D03*
D16*
%TO.P,COM_SEL203,2,PM*%
%TO.N,/inout_user/CTS2{slash}CANH*%
X114500000Y-76073000D03*
%TO.P,COM_SEL203,3,P3*%
%TO.N,Net-(COM_SEL203-P3)*%
X114500000Y-73533000D03*
%TD*%
D15*
%TO.P,COM_SEL202,1,P1*%
%TO.N,GND*%
X110744000Y-78613000D03*
D16*
%TO.P,COM_SEL202,2,PM*%
%TO.N,/inout_user/RXD2*%
X110744000Y-76073000D03*
%TO.P,COM_SEL202,3,P3*%
%TO.N,Net-(COM_SEL202-P3)*%
X110744000Y-73533000D03*
%TD*%
D15*
%TO.P,CT101,1,1*%
%TO.N,Net-(BDM_PORT101-P6)*%
X91440000Y-134620000D03*
D16*
%TO.P,CT101,2,2*%
%TO.N,/TCLK*%
X88900000Y-134620000D03*
%TD*%
D25*
%TO.P,D101,*%
%TO.N,*%
X159401000Y-103439000D03*
%TO.P,D101,1,K*%
%TO.N,Net-(D101-K)*%
X161401000Y-102489000D03*
%TO.P,D101,2,A*%
%TO.N,/IRQ-7*%
X159401000Y-101539000D03*
%TD*%
%TO.P,D102,*%
%TO.N,*%
X160798000Y-96581000D03*
%TO.P,D102,1,K*%
%TO.N,Net-(D102-K)*%
X162798000Y-95631000D03*
%TO.P,D102,2,A*%
%TO.N,/RSTI-*%
X160798000Y-94681000D03*
%TD*%
D26*
%TO.P,D201,1,K*%
%TO.N,Net-(D201-K)*%
X95000000Y-77000000D03*
D27*
%TO.P,D201,2,A*%
%TO.N,GND*%
X82300000Y-77000000D03*
%TD*%
D28*
%TO.P,D301,1,K*%
%TO.N,GND*%
X213490000Y-76835000D03*
%TO.P,D301,2,A*%
%TO.N,Net-(D301-A)*%
X210690000Y-76835000D03*
%TD*%
%TO.P,D302,1,K*%
%TO.N,GND*%
X213490000Y-80645000D03*
%TO.P,D302,2,A*%
%TO.N,Net-(D302-A)*%
X210690000Y-80645000D03*
%TD*%
D29*
%TO.P,F201,1*%
%TO.N,Net-(F201-Pad1)*%
X99800000Y-74425000D03*
%TO.P,F201,2*%
%TO.N,Net-(D201-K)*%
X99800000Y-80775000D03*
%TD*%
D30*
%TO.P,FB101,1,1*%
%TO.N,GND*%
X121184000Y-101346000D03*
%TO.P,FB101,2,2*%
%TO.N,GNDA*%
X118084000Y-101346000D03*
%TD*%
D15*
%TO.P,GND101,1,1*%
%TO.N,GND*%
X89535000Y-140970000D03*
%TD*%
D31*
%TO.P,J201,1*%
%TO.N,GND*%
X104400000Y-67900000D03*
D32*
%TO.P,J201,2*%
X104500000Y-60000000D03*
D33*
%TO.P,J201,3*%
%TO.N,Net-(TB201-P1)*%
X98300000Y-63100000D03*
%TD*%
D34*
%TO.P,L102,1,1*%
%TO.N,Net-(L102-Pad1)*%
X117449000Y-110236000D03*
%TO.P,L102,2,2*%
%TO.N,/VCCA*%
X120549000Y-110236000D03*
%TD*%
D30*
%TO.P,L101,1,1*%
%TO.N,+3.3V*%
X153442000Y-109220000D03*
%TO.P,L101,2,2*%
%TO.N,/VDDPLL*%
X150342000Y-109220000D03*
%TD*%
D35*
%TO.P,LED201,1,K*%
%TO.N,GND*%
X86992000Y-117094000D03*
%TO.P,LED201,2,A*%
%TO.N,Net-(LED201-A)*%
X89792000Y-117094000D03*
%TD*%
%TO.P,LED202,1,K*%
%TO.N,GND*%
X86992000Y-121158000D03*
%TO.P,LED202,2,A*%
%TO.N,Net-(LED202-A)*%
X89792000Y-121158000D03*
%TD*%
%TO.P,LED203,1,K*%
%TO.N,GND*%
X86992000Y-125349000D03*
%TO.P,LED203,2,A*%
%TO.N,Net-(LED203-A)*%
X89792000Y-125349000D03*
%TD*%
%TO.P,LED204,1,K*%
%TO.N,GND*%
X86992000Y-129540000D03*
%TO.P,LED204,2,A*%
%TO.N,Net-(LED204-A)*%
X89792000Y-129540000D03*
%TD*%
D36*
%TO.P,LED205,1,K*%
%TO.N,GND*%
X104140000Y-139576000D03*
%TO.P,LED205,2,A*%
%TO.N,Net-(LED205-A)*%
X104140000Y-136776000D03*
%TD*%
%TO.P,LEDABRT101,1,K*%
%TO.N,Net-(LEDABRT101-K)*%
X164846000Y-101857000D03*
%TO.P,LEDABRT101,2,A*%
%TO.N,+3.3V*%
X164846000Y-99057000D03*
%TD*%
D37*
%TO.P,LV101,1,Rst*%
%TO.N,Net-(D102-K)*%
X186690000Y-89408000D03*
D38*
%TO.P,LV101,2,In*%
%TO.N,+3.3V*%
X187960000Y-88138000D03*
%TO.P,LV101,3,Gbd*%
%TO.N,GND*%
X189230000Y-89408000D03*
%TD*%
D15*
%TO.P,MCU_PORT201,1,P1*%
%TO.N,Net-(MCU_PORT201-P1)*%
X184404000Y-136906000D03*
D16*
%TO.P,MCU_PORT201,2,P2*%
%TO.N,/IRQ-1*%
X184404000Y-139446000D03*
%TO.P,MCU_PORT201,3,P3*%
%TO.N,GND*%
X181864000Y-136906000D03*
%TO.P,MCU_PORT201,4,P4*%
%TO.N,/RSTO-*%
X181864000Y-139446000D03*
%TO.P,MCU_PORT201,5,P5*%
%TO.N,/UTXD1*%
X179324000Y-136906000D03*
%TO.P,MCU_PORT201,6,P6*%
%TO.N,/RSTI-*%
X179324000Y-139446000D03*
%TO.P,MCU_PORT201,7,P7*%
%TO.N,/URXD1*%
X176784000Y-136906000D03*
%TO.P,MCU_PORT201,8,P8*%
%TO.N,/IRQ-2*%
X176784000Y-139446000D03*
%TO.P,MCU_PORT201,9,P9*%
%TO.N,/URTS1*%
X174244000Y-136906000D03*
%TO.P,MCU_PORT201,10,P10*%
%TO.N,/AN0*%
X174244000Y-139446000D03*
%TO.P,MCU_PORT201,11,P11*%
%TO.N,/UCTS1*%
X171704000Y-136906000D03*
%TO.P,MCU_PORT201,12,P12*%
%TO.N,/AN1*%
X171704000Y-139446000D03*
%TO.P,MCU_PORT201,13,P13*%
%TO.N,/PWM1*%
X169164000Y-136906000D03*
%TO.P,MCU_PORT201,14,P14*%
%TO.N,/AN2*%
X169164000Y-139446000D03*
%TO.P,MCU_PORT201,15,P15*%
%TO.N,/PWM3*%
X166624000Y-136906000D03*
%TO.P,MCU_PORT201,16,P16*%
%TO.N,/AN3*%
X166624000Y-139446000D03*
%TO.P,MCU_PORT201,17,P17*%
%TO.N,/DSPI_DOUT*%
X164084000Y-136906000D03*
%TO.P,MCU_PORT201,18,P18*%
%TO.N,/AN4*%
X164084000Y-139446000D03*
%TO.P,MCU_PORT201,19,P19*%
%TO.N,/QSPI_DIN*%
X161544000Y-136906000D03*
%TO.P,MCU_PORT201,20,P20*%
%TO.N,/AN5*%
X161544000Y-139446000D03*
%TO.P,MCU_PORT201,21,P21*%
%TO.N,/QSPI_CLK*%
X159004000Y-136906000D03*
%TO.P,MCU_PORT201,22,P22*%
%TO.N,/AN6*%
X159004000Y-139446000D03*
%TO.P,MCU_PORT201,23,P23*%
%TO.N,/QSPI_CS0*%
X156464000Y-136906000D03*
%TO.P,MCU_PORT201,24,P24*%
%TO.N,/AN7*%
X156464000Y-139446000D03*
%TO.P,MCU_PORT201,25*%
%TO.N,/QSPI_CS1*%
X153924000Y-136906000D03*
%TO.P,MCU_PORT201,26,P26*%
%TO.N,/CANTX*%
X153924000Y-139446000D03*
%TO.P,MCU_PORT201,27,P27*%
%TO.N,/QSPI_CS2*%
X151384000Y-136906000D03*
%TO.P,MCU_PORT201,28,P28*%
%TO.N,/CANRX*%
X151384000Y-139446000D03*
%TO.P,MCU_PORT201,29,P29*%
%TO.N,/QSPI_CS3*%
X148844000Y-136906000D03*
%TO.P,MCU_PORT201,30,P30*%
%TO.N,/PWM5*%
X148844000Y-139446000D03*
%TO.P,MCU_PORT201,31,P31*%
%TO.N,/IRQ-3*%
X146304000Y-136906000D03*
%TO.P,MCU_PORT201,32,P32*%
%TO.N,/PWM7*%
X146304000Y-139446000D03*
%TO.P,MCU_PORT201,33,P33*%
%TO.N,/IRQ-4*%
X143764000Y-136906000D03*
%TO.P,MCU_PORT201,34,P34*%
%TO.N,/DTIN0*%
X143764000Y-139446000D03*
%TO.P,MCU_PORT201,35,P35*%
%TO.N,/IRQ-5*%
X141224000Y-136906000D03*
%TO.P,MCU_PORT201,36,P36*%
%TO.N,/DTIN1*%
X141224000Y-139446000D03*
%TO.P,MCU_PORT201,37,P37*%
%TO.N,/IRQ-6*%
X138684000Y-136906000D03*
%TO.P,MCU_PORT201,38,P38*%
%TO.N,/DTIN2*%
X138684000Y-139446000D03*
%TO.P,MCU_PORT201,39,P39*%
%TO.N,/IRQ-7*%
X136144000Y-136906000D03*
%TO.P,MCU_PORT201,40,P40*%
%TO.N,/DTIN3*%
X136144000Y-139446000D03*
%TO.P,MCU_PORT201,41,P41*%
%TO.N,/UTXD0*%
X133604000Y-136906000D03*
%TO.P,MCU_PORT201,42,P42*%
%TO.N,/URTS0*%
X133604000Y-139446000D03*
%TO.P,MCU_PORT201,43,P43*%
%TO.N,/URXD0*%
X131064000Y-136906000D03*
%TO.P,MCU_PORT201,44,P44*%
%TO.N,/UCTS0*%
X131064000Y-139446000D03*
%TO.P,MCU_PORT201,45,P45*%
%TO.N,/UTXD2*%
X128524000Y-136906000D03*
%TO.P,MCU_PORT201,46,P46*%
%TO.N,/URTS2*%
X128524000Y-139446000D03*
%TO.P,MCU_PORT201,47,P47*%
%TO.N,/URXD2*%
X125984000Y-136906000D03*
%TO.P,MCU_PORT201,48,P48*%
%TO.N,/UCTS2*%
X125984000Y-139446000D03*
%TO.P,MCU_PORT201,49,P49*%
%TO.N,/GPT0*%
X123444000Y-136906000D03*
%TO.P,MCU_PORT201,50,P50*%
%TO.N,/GPT1*%
X123444000Y-139446000D03*
%TO.P,MCU_PORT201,51,P51*%
%TO.N,/GPT2*%
X120904000Y-136906000D03*
%TO.P,MCU_PORT201,52,P52*%
%TO.N,/GPT3*%
X120904000Y-139446000D03*
%TO.P,MCU_PORT201,53,P53*%
%TO.N,/RCON-*%
X118364000Y-136906000D03*
%TO.P,MCU_PORT201,54,P54*%
%TO.N,GND*%
X118364000Y-139446000D03*
%TO.P,MCU_PORT201,55,P55*%
%TO.N,/VCCA*%
X115824000Y-136906000D03*
%TO.P,MCU_PORT201,56,P56*%
%TO.N,GNDA*%
X115824000Y-139446000D03*
%TO.P,MCU_PORT201,57,P57*%
%TO.N,/VCCA*%
X113284000Y-136906000D03*
%TO.P,MCU_PORT201,58,P58*%
%TO.N,GNDA*%
X113284000Y-139446000D03*
%TO.P,MCU_PORT201,59,P59*%
%TO.N,+3.3V*%
X110744000Y-136906000D03*
%TO.P,MCU_PORT201,60,P60*%
%TO.N,GND*%
X110744000Y-139446000D03*
%TD*%
D15*
%TO.P,P301,1,1*%
%TO.N,+3.3V*%
X223520000Y-63500000D03*
D16*
%TO.P,P301,2,2*%
%TO.N,GND*%
X223520000Y-66040000D03*
%TO.P,P301,3,3*%
%TO.N,/xilinx/TMS*%
X223520000Y-68580000D03*
%TO.P,P301,4,4*%
%TO.N,/xilinx/TDI*%
X223520000Y-71120000D03*
%TO.P,P301,5,5*%
%TO.N,/xilinx/TCK*%
X223520000Y-73660000D03*
%TO.P,P301,6,6*%
%TO.N,/xilinx/TDO*%
X223520000Y-76200000D03*
%TD*%
D15*
%TO.P,P303,1,P1*%
%TO.N,/xilinx/XIL_D0*%
X222250000Y-88900000D03*
D16*
%TO.P,P303,2,P2*%
%TO.N,GND*%
X224790000Y-88900000D03*
%TO.P,P303,3,P3*%
%TO.N,/xilinx/XIL_D1*%
X222250000Y-91440000D03*
%TO.P,P303,4,P4*%
%TO.N,/xilinx/XIL_D20*%
X224790000Y-91440000D03*
%TO.P,P303,5,P5*%
%TO.N,/xilinx/XIL_D2*%
X222250000Y-93980000D03*
%TO.P,P303,6,P6*%
%TO.N,/xilinx/XIL_D21*%
X224790000Y-93980000D03*
%TO.P,P303,7,P7*%
%TO.N,/xilinx/XIL_D3*%
X222250000Y-96520000D03*
%TO.P,P303,8,P8*%
%TO.N,/xilinx/XIL_D22*%
X224790000Y-96520000D03*
%TO.P,P303,9,P9*%
%TO.N,/xilinx/XIL_D4*%
X222250000Y-99060000D03*
%TO.P,P303,10,P10*%
%TO.N,/xilinx/XIL_D23*%
X224790000Y-99060000D03*
%TO.P,P303,11,P11*%
%TO.N,/xilinx/XIL_D5*%
X222250000Y-101600000D03*
%TO.P,P303,12,P12*%
%TO.N,/xilinx/XIL_D24*%
X224790000Y-101600000D03*
%TO.P,P303,13,P13*%
%TO.N,/xilinx/XIL_D6*%
X222250000Y-104140000D03*
%TO.P,P303,14,P14*%
%TO.N,/xilinx/XIL_D25*%
X224790000Y-104140000D03*
%TO.P,P303,15,P15*%
%TO.N,/xilinx/XIL_D7*%
X222250000Y-106680000D03*
%TO.P,P303,16,P16*%
%TO.N,/xilinx/XIL_D26*%
X224790000Y-106680000D03*
%TO.P,P303,17,P17*%
%TO.N,/xilinx/XIL_D8*%
X222250000Y-109220000D03*
%TO.P,P303,18,P18*%
%TO.N,/xilinx/XIL_D27*%
X224790000Y-109220000D03*
%TO.P,P303,19,P19*%
%TO.N,/xilinx/XIL_D9*%
X222250000Y-111760000D03*
%TO.P,P303,20,P20*%
%TO.N,/xilinx/XIL_D28*%
X224790000Y-111760000D03*
%TO.P,P303,21,P21*%
%TO.N,/xilinx/XIL_D10*%
X222250000Y-114300000D03*
%TO.P,P303,22,P22*%
%TO.N,/xilinx/XIL_D29*%
X224790000Y-114300000D03*
%TO.P,P303,23,P23*%
%TO.N,/xilinx/XIL_D11*%
X222250000Y-116840000D03*
%TO.P,P303,24,P24*%
%TO.N,/xilinx/XIL_D30*%
X224790000Y-116840000D03*
%TO.P,P303,25*%
%TO.N,/xilinx/XIL_D12*%
X222250000Y-119380000D03*
%TO.P,P303,26,P26*%
%TO.N,/xilinx/XIL_D31*%
X224790000Y-119380000D03*
%TO.P,P303,27,P27*%
%TO.N,/xilinx/XIL_D13*%
X222250000Y-121920000D03*
%TO.P,P303,28,P28*%
%TO.N,/xilinx/XIL_D32*%
X224790000Y-121920000D03*
%TO.P,P303,29,P29*%
%TO.N,/xilinx/XIL_D14*%
X222250000Y-124460000D03*
%TO.P,P303,30,P30*%
%TO.N,/xilinx/XIL_D33*%
X224790000Y-124460000D03*
%TO.P,P303,31,P31*%
%TO.N,/xilinx/XIL_D15*%
X222250000Y-127000000D03*
%TO.P,P303,32,P32*%
%TO.N,/xilinx/XIL_D34*%
X224790000Y-127000000D03*
%TO.P,P303,33,P33*%
%TO.N,/xilinx/XIL_D16*%
X222250000Y-129540000D03*
%TO.P,P303,34,P34*%
%TO.N,/xilinx/XIL_D35*%
X224790000Y-129540000D03*
%TO.P,P303,35,P35*%
%TO.N,/xilinx/XIL_D17*%
X222250000Y-132080000D03*
%TO.P,P303,36,P36*%
%TO.N,/xilinx/XIL_D36*%
X224790000Y-132080000D03*
%TO.P,P303,37,P37*%
%TO.N,/xilinx/XIL_D18*%
X222250000Y-134620000D03*
%TO.P,P303,38,P38*%
%TO.N,/xilinx/+3\u002C3V_OUT*%
X224790000Y-134620000D03*
%TO.P,P303,39,P39*%
%TO.N,/xilinx/XIL_D19*%
X222250000Y-137160000D03*
%TO.P,P303,40,P40*%
%TO.N,GND*%
X224790000Y-137160000D03*
%TD*%
D15*
%TO.P,PULUPEN201,1,1*%
%TO.N,/QSPI_CLK*%
X165227000Y-117983000D03*
D16*
%TO.P,PULUPEN201,2,2*%
%TO.N,Net-(PULUPEN201-Pad2)*%
X165227000Y-120523000D03*
%TO.P,PULUPEN201,3,3*%
%TO.N,/QSPI_CS0*%
X162687000Y-117983000D03*
%TO.P,PULUPEN201,4,4*%
%TO.N,Net-(PULUPEN201-Pad4)*%
X162687000Y-120523000D03*
%TO.P,PULUPEN201,5,5*%
%TO.N,/CANTX*%
X160147000Y-117983000D03*
%TO.P,PULUPEN201,6,6*%
%TO.N,Net-(PULUPEN201-Pad6)*%
X160147000Y-120523000D03*
%TO.P,PULUPEN201,7,7*%
%TO.N,/CANRX*%
X157607000Y-117983000D03*
%TO.P,PULUPEN201,8,8*%
%TO.N,Net-(PULUPEN201-Pad8)*%
X157607000Y-120523000D03*
%TD*%
D39*
%TO.P,Q101,1,E*%
%TO.N,+3.3V*%
X160782000Y-90932000D03*
%TO.P,Q101,2,B*%
%TO.N,Net-(Q101-B)*%
X160782000Y-89154000D03*
%TO.P,Q101,3,C*%
%TO.N,Net-(Q101-C)*%
X162814000Y-90043000D03*
%TD*%
D40*
%TO.P,R125,1*%
%TO.N,/XTAL*%
X128270000Y-122197500D03*
%TO.P,R125,2*%
%TO.N,/CLKIN{slash}EXTAL*%
X128270000Y-120372500D03*
%TD*%
D41*
%TO.P,R102,1*%
%TO.N,+3.3V*%
X103354500Y-96647000D03*
%TO.P,R102,2*%
%TO.N,/CLKMOD1*%
X105179500Y-96647000D03*
%TD*%
D42*
%TO.P,R118,1*%
%TO.N,/IRQ-1*%
X184681500Y-121158000D03*
%TO.P,R118,2*%
%TO.N,+3.3V*%
X182856500Y-121158000D03*
%TD*%
%TO.P,R119,1*%
%TO.N,/IRQ-2*%
X184681500Y-123444000D03*
%TO.P,R119,2*%
%TO.N,+3.3V*%
X182856500Y-123444000D03*
%TD*%
D41*
%TO.P,R120,1*%
%TO.N,/IRQ-3*%
X152122500Y-93853000D03*
%TO.P,R120,2*%
%TO.N,+3.3V*%
X153947500Y-93853000D03*
%TD*%
D43*
%TO.P,R104,1*%
%TO.N,Net-(ABRT_SW101-Pad1)*%
X163957000Y-111355500D03*
%TO.P,R104,2*%
%TO.N,Net-(C104-Pad1)*%
X163957000Y-113180500D03*
%TD*%
D41*
%TO.P,R121,1*%
%TO.N,/IRQ-4*%
X168759500Y-117094000D03*
%TO.P,R121,2*%
%TO.N,+3.3V*%
X170584500Y-117094000D03*
%TD*%
D40*
%TO.P,R113,1*%
%TO.N,Net-(U102-TEST)*%
X141478000Y-86764500D03*
%TO.P,R113,2*%
%TO.N,GND*%
X141478000Y-84939500D03*
%TD*%
D42*
%TO.P,R122,1*%
%TO.N,/IRQ-5*%
X174775500Y-117094000D03*
%TO.P,R122,2*%
%TO.N,+3.3V*%
X172950500Y-117094000D03*
%TD*%
D41*
%TO.P,R123,1*%
%TO.N,/IRQ-6*%
X152122500Y-98298000D03*
%TO.P,R123,2*%
%TO.N,+3.3V*%
X153947500Y-98298000D03*
%TD*%
D42*
%TO.P,R105,1*%
%TO.N,Net-(C104-Pad1)*%
X161313500Y-114046000D03*
%TO.P,R105,2*%
%TO.N,GND*%
X159488500Y-114046000D03*
%TD*%
D41*
%TO.P,R124,1*%
%TO.N,/IRQ-7*%
X152122500Y-96012000D03*
%TO.P,R124,2*%
%TO.N,+3.3V*%
X153947500Y-96012000D03*
%TD*%
D43*
%TO.P,R103,1*%
%TO.N,Net-(LEDABRT101-K)*%
X164846000Y-104497500D03*
%TO.P,R103,2*%
%TO.N,Net-(D101-K)*%
X164846000Y-106322500D03*
%TD*%
D40*
%TO.P,R106,1*%
%TO.N,+3.3V*%
X158623000Y-95781500D03*
%TO.P,R106,2*%
%TO.N,/RSTI-*%
X158623000Y-93956500D03*
%TD*%
D42*
%TO.P,R111,1*%
%TO.N,+3.3V*%
X121054500Y-97282000D03*
%TO.P,R111,2*%
%TO.N,/JTAG_EN*%
X119229500Y-97282000D03*
%TD*%
%TO.P,R107,1*%
%TO.N,+3.3V*%
X84224500Y-104267000D03*
%TO.P,R107,2*%
%TO.N,/BKPT-*%
X82399500Y-104267000D03*
%TD*%
%TO.P,R108,1*%
%TO.N,+3.3V*%
X84224500Y-106553000D03*
%TO.P,R108,2*%
%TO.N,/DSCLK*%
X82399500Y-106553000D03*
%TD*%
%TO.P,R109,1*%
%TO.N,+3.3V*%
X84224500Y-119126000D03*
%TO.P,R109,2*%
%TO.N,/DSI*%
X82399500Y-119126000D03*
%TD*%
%TO.P,R110,1*%
%TO.N,+3.3V*%
X84224500Y-121412000D03*
%TO.P,R110,2*%
%TO.N,/DSO*%
X82399500Y-121412000D03*
%TD*%
D40*
%TO.P,R115,1*%
%TO.N,/RSTO-*%
X158623000Y-91209500D03*
%TO.P,R115,2*%
%TO.N,Net-(Q101-B)*%
X158623000Y-89384500D03*
%TD*%
D41*
%TO.P,R116,1*%
%TO.N,Net-(Q101-C)*%
X160631500Y-86995000D03*
%TO.P,R116,2*%
%TO.N,Net-(LED_RST101-A)*%
X162456500Y-86995000D03*
%TD*%
D42*
%TO.P,R215,1*%
%TO.N,GND*%
X128801500Y-84455000D03*
%TO.P,R215,2*%
%TO.N,Net-(U204-T1IN)*%
X126976500Y-84455000D03*
%TD*%
D41*
%TO.P,R101,1*%
%TO.N,+3.3V*%
X103354500Y-98933000D03*
%TO.P,R101,2*%
%TO.N,/CLKMOD0*%
X105179500Y-98933000D03*
%TD*%
D43*
%TO.P,R117,1*%
%TO.N,/TCLK*%
X84836000Y-112879500D03*
%TO.P,R117,2*%
%TO.N,GND*%
X84836000Y-114704500D03*
%TD*%
D41*
%TO.P,R202,1*%
%TO.N,Net-(LED201-A)*%
X92305500Y-117094000D03*
%TO.P,R202,2*%
%TO.N,Net-(U201A-O)*%
X94130500Y-117094000D03*
%TD*%
D40*
%TO.P,R205,1*%
%TO.N,GND*%
X192532000Y-83208500D03*
%TO.P,R205,2*%
%TO.N,Net-(U202-T2IN)*%
X192532000Y-81383500D03*
%TD*%
D41*
%TO.P,R203,1*%
%TO.N,Net-(LED202-A)*%
X92305500Y-121158000D03*
%TO.P,R203,2*%
%TO.N,Net-(U201B-O)*%
X94130500Y-121158000D03*
%TD*%
%TO.P,R204,1*%
%TO.N,Net-(LED203-A)*%
X92305500Y-125349000D03*
%TO.P,R204,2*%
%TO.N,Net-(U201D-O)*%
X94130500Y-125349000D03*
%TD*%
%TO.P,R206,1*%
%TO.N,Net-(LED204-A)*%
X92305500Y-129413000D03*
%TO.P,R206,2*%
%TO.N,Net-(U201C-O)*%
X94130500Y-129413000D03*
%TD*%
D42*
%TO.P,R201,1*%
%TO.N,+3.3V*%
X97432500Y-109728000D03*
%TO.P,R201,2*%
%TO.N,Net-(U201A-E)*%
X95607500Y-109728000D03*
%TD*%
D40*
%TO.P,R208,1*%
%TO.N,GND*%
X164592000Y-83208500D03*
%TO.P,R208,2*%
%TO.N,Net-(U203-T2IN)*%
X164592000Y-81383500D03*
%TD*%
D41*
%TO.P,R210,1*%
%TO.N,Net-(U205-Rsl)*%
X100941500Y-92837000D03*
%TO.P,R210,2*%
%TO.N,GND*%
X102766500Y-92837000D03*
%TD*%
D42*
%TO.P,R209,1*%
%TO.N,/inout_user/CAN_L*%
X100607500Y-85471000D03*
%TO.P,R209,2*%
%TO.N,Net-(CAN_TERM201-Pad2)*%
X98782500Y-85471000D03*
%TD*%
D40*
%TO.P,R112,1*%
%TO.N,/RCON-*%
X100584000Y-102385500D03*
%TO.P,R112,2*%
%TO.N,+3.3V*%
X100584000Y-100560500D03*
%TD*%
D43*
%TO.P,R114,1*%
%TO.N,Net-(U102-TCLK{slash}PSTCLK{slash}CLKOUT)*%
X134874000Y-112498500D03*
%TO.P,R114,2*%
%TO.N,/TCLK*%
X134874000Y-114323500D03*
%TD*%
D40*
%TO.P,R214,1*%
%TO.N,+3.3V*%
X157734000Y-126388500D03*
%TO.P,R214,2*%
%TO.N,Net-(PULUPEN201-Pad8)*%
X157734000Y-124563500D03*
%TD*%
%TO.P,R213,1*%
%TO.N,+3.3V*%
X160274000Y-126388500D03*
%TO.P,R213,2*%
%TO.N,Net-(PULUPEN201-Pad6)*%
X160274000Y-124563500D03*
%TD*%
%TO.P,R212,1*%
%TO.N,+3.3V*%
X162814000Y-126388500D03*
%TO.P,R212,2*%
%TO.N,Net-(PULUPEN201-Pad4)*%
X162814000Y-124563500D03*
%TD*%
%TO.P,R211,1*%
%TO.N,+3.3V*%
X165354000Y-126388500D03*
%TO.P,R211,2*%
%TO.N,Net-(PULUPEN201-Pad2)*%
X165354000Y-124563500D03*
%TD*%
D41*
%TO.P,R207,1*%
%TO.N,Net-(LED205-A)*%
X104497500Y-133858000D03*
%TO.P,R207,2*%
%TO.N,+3.3V*%
X106322500Y-133858000D03*
%TD*%
D43*
%TO.P,R301,1*%
%TO.N,+3.3V*%
X218250000Y-72087500D03*
%TO.P,R301,2*%
%TO.N,/xilinx/TCK*%
X218250000Y-73912500D03*
%TD*%
D41*
%TO.P,R303,1*%
%TO.N,/xilinx/LED_TEST1*%
X205462500Y-76835000D03*
%TO.P,R303,2*%
%TO.N,Net-(D301-A)*%
X207287500Y-76835000D03*
%TD*%
%TO.P,R304,1*%
%TO.N,/xilinx/LED_TEST2*%
X205462500Y-80645000D03*
%TO.P,R304,2*%
%TO.N,Net-(D302-A)*%
X207287500Y-80645000D03*
%TD*%
D24*
%TO.P,R302,1*%
%TO.N,+3.3V*%
X207010000Y-134620000D03*
D44*
%TO.P,R302,2*%
%TO.N,/xilinx/+3\u002C3V_OUT*%
X217170000Y-134620000D03*
%TD*%
D41*
%TO.P,RCAN202,1*%
%TO.N,+3.3V*%
X98782500Y-87757000D03*
%TO.P,RCAN202,2*%
%TO.N,/inout_user/CAN_L*%
X100607500Y-87757000D03*
%TD*%
%TO.P,RCAN201,1*%
%TO.N,GND*%
X98782500Y-90043000D03*
%TO.P,RCAN201,2*%
%TO.N,/inout_user/CAN_H*%
X100607500Y-90043000D03*
%TD*%
D36*
%TO.P,LED_RST101,1,K*%
%TO.N,GND*%
X164846000Y-90681000D03*
%TO.P,LED_RST101,2,A*%
%TO.N,Net-(LED_RST101-A)*%
X164846000Y-87881000D03*
%TD*%
D15*
%TO.P,RS201,1,1*%
%TO.N,Net-(U205-Rsl)*%
X100457000Y-95758000D03*
%TD*%
D14*
%TO.P,RST_SW101,1,1*%
%TO.N,Net-(D102-K)*%
X176149000Y-92329000D03*
X168529000Y-92329000D03*
%TO.P,RST_SW101,2,2*%
%TO.N,GND*%
X176149000Y-87249000D03*
X168529000Y-87249000D03*
%TD*%
%TO.P,SW201,1,1*%
%TO.N,/IRQ-4*%
X168529000Y-108077000D03*
X176149000Y-108077000D03*
%TO.P,SW201,2,2*%
%TO.N,GND*%
X168529000Y-113157000D03*
X176149000Y-113157000D03*
%TD*%
%TO.P,SW202,1,1*%
%TO.N,/IRQ-5*%
X168656000Y-119761000D03*
X176276000Y-119761000D03*
%TO.P,SW202,2,2*%
%TO.N,GND*%
X168656000Y-124841000D03*
X176276000Y-124841000D03*
%TD*%
D45*
%TO.P,SW_ONOFF201,1,1*%
%TO.N,unconnected-(SW_ONOFF201-Pad1)*%
X84420000Y-71374000D03*
%TO.P,SW_ONOFF201,2,2*%
%TO.N,Net-(F201-Pad1)*%
X89500000Y-71374000D03*
%TO.P,SW_ONOFF201,3,3*%
%TO.N,Net-(TB201-P1)*%
X94580000Y-71374000D03*
%TD*%
D15*
%TO.P,TA-101,1,1*%
%TO.N,Net-(BDM_PORT101-P22-Pad26)*%
X83439000Y-138557000D03*
%TD*%
D46*
%TO.P,TB201,1,P1*%
%TO.N,Net-(TB201-P1)*%
X76000000Y-65500000D03*
D47*
%TO.P,TB201,2,PM*%
%TO.N,GND*%
X76000000Y-70500000D03*
%TD*%
D48*
%TO.P,U102,1,VCC*%
%TO.N,+3.3V*%
X141382000Y-93798000D03*
%TO.P,U102,2,VCC*%
X140882000Y-93798000D03*
%TO.P,U102,3,GND*%
%TO.N,GND*%
X140382000Y-93798000D03*
%TO.P,U102,4,~{URTS1}/SYNCB/UTXD2/PUB2*%
%TO.N,/URTS1*%
X139882000Y-93798000D03*
%TO.P,U102,5,TEST*%
%TO.N,Net-(U102-TEST)*%
X139382000Y-93798000D03*
%TO.P,U102,6,~{UCTS0}/CANRX/PUA3*%
%TO.N,/UCTS0*%
X138882000Y-93798000D03*
%TO.P,U102,7,URXD0/PUA1*%
%TO.N,/URXD0*%
X138382000Y-93798000D03*
%TO.P,U102,8,UTXD0/PUA0*%
%TO.N,/UTXD0*%
X137882000Y-93798000D03*
%TO.P,U102,9,~{URTS0}/CANTX/PUA2*%
%TO.N,/URTS0*%
X137382000Y-93798000D03*
%TO.P,U102,10,SCL/CANTX/PAS0/UTXD2*%
%TO.N,/CANTX*%
X136882000Y-93798000D03*
%TO.P,U102,11,SDA/CANRX/PAS1/URXD2*%
%TO.N,/CANRX*%
X136382000Y-93798000D03*
%TO.P,U102,12,QSPI_CS3/SYNCA/SYNCB/PQS6*%
%TO.N,/QSPI_CS3*%
X135882000Y-93798000D03*
%TO.P,U102,13,QSPI_CS2/PQS5*%
%TO.N,/QSPI_CS2*%
X135382000Y-93798000D03*
%TO.P,U102,14,VCC*%
%TO.N,+3.3V*%
X134882000Y-93798000D03*
%TO.P,U102,15,GND*%
%TO.N,GND*%
X134382000Y-93798000D03*
%TO.P,U102,16,QSPI_DIN/EZPD/CANRX/RXD1/PQS1*%
%TO.N,/QSPI_DIN*%
X133882000Y-93798000D03*
%TO.P,U102,17,QSPI_DOUT/EZPQ/CANTX/RXD0/PQS0*%
%TO.N,/DSPI_DOUT*%
X133382000Y-93798000D03*
%TO.P,U102,18,QSPI_CLK/EZPCK/SCL/RTS1/PQS2*%
%TO.N,/QSPI_CLK*%
X132882000Y-93798000D03*
%TO.P,U102,19,QSPI_CS1/PQS4*%
%TO.N,/QSPI_CS1*%
X132382000Y-93798000D03*
%TO.P,U102,20,QSPI_CS0/SDA/CTS1/PQS3*%
%TO.N,/QSPI_CS0*%
X131882000Y-93798000D03*
%TO.P,U102,21,RCON/EZPCS*%
%TO.N,/RCON-*%
X131382000Y-93798000D03*
%TO.P,U102,22,VCC*%
%TO.N,+3.3V*%
X130882000Y-93798000D03*
%TO.P,U102,23,VCC*%
X130382000Y-93798000D03*
%TO.P,U102,24,GND*%
%TO.N,GND*%
X129882000Y-93798000D03*
%TO.P,U102,25,GND*%
X129382000Y-93798000D03*
D49*
%TO.P,U102,26,JTAG_EN*%
%TO.N,/JTAG_EN*%
X127707000Y-95473000D03*
%TO.P,U102,27,~{UCTS2}/PUC3*%
%TO.N,/UCTS2*%
X127707000Y-95973000D03*
%TO.P,U102,28,URXD2/PUC1*%
%TO.N,/URXD2*%
X127707000Y-96473000D03*
%TO.P,U102,29,UTXD2/PUC0*%
%TO.N,/UTXD2*%
X127707000Y-96973000D03*
%TO.P,U102,30,~{URTS2}/PUC2*%
%TO.N,/URTS2*%
X127707000Y-97473000D03*
%TO.P,U102,31,DTIN2/DTOUT2/PWM4/PTC2*%
%TO.N,/DTIN2*%
X127707000Y-97973000D03*
%TO.P,U102,32,DTIN3/DTOUT3/PWM6/PTC3*%
%TO.N,/DTIN3*%
X127707000Y-98473000D03*
%TO.P,U102,33,PWM3/PTD1*%
%TO.N,/PWM3*%
X127707000Y-98973000D03*
%TO.P,U102,34,VCC*%
%TO.N,+3.3V*%
X127707000Y-99473000D03*
%TO.P,U102,35,GND*%
%TO.N,GND*%
X127707000Y-99973000D03*
%TO.P,U102,36,DTIN0/DTOUT0/PWM0/PTC0*%
%TO.N,/DTIN0*%
X127707000Y-100473000D03*
%TO.P,U102,37,DTIN1/DTOUT1/PWM2/PTC1*%
%TO.N,/DTIN1*%
X127707000Y-100973000D03*
%TO.P,U102,38,PWM1/PTD0*%
%TO.N,/PWM1*%
X127707000Y-101473000D03*
%TO.P,U102,39,CLKMOD1*%
%TO.N,/CLKMOD1*%
X127707000Y-101973000D03*
%TO.P,U102,40,CLKMOD0*%
%TO.N,/CLKMOD0*%
X127707000Y-102473000D03*
%TO.P,U102,41,VCC*%
%TO.N,+3.3V*%
X127707000Y-102973000D03*
%TO.P,U102,42,GND*%
%TO.N,GND*%
X127707000Y-103473000D03*
%TO.P,U102,43,AN0/PAN0*%
%TO.N,/AN0*%
X127707000Y-103973000D03*
%TO.P,U102,44,AN1/PAN1*%
%TO.N,/AN1*%
X127707000Y-104473000D03*
%TO.P,U102,45,AN2/PAN2*%
%TO.N,/AN2*%
X127707000Y-104973000D03*
%TO.P,U102,46,AN3/PAN3*%
%TO.N,/AN3*%
X127707000Y-105473000D03*
%TO.P,U102,47,VSSA*%
%TO.N,GNDA*%
X127707000Y-105973000D03*
%TO.P,U102,48,VRL*%
X127707000Y-106473000D03*
%TO.P,U102,49,VRH*%
%TO.N,/VCCA*%
X127707000Y-106973000D03*
%TO.P,U102,50,VCCA*%
X127707000Y-107473000D03*
D48*
%TO.P,U102,51,AN7/PAN7*%
%TO.N,/AN7*%
X129382000Y-109148000D03*
%TO.P,U102,52,AN6/PAN6*%
%TO.N,/AN6*%
X129882000Y-109148000D03*
%TO.P,U102,53,AN5/PAN5*%
%TO.N,/AN5*%
X130382000Y-109148000D03*
%TO.P,U102,54,AN4/PAN4*%
%TO.N,/AN4*%
X130882000Y-109148000D03*
%TO.P,U102,55,VSTBY*%
%TO.N,+3.3V*%
X131382000Y-109148000D03*
%TO.P,U102,56,GND*%
%TO.N,GND*%
X131882000Y-109148000D03*
%TO.P,U102,57,VCC*%
%TO.N,+3.3V*%
X132382000Y-109148000D03*
%TO.P,U102,58,GPT0/PWM1/PTA0*%
%TO.N,/GPT0*%
X132882000Y-109148000D03*
%TO.P,U102,59,GPT1/PWM3/PTA1*%
%TO.N,/GPT1*%
X133382000Y-109148000D03*
%TO.P,U102,60,PWM5/PTD2*%
%TO.N,/PWM5*%
X133882000Y-109148000D03*
%TO.P,U102,61,GPT2PWM5//PTA2*%
%TO.N,/GPT2*%
X134382000Y-109148000D03*
%TO.P,U102,62,GPT3/PWM7/PTA3*%
%TO.N,/GPT3*%
X134882000Y-109148000D03*
%TO.P,U102,63,PWM7/PTD3*%
%TO.N,/PWM7*%
X135382000Y-109148000D03*
%TO.P,U102,64,TCLK/PSTCLK/CLKOUT*%
%TO.N,Net-(U102-TCLK{slash}PSTCLK{slash}CLKOUT)*%
X135882000Y-109148000D03*
%TO.P,U102,65,PST0/PDD0*%
%TO.N,/PST0*%
X136382000Y-109148000D03*
%TO.P,U102,66,PST1/PDD1*%
%TO.N,/PST1*%
X136882000Y-109148000D03*
%TO.P,U102,67,GND*%
%TO.N,GND*%
X137382000Y-109148000D03*
%TO.P,U102,68,VCC*%
%TO.N,+3.3V*%
X137882000Y-109148000D03*
%TO.P,U102,69,PST2/PDD2*%
%TO.N,/PST2*%
X138382000Y-109148000D03*
%TO.P,U102,70,PST3/PDD3*%
%TO.N,/PST3*%
X138882000Y-109148000D03*
%TO.P,U102,71,GNDPLL*%
%TO.N,GND*%
X139382000Y-109148000D03*
%TO.P,U102,72,XTAL*%
%TO.N,/XTAL*%
X139882000Y-109148000D03*
%TO.P,U102,73,CLKIN/EXTAL*%
%TO.N,/CLKIN{slash}EXTAL*%
X140382000Y-109148000D03*
%TO.P,U102,74,VCCPLL*%
%TO.N,/VDDPLL*%
X140882000Y-109148000D03*
%TO.P,U102,75,GND*%
%TO.N,GND*%
X141382000Y-109148000D03*
D49*
%TO.P,U102,76,~{BKPT}/TMS*%
%TO.N,/BKPT-*%
X143057000Y-107473000D03*
%TO.P,U102,77,DDATA0/PDD4*%
%TO.N,/DDAT0*%
X143057000Y-106973000D03*
%TO.P,U102,78,DDATA1/PDD5*%
%TO.N,/DDAT1*%
X143057000Y-106473000D03*
%TO.P,U102,79,DSI/TDI*%
%TO.N,/DSI*%
X143057000Y-105973000D03*
%TO.P,U102,80,DSO/TDO*%
%TO.N,/DSO*%
X143057000Y-105473000D03*
%TO.P,U102,81,VCC*%
%TO.N,+3.3V*%
X143057000Y-104973000D03*
%TO.P,U102,82,GND*%
%TO.N,GND*%
X143057000Y-104473000D03*
%TO.P,U102,83,DDATA2/PDD6*%
%TO.N,/DDAT2*%
X143057000Y-103973000D03*
%TO.P,U102,84,DDATA3/PDD7*%
%TO.N,/DDAT3*%
X143057000Y-103473000D03*
%TO.P,U102,85,DSCLK/~{TRST}*%
%TO.N,/DSCLK*%
X143057000Y-102973000D03*
%TO.P,U102,86,ALLPST*%
%TO.N,/ALLPST*%
X143057000Y-102473000D03*
%TO.P,U102,87,~{IRQ1}/PNQ1/SYNCA/PWM1*%
%TO.N,/IRQ-1*%
X143057000Y-101973000D03*
%TO.P,U102,88,~{IRQ2}/PNQ2*%
%TO.N,/IRQ-2*%
X143057000Y-101473000D03*
%TO.P,U102,89,~{IRQ3}/PNQ3*%
%TO.N,/IRQ-3*%
X143057000Y-100973000D03*
%TO.P,U102,90,~{IRQ4}/PNQ4*%
%TO.N,/IRQ-4*%
X143057000Y-100473000D03*
%TO.P,U102,91,~{IRQ5}/PNQ5*%
%TO.N,/IRQ-5*%
X143057000Y-99973000D03*
%TO.P,U102,92,GND*%
%TO.N,GND*%
X143057000Y-99473000D03*
%TO.P,U102,93,VCC*%
%TO.N,+3.3V*%
X143057000Y-98973000D03*
%TO.P,U102,94,~{IRQ6}/PNQ6*%
%TO.N,/IRQ-6*%
X143057000Y-98473000D03*
%TO.P,U102,95,~{IRQ7}/PNQ7*%
%TO.N,/IRQ-7*%
X143057000Y-97973000D03*
%TO.P,U102,96,RSTI*%
%TO.N,/RSTI-*%
X143057000Y-97473000D03*
%TO.P,U102,97,RSTO*%
%TO.N,/RSTO-*%
X143057000Y-96973000D03*
%TO.P,U102,98,~{UCTS1}/SYNCA/URXD2/PUB3*%
%TO.N,/UCTS1*%
X143057000Y-96473000D03*
%TO.P,U102,99,UTXD1/PUB0*%
%TO.N,/UTXD1*%
X143057000Y-95973000D03*
%TO.P,U102,100,URXD1/PUB1*%
%TO.N,/URXD1*%
X143057000Y-95473000D03*
%TD*%
D50*
%TO.P,U101,1*%
%TO.N,N/C*%
X159512000Y-107696000D03*
%TO.P,U101,2*%
%TO.N,Net-(C104-Pad1)*%
X159512000Y-108331000D03*
%TO.P,U101,3,GND*%
%TO.N,GND*%
X159512000Y-108966000D03*
%TO.P,U101,4*%
%TO.N,Net-(D101-K)*%
X161544000Y-108966000D03*
%TO.P,U101,5,VCC*%
%TO.N,+3.3V*%
X161544000Y-107696000D03*
%TD*%
D51*
%TO.P,U202,1,C1+*%
%TO.N,Net-(U202-C1+)*%
X184215000Y-73406000D03*
%TO.P,U202,2,V+*%
%TO.N,Net-(U202-V+)*%
X184215000Y-74676000D03*
%TO.P,U202,3,C1-*%
%TO.N,Net-(U202-C1-)*%
X184215000Y-75946000D03*
%TO.P,U202,4,C2+*%
%TO.N,Net-(U202-C2+)*%
X184215000Y-77216000D03*
%TO.P,U202,5,C2-*%
%TO.N,Net-(U202-C2-)*%
X184215000Y-78486000D03*
%TO.P,U202,6,V-*%
%TO.N,Net-(U202-V-)*%
X184215000Y-79756000D03*
%TO.P,U202,7,T2OUT*%
%TO.N,/inout_user/RTS0*%
X184215000Y-81026000D03*
%TO.P,U202,8,R2IN*%
%TO.N,/inout_user/CTS0*%
X184215000Y-82296000D03*
%TO.P,U202,9,R2OUT*%
%TO.N,Net-(U202-R2OUT)*%
X189165000Y-82296000D03*
%TO.P,U202,10,T2IN*%
%TO.N,Net-(U202-T2IN)*%
X189165000Y-81026000D03*
%TO.P,U202,11,T1IN*%
%TO.N,Net-(U202-T1IN)*%
X189165000Y-79756000D03*
%TO.P,U202,12,R1OUT*%
%TO.N,Net-(U202-R1OUT)*%
X189165000Y-78486000D03*
%TO.P,U202,13,R1IN*%
%TO.N,/inout_user/RXD0*%
X189165000Y-77216000D03*
%TO.P,U202,14,T1OUT*%
%TO.N,/inout_user/TXD0*%
X189165000Y-75946000D03*
%TO.P,U202,15,GND*%
%TO.N,GND*%
X189165000Y-74676000D03*
%TO.P,U202,16,VCC*%
%TO.N,+3.3V*%
X189165000Y-73406000D03*
%TD*%
%TO.P,U203,1,C1+*%
%TO.N,Net-(U203-C1+)*%
X156275000Y-73406000D03*
%TO.P,U203,2,V+*%
%TO.N,Net-(U203-V+)*%
X156275000Y-74676000D03*
%TO.P,U203,3,C1-*%
%TO.N,Net-(U203-C1-)*%
X156275000Y-75946000D03*
%TO.P,U203,4,C2+*%
%TO.N,Net-(U203-C2+)*%
X156275000Y-77216000D03*
%TO.P,U203,5,C2-*%
%TO.N,Net-(U203-C2-)*%
X156275000Y-78486000D03*
%TO.P,U203,6,V-*%
%TO.N,Net-(U203-V-)*%
X156275000Y-79756000D03*
%TO.P,U203,7,T2OUT*%
%TO.N,/inout_user/RTS1*%
X156275000Y-81026000D03*
%TO.P,U203,8,R2IN*%
%TO.N,/inout_user/CTS1*%
X156275000Y-82296000D03*
%TO.P,U203,9,R2OUT*%
%TO.N,Net-(U203-R2OUT)*%
X161225000Y-82296000D03*
%TO.P,U203,10,T2IN*%
%TO.N,Net-(U203-T2IN)*%
X161225000Y-81026000D03*
%TO.P,U203,11,T1IN*%
%TO.N,Net-(U203-T1IN)*%
X161225000Y-79756000D03*
%TO.P,U203,12,R1OUT*%
%TO.N,Net-(U203-R1OUT)*%
X161225000Y-78486000D03*
%TO.P,U203,13,R1IN*%
%TO.N,/inout_user/RXD1*%
X161225000Y-77216000D03*
%TO.P,U203,14,T1OUT*%
%TO.N,/inout_user/TXD1*%
X161225000Y-75946000D03*
%TO.P,U203,15,GND*%
%TO.N,GND*%
X161225000Y-74676000D03*
%TO.P,U203,16,VCC*%
%TO.N,+3.3V*%
X161225000Y-73406000D03*
%TD*%
D52*
%TO.P,U205,1,TxD*%
%TO.N,/inout_user/TxD_CAN*%
X108393000Y-90297000D03*
%TO.P,U205,2,GND*%
%TO.N,GND*%
X108393000Y-89027000D03*
%TO.P,U205,3,VCC*%
%TO.N,+3.3V*%
X108393000Y-87757000D03*
%TO.P,U205,4,RxD*%
%TO.N,/inout_user/RxD_CAN*%
X108393000Y-86487000D03*
%TO.P,U205,5,Vref*%
%TO.N,Net-(U205-Vref)*%
X103443000Y-86487000D03*
%TO.P,U205,6,CAN-*%
%TO.N,/inout_user/CAN_L*%
X103443000Y-87757000D03*
%TO.P,U205,7,CAN+*%
%TO.N,/inout_user/CAN_H*%
X103443000Y-89027000D03*
%TO.P,U205,8,Rsl*%
%TO.N,Net-(U205-Rsl)*%
X103443000Y-90297000D03*
%TD*%
D53*
%TO.P,U204,1,C1+*%
%TO.N,Net-(U204-C1+)*%
X123255000Y-73406000D03*
D51*
%TO.P,U204,2,V+*%
%TO.N,Net-(U204-V+)*%
X123255000Y-74676000D03*
%TO.P,U204,3,C1-*%
%TO.N,Net-(U204-C1-)*%
X123255000Y-75946000D03*
%TO.P,U204,4,C2+*%
%TO.N,Net-(U204-C2+)*%
X123255000Y-77216000D03*
%TO.P,U204,5,C2-*%
%TO.N,Net-(U204-C2-)*%
X123255000Y-78486000D03*
%TO.P,U204,6,V-*%
%TO.N,Net-(U204-V-)*%
X123255000Y-79756000D03*
%TO.P,U204,7,T2OUT*%
%TO.N,Net-(COM_SEL201-P3)*%
X123255000Y-81026000D03*
%TO.P,U204,8,R2IN*%
%TO.N,Net-(COM_SEL202-P3)*%
X123255000Y-82296000D03*
%TO.P,U204,9,R2OUT*%
%TO.N,Net-(U204-R2OUT)*%
X128205000Y-82296000D03*
%TO.P,U204,10,T2IN*%
%TO.N,Net-(U204-T2IN)*%
X128205000Y-81026000D03*
%TO.P,U204,11,T1IN*%
%TO.N,Net-(U204-T1IN)*%
X128205000Y-79756000D03*
%TO.P,U204,12,R1OUT*%
%TO.N,Net-(U204-R1OUT)*%
X128205000Y-78486000D03*
%TO.P,U204,13,R1IN*%
%TO.N,Net-(COM_SEL203-P3)*%
X128205000Y-77216000D03*
%TO.P,U204,14,T1OUT*%
%TO.N,/inout_user/RTS2*%
X128205000Y-75946000D03*
%TO.P,U204,15,GND*%
%TO.N,GND*%
X128205000Y-74676000D03*
%TO.P,U204,16,VCC*%
%TO.N,+3.3V*%
X128205000Y-73406000D03*
%TD*%
D15*
%TO.P,UART_EN201,1,1*%
%TO.N,Net-(U202-T1IN)*%
X197485000Y-74549000D03*
D16*
%TO.P,UART_EN201,2,2*%
%TO.N,/UTXD0*%
X200025000Y-74549000D03*
%TO.P,UART_EN201,3,3*%
%TO.N,Net-(U202-R1OUT)*%
X197485000Y-77089000D03*
%TO.P,UART_EN201,4,4*%
%TO.N,/URXD0*%
X200025000Y-77089000D03*
%TO.P,UART_EN201,5,5*%
%TO.N,Net-(U202-T2IN)*%
X197485000Y-79629000D03*
%TO.P,UART_EN201,6,6*%
%TO.N,/URTS0*%
X200025000Y-79629000D03*
%TO.P,UART_EN201,7,7*%
%TO.N,Net-(U202-R2OUT)*%
X197485000Y-82169000D03*
%TO.P,UART_EN201,8,8*%
%TO.N,/UCTS0*%
X200025000Y-82169000D03*
%TD*%
D15*
%TO.P,UART_EN202,1,1*%
%TO.N,Net-(U203-T1IN)*%
X169545000Y-74549000D03*
D16*
%TO.P,UART_EN202,2,2*%
%TO.N,/UTXD1*%
X172085000Y-74549000D03*
%TO.P,UART_EN202,3,3*%
%TO.N,Net-(U203-R1OUT)*%
X169545000Y-77089000D03*
%TO.P,UART_EN202,4,4*%
%TO.N,/URXD1*%
X172085000Y-77089000D03*
%TO.P,UART_EN202,5,5*%
%TO.N,Net-(U203-T2IN)*%
X169545000Y-79629000D03*
%TO.P,UART_EN202,6,6*%
%TO.N,/URTS1*%
X172085000Y-79629000D03*
%TO.P,UART_EN202,7,7*%
%TO.N,Net-(U203-R2OUT)*%
X169545000Y-82169000D03*
%TO.P,UART_EN202,8,8*%
%TO.N,/UCTS1*%
X172085000Y-82169000D03*
%TD*%
D15*
%TO.P,UART_EN203,1,1*%
%TO.N,Net-(U204-T2IN)*%
X135763000Y-74549000D03*
D16*
%TO.P,UART_EN203,2,2*%
%TO.N,/UTXD2*%
X138303000Y-74549000D03*
%TO.P,UART_EN203,3,3*%
%TO.N,Net-(U204-R2OUT)*%
X135763000Y-77089000D03*
%TO.P,UART_EN203,4,4*%
%TO.N,/URXD2*%
X138303000Y-77089000D03*
%TO.P,UART_EN203,5,5*%
%TO.N,Net-(U204-T1IN)*%
X135763000Y-79629000D03*
%TO.P,UART_EN203,6,6*%
%TO.N,/URTS2*%
X138303000Y-79629000D03*
%TO.P,UART_EN203,7,7*%
%TO.N,Net-(U204-R1OUT)*%
X135763000Y-82169000D03*
%TO.P,UART_EN203,8,8*%
%TO.N,/UCTS2*%
X138303000Y-82169000D03*
%TD*%
D15*
%TO.P,VDDA101,1,1*%
%TO.N,+3.3V*%
X112014000Y-108458000D03*
D16*
%TO.P,VDDA101,2,2*%
%TO.N,Net-(L102-Pad1)*%
X114554000Y-108458000D03*
%TD*%
D54*
%TO.P,VR201,1,OUT*%
%TO.N,+3.3V*%
X74705000Y-95915000D03*
%TO.P,VR201,2,SENSE*%
X76405000Y-95915000D03*
%TO.P,VR201,3,GND*%
%TO.N,GND*%
X78105000Y-95915000D03*
D55*
X75330000Y-89190000D03*
X80880000Y-89190000D03*
D56*
X78105000Y-86765000D03*
D55*
X75330000Y-84340000D03*
X80880000Y-84340000D03*
D54*
%TO.P,VR201,4,SHDN*%
%TO.N,unconnected-(VR201-SHDN-Pad4)*%
X79805000Y-95915000D03*
%TO.P,VR201,5,IN*%
%TO.N,Net-(D201-K)*%
X81505000Y-95915000D03*
%TD*%
D57*
%TO.P,Y101,1,1*%
%TO.N,/CLKIN{slash}EXTAL*%
X123444000Y-120777000D03*
%TO.P,Y101,2,2*%
%TO.N,/XTAL*%
X123444000Y-125677000D03*
%TD*%
D58*
%TO.P,U301,1,I1*%
%TO.N,/xilinx/XIL_D23*%
X210680000Y-101097500D03*
%TO.P,U301,2,I0*%
%TO.N,/xilinx/XIL_D4*%
X210180000Y-101097500D03*
%TO.P,U301,3,GND*%
%TO.N,GND*%
X209680000Y-101097500D03*
%TO.P,U301,4,J0/TDI*%
%TO.N,/xilinx/TDI*%
X209180000Y-101097500D03*
%TO.P,U301,5,J2*%
%TO.N,/xilinx/XIL_D22*%
X208680000Y-101097500D03*
%TO.P,U301,6,J3*%
%TO.N,/xilinx/XIL_D20*%
X208180000Y-101097500D03*
%TO.P,U301,7,J4*%
%TO.N,/xilinx/XIL_D2*%
X207680000Y-101097500D03*
%TO.P,U301,8,J11*%
%TO.N,/xilinx/XIL_D3*%
X207180000Y-101097500D03*
%TO.P,U301,9,J13*%
%TO.N,unconnected-(U301-J13-Pad9)*%
X206680000Y-101097500D03*
%TO.P,U301,10,J14*%
%TO.N,/xilinx/XIL_D21*%
X206180000Y-101097500D03*
%TO.P,U301,11,J15*%
%TO.N,/xilinx/XIL_D1*%
X205680000Y-101097500D03*
%TO.P,U301,12,L2*%
%TO.N,/xilinx/XIL_D0*%
X205180000Y-101097500D03*
%TO.P,U301,13,PORT_EN*%
%TO.N,GND*%
X204680000Y-101097500D03*
%TO.P,U301,14,L3*%
%TO.N,unconnected-(U301-L3-Pad14)*%
X204180000Y-101097500D03*
%TO.P,U301,15,L4*%
%TO.N,unconnected-(U301-L4-Pad15)*%
X203680000Y-101097500D03*
%TO.P,U301,16,L11*%
%TO.N,unconnected-(U301-L11-Pad16)*%
X203180000Y-101097500D03*
%TO.P,U301,17,GND*%
%TO.N,GND*%
X202680000Y-101097500D03*
%TO.P,U301,18,L13*%
%TO.N,unconnected-(U301-L13-Pad18)*%
X202180000Y-101097500D03*
%TO.P,U301,19,L14*%
%TO.N,unconnected-(U301-L14-Pad19)*%
X201680000Y-101097500D03*
%TO.P,U301,20,N0/TMS*%
%TO.N,/xilinx/TMS*%
X201180000Y-101097500D03*
%TO.P,U301,21,N2*%
%TO.N,unconnected-(U301-N2-Pad21)*%
X200680000Y-101097500D03*
%TO.P,U301,22,N3*%
%TO.N,unconnected-(U301-N3-Pad22)*%
X200180000Y-101097500D03*
%TO.P,U301,23,N4*%
%TO.N,unconnected-(U301-N4-Pad23)*%
X199680000Y-101097500D03*
%TO.P,U301,24,VCC*%
%TO.N,+3.3V*%
X199180000Y-101097500D03*
%TO.P,U301,25,N11*%
%TO.N,unconnected-(U301-N11-Pad25)*%
X198680000Y-101097500D03*
%TO.P,U301,26,N13*%
%TO.N,unconnected-(U301-N13-Pad26)*%
X198180000Y-101097500D03*
%TO.P,U301,27,N14*%
%TO.N,/xilinx/LED_TEST2*%
X197680000Y-101097500D03*
%TO.P,U301,28,N15*%
%TO.N,/xilinx/LED_TEST1*%
X197180000Y-101097500D03*
%TO.P,U301,29,P2*%
%TO.N,unconnected-(U301-P2-Pad29)*%
X196680000Y-101097500D03*
%TO.P,U301,30,P3*%
%TO.N,unconnected-(U301-P3-Pad30)*%
X196180000Y-101097500D03*
%TO.P,U301,31,P4*%
%TO.N,Net-(U301-P4)*%
X195680000Y-101097500D03*
%TO.P,U301,32,P11*%
%TO.N,Net-(U301-P11)*%
X195180000Y-101097500D03*
%TO.P,U301,33,GND*%
%TO.N,GND*%
X194680000Y-101097500D03*
%TO.P,U301,34,P13*%
%TO.N,unconnected-(U301-P13-Pad34)*%
X194180000Y-101097500D03*
%TO.P,U301,35,P14*%
%TO.N,unconnected-(U301-P14-Pad35)*%
X193680000Y-101097500D03*
%TO.P,U301,36,P15*%
%TO.N,unconnected-(U301-P15-Pad36)*%
X193180000Y-101097500D03*
D59*
%TO.P,U301,37,O15*%
%TO.N,unconnected-(U301-O15-Pad37)*%
X191267500Y-103010000D03*
%TO.P,U301,38,O13*%
%TO.N,unconnected-(U301-O13-Pad38)*%
X191267500Y-103510000D03*
%TO.P,U301,39,O12*%
%TO.N,unconnected-(U301-O12-Pad39)*%
X191267500Y-104010000D03*
%TO.P,U301,40,O4*%
%TO.N,unconnected-(U301-O4-Pad40)*%
X191267500Y-104510000D03*
%TO.P,U301,41,O3*%
%TO.N,unconnected-(U301-O3-Pad41)*%
X191267500Y-105010000D03*
%TO.P,U301,42,O2*%
%TO.N,/IRQ-1*%
X191267500Y-105510000D03*
%TO.P,U301,43,O1*%
%TO.N,/IRQ-2*%
X191267500Y-106010000D03*
%TO.P,U301,44,O0*%
%TO.N,/IRQ-3*%
X191267500Y-106510000D03*
%TO.P,U301,45,M15*%
%TO.N,/QSPI_CS2*%
X191267500Y-107010000D03*
%TO.P,U301,46,M13*%
%TO.N,/QSPI_DIN*%
X191267500Y-107510000D03*
%TO.P,U301,47,M12*%
%TO.N,/DSPI_DOUT*%
X191267500Y-108010000D03*
%TO.P,U301,48,M11*%
%TO.N,/QSPI_CLK*%
X191267500Y-108510000D03*
%TO.P,U301,49,M4*%
%TO.N,/UCTS1*%
X191267500Y-109010000D03*
%TO.P,U301,50,VCC*%
%TO.N,+3.3V*%
X191267500Y-109510000D03*
%TO.P,U301,51,VCC*%
X191267500Y-110010000D03*
%TO.P,U301,52,GND*%
%TO.N,GND*%
X191267500Y-110510000D03*
%TO.P,U301,53,M2*%
%TO.N,/URTS1*%
X191267500Y-111010000D03*
%TO.P,U301,54,M1*%
%TO.N,/QSPI_CS1*%
X191267500Y-111510000D03*
%TO.P,U301,55,F1*%
%TO.N,unconnected-(U301-F1-Pad55)*%
X191267500Y-112010000D03*
%TO.P,U301,56,F2*%
%TO.N,unconnected-(U301-F2-Pad56)*%
X191267500Y-112510000D03*
%TO.P,U301,57,GND*%
%TO.N,GND*%
X191267500Y-113010000D03*
%TO.P,U301,58,VCC*%
%TO.N,+3.3V*%
X191267500Y-113510000D03*
%TO.P,U301,59,GND*%
%TO.N,GND*%
X191267500Y-114010000D03*
%TO.P,U301,60,F4*%
%TO.N,unconnected-(U301-F4-Pad60)*%
X191267500Y-114510000D03*
%TO.P,U301,61,F11*%
%TO.N,unconnected-(U301-F11-Pad61)*%
X191267500Y-115010000D03*
%TO.P,U301,62,F12*%
%TO.N,unconnected-(U301-F12-Pad62)*%
X191267500Y-115510000D03*
%TO.P,U301,63,F13*%
%TO.N,unconnected-(U301-F13-Pad63)*%
X191267500Y-116010000D03*
%TO.P,U301,64,GND*%
%TO.N,GND*%
X191267500Y-116510000D03*
%TO.P,U301,65,F15*%
%TO.N,unconnected-(U301-F15-Pad65)*%
X191267500Y-117010000D03*
%TO.P,U301,66,H0*%
%TO.N,unconnected-(U301-H0-Pad66)*%
X191267500Y-117510000D03*
%TO.P,U301,67,H1*%
%TO.N,unconnected-(U301-H1-Pad67)*%
X191267500Y-118010000D03*
%TO.P,U301,68,H2*%
%TO.N,unconnected-(U301-H2-Pad68)*%
X191267500Y-118510000D03*
%TO.P,U301,69,H3*%
%TO.N,unconnected-(U301-H3-Pad69)*%
X191267500Y-119010000D03*
%TO.P,U301,70,H11*%
%TO.N,unconnected-(U301-H11-Pad70)*%
X191267500Y-119510000D03*
%TO.P,U301,71,H13*%
%TO.N,unconnected-(U301-H13-Pad71)*%
X191267500Y-120010000D03*
%TO.P,U301,72,H15*%
%TO.N,unconnected-(U301-H15-Pad72)*%
X191267500Y-120510000D03*
D58*
%TO.P,U301,73,VCC*%
%TO.N,+3.3V*%
X193180000Y-122422500D03*
%TO.P,U301,74,G14*%
%TO.N,unconnected-(U301-G14-Pad74)*%
X193680000Y-122422500D03*
%TO.P,U301,75,G13*%
%TO.N,unconnected-(U301-G13-Pad75)*%
X194180000Y-122422500D03*
%TO.P,U301,76,VCC*%
%TO.N,+3.3V*%
X194680000Y-122422500D03*
%TO.P,U301,77,G11*%
%TO.N,unconnected-(U301-G11-Pad77)*%
X195180000Y-122422500D03*
%TO.P,U301,78,G4*%
%TO.N,unconnected-(U301-G4-Pad78)*%
X195680000Y-122422500D03*
%TO.P,U301,79,G3*%
%TO.N,unconnected-(U301-G3-Pad79)*%
X196180000Y-122422500D03*
%TO.P,U301,80,G2*%
%TO.N,unconnected-(U301-G2-Pad80)*%
X196680000Y-122422500D03*
%TO.P,U301,81,G0*%
%TO.N,unconnected-(U301-G0-Pad81)*%
X197180000Y-122422500D03*
%TO.P,U301,82,E14*%
%TO.N,unconnected-(U301-E14-Pad82)*%
X197680000Y-122422500D03*
%TO.P,U301,83,E13*%
%TO.N,unconnected-(U301-E13-Pad83)*%
X198180000Y-122422500D03*
%TO.P,U301,84,E11*%
%TO.N,unconnected-(U301-E11-Pad84)*%
X198680000Y-122422500D03*
%TO.P,U301,85,GND*%
%TO.N,GND*%
X199180000Y-122422500D03*
%TO.P,U301,86,E4*%
%TO.N,unconnected-(U301-E4-Pad86)*%
X199680000Y-122422500D03*
%TO.P,U301,87,E3*%
%TO.N,unconnected-(U301-E3-Pad87)*%
X200180000Y-122422500D03*
%TO.P,U301,88,E2*%
%TO.N,unconnected-(U301-E2-Pad88)*%
X200680000Y-122422500D03*
%TO.P,U301,89,E0/TCK*%
%TO.N,/xilinx/TCK*%
X201180000Y-122422500D03*
%TO.P,U301,90,C14*%
%TO.N,unconnected-(U301-C14-Pad90)*%
X201680000Y-122422500D03*
%TO.P,U301,91,C13*%
%TO.N,unconnected-(U301-C13-Pad91)*%
X202180000Y-122422500D03*
%TO.P,U301,92,C11*%
%TO.N,unconnected-(U301-C11-Pad92)*%
X202680000Y-122422500D03*
%TO.P,U301,93,C4*%
%TO.N,unconnected-(U301-C4-Pad93)*%
X203180000Y-122422500D03*
%TO.P,U301,94,C3*%
%TO.N,unconnected-(U301-C3-Pad94)*%
X203680000Y-122422500D03*
%TO.P,U301,95,VCC*%
%TO.N,+3.3V*%
X204180000Y-122422500D03*
%TO.P,U301,96,C2*%
%TO.N,/xilinx/XIL_D19*%
X204680000Y-122422500D03*
%TO.P,U301,97,C1*%
%TO.N,/xilinx/XIL_D18*%
X205180000Y-122422500D03*
%TO.P,U301,98,C0*%
%TO.N,/xilinx/XIL_D32*%
X205680000Y-122422500D03*
%TO.P,U301,99,A13*%
%TO.N,/xilinx/XIL_D36*%
X206180000Y-122422500D03*
%TO.P,U301,100,A12*%
%TO.N,/xilinx/XIL_D16*%
X206680000Y-122422500D03*
%TO.P,U301,101,A11*%
%TO.N,/xilinx/XIL_D17*%
X207180000Y-122422500D03*
%TO.P,U301,102,A4*%
%TO.N,unconnected-(U301-A4-Pad102)*%
X207680000Y-122422500D03*
%TO.P,U301,103,A3*%
%TO.N,unconnected-(U301-A3-Pad103)*%
X208180000Y-122422500D03*
%TO.P,U301,104,A2/TDO*%
%TO.N,/xilinx/TDO*%
X208680000Y-122422500D03*
%TO.P,U301,105,GND*%
%TO.N,GND*%
X209180000Y-122422500D03*
%TO.P,U301,106,A0*%
%TO.N,unconnected-(U301-A0-Pad106)*%
X209680000Y-122422500D03*
%TO.P,U301,107,B0*%
%TO.N,/xilinx/XIL_D35*%
X210180000Y-122422500D03*
%TO.P,U301,108,B1*%
%TO.N,/xilinx/XIL_D15*%
X210680000Y-122422500D03*
D59*
%TO.P,U301,109,B4*%
%TO.N,/xilinx/XIL_D14*%
X212592500Y-120510000D03*
%TO.P,U301,110,B11*%
%TO.N,unconnected-(U301-B11-Pad110)*%
X212592500Y-120010000D03*
%TO.P,U301,111,B12*%
%TO.N,/xilinx/XIL_D13*%
X212592500Y-119510000D03*
%TO.P,U301,112,B14*%
%TO.N,/xilinx/XIL_D33*%
X212592500Y-119010000D03*
%TO.P,U301,113,B15*%
%TO.N,/xilinx/XIL_D34*%
X212592500Y-118510000D03*
%TO.P,U301,114,D0*%
%TO.N,/xilinx/XIL_D12*%
X212592500Y-118010000D03*
%TO.P,U301,115,VCC*%
%TO.N,+3.3V*%
X212592500Y-117510000D03*
%TO.P,U301,116,D1*%
%TO.N,/xilinx/XIL_D31*%
X212592500Y-117010000D03*
%TO.P,U301,117,D2*%
%TO.N,/xilinx/XIL_D29*%
X212592500Y-116510000D03*
%TO.P,U301,118,D4*%
%TO.N,/xilinx/XIL_D30*%
X212592500Y-116010000D03*
%TO.P,U301,119,D11*%
%TO.N,/xilinx/XIL_D11*%
X212592500Y-115510000D03*
%TO.P,U301,120,D12*%
%TO.N,unconnected-(U301-D12-Pad120)*%
X212592500Y-115010000D03*
%TO.P,U301,121,D13*%
%TO.N,unconnected-(U301-D13-Pad121)*%
X212592500Y-114510000D03*
%TO.P,U301,122,D15*%
%TO.N,/xilinx/XIL_D10*%
X212592500Y-114010000D03*
%TO.P,U301,123,VCC*%
%TO.N,+3.3V*%
X212592500Y-113510000D03*
%TO.P,U301,124,GND*%
%TO.N,GND*%
X212592500Y-113010000D03*
%TO.P,U301,125,CLK3/IN3*%
X212592500Y-112510000D03*
%TO.P,U301,126,CLK2/IN2*%
X212592500Y-112010000D03*
%TO.P,U301,127,CLK1/IN1*%
X212592500Y-111510000D03*
%TO.P,U301,128,CLK0/IN0*%
%TO.N,/XTAL*%
X212592500Y-111010000D03*
%TO.P,U301,129,GND*%
%TO.N,GND*%
X212592500Y-110510000D03*
%TO.P,U301,130,VCC*%
%TO.N,+3.3V*%
X212592500Y-110010000D03*
%TO.P,U301,131,K15*%
%TO.N,/xilinx/XIL_D9*%
X212592500Y-109510000D03*
%TO.P,U301,132,K14*%
%TO.N,/xilinx/XIL_D28*%
X212592500Y-109010000D03*
%TO.P,U301,133,K13*%
%TO.N,unconnected-(U301-K13-Pad133)*%
X212592500Y-108510000D03*
%TO.P,U301,134,K12*%
%TO.N,/xilinx/XIL_D27*%
X212592500Y-108010000D03*
%TO.P,U301,135,GND*%
%TO.N,GND*%
X212592500Y-107510000D03*
%TO.P,U301,136,K11*%
%TO.N,/xilinx/XIL_D8*%
X212592500Y-107010000D03*
%TO.P,U301,137,K4*%
%TO.N,/xilinx/XIL_D26*%
X212592500Y-106510000D03*
%TO.P,U301,138,K2*%
%TO.N,/xilinx/XIL_D7*%
X212592500Y-106010000D03*
%TO.P,U301,139,I15*%
%TO.N,/xilinx/XIL_D25*%
X212592500Y-105510000D03*
%TO.P,U301,140,I14*%
%TO.N,/xilinx/XIL_D6*%
X212592500Y-105010000D03*
%TO.P,U301,141,I13*%
%TO.N,unconnected-(U301-I13-Pad141)*%
X212592500Y-104510000D03*
%TO.P,U301,142,I12*%
%TO.N,/xilinx/XIL_D24*%
X212592500Y-104010000D03*
%TO.P,U301,143,I4*%
%TO.N,/xilinx/XIL_D5*%
X212592500Y-103510000D03*
%TO.P,U301,144,VCC*%
%TO.N,+3.3V*%
X212592500Y-103010000D03*
%TD*%
D15*
%TO.P,CAN_EN201,1,1*%
%TO.N,/CANTX*%
X112522000Y-86233000D03*
D16*
%TO.P,CAN_EN201,2,2*%
%TO.N,/inout_user/RxD_CAN*%
X115062000Y-86233000D03*
%TO.P,CAN_EN201,3,3*%
%TO.N,/inout_user/TxD_CAN*%
X112522000Y-88773000D03*
%TO.P,CAN_EN201,4,4*%
%TO.N,/CANRX*%
X115062000Y-88773000D03*
%TD*%
D15*
%TO.P,VX_EN201,1,1*%
%TO.N,+3.3V*%
X181864000Y-130302000D03*
D16*
%TO.P,VX_EN201,2,2*%
%TO.N,Net-(MCU_PORT201-P1)*%
X184404000Y-130302000D03*
%TD*%
D51*
%TO.P,U201,1,E*%
%TO.N,Net-(U201A-E)*%
X97728000Y-113792000D03*
%TO.P,U201,2,D*%
%TO.N,/DTIN0*%
X97728000Y-115062000D03*
%TO.P,U201,3,O*%
%TO.N,Net-(U201A-O)*%
X97728000Y-116332000D03*
%TO.P,U201,4,E*%
%TO.N,Net-(U201A-E)*%
X97728000Y-117602000D03*
%TO.P,U201,5,D*%
%TO.N,/DTIN1*%
X97728000Y-118872000D03*
%TO.P,U201,6,O*%
%TO.N,Net-(U201B-O)*%
X97728000Y-120142000D03*
%TO.P,U201,7,GND*%
%TO.N,GND*%
X97728000Y-121412000D03*
%TO.P,U201,8,O*%
%TO.N,Net-(U201C-O)*%
X102678000Y-121412000D03*
%TO.P,U201,9,D*%
%TO.N,/DTIN3*%
X102678000Y-120142000D03*
%TO.P,U201,10,E*%
%TO.N,Net-(U201A-E)*%
X102678000Y-118872000D03*
%TO.P,U201,11,O*%
%TO.N,Net-(U201D-O)*%
X102678000Y-117602000D03*
%TO.P,U201,12,D*%
%TO.N,/DTIN2*%
X102678000Y-116332000D03*
%TO.P,U201,13,E*%
%TO.N,Net-(U201A-E)*%
X102678000Y-115062000D03*
%TO.P,U201,14,VCC*%
%TO.N,+3.3V*%
X102678000Y-113792000D03*
%TD*%
D15*
%TO.P,JP101,1,1*%
%TO.N,GND*%
X112522000Y-93345000D03*
D16*
%TO.P,JP101,2,2*%
%TO.N,/JTAG_EN*%
X115062000Y-93345000D03*
%TO.P,JP101,3,3*%
%TO.N,GND*%
X112522000Y-95885000D03*
%TO.P,JP101,4,4*%
%TO.N,/CLKMOD1*%
X115062000Y-95885000D03*
%TO.P,JP101,5,5*%
%TO.N,GND*%
X112522000Y-98425000D03*
%TO.P,JP101,6,6*%
%TO.N,/CLKMOD0*%
X115062000Y-98425000D03*
%TD*%
D15*
%TO.P,P302,1,1*%
%TO.N,/UCTS1*%
X197500000Y-87000000D03*
D16*
%TO.P,P302,2,2*%
%TO.N,Net-(U301-P11)*%
X200040000Y-87000000D03*
%TO.P,P302,3,3*%
%TO.N,/URTS1*%
X197500000Y-89540000D03*
%TO.P,P302,4,4*%
%TO.N,Net-(U301-P4)*%
X200040000Y-89540000D03*
%TD*%
D15*
%TO.P,COM_SEL201,1,P1*%
%TO.N,/inout_user/CAN_L*%
X107000000Y-78613000D03*
D16*
%TO.P,COM_SEL201,2,PM*%
%TO.N,/inout_user/TXD2{slash}CANL*%
X107000000Y-76073000D03*
%TO.P,COM_SEL201,3,P3*%
%TO.N,Net-(COM_SEL201-P3)*%
X107000000Y-73533000D03*
%TD*%
D15*
%TO.P,JP201,1,1*%
%TO.N,GND*%
X90500000Y-113000000D03*
D16*
%TO.P,JP201,2,2*%
%TO.N,Net-(U201A-E)*%
X93040000Y-113000000D03*
%TD*%
D60*
%TO.P,UARTCAN201,0*%
%TO.N,N/C*%
X210540000Y-65080000D03*
X185540000Y-65080000D03*
D23*
%TO.P,UARTCAN201,1,1*%
%TO.N,Net-(UARTCAN201-P6)*%
X192500000Y-66500000D03*
D24*
%TO.P,UARTCAN201,2,2*%
%TO.N,/inout_user/TXD0*%
X195270000Y-66500000D03*
%TO.P,UARTCAN201,3,3*%
%TO.N,/inout_user/RXD0*%
X198040000Y-66500000D03*
%TO.P,UARTCAN201,4,4*%
%TO.N,Net-(UARTCAN201-P6)*%
X200810000Y-66500000D03*
%TO.P,UARTCAN201,5,5*%
%TO.N,GND*%
X203580000Y-66500000D03*
%TO.P,UARTCAN201,6,P6*%
%TO.N,Net-(UARTCAN201-P6)*%
X193885000Y-63660000D03*
%TO.P,UARTCAN201,7,P7*%
%TO.N,/inout_user/CTS0*%
X196655000Y-63660000D03*
%TO.P,UARTCAN201,8,P8*%
%TO.N,/inout_user/RTS0*%
X199425000Y-63660000D03*
%TO.P,UARTCAN201,9,P9*%
%TO.N,unconnected-(UARTCAN201-P9-Pad9)*%
X202195000Y-63660000D03*
%TD*%
D60*
%TO.P,UARTCAN202,0*%
%TO.N,N/C*%
X174540000Y-65080000D03*
X149540000Y-65080000D03*
D23*
%TO.P,UARTCAN202,1,1*%
%TO.N,Net-(UARTCAN202-P6)*%
X156500000Y-66500000D03*
D24*
%TO.P,UARTCAN202,2,2*%
%TO.N,/inout_user/TXD1*%
X159270000Y-66500000D03*
%TO.P,UARTCAN202,3,3*%
%TO.N,/inout_user/RXD1*%
X162040000Y-66500000D03*
%TO.P,UARTCAN202,4,4*%
%TO.N,Net-(UARTCAN202-P6)*%
X164810000Y-66500000D03*
%TO.P,UARTCAN202,5,5*%
%TO.N,GND*%
X167580000Y-66500000D03*
%TO.P,UARTCAN202,6,P6*%
%TO.N,Net-(UARTCAN202-P6)*%
X157885000Y-63660000D03*
%TO.P,UARTCAN202,7,P7*%
%TO.N,/inout_user/CTS1*%
X160655000Y-63660000D03*
%TO.P,UARTCAN202,8,P8*%
%TO.N,/inout_user/RTS1*%
X163425000Y-63660000D03*
%TO.P,UARTCAN202,9,P9*%
%TO.N,unconnected-(UARTCAN202-P9-Pad9)*%
X166195000Y-63660000D03*
%TD*%
D60*
%TO.P,UARTCAN203,0*%
%TO.N,N/C*%
X139540000Y-65080000D03*
X114540000Y-65080000D03*
D23*
%TO.P,UARTCAN203,1,1*%
%TO.N,Net-(UARTCAN203-P6)*%
X121500000Y-66500000D03*
D24*
%TO.P,UARTCAN203,2,2*%
%TO.N,/inout_user/TXD2{slash}CANL*%
X124270000Y-66500000D03*
%TO.P,UARTCAN203,3,3*%
%TO.N,/inout_user/RXD2*%
X127040000Y-66500000D03*
%TO.P,UARTCAN203,4,4*%
%TO.N,Net-(UARTCAN203-P6)*%
X129810000Y-66500000D03*
%TO.P,UARTCAN203,5,5*%
%TO.N,GND*%
X132580000Y-66500000D03*
%TO.P,UARTCAN203,6,P6*%
%TO.N,Net-(UARTCAN203-P6)*%
X122885000Y-63660000D03*
%TO.P,UARTCAN203,7,P7*%
%TO.N,/inout_user/CTS2{slash}CANH*%
X125655000Y-63660000D03*
%TO.P,UARTCAN203,8,P8*%
%TO.N,/inout_user/RTS2*%
X128425000Y-63660000D03*
%TO.P,UARTCAN203,9,P9*%
%TO.N,unconnected-(UARTCAN203-P9-Pad9)*%
X131195000Y-63660000D03*
%TD*%
D15*
%TO.P,VREF201,1,1*%
%TO.N,Net-(U205-Vref)*%
X95000000Y-86500000D03*
%TD*%
D61*
%TO.N,/AN2*%
X129540000Y-105410000D03*
%TO.N,/AN3*%
X129540000Y-106299000D03*
%TO.N,/AN4*%
X131064000Y-106426000D03*
D62*
%TO.N,/AN6*%
X129159000Y-112014000D03*
%TO.N,/BKPT-*%
X146685000Y-109855000D03*
X87630000Y-112141000D03*
D61*
%TO.N,/DDAT0*%
X84836000Y-108585000D03*
D62*
X146558000Y-107950000D03*
D61*
%TO.N,/DDAT1*%
X83820000Y-108585000D03*
D62*
X146558000Y-106680000D03*
%TO.N,/DDAT2*%
X139827000Y-102743000D03*
D61*
X81788000Y-108585000D03*
%TO.N,/DDAT3*%
X80264000Y-108585000D03*
D62*
X140970000Y-103124000D03*
%TO.N,/DSCLK*%
X140970000Y-101854000D03*
%TO.N,/DSI*%
X141478000Y-106426000D03*
D61*
%TO.N,/DSO*%
X141478000Y-105283000D03*
%TO.N,/DTIN1*%
X104013000Y-103378000D03*
X130937000Y-95250000D03*
%TO.N,/GPT1*%
X134112000Y-106045000D03*
X135382000Y-135001000D03*
%TO.N,/GPT3*%
X137160000Y-135001000D03*
X135001000Y-106934000D03*
D62*
%TO.N,/IRQ-5*%
X138811000Y-96266000D03*
D61*
X150495000Y-98171000D03*
D62*
%TO.N,/IRQ-6*%
X140335000Y-96139000D03*
D61*
X150495000Y-97282000D03*
D62*
%TO.N,/IRQ-7*%
X141605000Y-96266000D03*
D61*
X150495000Y-96393000D03*
%TO.N,/JTAG_EN*%
X125476000Y-92964000D03*
D62*
%TO.N,/PST0*%
X135700000Y-105600000D03*
D61*
%TO.N,/PST1*%
X136906000Y-105918000D03*
%TO.N,/PST2*%
X138700000Y-106500000D03*
%TO.N,/PST3*%
X139065000Y-107442000D03*
D62*
%TO.N,/QSPI_CS3*%
X136271000Y-97282000D03*
D61*
X153035000Y-92710000D03*
D62*
%TO.N,/TCLK*%
X83312000Y-115316000D03*
X122428000Y-115316000D03*
D63*
%TO.N,/inout_user/RTS2*%
X127000000Y-76000000D03*
%TO.N,/inout_user/RXD0*%
X192000000Y-76500000D03*
D62*
%TO.N,/inout_user/RXD2*%
X112014000Y-71628000D03*
D63*
%TO.N,/inout_user/TXD0*%
X187500000Y-76000000D03*
D62*
%TO.N,/xilinx/LED_TEST1*%
X197104000Y-98679000D03*
X205661260Y-78740000D03*
%TO.N,/xilinx/LED_TEST2*%
X199390000Y-96139000D03*
X204566520Y-85211920D03*
%TO.N,/xilinx/TCK*%
X204144880Y-116954300D03*
%TO.N,/xilinx/TDI*%
X210431380Y-103477060D03*
%TO.N,/xilinx/TDO*%
X209379820Y-113860580D03*
%TO.N,/xilinx/XIL_D11*%
X216689940Y-115280440D03*
%TO.N,/xilinx/XIL_D17*%
X210073240Y-125275340D03*
%TO.N,/xilinx/XIL_D27*%
X214914480Y-108005880D03*
%TO.N,/xilinx/XIL_D3*%
X207619600Y-102565200D03*
%TO.N,/xilinx/XIL_D30*%
X220002100Y-115755420D03*
%TO.N,/xilinx/XIL_D32*%
X206502000Y-126238000D03*
D64*
%TO.N,GND*%
X211074000Y-107442000D03*
D65*
X190047880Y-101206300D03*
D64*
X199644000Y-97536000D03*
X121158000Y-102616000D03*
X209166460Y-124264420D03*
X189438280Y-110502700D03*
X145415000Y-112903000D03*
X193929000Y-83947000D03*
X151750000Y-118000000D03*
X132715000Y-75438000D03*
X104000000Y-75500000D03*
X136652000Y-120396000D03*
X146812000Y-103886000D03*
X194691000Y-73406000D03*
X100965000Y-139827000D03*
X209748120Y-112008920D03*
X212194140Y-80645000D03*
X209677000Y-98694240D03*
X189156340Y-116509800D03*
X103378000Y-112522000D03*
X131699000Y-82804000D03*
X150876000Y-75311000D03*
X214454740Y-110502700D03*
X117729000Y-75184000D03*
X142240000Y-108839000D03*
X137287000Y-113538000D03*
X97282000Y-90043000D03*
X177165000Y-77089000D03*
X212237320Y-76248260D03*
X163068000Y-75311000D03*
X141478000Y-82423000D03*
X141605000Y-89027000D03*
X194678300Y-99253040D03*
X199174100Y-124272040D03*
X123571000Y-99060000D03*
X106680000Y-90424000D03*
X203454000Y-98673920D03*
X111252000Y-83820000D03*
X133731000Y-89535000D03*
X86741000Y-131241000D03*
X146812000Y-100076000D03*
X129032000Y-89789000D03*
X203794360Y-124617480D03*
X159512000Y-115697000D03*
%TO.N,GNDA*%
X123444000Y-105283000D03*
X123571000Y-110363000D03*
X118872000Y-105029000D03*
D61*
%TO.N,/AN0*%
X131318000Y-104902000D03*
%TO.N,/AN1*%
X130429000Y-104902000D03*
D62*
%TO.N,/QSPI_CS0*%
X155829000Y-88138000D03*
X131826000Y-96393000D03*
%TO.N,/AN5*%
X130048000Y-107188000D03*
%TO.N,/AN7*%
X128397000Y-113665000D03*
%TO.N,/IRQ-4*%
X138811000Y-98933000D03*
D61*
X150495000Y-99060000D03*
%TO.N,/DTIN0*%
X104013000Y-101600000D03*
X130048000Y-95250000D03*
%TO.N,/DTIN2*%
X104013000Y-102489000D03*
X129159000Y-95250000D03*
D62*
%TO.N,/DTIN3*%
X122936000Y-90043000D03*
D61*
X104013000Y-100711000D03*
%TO.N,/GPT0*%
X134112000Y-105156000D03*
X134493000Y-135001000D03*
%TO.N,/GPT2*%
X136271000Y-135001000D03*
X134112000Y-106934000D03*
D65*
%TO.N,+3.3V*%
X209732880Y-118094760D03*
D64*
X103000000Y-95000000D03*
D65*
X193675000Y-109855000D03*
X161163000Y-92329000D03*
X107823000Y-83185000D03*
X199009000Y-102976680D03*
D64*
X191152780Y-96906080D03*
D65*
X191008000Y-73025000D03*
D64*
X218500000Y-70500000D03*
D65*
X146812000Y-105410000D03*
X84582000Y-102235000D03*
X157734000Y-97536000D03*
X193167000Y-113538000D03*
X138800000Y-113200000D03*
D64*
X148500000Y-118000000D03*
D65*
X205613000Y-120777000D03*
X211414360Y-102567740D03*
X162306000Y-106807000D03*
X97155000Y-88500000D03*
X194691000Y-125222000D03*
X130937000Y-89916000D03*
D61*
X131699000Y-102870000D03*
D65*
X192333880Y-123845320D03*
X100838000Y-113030000D03*
X200660000Y-120269000D03*
X193903600Y-107111800D03*
X85090000Y-119126000D03*
X163449000Y-100330000D03*
X131572000Y-71247000D03*
X146812000Y-98679000D03*
X121666000Y-98425000D03*
X202481180Y-102997000D03*
X143100000Y-94000000D03*
X204216000Y-120777000D03*
X164592000Y-71247000D03*
X97409000Y-112141000D03*
X178689000Y-118872000D03*
X206834740Y-109987080D03*
X210947000Y-113538000D03*
D61*
X133985000Y-104267000D03*
D65*
X98298000Y-100584000D03*
X210820000Y-109982000D03*
X168275000Y-115062000D03*
D62*
%TO.N,/VCCA*%
X117729000Y-116332000D03*
%TO.N,/IRQ-1*%
X150495000Y-95250000D03*
X172466000Y-92964000D03*
X188798200Y-105321100D03*
X181610000Y-118999000D03*
D61*
X181610000Y-110236000D03*
%TO.N,/IRQ-2*%
X149352000Y-95250000D03*
X181610000Y-104902000D03*
X179705000Y-92202000D03*
D62*
X184531000Y-118872000D03*
D61*
%TO.N,/IRQ-3*%
X148463000Y-95250000D03*
D62*
X179959000Y-91059000D03*
D61*
X181610000Y-104013000D03*
D62*
%TO.N,/RCON-*%
X102870000Y-100711000D03*
D61*
X132080000Y-91313000D03*
%TO.N,/RSTO-*%
X179197000Y-93726000D03*
D62*
X163322000Y-93472000D03*
%TO.N,/RSTI-*%
X181991000Y-90170000D03*
D61*
X147574000Y-95250000D03*
%TO.N,/QSPI_CS1*%
X132461000Y-92075000D03*
D62*
X178054000Y-105664000D03*
X179197000Y-86487000D03*
X154813000Y-87757000D03*
X180721000Y-111457740D03*
%TO.N,/URTS1*%
X151511000Y-83947000D03*
X179705000Y-102870000D03*
%TO.N,/UCTS1*%
X152400000Y-84836000D03*
D61*
X181610000Y-107569000D03*
D62*
%TO.N,/QSPI_CLK*%
X132588000Y-95250000D03*
X193126360Y-108455460D03*
X157226000Y-87884000D03*
X174625000Y-106045000D03*
D61*
X178070000Y-87170000D03*
%TO.N,/DSPI_DOUT*%
X157099000Y-89662000D03*
X178308000Y-88773000D03*
D62*
X193294000Y-105410000D03*
X133350000Y-96012000D03*
D61*
X181610000Y-108458000D03*
D62*
%TO.N,/QSPI_DIN*%
X188374020Y-108021120D03*
X134112000Y-97028000D03*
D61*
X157099000Y-90551000D03*
X181610000Y-109347000D03*
X177038000Y-89408000D03*
D62*
%TO.N,/QSPI_CS2*%
X174752000Y-89408000D03*
D61*
X154432000Y-91948000D03*
D62*
X135890000Y-96139000D03*
X178054000Y-110363000D03*
%TO.N,/URXD1*%
X148844000Y-84836000D03*
%TO.N,/UTXD1*%
X149860000Y-84201000D03*
D61*
%TO.N,/PWM7*%
X138938000Y-135001000D03*
X135128000Y-110871000D03*
%TO.N,/PWM5*%
X134239000Y-110871000D03*
X138049000Y-135001000D03*
%TO.N,/PWM1*%
X133604000Y-135001000D03*
X132588000Y-102870000D03*
D62*
%TO.N,/PWM3*%
X129159000Y-99060000D03*
D61*
X132715000Y-135001000D03*
D62*
%TO.N,/URTS2*%
X134366000Y-82550000D03*
D61*
X122174000Y-93980000D03*
%TO.N,/UTXD2*%
X123063000Y-93980000D03*
%TO.N,/URXD2*%
X123952000Y-93980000D03*
D62*
%TO.N,/UCTS2*%
X140208000Y-82169000D03*
D61*
X124841000Y-93980000D03*
D62*
%TO.N,/CANRX*%
X134747000Y-85217000D03*
X150622000Y-88900000D03*
D61*
X135636000Y-88646000D03*
%TO.N,/CANTX*%
X136525000Y-88646000D03*
D62*
X136017000Y-85344000D03*
X153035000Y-88392000D03*
%TO.N,/URTS0*%
X137160000Y-85344000D03*
X123190000Y-85598000D03*
D61*
%TO.N,/UTXD0*%
X138176000Y-85598000D03*
D62*
X124587000Y-85852000D03*
D61*
%TO.N,/URXD0*%
X139065000Y-85598000D03*
D62*
X121793000Y-85598000D03*
%TO.N,/UCTS0*%
X120269000Y-85598000D03*
D61*
X139954000Y-85598000D03*
D62*
%TO.N,Net-(ABRT_SW101-Pad1)*%
X166751000Y-105791000D03*
D61*
%TO.N,Net-(U203-V+)*%
X158242000Y-74676000D03*
X159253000Y-71247000D03*
%TO.N,Net-(U204-V+)*%
X125222000Y-71247000D03*
X125222000Y-74676000D03*
D62*
%TO.N,Net-(U201A-E)*%
X95758000Y-117602000D03*
X101092000Y-115062000D03*
X95758000Y-115062000D03*
X101092000Y-118872000D03*
D63*
%TO.N,Net-(U205-Vref)*%
X103000000Y-85500000D03*
D62*
%TO.N,/CLKIN{slash}EXTAL*%
X139446000Y-116205000D03*
X142621000Y-116205000D03*
D63*
%TO.N,/inout_user/CTS2{slash}CANH*%
X116500000Y-70500000D03*
%TD*%
D66*
%TO.N,/ALLPST*%
X152019000Y-102489000D02*
X143129000Y-102463600D01*
%TO.N,/AN2*%
X128803400Y-104978200D02*
X127635000Y-104978200D01*
X129540000Y-105410000D02*
X129032000Y-105156000D01*
X129032000Y-105156000D02*
X128803400Y-104978200D01*
%TO.N,/AN3*%
X129540000Y-106299000D02*
X129032000Y-106299000D01*
X129032000Y-105791000D02*
X128727200Y-105486200D01*
X129032000Y-106299000D02*
X129032000Y-105791000D01*
X128727200Y-105486200D02*
X127635000Y-105486200D01*
%TO.N,/AN4*%
X130886200Y-107619800D02*
X130886200Y-109220000D01*
X131064000Y-107442000D02*
X131064000Y-106426000D01*
X130886200Y-107619800D02*
X131064000Y-107442000D01*
%TO.N,/AN6*%
X129895600Y-110388400D02*
X129895600Y-109220000D01*
X129159000Y-111125000D02*
X129895600Y-110388400D01*
X129159000Y-112014000D02*
X129159000Y-111125000D01*
%TO.N,/BKPT-*%
X144551400Y-107467400D02*
X143129000Y-107467400D01*
X145288000Y-108204000D02*
X144551400Y-107467400D01*
X146431000Y-109855000D02*
X145288000Y-108712000D01*
X146685000Y-109855000D02*
X146431000Y-109855000D01*
X145288000Y-108712000D02*
X145288000Y-108204000D01*
D67*
X78867000Y-106299000D02*
X80391000Y-104775000D01*
D68*
X82359500Y-104267000D02*
X80899000Y-104267000D01*
X80899000Y-104267000D02*
X80391000Y-104775000D01*
D66*
%TO.N,/CLKMOD0*%
X113792000Y-97155000D02*
X108345000Y-97155000D01*
X115062000Y-98425000D02*
X113792000Y-97155000D01*
X123190000Y-101981000D02*
X123190000Y-100965000D01*
X122174000Y-99949000D02*
X118110000Y-99949000D01*
X118110000Y-99949000D02*
X116586000Y-98425000D01*
X123190000Y-100965000D02*
X122174000Y-99949000D01*
X108345000Y-97155000D02*
X106567000Y-98933000D01*
X106567000Y-98933000D02*
X105219500Y-98933000D01*
X126365000Y-102489000D02*
X126111000Y-102235000D01*
X127635000Y-102489000D02*
X126365000Y-102489000D01*
X123444000Y-102235000D02*
X123190000Y-101981000D01*
X126111000Y-102235000D02*
X123444000Y-102235000D01*
X116586000Y-98425000D02*
X115062000Y-98425000D01*
%TO.N,/CLKMOD1*%
X118618000Y-99441000D02*
X115062000Y-95885000D01*
X105353000Y-96647000D02*
X105219500Y-96647000D01*
X124587000Y-101727000D02*
X122809000Y-99949000D01*
X107385000Y-94615000D02*
X105353000Y-96647000D01*
X113792000Y-94615000D02*
X107385000Y-94615000D01*
X126238000Y-101727000D02*
X124587000Y-101727000D01*
X122809000Y-99695000D02*
X122555000Y-99441000D01*
X126492000Y-101981000D02*
X126238000Y-101727000D01*
X122555000Y-99441000D02*
X118618000Y-99441000D01*
X122809000Y-99949000D02*
X122809000Y-99695000D01*
X127635000Y-101981000D02*
X126492000Y-101981000D01*
X115062000Y-95885000D02*
X113792000Y-94615000D01*
%TO.N,/DDAT0*%
X145796000Y-107950000D02*
X146558000Y-107950000D01*
X144780000Y-106959400D02*
X144907000Y-107061000D01*
X144907000Y-107061000D02*
X145796000Y-107950000D01*
X143129000Y-106959400D02*
X144780000Y-106959400D01*
%TO.N,/DDAT1*%
X145415000Y-106680000D02*
X146558000Y-106680000D01*
X143129000Y-106476800D02*
X145211800Y-106476800D01*
X145211800Y-106476800D02*
X145415000Y-106680000D01*
%TO.N,/DDAT2*%
X141351000Y-103982520D02*
X143129000Y-103962200D01*
X141351000Y-103982520D02*
X140431520Y-103982520D01*
X140431520Y-103982520D02*
X139827000Y-103378000D01*
X139827000Y-103378000D02*
X139827000Y-102743000D01*
%TO.N,/DDAT3*%
X141300200Y-103454200D02*
X143129000Y-103479600D01*
X140970000Y-103124000D02*
X141300200Y-103454200D01*
D68*
%TO.N,/DSCLK*%
X81153000Y-106553000D02*
X80645000Y-107061000D01*
X82359500Y-106553000D02*
X81153000Y-106553000D01*
D67*
X78867000Y-108839000D02*
X80645000Y-107061000D01*
D66*
X140970000Y-101854000D02*
X142087600Y-102971600D01*
X142087600Y-102971600D02*
X143129000Y-102971600D01*
D68*
%TO.N,/DSI*%
X82359500Y-117411500D02*
X78867000Y-113919000D01*
D66*
X141478000Y-106426000D02*
X141935200Y-105968800D01*
D68*
X82359500Y-119126000D02*
X82359500Y-117411500D01*
D66*
X141935200Y-105968800D02*
X143129000Y-105968800D01*
%TO.N,/DSO*%
X142011400Y-105486200D02*
X143129000Y-105460800D01*
D68*
X81534000Y-121412000D02*
X80391000Y-120269000D01*
D66*
X141478000Y-105283000D02*
X142011400Y-105486200D01*
D68*
X82359500Y-121412000D02*
X81534000Y-121412000D01*
D67*
X78867000Y-116459000D02*
X80391000Y-117983000D01*
X80391000Y-117983000D02*
X80391000Y-120269000D01*
D66*
%TO.N,/DTIN1*%
X130937000Y-99187000D02*
X130937000Y-95250000D01*
D67*
X99822000Y-117729000D02*
X99822000Y-107569000D01*
X98679000Y-118872000D02*
X99822000Y-117729000D01*
D66*
X129159000Y-100965000D02*
X130937000Y-99187000D01*
X127635000Y-100990400D02*
X129159000Y-100965000D01*
D67*
X99822000Y-107569000D02*
X104013000Y-103378000D01*
X97409000Y-118872000D02*
X98679000Y-118872000D01*
D66*
%TO.N,/GPT1*%
X134112000Y-106045000D02*
X133731000Y-106299000D01*
X133731000Y-106299000D02*
X133375400Y-106654600D01*
X133375400Y-106654600D02*
X133375400Y-109220000D01*
%TO.N,/GPT3*%
X135001000Y-106934000D02*
X134874000Y-107569000D01*
X134874000Y-107569000D02*
X134899400Y-109220000D01*
D68*
%TO.N,/IRQ-5*%
X176276000Y-119761000D02*
X168656000Y-119761000D01*
D67*
X166497000Y-117602000D02*
X168656000Y-119761000D01*
X166497000Y-108331000D02*
X166497000Y-117602000D01*
X166116000Y-97536000D02*
X166497000Y-97917000D01*
D66*
X150495000Y-100457000D02*
X149733000Y-99695000D01*
X138811000Y-97282000D02*
X141503400Y-99974400D01*
X141503400Y-99974400D02*
X143129000Y-99974400D01*
D67*
X150495000Y-100457000D02*
X160909000Y-100457000D01*
X168021000Y-105283000D02*
X168021000Y-106807000D01*
D66*
X149733000Y-98425000D02*
X149987000Y-98171000D01*
D67*
X166497000Y-97917000D02*
X166497000Y-103759000D01*
X168021000Y-106807000D02*
X166497000Y-108331000D01*
D66*
X149733000Y-99695000D02*
X149733000Y-98425000D01*
D67*
X163830000Y-97536000D02*
X166116000Y-97536000D01*
D68*
X176276000Y-118554500D02*
X174815500Y-117094000D01*
X176276000Y-119761000D02*
X176276000Y-118554500D01*
D67*
X160909000Y-100457000D02*
X163830000Y-97536000D01*
D66*
X138811000Y-97282000D02*
X138811000Y-96266000D01*
X149987000Y-98171000D02*
X150495000Y-98171000D01*
D67*
X166497000Y-103759000D02*
X168021000Y-105283000D01*
D66*
%TO.N,/IRQ-6*%
X150495000Y-97282000D02*
X151066500Y-97282000D01*
X141528800Y-98475800D02*
X143129000Y-98475800D01*
X140716000Y-96520000D02*
X140716000Y-97663000D01*
X151066500Y-97282000D02*
X152082500Y-98298000D01*
X140335000Y-96139000D02*
X140716000Y-96520000D01*
X140716000Y-97663000D02*
X141528800Y-98475800D01*
%TO.N,/IRQ-7*%
X141605000Y-96266000D02*
X141605000Y-97790000D01*
D67*
X157607000Y-101219000D02*
X157924500Y-101536500D01*
D66*
X152082500Y-96012000D02*
X150876000Y-96012000D01*
D67*
X157924500Y-101536500D02*
X159448500Y-101536500D01*
D66*
X150495000Y-96393000D02*
X149860000Y-96647000D01*
X141782800Y-97967800D02*
X143129000Y-97967800D01*
X149225000Y-97282000D02*
X149225000Y-100203000D01*
X150876000Y-96012000D02*
X150495000Y-96393000D01*
X149225000Y-100203000D02*
X150241000Y-101219000D01*
X149860000Y-96647000D02*
X149225000Y-97282000D01*
X141605000Y-97790000D02*
X141782800Y-97967800D01*
D67*
X150241000Y-101219000D02*
X157607000Y-101219000D01*
D66*
%TO.N,/JTAG_EN*%
X125476000Y-92964000D02*
X125603000Y-93345000D01*
X126517400Y-95275400D02*
X127635000Y-95478600D01*
D68*
X119189500Y-95186500D02*
X117348000Y-93345000D01*
D66*
X125603000Y-93345000D02*
X125603000Y-94361000D01*
D68*
X119189500Y-97282000D02*
X119189500Y-95186500D01*
D66*
X125603000Y-94361000D02*
X126517400Y-95275400D01*
D68*
X117348000Y-93345000D02*
X115062000Y-93345000D01*
D66*
%TO.N,/PST0*%
X136377680Y-107077680D02*
X135700000Y-106400000D01*
X135700000Y-106400000D02*
X135700000Y-105600000D01*
X136377680Y-107100000D02*
X136377680Y-107077680D01*
X136398000Y-109220000D02*
X136377680Y-107817920D01*
X136377680Y-107817920D02*
X136377680Y-107100000D01*
%TO.N,/PST1*%
X136880600Y-105943400D02*
X136906000Y-105918000D01*
X136880600Y-109220000D02*
X136880600Y-105943400D01*
%TO.N,/PST2*%
X138379200Y-106820800D02*
X138700000Y-106500000D01*
X138379200Y-109220000D02*
X138379200Y-106820800D01*
%TO.N,/PST3*%
X138887200Y-109220000D02*
X138887200Y-107899200D01*
X138887200Y-107899200D02*
X139065000Y-107442000D01*
%TO.N,/QSPI_CS3*%
X136779000Y-95700000D02*
X136700000Y-95700000D01*
X135880068Y-94422060D02*
X135864600Y-93726000D01*
X136398000Y-97282000D02*
X136779000Y-96901000D01*
X136271000Y-97282000D02*
X136398000Y-97282000D01*
X136779000Y-96901000D02*
X136779000Y-95700000D01*
X135880068Y-94880068D02*
X135880068Y-94422060D01*
X136700000Y-95700000D02*
X135880068Y-94880068D01*
D68*
%TO.N,/TCLK*%
X83312000Y-115316000D02*
X83312000Y-113411000D01*
X122428000Y-115316000D02*
X122555000Y-115189000D01*
X134048500Y-115189000D02*
X134874000Y-114363500D01*
X83312000Y-113411000D02*
X83883500Y-112839500D01*
X83312000Y-134112000D02*
X83439000Y-134239000D01*
X122555000Y-115189000D02*
X134048500Y-115189000D01*
X83883500Y-112839500D02*
X84836000Y-112839500D01*
X83312000Y-115316000D02*
X83312000Y-134112000D01*
D66*
%TO.N,/VDDPLL*%
X140893800Y-109220000D02*
X140893800Y-110794800D01*
D67*
X141986000Y-111696500D02*
X141732000Y-111442500D01*
D66*
X150241000Y-109220000D02*
X150241000Y-111950500D01*
X140893800Y-110794800D02*
X141732000Y-111442500D01*
X150241000Y-111950500D02*
X150114000Y-112077500D01*
D67*
X143891000Y-111442500D02*
X149733000Y-111696500D01*
X143891000Y-111442500D02*
X141986000Y-111696500D01*
X149733000Y-111696500D02*
X150114000Y-112077500D01*
%TO.N,/inout_user/CAN_H*%
X101219000Y-89408000D02*
X102108000Y-89408000D01*
X105618000Y-88184000D02*
X105618000Y-82596000D01*
X102108000Y-89408000D02*
X102489000Y-89027000D01*
X102489000Y-89027000D02*
X104775000Y-89027000D01*
X97917000Y-95758000D02*
X98552000Y-95123000D01*
X100457000Y-91186000D02*
X100457000Y-90551000D01*
X98552000Y-93091000D02*
X100457000Y-91186000D01*
X98552000Y-95123000D02*
X98552000Y-93091000D01*
X113284000Y-78613000D02*
X114500000Y-78613000D01*
X111760000Y-80137000D02*
X113284000Y-78613000D01*
X100457000Y-90551000D02*
X100647500Y-90043000D01*
X108077000Y-80137000D02*
X111760000Y-80137000D01*
X100647500Y-90043000D02*
X101219000Y-89408000D01*
X105618000Y-82596000D02*
X108077000Y-80137000D01*
X96647000Y-95758000D02*
X97917000Y-95758000D01*
X104775000Y-89027000D02*
X105618000Y-88184000D01*
%TO.N,/inout_user/CAN_L*%
X106500000Y-80250000D02*
X106594000Y-80250000D01*
D68*
X100647500Y-87757000D02*
X103251000Y-87757000D01*
D67*
X104956000Y-87449000D02*
X104956000Y-81794000D01*
X106594000Y-80250000D02*
X107000000Y-79844000D01*
X104648000Y-87757000D02*
X104956000Y-87449000D01*
X104956000Y-81794000D02*
X106500000Y-80250000D01*
D69*
X100647500Y-85471000D02*
X100647500Y-87757000D01*
D67*
X107000000Y-79844000D02*
X107000000Y-78613000D01*
X103251000Y-87757000D02*
X104648000Y-87757000D01*
%TO.N,/inout_user/CTS0*%
X176022000Y-79502000D02*
X176022000Y-71120000D01*
D70*
X187920000Y-68580000D02*
X190000000Y-66500000D01*
D67*
X184150000Y-82296000D02*
X180594000Y-82296000D01*
X177038000Y-80518000D02*
X176022000Y-79502000D01*
D70*
X190000000Y-66500000D02*
X190000000Y-63500000D01*
X190000000Y-63500000D02*
X191500000Y-62000000D01*
D67*
X179751000Y-68580000D02*
X178562000Y-68580000D01*
D70*
X191500000Y-62000000D02*
X194995000Y-62000000D01*
D67*
X178562000Y-68580000D02*
X176022000Y-71120000D01*
X180594000Y-82296000D02*
X178816000Y-80518000D01*
D70*
X179751000Y-68580000D02*
X187920000Y-68580000D01*
D67*
X178816000Y-80518000D02*
X177038000Y-80518000D01*
D70*
X194995000Y-62000000D02*
X196655000Y-63660000D01*
D67*
%TO.N,/inout_user/CTS1*%
X148717000Y-72783000D02*
X152000000Y-69500000D01*
D70*
X160407998Y-63660000D02*
X160655000Y-63660000D01*
X158000000Y-68500000D02*
X158000000Y-66067998D01*
D67*
X148717000Y-79121000D02*
X151892000Y-82296000D01*
D70*
X157000000Y-69500000D02*
X158000000Y-68500000D01*
D67*
X148717000Y-79121000D02*
X148717000Y-72783000D01*
D70*
X158000000Y-66067998D02*
X160407998Y-63660000D01*
X152000000Y-69500000D02*
X157000000Y-69500000D01*
D67*
X151892000Y-82296000D02*
X156210000Y-82296000D01*
D66*
%TO.N,Net-(BDM_PORT101-P6)*%
X90424000Y-136398000D02*
X82423000Y-136398000D01*
X77597000Y-112649000D02*
X78867000Y-111379000D01*
X82423000Y-136398000D02*
X81280000Y-135255000D01*
X78232000Y-125349000D02*
X77597000Y-124714000D01*
X91440000Y-134620000D02*
X91440000Y-135382000D01*
X77597000Y-124714000D02*
X77597000Y-112649000D01*
X80264000Y-125349000D02*
X81280000Y-126365000D01*
X81280000Y-135255000D02*
X81280000Y-126365000D01*
X80264000Y-125349000D02*
X78232000Y-125349000D01*
X91440000Y-135382000D02*
X90424000Y-136398000D01*
D67*
%TO.N,/inout_user/RTS0*%
X180213000Y-83058000D02*
X178435000Y-81280000D01*
X178435000Y-81280000D02*
X176403000Y-81280000D01*
D68*
X185039000Y-81026000D02*
X184150000Y-81026000D01*
D67*
X185674000Y-81661000D02*
X185674000Y-82804000D01*
X185420000Y-83058000D02*
X180213000Y-83058000D01*
X178989000Y-64643000D02*
X180767000Y-62865000D01*
X185039000Y-81026000D02*
X185674000Y-81661000D01*
X176403000Y-81280000D02*
X175260000Y-80137000D01*
X175260000Y-80137000D02*
X175260000Y-70240000D01*
D70*
X180767000Y-62865000D02*
X182632000Y-61000000D01*
X199425000Y-61925000D02*
X199425000Y-63660000D01*
D67*
X185674000Y-82804000D02*
X185420000Y-83058000D01*
D70*
X182632000Y-61000000D02*
X198500000Y-61000000D01*
X198500000Y-61000000D02*
X199425000Y-61925000D01*
D67*
X175260000Y-70240000D02*
X178989000Y-66511000D01*
X178989000Y-66511000D02*
X178989000Y-64643000D01*
D70*
%TO.N,/inout_user/RTS1*%
X154224000Y-63776000D02*
X156000000Y-62000000D01*
X154224000Y-65776000D02*
X154224000Y-63776000D01*
D67*
X147955000Y-72045000D02*
X154224000Y-65776000D01*
D70*
X156000000Y-62000000D02*
X161765000Y-62000000D01*
D67*
X147955000Y-79756000D02*
X151257000Y-83058000D01*
X151257000Y-83058000D02*
X157480000Y-83058000D01*
X147955000Y-79756000D02*
X147955000Y-72045000D01*
X157734000Y-82804000D02*
X157480000Y-83058000D01*
X156210000Y-81026000D02*
X156718000Y-81026000D01*
X157734000Y-82042000D02*
X157734000Y-82804000D01*
X156718000Y-81026000D02*
X157734000Y-82042000D01*
D70*
X161765000Y-62000000D02*
X163425000Y-63660000D01*
D71*
%TO.N,/inout_user/RTS2*%
X127054000Y-75946000D02*
X127000000Y-76000000D01*
X128430000Y-75946000D02*
X127054000Y-75946000D01*
%TO.N,/inout_user/RXD0*%
X189390000Y-77216000D02*
X191284000Y-77216000D01*
X191284000Y-77216000D02*
X192000000Y-76500000D01*
D70*
%TO.N,/inout_user/RXD1*%
X165784000Y-77216000D02*
X166500000Y-76500000D01*
X166500000Y-71500000D02*
X162040000Y-67040000D01*
X166500000Y-76500000D02*
X166500000Y-71500000D01*
X162040000Y-67040000D02*
X162040000Y-66500000D01*
X161225000Y-77216000D02*
X165784000Y-77216000D01*
D67*
%TO.N,/inout_user/RXD2*%
X112014000Y-71628000D02*
X116872000Y-71628000D01*
X127040000Y-67960000D02*
X127040000Y-66500000D01*
X116872000Y-71628000D02*
X118118990Y-70381010D01*
X118118990Y-70381010D02*
X124618990Y-70381010D01*
X124618990Y-70381010D02*
X127040000Y-67960000D01*
D71*
%TO.N,/inout_user/RxD_CAN*%
X115062000Y-85090000D02*
X114681000Y-84709000D01*
X114681000Y-84709000D02*
X111252000Y-84709000D01*
X109474000Y-86487000D02*
X111252000Y-84709000D01*
X108585000Y-86487000D02*
X109474000Y-86487000D01*
X115062000Y-86233000D02*
X115062000Y-85090000D01*
%TO.N,/inout_user/TXD0*%
X187500000Y-76000000D02*
X189336000Y-76000000D01*
D67*
%TO.N,/inout_user/TXD1*%
X161290000Y-75946000D02*
X160401000Y-75946000D01*
X158500000Y-72500000D02*
X158500000Y-70000000D01*
X159766000Y-75311000D02*
X159766000Y-73766000D01*
D70*
X158500000Y-70000000D02*
X158500000Y-69500000D01*
X159270000Y-68730000D02*
X158500000Y-69500000D01*
X159270000Y-66500000D02*
X159270000Y-68730000D01*
D67*
X160401000Y-75946000D02*
X159766000Y-75311000D01*
X159766000Y-73766000D02*
X158500000Y-72500000D01*
D71*
%TO.N,/inout_user/TxD_CAN*%
X108585000Y-90297000D02*
X109601000Y-90297000D01*
X109601000Y-90297000D02*
X111125000Y-88773000D01*
X111125000Y-88773000D02*
X112522000Y-88773000D01*
D66*
%TO.N,/xilinx/LED_TEST1*%
X197180200Y-98755200D02*
X197180200Y-100774500D01*
X205422500Y-76835000D02*
X205422500Y-77830680D01*
X205661260Y-78069440D02*
X205661260Y-78740000D01*
X197104000Y-98679000D02*
X197180200Y-98755200D01*
X205422500Y-77830680D02*
X205661260Y-78069440D01*
%TO.N,/xilinx/LED_TEST2*%
X197675500Y-100774500D02*
X197675500Y-99377500D01*
X198247000Y-97282000D02*
X199390000Y-96139000D01*
X198247000Y-98806000D02*
X198247000Y-97282000D01*
X197675500Y-99377500D02*
X198247000Y-98806000D01*
X205422500Y-80645000D02*
X205422500Y-84355940D01*
X205422500Y-84355940D02*
X204566520Y-85211920D01*
D71*
%TO.N,/xilinx/TCK*%
X223520000Y-73660000D02*
X218545000Y-73660000D01*
X218545000Y-73660000D02*
X218250000Y-73955000D01*
D66*
X201180700Y-121399300D02*
X204144880Y-118435120D01*
X201180700Y-122745500D02*
X201180700Y-121399300D01*
X204144880Y-118435120D02*
X204144880Y-116954300D01*
%TO.N,/xilinx/TDI*%
X210004660Y-103477060D02*
X210431380Y-103477060D01*
X209181700Y-102654100D02*
X210004660Y-103477060D01*
X209181700Y-100774500D02*
X209181700Y-102654100D01*
%TO.N,/xilinx/TDO*%
X208673700Y-114566700D02*
X209379820Y-113860580D01*
X208673700Y-122745500D02*
X208673700Y-114566700D01*
D71*
%TO.N,/xilinx/TMS*%
X224790000Y-74930000D02*
X222697040Y-74930000D01*
X225298000Y-69342000D02*
X225298000Y-74422000D01*
D66*
X201180700Y-96446340D02*
X201180700Y-100774500D01*
D71*
X225298000Y-74422000D02*
X224790000Y-74930000D01*
X223520000Y-68580000D02*
X224536000Y-68580000D01*
D66*
X222697040Y-74930000D02*
X201180700Y-96446340D01*
D71*
X224536000Y-68580000D02*
X225298000Y-69342000D01*
D66*
%TO.N,/xilinx/XIL_D0*%
X222250000Y-88900000D02*
X214774780Y-88900000D01*
X205181200Y-98493580D02*
X205181200Y-100774500D01*
X214774780Y-88900000D02*
X205181200Y-98493580D01*
%TO.N,/xilinx/XIL_D1*%
X205676500Y-100774500D02*
X205676500Y-98600260D01*
X205676500Y-98600260D02*
X212836760Y-91440000D01*
X212836760Y-91440000D02*
X222250000Y-91440000D01*
%TO.N,/xilinx/XIL_D10*%
X221957900Y-114007900D02*
X222250000Y-114300000D01*
X212915500Y-114007900D02*
X221957900Y-114007900D01*
%TO.N,/xilinx/XIL_D11*%
X212915500Y-115506500D02*
X216463880Y-115506500D01*
X216463880Y-115506500D02*
X216689940Y-115280440D01*
%TO.N,/xilinx/XIL_D12*%
X220916500Y-119380000D02*
X222250000Y-119380000D01*
X212915500Y-118008400D02*
X219544900Y-118008400D01*
X219544900Y-118008400D02*
X220916500Y-119380000D01*
D71*
%TO.N,/xilinx/XIL_D13*%
X222250000Y-121920000D02*
X221234000Y-121920000D01*
D66*
X212915500Y-119507000D02*
X218821000Y-119507000D01*
D71*
X221234000Y-121920000D02*
X218821000Y-119507000D01*
D66*
%TO.N,/xilinx/XIL_D14*%
X218300300Y-120510300D02*
X222250000Y-124460000D01*
X212915500Y-120510300D02*
X218300300Y-120510300D01*
%TO.N,/xilinx/XIL_D15*%
X218186000Y-123825000D02*
X221361000Y-127000000D01*
X221361000Y-127000000D02*
X222250000Y-127000000D01*
X210680300Y-123804680D02*
X218186000Y-123804680D01*
X218186000Y-123804680D02*
X218186000Y-123825000D01*
X210680300Y-122745500D02*
X210680300Y-123804680D01*
%TO.N,/xilinx/XIL_D16*%
X206679800Y-122745500D02*
X206679800Y-123804680D01*
X212415120Y-129540000D02*
X206679800Y-123804680D01*
X222250000Y-129540000D02*
X212415120Y-129540000D01*
%TO.N,/xilinx/XIL_D17*%
X210073240Y-125275340D02*
X208798160Y-125275340D01*
X207175100Y-123652280D02*
X207175100Y-122745500D01*
X208798160Y-125275340D02*
X207175100Y-123652280D01*
%TO.N,/xilinx/XIL_D18*%
X205181200Y-126763780D02*
X211559140Y-133141720D01*
X220771720Y-133141720D02*
X222250000Y-134620000D01*
X205181200Y-122745500D02*
X205181200Y-126763780D01*
X211559140Y-133141720D02*
X220771720Y-133141720D01*
%TO.N,/xilinx/XIL_D19*%
X204685900Y-127505460D02*
X214340440Y-137160000D01*
X204685900Y-122745500D02*
X204685900Y-127505460D01*
X214340440Y-137160000D02*
X222250000Y-137160000D01*
%TO.N,/xilinx/XIL_D2*%
X207683100Y-97797620D02*
X207683100Y-100774500D01*
X222250000Y-93980000D02*
X211500720Y-93980000D01*
X211500720Y-93980000D02*
X207683100Y-97797620D01*
%TO.N,/xilinx/XIL_D20*%
X211023200Y-95059500D02*
X208178400Y-97904300D01*
X208178400Y-97904300D02*
X208178400Y-100774500D01*
D71*
X219265500Y-95250000D02*
X219075000Y-95059500D01*
X224790000Y-91440000D02*
X225933000Y-91440000D01*
X226187000Y-95123000D02*
X226060000Y-95250000D01*
D66*
X219075000Y-95059500D02*
X211023200Y-95059500D01*
D71*
X226060000Y-95250000D02*
X219265500Y-95250000D01*
X225933000Y-91440000D02*
X226187000Y-91694000D01*
X226187000Y-91694000D02*
X226187000Y-95123000D01*
D66*
%TO.N,/xilinx/XIL_D21*%
X206184500Y-98694240D02*
X206184500Y-100774500D01*
X224790000Y-93980000D02*
X223520000Y-92710000D01*
X223520000Y-92710000D02*
X212168740Y-92710000D01*
X212168740Y-92710000D02*
X206184500Y-98694240D01*
%TO.N,/xilinx/XIL_D22*%
X223520000Y-97790000D02*
X224790000Y-96520000D01*
X209293460Y-97790000D02*
X223520000Y-97790000D01*
X208673700Y-98409760D02*
X209293460Y-97790000D01*
X208673700Y-100774500D02*
X208673700Y-98409760D01*
%TO.N,/xilinx/XIL_D23*%
X223520000Y-100330000D02*
X224790000Y-99060000D01*
X211124800Y-100330000D02*
X223520000Y-100330000D01*
X210680300Y-100774500D02*
X211124800Y-100330000D01*
%TO.N,/xilinx/XIL_D24*%
X223520000Y-102870000D02*
X224790000Y-101600000D01*
X212915500Y-104013000D02*
X220441520Y-104013000D01*
X221584520Y-102870000D02*
X223520000Y-102870000D01*
X220441520Y-104013000D02*
X221584520Y-102870000D01*
%TO.N,/xilinx/XIL_D25*%
X223418400Y-105511600D02*
X224790000Y-104140000D01*
X212915500Y-105511600D02*
X223418400Y-105511600D01*
%TO.N,/xilinx/XIL_D26*%
X212915500Y-106514900D02*
X218531440Y-106514900D01*
X223520000Y-107950000D02*
X224790000Y-106680000D01*
X219966540Y-107950000D02*
X223520000Y-107950000D01*
X218531440Y-106514900D02*
X219966540Y-107950000D01*
%TO.N,/xilinx/XIL_D27*%
X212915500Y-108013500D02*
X213974680Y-108013500D01*
X213974680Y-108013500D02*
X213982300Y-108005880D01*
X213982300Y-108005880D02*
X214914480Y-108005880D01*
D71*
%TO.N,/xilinx/XIL_D28*%
X224790000Y-111252000D02*
X224134680Y-110596680D01*
X224790000Y-111760000D02*
X224790000Y-111252000D01*
D66*
X212915500Y-109004100D02*
X217101420Y-109004100D01*
X217101420Y-109004100D02*
X218694000Y-110596680D01*
D71*
X224134680Y-110596680D02*
X218694000Y-110596680D01*
D66*
%TO.N,/xilinx/XIL_D29*%
X223520000Y-115570000D02*
X224790000Y-114300000D01*
X220578680Y-116644420D02*
X221653100Y-115570000D01*
X213974680Y-116509800D02*
X214038180Y-116573300D01*
X214038180Y-116573300D02*
X219384880Y-116573300D01*
X212915500Y-116509800D02*
X213974680Y-116509800D01*
X219456000Y-116644420D02*
X220578680Y-116644420D01*
X219384880Y-116573300D02*
X219456000Y-116644420D01*
X221653100Y-115570000D02*
X223520000Y-115570000D01*
%TO.N,/xilinx/XIL_D3*%
X207462120Y-102407720D02*
X207360520Y-102407720D01*
X207619600Y-102565200D02*
X207462120Y-102407720D01*
X207360520Y-102407720D02*
X207175100Y-102222300D01*
X207175100Y-102222300D02*
X207175100Y-100774500D01*
%TO.N,/xilinx/XIL_D30*%
X212915500Y-116014500D02*
X216194640Y-116014500D01*
X219608400Y-116149120D02*
X220002100Y-115755420D01*
X216329260Y-116149120D02*
X219608400Y-116149120D01*
X216194640Y-116014500D02*
X216329260Y-116149120D01*
%TO.N,/xilinx/XIL_D31*%
X212915500Y-117005100D02*
X219214700Y-117005100D01*
X220319600Y-118110000D02*
X223520000Y-118110000D01*
X223520000Y-118110000D02*
X224790000Y-119380000D01*
X219214700Y-117005100D02*
X220319600Y-118110000D01*
%TO.N,/xilinx/XIL_D32*%
X206502000Y-125585220D02*
X205676500Y-124759720D01*
X205676500Y-122745500D02*
X205676500Y-124759720D01*
X206502000Y-126238000D02*
X206502000Y-125585220D01*
D71*
%TO.N,/xilinx/XIL_D33*%
X223520000Y-121031000D02*
X223520000Y-123190000D01*
D66*
X219943680Y-119011700D02*
X221615000Y-120683020D01*
X212915500Y-119011700D02*
X219943680Y-119011700D01*
D71*
X221615000Y-120683020D02*
X223172020Y-120683020D01*
D66*
X223520000Y-123190000D02*
X224790000Y-124460000D01*
D71*
X223172020Y-120683020D02*
X223520000Y-121031000D01*
D66*
%TO.N,/xilinx/XIL_D34*%
X211455000Y-121158000D02*
X211455000Y-118745000D01*
X223520000Y-125730000D02*
X224790000Y-127000000D01*
X211658200Y-121361200D02*
X211455000Y-121158000D01*
X212461000Y-118491000D02*
X212480000Y-118510000D01*
X211658200Y-121361200D02*
X217215720Y-121361200D01*
X211709000Y-118491000D02*
X212461000Y-118491000D01*
X211709000Y-118491000D02*
X211455000Y-118745000D01*
X217215720Y-121361200D02*
X221584520Y-125730000D01*
X221584520Y-125730000D02*
X223520000Y-125730000D01*
%TO.N,/xilinx/XIL_D35*%
X210172300Y-122745500D02*
X210172300Y-124139960D01*
X214302340Y-128270000D02*
X223520000Y-128270000D01*
X210172300Y-124139960D02*
X214302340Y-128270000D01*
X223520000Y-128270000D02*
X224790000Y-129540000D01*
%TO.N,/xilinx/XIL_D36*%
X224790000Y-132080000D02*
X223520000Y-130810000D01*
X223520000Y-130810000D02*
X212958680Y-130810000D01*
X212958680Y-130810000D02*
X206184500Y-124035820D01*
X206184500Y-124035820D02*
X206184500Y-122745500D01*
%TO.N,/xilinx/XIL_D4*%
X221594680Y-99715320D02*
X222250000Y-99060000D01*
X210172300Y-99715320D02*
X221594680Y-99715320D01*
X210172300Y-100774500D02*
X210172300Y-99715320D01*
%TO.N,/xilinx/XIL_D5*%
X220332300Y-103517700D02*
X222250000Y-101600000D01*
X212915500Y-103517700D02*
X220332300Y-103517700D01*
%TO.N,/xilinx/XIL_D6*%
X221373700Y-105016300D02*
X222250000Y-104140000D01*
X212915500Y-105016300D02*
X221373700Y-105016300D01*
%TO.N,/xilinx/XIL_D7*%
X212915500Y-106006900D02*
X221576900Y-106006900D01*
X221576900Y-106006900D02*
X222250000Y-106680000D01*
%TO.N,/xilinx/XIL_D8*%
X216463880Y-107010200D02*
X212915500Y-107010200D01*
X222250000Y-109220000D02*
X218673680Y-109220000D01*
X218673680Y-109220000D02*
X216463880Y-107010200D01*
%TO.N,/xilinx/XIL_D9*%
X212915500Y-109512100D02*
X215392000Y-109512100D01*
X215392000Y-109512100D02*
X217639900Y-111760000D01*
X217639900Y-111760000D02*
X222250000Y-111760000D01*
D70*
%TO.N,GND*%
X213832440Y-112509300D02*
X213974680Y-112651540D01*
X164592000Y-83248500D02*
X164592000Y-83312000D01*
X124587000Y-100711000D02*
X123571000Y-99695000D01*
X130048000Y-84455000D02*
X128841500Y-84455000D01*
X102809000Y-92837000D02*
X104140000Y-92837000D01*
X159448500Y-114046000D02*
X159448500Y-115633500D01*
D71*
X137388600Y-109220000D02*
X137388600Y-110769400D01*
D70*
X86741000Y-121158000D02*
X86741000Y-125159000D01*
D66*
X211074000Y-107442000D02*
X211137500Y-107505500D01*
D70*
X141605000Y-89027000D02*
X141605000Y-89535000D01*
X121158000Y-102616000D02*
X121285000Y-102489000D01*
X135763000Y-102997000D02*
X132588000Y-103632000D01*
D66*
X140385800Y-93726000D02*
X140385800Y-91325700D01*
D70*
X159448500Y-109029500D02*
X159512000Y-108966000D01*
X106553000Y-90424000D02*
X106680000Y-90424000D01*
X89311000Y-113000000D02*
X90350000Y-113000000D01*
X128968500Y-91440000D02*
X128968500Y-89852500D01*
X131826000Y-107950000D02*
X131826000Y-105537000D01*
X213832440Y-112509300D02*
X213974680Y-112367060D01*
D72*
X143129000Y-104470200D02*
X144805400Y-104470200D01*
D66*
X139395200Y-108102400D02*
X139395200Y-109220000D01*
D70*
X103568500Y-112331500D02*
X103378000Y-112522000D01*
X103568500Y-111252000D02*
X103568500Y-112331500D01*
X192085000Y-74676000D02*
X192532000Y-75123000D01*
D66*
X212915500Y-110502700D02*
X213974680Y-110502700D01*
X134366000Y-93726000D02*
X134366000Y-92265500D01*
D70*
X86741000Y-125159000D02*
X86741000Y-129559000D01*
D66*
X204685900Y-99715320D02*
X203454000Y-99715320D01*
D70*
X132651500Y-75501500D02*
X130937000Y-75501500D01*
X85915500Y-114744500D02*
X84836000Y-114744500D01*
X141097000Y-107823000D02*
X140335000Y-107823000D01*
X164846000Y-90932000D02*
X166243000Y-90932000D01*
X151892000Y-118142000D02*
X151750000Y-118000000D01*
X140385800Y-91325700D02*
X140652500Y-91059000D01*
D71*
X126365000Y-103759000D02*
X126365000Y-104775000D01*
D70*
X140385800Y-94919800D02*
X140208000Y-95123000D01*
X86741000Y-115570000D02*
X85915500Y-114744500D01*
D66*
X189885320Y-116509800D02*
X189885320Y-114007900D01*
D70*
X163957000Y-75311000D02*
X164592000Y-75120500D01*
X117602000Y-77152500D02*
X117602000Y-75311000D01*
X137668000Y-98298000D02*
X137668000Y-105029000D01*
X89280500Y-113030500D02*
X86741000Y-115570000D01*
X139446000Y-108077000D02*
X139420600Y-108077000D01*
X135763000Y-102997000D02*
X137668000Y-105029000D01*
X164846000Y-90932000D02*
X164846000Y-93408500D01*
D66*
X189438280Y-110502700D02*
X190944500Y-110502700D01*
D70*
X88646000Y-123063000D02*
X86741000Y-121158000D01*
X166243000Y-90932000D02*
X166243000Y-89535000D01*
D66*
X204685900Y-100774500D02*
X204685900Y-99715320D01*
X189885320Y-113017300D02*
X189885320Y-114007900D01*
D70*
X140652500Y-90487500D02*
X140652500Y-91059000D01*
X126441200Y-99974400D02*
X125349000Y-100774500D01*
X182816500Y-127952500D02*
X183134000Y-128270000D01*
X137668000Y-107823000D02*
X137668000Y-105029000D01*
X144338000Y-112903000D02*
X143891000Y-113350000D01*
D66*
X212915500Y-113017300D02*
X213974680Y-113017300D01*
D70*
X110109000Y-83820000D02*
X111252000Y-83820000D01*
X139700000Y-107823000D02*
X139446000Y-108077000D01*
X213974680Y-113017300D02*
X213974680Y-112014000D01*
X209181700Y-124249180D02*
X209166460Y-124264420D01*
X213446360Y-112014000D02*
X213974680Y-112014000D01*
X146748500Y-103822500D02*
X146812000Y-103886000D01*
X138938000Y-104495600D02*
X137668000Y-105029000D01*
D66*
X189885320Y-116509800D02*
X190944500Y-116509800D01*
D70*
X137287000Y-113538000D02*
X137287000Y-112334000D01*
X159448500Y-114046000D02*
X159448500Y-111252000D01*
X109601000Y-84328000D02*
X110109000Y-83820000D01*
X139420600Y-108077000D02*
X139395200Y-108102400D01*
X140335000Y-107823000D02*
X139700000Y-107823000D01*
X104000000Y-76545000D02*
X104000000Y-75500000D01*
X131876800Y-108127800D02*
X131826000Y-107950000D01*
D66*
X127635000Y-103479600D02*
X129311400Y-103454200D01*
D70*
X166243000Y-89535000D02*
X168529000Y-87249000D01*
D66*
X129387600Y-93726000D02*
X129870200Y-93726000D01*
X212915500Y-111506000D02*
X213446360Y-111506000D01*
D70*
X95250000Y-123063000D02*
X88646000Y-123063000D01*
X123634500Y-103505000D02*
X123190000Y-103505000D01*
X141605000Y-89535000D02*
X140652500Y-90487500D01*
X133731000Y-89535000D02*
X133731000Y-91249500D01*
D66*
X211137500Y-107505500D02*
X212915500Y-107505500D01*
D70*
X140208000Y-95123000D02*
X138049000Y-95123000D01*
X134366000Y-92265500D02*
X133540500Y-91440000D01*
D66*
X127635000Y-99974400D02*
X126441200Y-99974400D01*
D70*
X126238000Y-104902000D02*
X124968000Y-104902000D01*
X97409000Y-121412000D02*
X96901000Y-121412000D01*
D66*
X194678300Y-100774500D02*
X194678300Y-99253040D01*
D70*
X131064000Y-112204500D02*
X131000500Y-112268000D01*
X89280500Y-113030500D02*
X89311000Y-113000000D01*
X158750000Y-105537000D02*
X158242000Y-106045000D01*
X123571000Y-99695000D02*
X123571000Y-99060000D01*
X131826000Y-105537000D02*
X132588000Y-104775000D01*
X137388600Y-108077000D02*
X137668000Y-107823000D01*
X159448500Y-111252000D02*
X159448500Y-109029500D01*
X181864000Y-134874000D02*
X181864000Y-136906000D01*
D72*
X144805400Y-104470200D02*
X145288000Y-103822500D01*
D70*
X212237320Y-76248260D02*
X212681820Y-76692760D01*
X189156340Y-116509800D02*
X189885320Y-116509800D01*
X122301000Y-102616000D02*
X121158000Y-102616000D01*
X106680000Y-90424000D02*
X106680000Y-89220000D01*
X117602000Y-75311000D02*
X117729000Y-75184000D01*
X145415000Y-100076000D02*
X146812000Y-100076000D01*
X86741000Y-117094000D02*
X86741000Y-115570000D01*
X212681820Y-76692760D02*
X212681820Y-76835000D01*
X183134000Y-128270000D02*
X183134000Y-133604000D01*
D71*
X127450000Y-103505000D02*
X127482000Y-103473000D01*
D70*
X212681820Y-76835000D02*
X213741000Y-76835000D01*
X131064000Y-111252000D02*
X131064000Y-112204500D01*
D66*
X143129000Y-99466400D02*
X144805400Y-99466400D01*
D70*
X183134000Y-133604000D02*
X181864000Y-134874000D01*
X158623000Y-108966000D02*
X159512000Y-108966000D01*
X194377000Y-75123000D02*
X192532000Y-75123000D01*
X212915500Y-112509300D02*
X213832440Y-112509300D01*
D66*
X144805400Y-99466400D02*
X145415000Y-100076000D01*
D70*
X158242000Y-108585000D02*
X158623000Y-108966000D01*
D66*
X213446360Y-111506000D02*
X213974680Y-111506000D01*
D71*
X126619000Y-103505000D02*
X127450000Y-103505000D01*
D66*
X209677000Y-98694240D02*
X209677000Y-100774500D01*
D70*
X106873000Y-89027000D02*
X108393000Y-89027000D01*
X98742500Y-90043000D02*
X97282000Y-90043000D01*
X163068000Y-74676000D02*
X161290000Y-74676000D01*
X212915500Y-112014000D02*
X213446360Y-112014000D01*
X78105000Y-84890000D02*
X78105000Y-79790000D01*
X136652000Y-118681500D02*
X136652000Y-120396000D01*
X134391400Y-94945200D02*
X135001000Y-95554800D01*
D66*
X140385800Y-93726000D02*
X140385800Y-94919800D01*
D70*
X159448500Y-105537000D02*
X158750000Y-105537000D01*
X86741000Y-117094000D02*
X86741000Y-121158000D01*
X137668000Y-95504000D02*
X137668000Y-98298000D01*
X104140000Y-92837000D02*
X106553000Y-90424000D01*
X130111500Y-74676000D02*
X130937000Y-75501500D01*
X189390000Y-74676000D02*
X192085000Y-74676000D01*
X96901000Y-121412000D02*
X95250000Y-123063000D01*
D66*
X190944500Y-113017300D02*
X189885320Y-113017300D01*
D70*
X182816500Y-125730000D02*
X177165000Y-125730000D01*
X129870200Y-92341700D02*
X128968500Y-91440000D01*
X177228500Y-77152500D02*
X177165000Y-77089000D01*
X137287000Y-112334000D02*
X136713000Y-111760000D01*
X140335000Y-107823000D02*
X140335000Y-104495600D01*
X123634500Y-103505000D02*
X124587000Y-104521000D01*
X132588000Y-104775000D02*
X132588000Y-103632000D01*
X158242000Y-106045000D02*
X158242000Y-108585000D01*
X137388600Y-110769400D02*
X136715500Y-111760000D01*
D66*
X213446360Y-111506000D02*
X213446360Y-112014000D01*
D70*
X106680000Y-89220000D02*
X106873000Y-89027000D01*
X150876000Y-77152500D02*
X150876000Y-75311000D01*
X138938000Y-104495600D02*
X140335000Y-104495600D01*
X151892000Y-120015000D02*
X151892000Y-118142000D01*
X145415000Y-112903000D02*
X144338000Y-112903000D01*
X135636000Y-98298000D02*
X137668000Y-98298000D01*
X131699000Y-82804000D02*
X130048000Y-84455000D01*
X141351000Y-108077000D02*
X141097000Y-107823000D01*
X213974680Y-110502700D02*
X214454740Y-110502700D01*
X141376400Y-108077000D02*
X141351000Y-108077000D01*
D66*
X189885320Y-114007900D02*
X190944500Y-114007900D01*
X213974680Y-110502700D02*
X213974680Y-111506000D01*
D71*
X126365000Y-104775000D02*
X126238000Y-104902000D01*
D70*
X145288000Y-103822500D02*
X146748500Y-103822500D01*
X121285000Y-102489000D02*
X121285000Y-101346000D01*
X159448500Y-115633500D02*
X159512000Y-115697000D01*
X123190000Y-103505000D02*
X122301000Y-102616000D01*
X135001000Y-95554800D02*
X135001000Y-97663000D01*
X193230500Y-83248500D02*
X193929000Y-83947000D01*
X192532000Y-83248500D02*
X193230500Y-83248500D01*
X138049000Y-95123000D02*
X137668000Y-95504000D01*
D66*
X199174100Y-124272040D02*
X199174100Y-122745500D01*
X131876800Y-109220000D02*
X131876800Y-108127800D01*
D70*
X182816500Y-125730000D02*
X182816500Y-127952500D01*
D66*
X131876800Y-109220000D02*
X131876800Y-110439200D01*
X203454000Y-98673920D02*
X203454000Y-99715320D01*
D70*
X125349000Y-100774500D02*
X124587000Y-100711000D01*
X213741000Y-80645000D02*
X212194140Y-80645000D01*
X109410500Y-84328000D02*
X109601000Y-84328000D01*
X141478000Y-82423000D02*
X141478000Y-84899500D01*
X78105000Y-85344000D02*
X78105000Y-94107000D01*
X128968500Y-89852500D02*
X129032000Y-89789000D01*
D66*
X202679300Y-100774500D02*
X202679300Y-99715320D01*
D71*
X126365000Y-103759000D02*
X126619000Y-103505000D01*
D70*
X177165000Y-125730000D02*
X176276000Y-124841000D01*
X80895000Y-77000000D02*
X82300000Y-77000000D01*
X132715000Y-75438000D02*
X132651500Y-75501500D01*
D72*
X140335000Y-104495600D02*
X143129000Y-104470200D01*
D70*
X164592000Y-83312000D02*
X168529000Y-87249000D01*
X86741000Y-129559000D02*
X86741000Y-131241000D01*
X133731000Y-91249500D02*
X133540500Y-91440000D01*
D66*
X203454000Y-99715320D02*
X202679300Y-99715320D01*
D70*
X104140000Y-139827000D02*
X100965000Y-139827000D01*
D66*
X131876800Y-110439200D02*
X131064000Y-111252000D01*
D70*
X128270000Y-74676000D02*
X130111500Y-74676000D01*
X141732000Y-113350000D02*
X143891000Y-113350000D01*
X141859000Y-109220000D02*
X142240000Y-108839000D01*
D67*
X141376400Y-109220000D02*
X141859000Y-109220000D01*
D70*
X124587000Y-104521000D02*
X124968000Y-104902000D01*
X163068000Y-75311000D02*
X163068000Y-74676000D01*
X129540000Y-103632000D02*
X132588000Y-103632000D01*
D72*
X137388600Y-109220000D02*
X137388600Y-108077000D01*
D70*
X163068000Y-75311000D02*
X163957000Y-75311000D01*
D66*
X129870200Y-93726000D02*
X129870200Y-92341700D01*
X129311400Y-103454200D02*
X129540000Y-103632000D01*
D70*
X178562000Y-77152500D02*
X177228500Y-77152500D01*
X136652000Y-120396000D02*
X136652000Y-122110500D01*
D66*
X209181700Y-122745500D02*
X209181700Y-124249180D01*
D70*
X194691000Y-74809000D02*
X194377000Y-75123000D01*
X78105000Y-79790000D02*
X80895000Y-77000000D01*
D66*
X134366000Y-93726000D02*
X134391400Y-94945200D01*
D70*
X194691000Y-73406000D02*
X194691000Y-74809000D01*
D66*
X141376400Y-109220000D02*
X141376400Y-108077000D01*
D70*
X135001000Y-97663000D02*
X135636000Y-98298000D01*
%TO.N,GNDA*%
X117983000Y-104140000D02*
X118872000Y-105029000D01*
X119507000Y-104394000D02*
X118872000Y-105029000D01*
X124206000Y-106045000D02*
X125806200Y-106045000D01*
D66*
X126492000Y-106426000D02*
X126542800Y-106476800D01*
X127635000Y-105968800D02*
X126492000Y-105968800D01*
X126542800Y-106476800D02*
X127635000Y-106476800D01*
D70*
X123444000Y-105283000D02*
X124206000Y-106045000D01*
X123444000Y-105283000D02*
X121666000Y-105283000D01*
X117983000Y-101346000D02*
X117983000Y-104140000D01*
X124777500Y-110299500D02*
X124777500Y-108712000D01*
X121666000Y-105283000D02*
X120777000Y-104394000D01*
X123571000Y-110363000D02*
X124714000Y-110363000D01*
X120777000Y-104394000D02*
X119507000Y-104394000D01*
X126492000Y-105968800D02*
X125882400Y-105968800D01*
X124714000Y-110363000D02*
X124777500Y-110299500D01*
X126492000Y-105968800D02*
X126492000Y-106426000D01*
X125806200Y-106045000D02*
X125882400Y-105968800D01*
D66*
%TO.N,/AN0*%
X129286000Y-104140000D02*
X131191000Y-104140000D01*
X131191000Y-104140000D02*
X131318000Y-104267000D01*
X127635000Y-103987600D02*
X129057400Y-103962200D01*
X129057400Y-103962200D02*
X129286000Y-104140000D01*
X131318000Y-104267000D02*
X131318000Y-104902000D01*
%TO.N,/AN1*%
X128930400Y-104470200D02*
X129159000Y-104648000D01*
X129159000Y-104648000D02*
X130048000Y-104648000D01*
X130048000Y-104648000D02*
X130429000Y-104902000D01*
X127635000Y-104470200D02*
X128930400Y-104470200D01*
%TO.N,/QSPI_CS0*%
X131826000Y-94361000D02*
X131876800Y-94361000D01*
X131876800Y-93726000D02*
X131876800Y-94361000D01*
X131826000Y-96393000D02*
X131826000Y-94361000D01*
%TO.N,/AN5*%
X130378200Y-109220000D02*
X130378200Y-107746800D01*
X130378200Y-107746800D02*
X130048000Y-107188000D01*
%TO.N,/AN7*%
X128397000Y-109728000D02*
X128397000Y-113665000D01*
X128905000Y-109220000D02*
X128397000Y-109728000D01*
X129387600Y-109220000D02*
X128905000Y-109220000D01*
D68*
%TO.N,/IRQ-4*%
X168783000Y-107823000D02*
X168783000Y-104902000D01*
X168275000Y-109474000D02*
X168275000Y-108331000D01*
D67*
X160528000Y-99695000D02*
X150876000Y-99695000D01*
D68*
X168275000Y-108331000D02*
X168529000Y-108077000D01*
D67*
X150876000Y-99695000D02*
X150622000Y-99441000D01*
X167259000Y-115570000D02*
X167259000Y-110490000D01*
X167259000Y-97282000D02*
X166751000Y-96774000D01*
D68*
X168719500Y-117030500D02*
X167259000Y-115570000D01*
X168529000Y-108077000D02*
X168783000Y-107823000D01*
D67*
X163449000Y-96774000D02*
X160528000Y-99695000D01*
X167259000Y-110490000D02*
X168275000Y-109474000D01*
D68*
X168719500Y-117094000D02*
X168719500Y-117030500D01*
D66*
X143129000Y-100457000D02*
X141249400Y-100482400D01*
D68*
X176149000Y-108077000D02*
X168529000Y-108077000D01*
D67*
X168783000Y-104902000D02*
X167259000Y-103378000D01*
X166751000Y-96774000D02*
X163449000Y-96774000D01*
D66*
X138811000Y-98933000D02*
X140360400Y-100482400D01*
D67*
X167259000Y-103378000D02*
X167259000Y-97282000D01*
X150622000Y-99441000D02*
X150495000Y-99060000D01*
D66*
X140360400Y-100482400D02*
X141249400Y-100482400D01*
D67*
%TO.N,/DTIN0*%
X102235000Y-103886000D02*
X102235000Y-102743000D01*
X99060000Y-107061000D02*
X102235000Y-103886000D01*
D66*
X128905000Y-100457000D02*
X130048000Y-99314000D01*
D67*
X103378000Y-101600000D02*
X104013000Y-101600000D01*
D66*
X130048000Y-99314000D02*
X130048000Y-95250000D01*
D67*
X99060000Y-114808000D02*
X99060000Y-107061000D01*
D66*
X127635000Y-100482400D02*
X128905000Y-100457000D01*
D67*
X102235000Y-102743000D02*
X103378000Y-101600000D01*
X98806000Y-115062000D02*
X99060000Y-114808000D01*
X97409000Y-115062000D02*
X98806000Y-115062000D01*
%TO.N,/DTIN2*%
X104013000Y-116332000D02*
X105283000Y-115062000D01*
X104775000Y-102489000D02*
X104013000Y-102489000D01*
X105283000Y-102997000D02*
X104775000Y-102489000D01*
D66*
X128727200Y-97967800D02*
X127635000Y-97967800D01*
X129159000Y-95250000D02*
X129159000Y-97536000D01*
D67*
X102743000Y-116332000D02*
X104013000Y-116332000D01*
X105283000Y-115062000D02*
X105283000Y-102997000D01*
D66*
X129159000Y-97536000D02*
X128727200Y-97967800D01*
D67*
%TO.N,/DTIN3*%
X102743000Y-120142000D02*
X104140000Y-120142000D01*
X105029000Y-100711000D02*
X104013000Y-100711000D01*
X104140000Y-120142000D02*
X106045000Y-118237000D01*
X106045000Y-118237000D02*
X106045000Y-101727000D01*
X106045000Y-101727000D02*
X105029000Y-100711000D01*
D66*
X126085600Y-97942400D02*
X125120400Y-97942400D01*
X126619000Y-98475800D02*
X126085600Y-97942400D01*
X125120400Y-97942400D02*
X121412000Y-94234000D01*
X127635000Y-98475800D02*
X126619000Y-98475800D01*
X121412000Y-91821000D02*
X122936000Y-90043000D01*
X121412000Y-94234000D02*
X121412000Y-91821000D01*
%TO.N,/GPT0*%
X132842000Y-107823000D02*
X132842000Y-106299000D01*
X133731000Y-105410000D02*
X134112000Y-105156000D01*
X132842000Y-106299000D02*
X133731000Y-105410000D01*
X132892800Y-109220000D02*
X132892800Y-108127800D01*
X132892800Y-108127800D02*
X132842000Y-107823000D01*
%TO.N,/GPT2*%
X134391400Y-107823000D02*
X134112000Y-106934000D01*
X134391400Y-109220000D02*
X134391400Y-107823000D01*
D70*
%TO.N,+3.3V*%
X107300000Y-84533500D02*
X107505500Y-84328000D01*
X142826000Y-93726000D02*
X143100000Y-94000000D01*
D73*
X162242500Y-71247000D02*
X162242500Y-72453500D01*
X164592000Y-71247000D02*
X164592000Y-73215500D01*
X190182500Y-71247000D02*
X190182500Y-72453500D01*
X164592000Y-71247000D02*
X162242500Y-71247000D01*
X192532000Y-71247000D02*
X190182500Y-71247000D01*
X192532000Y-73215500D02*
X192532000Y-71247000D01*
X129222500Y-71247000D02*
X129222500Y-72453500D01*
X131572000Y-71247000D02*
X131572000Y-72644000D01*
X131572000Y-71247000D02*
X129222500Y-71247000D01*
X161544000Y-106807000D02*
X161544000Y-105727500D01*
D70*
X132461000Y-88392000D02*
X130937000Y-89916000D01*
D66*
X210972400Y-113512600D02*
X210947000Y-113538000D01*
X133477000Y-104267000D02*
X133096000Y-104648000D01*
D73*
X103314500Y-98933000D02*
X103314500Y-96647000D01*
D70*
X130048000Y-113411000D02*
X130556000Y-113919000D01*
D73*
X78740000Y-100330000D02*
X88900000Y-100330000D01*
D66*
X212915500Y-110007400D02*
X210845400Y-110007400D01*
D70*
X211414360Y-102567740D02*
X211856320Y-103009700D01*
D73*
X131572000Y-72644000D02*
X130937000Y-73596500D01*
X153987500Y-98298000D02*
X155067000Y-98298000D01*
D66*
X199174100Y-102811580D02*
X199174100Y-100774500D01*
D73*
X133985000Y-104267000D02*
X133477000Y-104267000D01*
D70*
X106500000Y-87300000D02*
X106957000Y-87757000D01*
D73*
X97726499Y-87928501D02*
X97155000Y-88500000D01*
X155067000Y-98298000D02*
X155829000Y-97536000D01*
X182816500Y-121158000D02*
X180975000Y-121158000D01*
D66*
X135572500Y-92011500D02*
X134874000Y-92710000D01*
X134874000Y-92710000D02*
X134874000Y-93726000D01*
D73*
X141351000Y-92265500D02*
X142557500Y-91059000D01*
D66*
X193141600Y-113512600D02*
X190944500Y-113512600D01*
D73*
X106362500Y-133858000D02*
X107696000Y-133858000D01*
D70*
X107520500Y-84679500D02*
X106500000Y-85700000D01*
D66*
X143129000Y-98958400D02*
X145008600Y-98958400D01*
D70*
X192003680Y-109654340D02*
X192003680Y-110007400D01*
D73*
X130937000Y-89916000D02*
X130873500Y-89979500D01*
D66*
X130886200Y-93726000D02*
X130378200Y-93726000D01*
D73*
X169227500Y-130302000D02*
X165354000Y-126428500D01*
X101663500Y-113030000D02*
X100838000Y-113030000D01*
X160274000Y-126428500D02*
X162814000Y-126428500D01*
X107505500Y-84328000D02*
X107505500Y-83502500D01*
D74*
X190944500Y-109512100D02*
X191861440Y-109512100D01*
D73*
X146812000Y-105410000D02*
X146494500Y-105727500D01*
X180975000Y-121158000D02*
X178689000Y-118872000D01*
X121094500Y-97853500D02*
X121666000Y-98425000D01*
X121094500Y-97282000D02*
X121094500Y-97853500D01*
D66*
X130175000Y-110998000D02*
X130048000Y-111125000D01*
X127635000Y-99466400D02*
X125780800Y-99466400D01*
X132334000Y-105791000D02*
X132334000Y-107823000D01*
X210314540Y-117513100D02*
X212915500Y-117513100D01*
D73*
X101854000Y-113792000D02*
X102743000Y-113792000D01*
X190182500Y-72453500D02*
X189230000Y-73406000D01*
X145288000Y-98679000D02*
X146812000Y-98679000D01*
D70*
X161356000Y-105537000D02*
X161356000Y-104714000D01*
D66*
X212915500Y-113512600D02*
X210972400Y-113512600D01*
D73*
X97898000Y-87757000D02*
X97726499Y-87928501D01*
X162242500Y-72453500D02*
X161290000Y-73406000D01*
D66*
X145288000Y-105727500D02*
X144678400Y-104978200D01*
D73*
X153416000Y-109093000D02*
X153416000Y-106426000D01*
D70*
X130048000Y-111125000D02*
X130048000Y-113411000D01*
X161356000Y-104714000D02*
X161036000Y-104394000D01*
D73*
X161544000Y-105727500D02*
X161353500Y-105537000D01*
D66*
X140868400Y-93726000D02*
X140868400Y-92938600D01*
D73*
X101663500Y-111252000D02*
X101663500Y-113030000D01*
X182816500Y-121158000D02*
X182816500Y-123444000D01*
D70*
X161036000Y-104394000D02*
X156337000Y-104394000D01*
D73*
X135445500Y-91440000D02*
X135572500Y-92011500D01*
X181864000Y-130302000D02*
X169227500Y-130302000D01*
D66*
X212915500Y-103009700D02*
X211856320Y-103009700D01*
D73*
X170624500Y-115887500D02*
X170624500Y-117094000D01*
D70*
X161544000Y-107569000D02*
X162306000Y-106807000D01*
D73*
X129222500Y-72453500D02*
X128270000Y-73406000D01*
X84264500Y-106553000D02*
X84264500Y-104267000D01*
X164722000Y-99057000D02*
X163449000Y-100330000D01*
D70*
X103312000Y-96647000D02*
X103312000Y-95312000D01*
D66*
X130873500Y-92392500D02*
X130378200Y-92887800D01*
D73*
X199009000Y-102976680D02*
X199174100Y-102811580D01*
X168275000Y-115062000D02*
X169799000Y-115062000D01*
D66*
X132334000Y-107823000D02*
X132384800Y-108127800D01*
X129667000Y-103124000D02*
X129438400Y-102946200D01*
D73*
X138863500Y-113263500D02*
X138800000Y-113200000D01*
X130873500Y-89916000D02*
X130873500Y-89979500D01*
D66*
X127635000Y-102971600D02*
X126072900Y-102971600D01*
D73*
X78740000Y-100330000D02*
X74701400Y-96291400D01*
D70*
X148590000Y-120015000D02*
X148590000Y-118090000D01*
D66*
X131394200Y-109220000D02*
X131394200Y-110159800D01*
D70*
X148590000Y-118090000D02*
X148500000Y-118000000D01*
D66*
X137896600Y-110947200D02*
X137939780Y-110998000D01*
X137896600Y-109220000D02*
X137896600Y-110947200D01*
D73*
X146494500Y-105727500D02*
X145288000Y-105727500D01*
X156337000Y-104394000D02*
X155448000Y-104394000D01*
X192595500Y-122745500D02*
X192333880Y-123007120D01*
D66*
X130378200Y-92887800D02*
X130378200Y-93726000D01*
D70*
X103312000Y-95312000D02*
X103000000Y-95000000D01*
D73*
X169799000Y-115062000D02*
X170624500Y-115887500D01*
D70*
X218250000Y-72045000D02*
X218250000Y-70750000D01*
D73*
X153987500Y-96012000D02*
X153987500Y-98298000D01*
D70*
X141376400Y-93726000D02*
X142826000Y-93726000D01*
D73*
X153543000Y-109220000D02*
X153416000Y-109093000D01*
X161544000Y-106807000D02*
X162306000Y-106807000D01*
X97409000Y-112141000D02*
X97472500Y-112077500D01*
D66*
X129438400Y-102946200D02*
X127635000Y-102971600D01*
D73*
X125173740Y-99011740D02*
X123444000Y-97282000D01*
D66*
X137939780Y-110998000D02*
X138620500Y-111760000D01*
D73*
X161163000Y-92329000D02*
X161163000Y-91313000D01*
X175641000Y-115824000D02*
X173863000Y-115824000D01*
D66*
X140868400Y-92938600D02*
X141351000Y-92456000D01*
X133096000Y-104648000D02*
X133096000Y-105029000D01*
X204177900Y-122745500D02*
X204177900Y-120815100D01*
D73*
X123444000Y-97282000D02*
X121094500Y-97282000D01*
X158623000Y-96647000D02*
X158623000Y-95821500D01*
X155829000Y-97536000D02*
X157734000Y-97536000D01*
D74*
X191861440Y-109512100D02*
X193332100Y-109512100D01*
D73*
X157734000Y-126428500D02*
X160274000Y-126428500D01*
D66*
X144678400Y-104978200D02*
X143129000Y-104978200D01*
D73*
X164846000Y-99057000D02*
X164722000Y-99057000D01*
X125349000Y-98869500D02*
X125173740Y-99011740D01*
X97472500Y-112077500D02*
X97472500Y-109728000D01*
X132905500Y-110934500D02*
X132905500Y-112268000D01*
D66*
X131699000Y-102870000D02*
X131318000Y-103124000D01*
D73*
X107505500Y-83502500D02*
X107823000Y-83185000D01*
X170624500Y-117094000D02*
X172910500Y-117094000D01*
D66*
X130873500Y-89979500D02*
X130873500Y-92392500D01*
X191861440Y-109512100D02*
X192003680Y-109654340D01*
D73*
X162814000Y-126428500D02*
X165354000Y-126428500D01*
D70*
X135445500Y-91440000D02*
X135445500Y-89625500D01*
D73*
X84264500Y-121412000D02*
X84264500Y-119126000D01*
D66*
X131394200Y-110159800D02*
X130556000Y-110998000D01*
D73*
X130873500Y-89916000D02*
X130937000Y-89916000D01*
D66*
X132384800Y-110413800D02*
X132905500Y-110934500D01*
D73*
X141351000Y-92456000D02*
X141351000Y-92265500D01*
D66*
X130556000Y-110998000D02*
X130175000Y-110998000D01*
D73*
X161163000Y-91313000D02*
X160782000Y-90932000D01*
D66*
X193179700Y-122745500D02*
X192595500Y-122745500D01*
D73*
X84264500Y-102552500D02*
X84582000Y-102235000D01*
X209732880Y-118094760D02*
X210314540Y-117513100D01*
X138620500Y-111760000D02*
X138863500Y-113263500D01*
D66*
X190944500Y-110007400D02*
X192003680Y-110007400D01*
X145008600Y-98958400D02*
X145288000Y-98679000D01*
D73*
X173863000Y-116141500D02*
X172910500Y-117094000D01*
D70*
X106500000Y-85700000D02*
X106500000Y-87300000D01*
D66*
X140868400Y-93726000D02*
X141376400Y-93726000D01*
D73*
X193332100Y-109512100D02*
X193675000Y-109855000D01*
X125780800Y-99466400D02*
X125349000Y-98869500D01*
X161353500Y-105537000D02*
X161353500Y-104711500D01*
D66*
X204177900Y-120815100D02*
X204216000Y-120777000D01*
X210845400Y-110007400D02*
X210820000Y-109982000D01*
D70*
X131254500Y-113919000D02*
X132905500Y-112268000D01*
X218250000Y-70750000D02*
X218500000Y-70500000D01*
X107520500Y-84328000D02*
X107520500Y-84679500D01*
D66*
X133096000Y-105029000D02*
X132334000Y-105791000D01*
X194691000Y-125222000D02*
X194678300Y-122745500D01*
X193167000Y-113538000D02*
X193141600Y-113512600D01*
D73*
X178689000Y-118872000D02*
X175641000Y-115824000D01*
X173863000Y-115824000D02*
X173863000Y-116141500D01*
D66*
X132384800Y-108127800D02*
X132384800Y-109220000D01*
D73*
X102171500Y-98933000D02*
X100584000Y-100520500D01*
D70*
X130556000Y-113919000D02*
X131254500Y-113919000D01*
D66*
X132384800Y-109220000D02*
X132384800Y-110413800D01*
D70*
X135445500Y-89625500D02*
X134212000Y-88392000D01*
D73*
X107696000Y-133858000D02*
X110744000Y-136906000D01*
D70*
X161544000Y-107696000D02*
X161544000Y-107569000D01*
D73*
X191198500Y-73215500D02*
X191008000Y-73025000D01*
X98298000Y-100584000D02*
X98361500Y-100520500D01*
X84264500Y-119126000D02*
X85090000Y-119126000D01*
X103314500Y-98933000D02*
X102171500Y-98933000D01*
X101663500Y-113601500D02*
X101854000Y-113792000D01*
X126072900Y-102971600D02*
X125539500Y-103505000D01*
X74701400Y-96291400D02*
X74701400Y-94107000D01*
X157734000Y-97536000D02*
X158623000Y-96647000D01*
X84264500Y-104267000D02*
X84264500Y-102552500D01*
X101663500Y-113030000D02*
X101663500Y-113601500D01*
D66*
X131318000Y-103124000D02*
X129667000Y-103124000D01*
D73*
X98742500Y-87757000D02*
X97898000Y-87757000D01*
X98361500Y-100520500D02*
X100584000Y-100520500D01*
X192333880Y-123007120D02*
X192333880Y-123845320D01*
X153416000Y-106426000D02*
X155448000Y-104394000D01*
D70*
X74705000Y-94040000D02*
X76405000Y-94040000D01*
X134212000Y-88392000D02*
X132461000Y-88392000D01*
D73*
X192532000Y-73215500D02*
X191198500Y-73215500D01*
D70*
X106957000Y-87757000D02*
X108393000Y-87757000D01*
D73*
X153987500Y-93853000D02*
X153987500Y-96012000D01*
D66*
%TO.N,/VCCA*%
X124968000Y-111506000D02*
X120650000Y-111506000D01*
X127635000Y-106984800D02*
X126563120Y-106984800D01*
D67*
X120777000Y-107696000D02*
X120777000Y-110109000D01*
X120777000Y-110109000D02*
X120650000Y-110236000D01*
D66*
X125984000Y-107569000D02*
X126301500Y-107251500D01*
D67*
X121793000Y-108712000D02*
X120777000Y-107696000D01*
X120650000Y-110236000D02*
X120650000Y-111506000D01*
D66*
X126563120Y-106984800D02*
X126301500Y-107251500D01*
X126517400Y-107467400D02*
X126301500Y-107251500D01*
X125984000Y-110490000D02*
X124968000Y-111506000D01*
X127635000Y-107467400D02*
X126517400Y-107467400D01*
X125984000Y-110490000D02*
X125984000Y-107569000D01*
D67*
X120650000Y-111506000D02*
X120650000Y-113411000D01*
X120650000Y-113411000D02*
X117729000Y-116332000D01*
X122872500Y-108712000D02*
X121793000Y-108712000D01*
D66*
%TO.N,/IRQ-1*%
X188798200Y-105321100D02*
X188988700Y-105511600D01*
D67*
X182372000Y-119761000D02*
X183769000Y-119761000D01*
X181610000Y-118999000D02*
X182372000Y-119761000D01*
D66*
X150495000Y-95250000D02*
X148717000Y-97028000D01*
X148717000Y-100838000D02*
X147574000Y-101981000D01*
X147574000Y-101981000D02*
X143129000Y-101955600D01*
X148717000Y-97028000D02*
X148717000Y-100838000D01*
X188988700Y-105511600D02*
X190944500Y-105511600D01*
D67*
X183769000Y-119761000D02*
X184721500Y-121158000D01*
D66*
%TO.N,/IRQ-2*%
X185547000Y-118872000D02*
X184531000Y-118872000D01*
X149352000Y-95250000D02*
X149098000Y-95758000D01*
X185928000Y-119253000D02*
X185547000Y-118872000D01*
X148209000Y-100584000D02*
X147320000Y-101473000D01*
X149098000Y-95758000D02*
X148209000Y-96647000D01*
X181610000Y-104902000D02*
X187149740Y-104902000D01*
X189161420Y-106189780D02*
X189344300Y-106006900D01*
X188437520Y-106189780D02*
X189161420Y-106189780D01*
X189344300Y-106006900D02*
X190944500Y-106006900D01*
X185928000Y-122237500D02*
X185928000Y-119253000D01*
X147320000Y-101473000D02*
X143129000Y-101473000D01*
X148209000Y-96647000D02*
X148209000Y-100584000D01*
X187149740Y-104902000D02*
X188437520Y-106189780D01*
X184721500Y-123444000D02*
X185928000Y-122237500D01*
%TO.N,/IRQ-3*%
X148463000Y-95631000D02*
X148463000Y-95250000D01*
X180769260Y-104853740D02*
X180769260Y-104929940D01*
X147701000Y-100330000D02*
X147701000Y-96393000D01*
X181587140Y-105747820D02*
X182455820Y-105747820D01*
X182455820Y-105747820D02*
X183321960Y-106613960D01*
X143129000Y-100965000D02*
X147066000Y-100965000D01*
X147701000Y-96393000D02*
X148463000Y-95631000D01*
X183321960Y-106613960D02*
X189339220Y-106613960D01*
X180769260Y-104929940D02*
X181587140Y-105747820D01*
X181610000Y-104013000D02*
X180769260Y-104853740D01*
X189339220Y-106613960D02*
X189438280Y-106514900D01*
X147066000Y-100965000D02*
X147701000Y-100330000D01*
D67*
X148463000Y-94361000D02*
X148463000Y-95250000D01*
X148971000Y-93853000D02*
X148463000Y-94361000D01*
X152082500Y-93853000D02*
X148971000Y-93853000D01*
D66*
X189438280Y-106514900D02*
X190944500Y-106514900D01*
D67*
%TO.N,/XTAL*%
X136652000Y-124015500D02*
X130048000Y-124015500D01*
X137350500Y-124015500D02*
X136652000Y-124015500D01*
X127063500Y-122237500D02*
X123444000Y-125857000D01*
X139954000Y-111379000D02*
X139954000Y-114681000D01*
X139954000Y-114681000D02*
X141224000Y-115951000D01*
X138049000Y-121031000D02*
X138049000Y-123317000D01*
D66*
X179636420Y-124442220D02*
X181356000Y-124442220D01*
D71*
X181483000Y-124587000D02*
X186545220Y-124587000D01*
X153461720Y-125267720D02*
X153797000Y-125603000D01*
D66*
X139877800Y-109220000D02*
X139877800Y-111048800D01*
D71*
X152019000Y-125267720D02*
X153461720Y-125267720D01*
X181356000Y-124442220D02*
X181356000Y-124460000D01*
X181356000Y-124460000D02*
X181483000Y-124587000D01*
D66*
X167086940Y-124333000D02*
X168417900Y-123002040D01*
X178196240Y-123002040D02*
X179636420Y-124442220D01*
D71*
X153797000Y-125603000D02*
X166370000Y-125603000D01*
D67*
X141224000Y-115951000D02*
X141224000Y-117856000D01*
D66*
X139877800Y-111048800D02*
X139954000Y-111379000D01*
X189044580Y-124442220D02*
X202476100Y-111010700D01*
X202476100Y-111010700D02*
X212915500Y-111010700D01*
D67*
X128270000Y-122237500D02*
X127063500Y-122237500D01*
X141224000Y-117856000D02*
X138049000Y-121031000D01*
D66*
X137627360Y-123738640D02*
X139156440Y-125267720D01*
X186690000Y-124442220D02*
X189044580Y-124442220D01*
X168417900Y-123002040D02*
X178196240Y-123002040D01*
D67*
X130048000Y-124015500D02*
X128270000Y-122237500D01*
D66*
X139156440Y-125267720D02*
X152019000Y-125267720D01*
D71*
X166370000Y-125603000D02*
X167086940Y-124886060D01*
X186545220Y-124587000D02*
X186690000Y-124442220D01*
X167086940Y-124886060D02*
X167086940Y-124333000D01*
D67*
X137627360Y-123738640D02*
X137350500Y-124015500D01*
X138049000Y-123317000D02*
X137627360Y-123738640D01*
D66*
%TO.N,/RCON-*%
X131699000Y-92202000D02*
X131699000Y-91694000D01*
D67*
X102298500Y-100711000D02*
X100584000Y-102425500D01*
X102870000Y-100711000D02*
X102298500Y-100711000D01*
D66*
X131368800Y-92506800D02*
X131699000Y-92202000D01*
X131699000Y-91694000D02*
X132080000Y-91313000D01*
X131368800Y-93726000D02*
X131368800Y-92506800D01*
%TO.N,/RSTO-*%
X144957800Y-96977200D02*
X146685000Y-95250000D01*
D67*
X154813000Y-89916000D02*
X156337000Y-91440000D01*
X156337000Y-91440000D02*
X158369000Y-91440000D01*
D66*
X143129000Y-96977200D02*
X144957800Y-96977200D01*
D67*
X149352000Y-89916000D02*
X154813000Y-89916000D01*
X160782000Y-93472000D02*
X163322000Y-93472000D01*
X146812000Y-92456000D02*
X149352000Y-89916000D01*
X158623000Y-91249500D02*
X160782000Y-93472000D01*
D66*
X146812000Y-94869000D02*
X146812000Y-92456000D01*
X146685000Y-95250000D02*
X146812000Y-94869000D01*
D67*
X158369000Y-91440000D02*
X158623000Y-91249500D01*
%TO.N,/RSTI-*%
X149225000Y-91059000D02*
X154940000Y-91059000D01*
X154940000Y-91059000D02*
X157797500Y-93916500D01*
X147574000Y-92710000D02*
X149225000Y-91059000D01*
D68*
X160845500Y-94678500D02*
X159385000Y-94678500D01*
X159385000Y-94678500D02*
X158623000Y-93916500D01*
D66*
X147574000Y-95250000D02*
X147193000Y-95504000D01*
X147193000Y-95504000D02*
X145237200Y-97459800D01*
X145237200Y-97459800D02*
X143129000Y-97459800D01*
D67*
X157797500Y-93916500D02*
X158623000Y-93916500D01*
D66*
X147574000Y-95250000D02*
X147574000Y-92710000D01*
%TO.N,/QSPI_CS1*%
X180721000Y-111457740D02*
X189837060Y-111457740D01*
X189837060Y-111457740D02*
X189885320Y-111506000D01*
X132384800Y-93726000D02*
X132384800Y-92557600D01*
X132384800Y-92557600D02*
X132461000Y-92075000D01*
X190944500Y-111506000D02*
X189885320Y-111506000D01*
%TO.N,/URTS1*%
X194917060Y-105077260D02*
X192168780Y-102328980D01*
X139827000Y-91948000D02*
X139827000Y-88519000D01*
X151447500Y-83883500D02*
X150812500Y-83883500D01*
X143383000Y-84074000D02*
X144145000Y-83312000D01*
X151511000Y-83947000D02*
X151447500Y-83883500D01*
X180246020Y-102328980D02*
X179705000Y-102870000D01*
X139890500Y-92303600D02*
X139827000Y-91948000D01*
X192168780Y-102328980D02*
X180246020Y-102328980D01*
X194033140Y-111010700D02*
X194917060Y-110126780D01*
X139827000Y-88519000D02*
X140208000Y-88138000D01*
X139877800Y-93726000D02*
X139890500Y-92303600D01*
X144145000Y-83312000D02*
X150241000Y-83312000D01*
X150241000Y-83312000D02*
X150812500Y-83883500D01*
X140208000Y-88138000D02*
X143002000Y-88138000D01*
X143383000Y-87757000D02*
X143383000Y-84074000D01*
X190944500Y-111010700D02*
X194033140Y-111010700D01*
X143002000Y-88138000D02*
X143383000Y-87757000D01*
X194917060Y-110126780D02*
X194917060Y-105077260D01*
%TO.N,/UCTS1*%
X183045100Y-109004100D02*
X190944500Y-109004100D01*
X146177000Y-92075000D02*
X152400000Y-85852000D01*
X143129000Y-96469200D02*
X144703800Y-96469200D01*
X181610000Y-107569000D02*
X183045100Y-109004100D01*
X144703800Y-96469200D02*
X146177000Y-94996000D01*
X146177000Y-94996000D02*
X146177000Y-92075000D01*
X152400000Y-85852000D02*
X152400000Y-84836000D01*
%TO.N,/QSPI_CLK*%
X193075560Y-108506260D02*
X193126360Y-108455460D01*
X192003680Y-108508800D02*
X192003680Y-108506260D01*
X192003680Y-108506260D02*
X193075560Y-108506260D01*
X132867400Y-95097600D02*
X132588000Y-95250000D01*
X132867400Y-93726000D02*
X132867400Y-95097600D01*
X190944500Y-108508800D02*
X192003680Y-108508800D01*
%TO.N,/DSPI_DOUT*%
X192481200Y-106222800D02*
X192481200Y-108013500D01*
X133375400Y-93726000D02*
X133400800Y-95529400D01*
X192481200Y-108013500D02*
X190944500Y-108013500D01*
X193294000Y-105410000D02*
X192481200Y-106222800D01*
X133400800Y-95529400D02*
X133350000Y-96012000D01*
%TO.N,/QSPI_DIN*%
X133883400Y-95402400D02*
X134112000Y-95631000D01*
X188374020Y-108021120D02*
X188889640Y-107505500D01*
X133883400Y-93726000D02*
X133883400Y-95402400D01*
X188889640Y-107505500D02*
X190944500Y-107505500D01*
X134112000Y-97028000D02*
X134112000Y-95631000D01*
%TO.N,/QSPI_CS2*%
X179451000Y-106680000D02*
X182516780Y-106680000D01*
X190944500Y-107010200D02*
X189885320Y-107010200D01*
X182874920Y-107038140D02*
X189857380Y-107038140D01*
X135382000Y-93726000D02*
X135382000Y-94682000D01*
D71*
X135382000Y-95082000D02*
X135382000Y-94682000D01*
X135890000Y-96139000D02*
X135890000Y-95590000D01*
D66*
X189857380Y-107038140D02*
X189885320Y-107010200D01*
X182516780Y-106680000D02*
X182874920Y-107038140D01*
X178054000Y-108077000D02*
X179451000Y-106680000D01*
D71*
X135890000Y-95590000D02*
X135382000Y-95082000D01*
D66*
X178054000Y-110363000D02*
X178054000Y-108077000D01*
%TO.N,/URXD1*%
X145161000Y-91567000D02*
X145161000Y-94234000D01*
X143916400Y-95478600D02*
X143129000Y-95478600D01*
X148844000Y-87884000D02*
X145161000Y-91567000D01*
X145161000Y-94234000D02*
X143916400Y-95478600D01*
X148844000Y-84836000D02*
X148844000Y-87884000D01*
%TO.N,/UTXD1*%
X149860000Y-87630000D02*
X145669000Y-91821000D01*
X144449800Y-95961200D02*
X143129000Y-95961200D01*
X145669000Y-91821000D02*
X145669000Y-94742000D01*
X149860000Y-84201000D02*
X149860000Y-87630000D01*
X145669000Y-94742000D02*
X144449800Y-95961200D01*
%TO.N,/PWM7*%
X135382000Y-110490000D02*
X135128000Y-110871000D01*
X135382000Y-109220000D02*
X135382000Y-110490000D01*
%TO.N,/PWM5*%
X134239000Y-110871000D02*
X133883400Y-110464600D01*
X133883400Y-110464600D02*
X133883400Y-109220000D01*
%TO.N,/PWM1*%
X129921000Y-102616000D02*
X128778000Y-101473000D01*
X130937000Y-102616000D02*
X129921000Y-102616000D01*
X131445000Y-102108000D02*
X130937000Y-102616000D01*
X132334000Y-102489000D02*
X131953000Y-102108000D01*
X132588000Y-102870000D02*
X132334000Y-102489000D01*
X131953000Y-102108000D02*
X131445000Y-102108000D01*
X128778000Y-101473000D02*
X127635000Y-101473000D01*
%TO.N,/PWM3*%
X127635000Y-98983800D02*
X128752600Y-98958400D01*
X128752600Y-98958400D02*
X129159000Y-99060000D01*
%TO.N,/URTS2*%
X122174000Y-93980000D02*
X122174000Y-92456000D01*
X128397000Y-86233000D02*
X130302000Y-86233000D01*
X133858000Y-82677000D02*
X134366000Y-82550000D01*
X125425200Y-97485200D02*
X122428000Y-94488000D01*
X122428000Y-94488000D02*
X122174000Y-93980000D01*
X130302000Y-86233000D02*
X133858000Y-82677000D01*
X122174000Y-92456000D02*
X128397000Y-86233000D01*
X127635000Y-97485200D02*
X125425200Y-97485200D01*
%TO.N,/UTXD2*%
X133985000Y-83312000D02*
X136271000Y-83312000D01*
X137033000Y-82550000D02*
X137033000Y-75819000D01*
X123063000Y-93980000D02*
X123190000Y-94488000D01*
X136271000Y-83312000D02*
X137033000Y-82550000D01*
X130556000Y-86741000D02*
X133985000Y-83312000D01*
X123063000Y-92329000D02*
X128651000Y-86741000D01*
X128651000Y-86741000D02*
X130556000Y-86741000D01*
X125679200Y-96977200D02*
X127635000Y-96977200D01*
X123190000Y-94488000D02*
X125679200Y-96977200D01*
X123063000Y-93980000D02*
X123063000Y-92329000D01*
X137033000Y-75819000D02*
X138303000Y-74549000D01*
%TO.N,/URXD2*%
X123952000Y-93980000D02*
X123952000Y-94488000D01*
X138303000Y-77089000D02*
X139446000Y-78232000D01*
X130810000Y-87249000D02*
X128905000Y-87249000D01*
X134239000Y-83820000D02*
X130810000Y-87249000D01*
X125907800Y-96443800D02*
X127635000Y-96469200D01*
X128905000Y-87249000D02*
X123952000Y-92202000D01*
X123952000Y-92202000D02*
X123952000Y-93980000D01*
X123952000Y-94488000D02*
X125907800Y-96443800D01*
X139446000Y-82677000D02*
X138303000Y-83820000D01*
X138303000Y-83820000D02*
X134239000Y-83820000D01*
X139446000Y-78232000D02*
X139446000Y-82677000D01*
%TO.N,/UCTS2*%
X140208000Y-82804000D02*
X138684000Y-84328000D01*
X138684000Y-84328000D02*
X134493000Y-84328000D01*
X134493000Y-84328000D02*
X131064000Y-87757000D01*
X129159000Y-87757000D02*
X124714000Y-92202000D01*
X131064000Y-87757000D02*
X129159000Y-87757000D01*
X124714000Y-93472000D02*
X124841000Y-93980000D01*
X140208000Y-82169000D02*
X140208000Y-82804000D01*
X124968000Y-94488000D02*
X126441200Y-95961200D01*
X124714000Y-92202000D02*
X124714000Y-93472000D01*
X124841000Y-93980000D02*
X124968000Y-94488000D01*
X126441200Y-95961200D02*
X127635000Y-95986600D01*
%TO.N,/CANRX*%
X136271000Y-91940380D02*
X136271000Y-89535000D01*
X136385300Y-92329000D02*
X136271000Y-91940380D01*
X135636000Y-86106000D02*
X135636000Y-88646000D01*
X136372600Y-93726000D02*
X136385300Y-92329000D01*
X134747000Y-85217000D02*
X135636000Y-86106000D01*
X136271000Y-89535000D02*
X135763000Y-89027000D01*
X135763000Y-89027000D02*
X135636000Y-88646000D01*
%TO.N,/CANTX*%
X136893300Y-92316300D02*
X136779000Y-91948000D01*
X136779000Y-91948000D02*
X136779000Y-89027000D01*
X136525000Y-86106000D02*
X136525000Y-88646000D01*
X136017000Y-85344000D02*
X136525000Y-86106000D01*
X136779000Y-89027000D02*
X136525000Y-88646000D01*
X136880600Y-93726000D02*
X136893300Y-92316300D01*
%TO.N,/URTS0*%
X137287000Y-91948000D02*
X137160000Y-85344000D01*
X137388600Y-92303600D02*
X137287000Y-91948000D01*
X137388600Y-93726000D02*
X137388600Y-92303600D01*
%TO.N,/UTXD0*%
X137883900Y-92303600D02*
X137795000Y-91948000D01*
X137795000Y-91948000D02*
X137795000Y-86995000D01*
X138176000Y-86614000D02*
X138176000Y-85598000D01*
X137795000Y-86995000D02*
X138176000Y-86614000D01*
X137871200Y-93726000D02*
X137883900Y-92303600D01*
%TO.N,/URXD0*%
X139065000Y-86741000D02*
X139065000Y-85598000D01*
X138391900Y-92303600D02*
X138303000Y-91948000D01*
X138303000Y-87503000D02*
X139065000Y-86741000D01*
X138379200Y-93726000D02*
X138391900Y-92303600D01*
X138303000Y-91948000D02*
X138303000Y-87503000D01*
%TO.N,/UCTS0*%
X138887200Y-92303600D02*
X138811000Y-91948000D01*
X138887200Y-93726000D02*
X138887200Y-92303600D01*
X139954000Y-86741000D02*
X139954000Y-85598000D01*
X138811000Y-87884000D02*
X139954000Y-86741000D01*
X138811000Y-91948000D02*
X138811000Y-87884000D01*
D68*
%TO.N,Net-(ABRT_SW101-Pad1)*%
X163957000Y-109728000D02*
X166751000Y-106934000D01*
X166751000Y-106934000D02*
X166751000Y-105791000D01*
X163957000Y-111315500D02*
X163957000Y-109728000D01*
D69*
X176149000Y-97790000D02*
X168529000Y-97790000D01*
%TO.N,Net-(C104-Pad1)*%
X161353500Y-111252000D02*
X161353500Y-114046000D01*
D66*
X160401000Y-109601000D02*
X160401000Y-108712000D01*
X160401000Y-108712000D02*
X160020000Y-108331000D01*
X161353500Y-111252000D02*
X161353500Y-110553500D01*
D69*
X163195000Y-114046000D02*
X161353500Y-114046000D01*
D66*
X160020000Y-108331000D02*
X159512000Y-108331000D01*
X161353500Y-110553500D02*
X160401000Y-109601000D01*
D69*
X163957000Y-113220500D02*
X163957000Y-113284000D01*
X163957000Y-113284000D02*
X163195000Y-114046000D01*
D67*
%TO.N,Net-(D102-K)*%
X169291000Y-91567000D02*
X168529000Y-92329000D01*
D70*
X163891000Y-95316000D02*
X164841000Y-95316000D01*
X162798000Y-95631000D02*
X163576000Y-95631000D01*
D67*
X176149000Y-92075000D02*
X175641000Y-91567000D01*
X166878000Y-94978000D02*
X166878000Y-92964000D01*
X166556000Y-95300000D02*
X166878000Y-94978000D01*
D70*
X163576000Y-95631000D02*
X163891000Y-95316000D01*
D68*
X175641000Y-91567000D02*
X169291000Y-91567000D01*
D67*
X167513000Y-92329000D02*
X168529000Y-92329000D01*
X166556000Y-95300000D02*
X164857000Y-95300000D01*
X166878000Y-92964000D02*
X167513000Y-92329000D01*
X176149000Y-92329000D02*
X176149000Y-92075000D01*
D68*
%TO.N,Net-(MCU_PORT201-P1)*%
X184404000Y-130302000D02*
X184404000Y-126047500D01*
X184404000Y-126047500D02*
X184721500Y-125730000D01*
D71*
%TO.N,Net-(U202-V+)*%
X186500000Y-73116000D02*
X186500000Y-72000000D01*
X184940000Y-74676000D02*
X186500000Y-73116000D01*
X187253000Y-71247000D02*
X188292500Y-71247000D01*
X186500000Y-72000000D02*
X187253000Y-71247000D01*
X183990000Y-74676000D02*
X184940000Y-74676000D01*
D68*
%TO.N,Net-(U202-C1+)*%
X183705500Y-72961500D02*
X184150000Y-73406000D01*
X181102000Y-72961500D02*
X183705500Y-72961500D01*
D67*
%TO.N,Net-(U202-C1-)*%
X181610000Y-75438000D02*
X181102000Y-74930000D01*
X181102000Y-74930000D02*
X181102000Y-74866500D01*
X182753000Y-75946000D02*
X182245000Y-75438000D01*
X184150000Y-75946000D02*
X182753000Y-75946000D01*
X182245000Y-75438000D02*
X181610000Y-75438000D01*
D68*
%TO.N,Net-(U202-C2+)*%
X181102000Y-77279500D02*
X184086500Y-77279500D01*
X184086500Y-77279500D02*
X184150000Y-77216000D01*
%TO.N,Net-(U202-C2-)*%
X181800500Y-78486000D02*
X181102000Y-79184500D01*
X184150000Y-78486000D02*
X181800500Y-78486000D01*
D67*
%TO.N,Net-(U202-V-)*%
X184150000Y-79756000D02*
X183007000Y-79756000D01*
X183007000Y-79756000D02*
X182245000Y-80518000D01*
D68*
X178562000Y-79121000D02*
X179959000Y-80518000D01*
X178562000Y-79057500D02*
X178562000Y-79121000D01*
D67*
X182245000Y-80518000D02*
X179959000Y-80518000D01*
%TO.N,Net-(U203-V+)*%
X156210000Y-74676000D02*
X158242000Y-74676000D01*
X160337500Y-71247000D02*
X159253000Y-71247000D01*
%TO.N,Net-(U203-C1+)*%
X154368500Y-72834500D02*
X154940000Y-73406000D01*
X154940000Y-73406000D02*
X156210000Y-73406000D01*
X153162000Y-72834500D02*
X154368500Y-72834500D01*
%TO.N,Net-(U203-C1-)*%
X154305000Y-75438000D02*
X153670000Y-75438000D01*
X154813000Y-75946000D02*
X154305000Y-75438000D01*
D66*
X153162000Y-74739500D02*
X153162000Y-74930000D01*
X153162000Y-74930000D02*
X153670000Y-75438000D01*
D67*
X156210000Y-75946000D02*
X154813000Y-75946000D01*
%TO.N,Net-(U203-C2+)*%
X153860500Y-77152500D02*
X153924000Y-77216000D01*
X153924000Y-77216000D02*
X156210000Y-77216000D01*
X153035000Y-77152500D02*
X153860500Y-77152500D01*
%TO.N,Net-(U203-C2-)*%
X153035000Y-79057500D02*
X153606500Y-79057500D01*
X154178000Y-78486000D02*
X156210000Y-78486000D01*
X153606500Y-79057500D02*
X154178000Y-78486000D01*
D69*
%TO.N,Net-(D201-K)*%
X85665000Y-94040000D02*
X81505000Y-94040000D01*
X87693500Y-92011500D02*
X87693500Y-88836500D01*
X88900000Y-87630000D02*
X92837000Y-83693000D01*
D68*
X102685000Y-78455000D02*
X104000000Y-78455000D01*
D69*
X95000000Y-80268000D02*
X95000000Y-77000000D01*
X99800000Y-83632500D02*
X99800000Y-80775000D01*
D68*
X99949000Y-80626000D02*
X99800000Y-80775000D01*
X99949000Y-78486000D02*
X99949000Y-80626000D01*
D69*
X92837000Y-83693000D02*
X99739500Y-83693000D01*
X99739500Y-83693000D02*
X99800000Y-83632500D01*
X95507000Y-80775000D02*
X99800000Y-80775000D01*
X87693500Y-92011500D02*
X85665000Y-94040000D01*
D68*
X100600000Y-77835000D02*
X99949000Y-78486000D01*
D69*
X87693500Y-88836500D02*
X88900000Y-87630000D01*
D68*
X102065000Y-77835000D02*
X100600000Y-77835000D01*
D69*
X95507000Y-80775000D02*
X95000000Y-80268000D01*
D68*
X102065000Y-77835000D02*
X102685000Y-78455000D01*
D67*
%TO.N,Net-(U203-V-)*%
X154305000Y-80518000D02*
X155067000Y-79756000D01*
X150876000Y-79057500D02*
X150876000Y-79756000D01*
X155067000Y-79756000D02*
X156210000Y-79756000D01*
X150876000Y-79756000D02*
X151638000Y-80518000D01*
X151638000Y-80518000D02*
X154305000Y-80518000D01*
%TO.N,Net-(U204-V+)*%
X125222000Y-71247000D02*
X127317500Y-71247000D01*
X123190000Y-74676000D02*
X125222000Y-74676000D01*
%TO.N,Net-(U204-C1+)*%
X120713500Y-73406000D02*
X120142000Y-72834500D01*
X123190000Y-73406000D02*
X120713500Y-73406000D01*
%TO.N,Net-(U204-C1-)*%
X123190000Y-75946000D02*
X121793000Y-75946000D01*
D66*
X120142000Y-74930000D02*
X120650000Y-75438000D01*
D67*
X121793000Y-75946000D02*
X121285000Y-75438000D01*
D66*
X120142000Y-74739500D02*
X120142000Y-74930000D01*
D67*
X121285000Y-75438000D02*
X120650000Y-75438000D01*
%TO.N,Net-(U204-C2+)*%
X120142000Y-77152500D02*
X121729500Y-77152500D01*
X121793000Y-77216000D02*
X123190000Y-77216000D01*
X121729500Y-77152500D02*
X121793000Y-77216000D01*
%TO.N,Net-(U204-C2-)*%
X121539000Y-78486000D02*
X120967500Y-79057500D01*
X120967500Y-79057500D02*
X120142000Y-79057500D01*
X123190000Y-78486000D02*
X121539000Y-78486000D01*
%TO.N,Net-(U204-V-)*%
X122047000Y-79756000D02*
X121285000Y-80518000D01*
X121285000Y-80518000D02*
X118999000Y-80518000D01*
X123190000Y-79756000D02*
X122047000Y-79756000D01*
X118999000Y-80518000D02*
X117602000Y-79057500D01*
%TO.N,Net-(CAN_TERM201-Pad2)*%
X95885000Y-92456000D02*
X96647000Y-93218000D01*
X98529000Y-85471000D02*
X95885000Y-88115000D01*
X98742500Y-85471000D02*
X98529000Y-85471000D01*
X95885000Y-88115000D02*
X95885000Y-92456000D01*
%TO.N,Net-(COM_SEL201-P3)*%
X114887499Y-77422499D02*
X114808000Y-77343000D01*
X108500000Y-73829000D02*
X108204000Y-73533000D01*
X124079000Y-81026000D02*
X124841000Y-81788000D01*
X108500000Y-76500000D02*
X108500000Y-73829000D01*
X115690501Y-77490599D02*
X115622401Y-77422499D01*
X108204000Y-73533000D02*
X107000000Y-73533000D01*
X124841000Y-81788000D02*
X124841000Y-82804000D01*
X115316000Y-80645000D02*
X115316000Y-79803501D01*
X119253000Y-83058000D02*
X117475000Y-81280000D01*
X124587000Y-83058000D02*
X119253000Y-83058000D01*
X115622401Y-79803501D02*
X115690501Y-79735401D01*
X123190000Y-81026000D02*
X124079000Y-81026000D01*
X115951000Y-81280000D02*
X115316000Y-80645000D01*
X109343000Y-77343000D02*
X108500000Y-76500000D01*
X114808000Y-77343000D02*
X109343000Y-77343000D01*
X115690501Y-79735401D02*
X115690501Y-77490599D01*
X124841000Y-82804000D02*
X124587000Y-83058000D01*
X115622401Y-77422499D02*
X114887499Y-77422499D01*
X117475000Y-81280000D02*
X115951000Y-81280000D01*
X115316000Y-79803501D02*
X115622401Y-79803501D01*
%TO.N,Net-(COM_SEL202-P3)*%
X112014000Y-74803000D02*
X110744000Y-73533000D01*
X117856000Y-80518000D02*
X116459000Y-80518000D01*
X116459000Y-75692000D02*
X115570000Y-74803000D01*
X115570000Y-74803000D02*
X112014000Y-74803000D01*
X123190000Y-82296000D02*
X119634000Y-82296000D01*
X119634000Y-82296000D02*
X117856000Y-80518000D01*
X116459000Y-80518000D02*
X116459000Y-75692000D01*
%TO.N,Net-(COM_SEL203-P3)*%
X118492000Y-71500000D02*
X116459000Y-73533000D01*
X126619000Y-77216000D02*
X125984000Y-76581000D01*
X123443000Y-71500000D02*
X118492000Y-71500000D01*
X125984000Y-76581000D02*
X125984000Y-74041000D01*
X125984000Y-74041000D02*
X123443000Y-71500000D01*
X128270000Y-77216000D02*
X126619000Y-77216000D01*
X116459000Y-73533000D02*
X114500000Y-73533000D01*
%TO.N,Net-(D101-K)*%
X162179000Y-102489000D02*
X163195000Y-103505000D01*
X161353500Y-102489000D02*
X162179000Y-102489000D01*
X163195000Y-103505000D02*
X163195000Y-105918000D01*
X163639500Y-106362500D02*
X164846000Y-106362500D01*
D66*
X162242500Y-108966000D02*
X164846000Y-106362500D01*
D67*
X163195000Y-105918000D02*
X163639500Y-106362500D01*
D66*
X161544000Y-108966000D02*
X162242500Y-108966000D01*
%TO.N,Net-(D301-A)*%
X210439000Y-76835000D02*
X207327500Y-76835000D01*
%TO.N,Net-(D302-A)*%
X210439000Y-80645000D02*
X207327500Y-80645000D01*
D70*
%TO.N,Net-(F201-Pad1)*%
X99800000Y-74425000D02*
X90425000Y-74425000D01*
X89500000Y-73500000D02*
X89500000Y-71374000D01*
X90425000Y-74425000D02*
X89500000Y-73500000D01*
D75*
%TO.N,Net-(TB201-P1)*%
X87809000Y-63119000D02*
X76381000Y-63119000D01*
X94580000Y-71374000D02*
X94580000Y-66820000D01*
X94580000Y-66820000D02*
X98300000Y-63100000D01*
X76000000Y-63500000D02*
X76000000Y-65500000D01*
X98300000Y-63100000D02*
X87828000Y-63100000D01*
X87828000Y-63100000D02*
X87809000Y-63119000D01*
X76381000Y-63119000D02*
X76000000Y-63500000D01*
D71*
%TO.N,Net-(L102-Pad1)*%
X117406500Y-108770500D02*
X117094000Y-108458000D01*
X117094000Y-108458000D02*
X114554000Y-108458000D01*
X117406500Y-110236000D02*
X117406500Y-108770500D01*
D67*
%TO.N,Net-(U201A-E)*%
X95758000Y-115062000D02*
X95758000Y-114173000D01*
X95567500Y-109728000D02*
X95567500Y-111932500D01*
X95758000Y-114173000D02*
X96139000Y-113792000D01*
X101092000Y-118872000D02*
X102743000Y-118872000D01*
X95758000Y-114173000D02*
X95673000Y-114173000D01*
X101092000Y-115062000D02*
X102743000Y-115062000D01*
X94500000Y-113000000D02*
X93150000Y-113000000D01*
X97409000Y-117602000D02*
X95758000Y-117602000D01*
X95673000Y-114173000D02*
X94500000Y-113000000D01*
X95567500Y-111932500D02*
X94500000Y-113000000D01*
X96139000Y-113792000D02*
X97409000Y-113792000D01*
D68*
%TO.N,Net-(LED201-A)*%
X92265500Y-117094000D02*
X90043000Y-117094000D01*
%TO.N,Net-(LED202-A)*%
X92265500Y-121158000D02*
X90043000Y-121158000D01*
%TO.N,Net-(LED203-A)*%
X92265500Y-125349000D02*
X90043000Y-125349000D01*
%TO.N,Net-(LED204-A)*%
X92265500Y-129413000D02*
X90170000Y-129413000D01*
X90170000Y-129413000D02*
X90043000Y-129540000D01*
%TO.N,Net-(LED205-A)*%
X104457500Y-133858000D02*
X104457500Y-136207500D01*
X104457500Y-136207500D02*
X104140000Y-136525000D01*
%TO.N,Net-(LEDABRT101-K)*%
X164846000Y-102108000D02*
X164846000Y-104457500D01*
D67*
%TO.N,Net-(LED_RST101-A)*%
X164211000Y-86995000D02*
X164846000Y-87630000D01*
X162496500Y-86995000D02*
X164211000Y-86995000D01*
D68*
%TO.N,Net-(PULUPEN201-Pad8)*%
X157607000Y-124396500D02*
X157734000Y-124523500D01*
X157607000Y-120523000D02*
X157607000Y-124396500D01*
%TO.N,Net-(PULUPEN201-Pad6)*%
X160147000Y-124396500D02*
X160274000Y-124523500D01*
X160147000Y-120523000D02*
X160147000Y-124396500D01*
D67*
%TO.N,Net-(PULUPEN201-Pad4)*%
X162687000Y-124206000D02*
X162814000Y-124523500D01*
X162687000Y-120523000D02*
X162687000Y-124206000D01*
%TO.N,Net-(PULUPEN201-Pad2)*%
X164719000Y-124206000D02*
X164719000Y-121412000D01*
X165354000Y-124523500D02*
X164719000Y-124206000D01*
X164719000Y-121412000D02*
X165227000Y-120523000D01*
D66*
%TO.N,Net-(U301-P11)*%
X192962000Y-102362000D02*
X192300000Y-101700000D01*
X198755000Y-91313000D02*
X198755000Y-88265000D01*
X192300000Y-101700000D02*
X192300000Y-97768000D01*
X195199000Y-102108000D02*
X194945000Y-102362000D01*
X192300000Y-97768000D02*
X198755000Y-91313000D01*
X195199000Y-101229000D02*
X195199000Y-102108000D01*
X195180000Y-101210000D02*
X195199000Y-101229000D01*
X194945000Y-102362000D02*
X192962000Y-102362000D01*
X198755000Y-88265000D02*
X200025000Y-86995000D01*
%TO.N,Net-(U301-P4)*%
X200025000Y-93174820D02*
X195681600Y-97518220D01*
X195681600Y-97518220D02*
X195681600Y-100774500D01*
X200025000Y-89535000D02*
X200025000Y-93174820D01*
D67*
%TO.N,Net-(Q101-B)*%
X158813500Y-89154000D02*
X158623000Y-89344500D01*
X160782000Y-89154000D02*
X158813500Y-89154000D01*
%TO.N,Net-(Q101-C)*%
X162433000Y-88392000D02*
X162814000Y-88773000D01*
X160591500Y-86995000D02*
X160591500Y-87058500D01*
X162814000Y-88773000D02*
X162814000Y-90043000D01*
X161925000Y-88392000D02*
X162433000Y-88392000D01*
X160591500Y-87058500D02*
X161925000Y-88392000D01*
D66*
%TO.N,Net-(U102-TEST)*%
X139319000Y-91948000D02*
X139369800Y-92303600D01*
X139954000Y-87503000D02*
X139319000Y-88138000D01*
X141478000Y-87376000D02*
X141351000Y-87503000D01*
X139319000Y-88138000D02*
X139319000Y-91948000D01*
X141478000Y-86804500D02*
X141478000Y-87376000D01*
X141351000Y-87503000D02*
X139954000Y-87503000D01*
X139369800Y-92303600D02*
X139369800Y-93726000D01*
%TO.N,Net-(U102-TCLK{slash}PSTCLK{slash}CLKOUT)*%
X135890000Y-109220000D02*
X135890000Y-110617000D01*
X135763000Y-111506000D02*
X135768080Y-111506000D01*
X135763000Y-110744000D02*
X135763000Y-111506000D01*
X135890000Y-110617000D02*
X135763000Y-110744000D01*
X135768080Y-111506000D02*
X134874000Y-112458500D01*
D67*
%TO.N,Net-(U201A-O)*%
X94932500Y-116332000D02*
X94170500Y-117094000D01*
X97409000Y-116332000D02*
X94932500Y-116332000D01*
D68*
%TO.N,Net-(U201B-O)*%
X95186500Y-120142000D02*
X94170500Y-121158000D01*
X97409000Y-120142000D02*
X95186500Y-120142000D01*
D67*
%TO.N,Net-(U201D-O)*%
X99314000Y-122428000D02*
X100203000Y-121539000D01*
X94170500Y-125349000D02*
X95377000Y-125349000D01*
X101092000Y-117602000D02*
X102743000Y-117602000D01*
X100203000Y-121539000D02*
X100203000Y-118491000D01*
X100203000Y-118491000D02*
X101092000Y-117602000D01*
X95377000Y-125349000D02*
X98298000Y-122428000D01*
X98298000Y-122428000D02*
X99314000Y-122428000D01*
%TO.N,Net-(U202-T2IN)*%
X192532000Y-81343500D02*
X191071500Y-81343500D01*
X196088000Y-81026000D02*
X194183000Y-81026000D01*
X190754000Y-81026000D02*
X189230000Y-81026000D01*
X197485000Y-79629000D02*
X196088000Y-81026000D01*
X194183000Y-81026000D02*
X193865500Y-81343500D01*
X193865500Y-81343500D02*
X192532000Y-81343500D01*
X191071500Y-81343500D02*
X190754000Y-81026000D01*
%TO.N,Net-(U201C-O)*%
X101346000Y-123190000D02*
X98806000Y-123190000D01*
X94234000Y-129413000D02*
X94170500Y-129413000D01*
X95885000Y-127762000D02*
X94234000Y-129413000D01*
X98806000Y-123190000D02*
X95885000Y-126111000D01*
X95885000Y-126111000D02*
X95885000Y-127762000D01*
X102743000Y-121412000D02*
X102743000Y-121793000D01*
X102743000Y-121793000D02*
X101346000Y-123190000D01*
D68*
%TO.N,Net-(U203-T2IN)*%
X164274500Y-81026000D02*
X164592000Y-81343500D01*
X167068500Y-81343500D02*
X164592000Y-81343500D01*
X161290000Y-81026000D02*
X164274500Y-81026000D01*
X168783000Y-79629000D02*
X167068500Y-81343500D01*
X169545000Y-79629000D02*
X168783000Y-79629000D01*
D67*
%TO.N,Net-(U205-Rsl)*%
X100901500Y-95313500D02*
X100457000Y-95758000D01*
X100901500Y-92837000D02*
X100901500Y-95313500D01*
X103251000Y-90297000D02*
X102489000Y-90297000D01*
X102489000Y-90297000D02*
X102235000Y-90297000D01*
X102235000Y-90297000D02*
X100899000Y-91633000D01*
X100899000Y-91633000D02*
X100899000Y-92837000D01*
D66*
%TO.N,Net-(U204-T1IN)*%
X129842000Y-83058000D02*
X133271000Y-79629000D01*
X133271000Y-79629000D02*
X135763000Y-79629000D01*
X127889000Y-83058000D02*
X129800000Y-83058000D01*
X126936500Y-84264500D02*
X126936500Y-84010500D01*
X126492000Y-83820000D02*
X126492000Y-80137000D01*
X126492000Y-80137000D02*
X126873000Y-79756000D01*
X126936500Y-84264500D02*
X126492000Y-83820000D01*
X126936500Y-84010500D02*
X127889000Y-83058000D01*
X126936500Y-84455000D02*
X126936500Y-84264500D01*
X126873000Y-79756000D02*
X128270000Y-79756000D01*
X129800000Y-83058000D02*
X129842000Y-83058000D01*
D67*
%TO.N,Net-(U202-R2OUT)*%
X189230000Y-82296000D02*
X197358000Y-82296000D01*
X197358000Y-82296000D02*
X197485000Y-82169000D01*
%TO.N,Net-(U202-T1IN)*%
X198247000Y-78359000D02*
X198755000Y-77851000D01*
X198755000Y-77851000D02*
X198755000Y-75819000D01*
X198755000Y-75819000D02*
X197485000Y-74549000D01*
X189230000Y-79756000D02*
X194818000Y-79756000D01*
X196215000Y-78359000D02*
X198247000Y-78359000D01*
X194818000Y-79756000D02*
X196215000Y-78359000D01*
%TO.N,Net-(U202-R1OUT)*%
X189230000Y-78486000D02*
X194691000Y-78486000D01*
X194691000Y-78486000D02*
X196088000Y-77089000D01*
X196088000Y-77089000D02*
X197485000Y-77089000D01*
D68*
%TO.N,Net-(U203-R2OUT)*%
X169418000Y-82296000D02*
X169545000Y-82169000D01*
X161290000Y-82296000D02*
X169418000Y-82296000D01*
D67*
%TO.N,Net-(U203-T1IN)*%
X170815000Y-77851000D02*
X170307000Y-78359000D01*
X166878000Y-79756000D02*
X161290000Y-79756000D01*
X170307000Y-78359000D02*
X168275000Y-78359000D01*
X168275000Y-78359000D02*
X166878000Y-79756000D01*
X169545000Y-74549000D02*
X170815000Y-75819000D01*
X170815000Y-75819000D02*
X170815000Y-77851000D01*
%TO.N,Net-(U203-R1OUT)*%
X168148000Y-77089000D02*
X169545000Y-77089000D01*
X161290000Y-78486000D02*
X166751000Y-78486000D01*
X166751000Y-78486000D02*
X168148000Y-77089000D01*
D66*
%TO.N,Net-(U204-R2OUT)*%
X134874000Y-77089000D02*
X135763000Y-77089000D01*
X129667000Y-82296000D02*
X134874000Y-77089000D01*
X128270000Y-82296000D02*
X129667000Y-82296000D01*
%TO.N,Net-(U204-T2IN)*%
X134493000Y-75819000D02*
X135763000Y-74549000D01*
X134493000Y-76327000D02*
X134493000Y-75819000D01*
X129794000Y-81026000D02*
X134493000Y-76327000D01*
X128270000Y-81026000D02*
X129794000Y-81026000D01*
%TO.N,Net-(U204-R1OUT)*%
X134874000Y-81788000D02*
X135763000Y-82169000D01*
X133985000Y-81788000D02*
X134874000Y-81788000D01*
X125476000Y-85344000D02*
X125857000Y-85725000D01*
X125857000Y-85725000D02*
X130048000Y-85725000D01*
X128270000Y-78486000D02*
X126111000Y-78486000D01*
X130048000Y-85725000D02*
X133985000Y-81788000D01*
X125476000Y-79121000D02*
X125476000Y-85344000D01*
X126111000Y-78486000D02*
X125476000Y-79121000D01*
D71*
%TO.N,Net-(U205-Vref)*%
X103218000Y-86487000D02*
X103218000Y-85718000D01*
X103218000Y-85718000D02*
X103000000Y-85500000D01*
D66*
%TO.N,/CLKIN{slash}EXTAL*%
X140385800Y-111048800D02*
X140589000Y-111379000D01*
D67*
X140589000Y-114046000D02*
X140589000Y-111379000D01*
D70*
X125603000Y-120330000D02*
X128270000Y-120330000D01*
D67*
X141097000Y-114554000D02*
X140589000Y-114046000D01*
X138874500Y-116776500D02*
X139446000Y-116205000D01*
D66*
X140385800Y-109220000D02*
X140385800Y-111048800D01*
D67*
X142621000Y-115316000D02*
X141859000Y-114554000D01*
X136652000Y-116776500D02*
X131826000Y-116776500D01*
X142621000Y-116205000D02*
X142621000Y-115316000D01*
X141859000Y-114554000D02*
X141097000Y-114554000D01*
D70*
X123444000Y-120777000D02*
X125156000Y-120777000D01*
X125156000Y-120777000D02*
X125603000Y-120330000D01*
D67*
X136652000Y-116776500D02*
X138874500Y-116776500D01*
X131826000Y-116776500D02*
X128270000Y-120332500D01*
%TO.N,/inout_user/TXD2{slash}CANL*%
X107500000Y-71500000D02*
X110166000Y-68834000D01*
X105000000Y-74073000D02*
X105000000Y-72500000D01*
X105000000Y-72500000D02*
X106000000Y-71500000D01*
X107000000Y-76073000D02*
X105000000Y-74073000D01*
X106000000Y-71500000D02*
X107500000Y-71500000D01*
X121936000Y-68834000D02*
X124270000Y-66500000D01*
X110166000Y-68834000D02*
X121936000Y-68834000D01*
D71*
%TO.N,/inout_user/CTS2{slash}CANH*%
X116500000Y-70500000D02*
X117150000Y-69850000D01*
D67*
X125655000Y-67845000D02*
X125655000Y-63660000D01*
X117267000Y-69850000D02*
X123650000Y-69850000D01*
D71*
X117150000Y-69850000D02*
X117267000Y-69850000D01*
D67*
X123650000Y-69850000D02*
X125655000Y-67845000D01*
%TD*%
D76*
X71120000Y-147320000D02*
X228600000Y-147320000D01*
X71120000Y-55880000D02*
X71120000Y-147320000D01*
X228600000Y-55880000D02*
X228600000Y-147320000D01*
X228600000Y-55880000D02*
X71120000Y-55880000D01*
M02*
