%TF.GenerationSoftware,KiCad,Pcbnew,8.99.0-344-gfbc433deaa-dirty*%
%TF.CreationDate,2024-03-11T18:45:51+01:00*%
%TF.ProjectId,kit-dev-coldfire-xilinx_5213,6b69742d-6465-4762-9d63-6f6c64666972,2*%
%TF.SameCoordinates,Original*%
%TF.FileFunction,Legend,Bot*%
%TF.FilePolarity,Positive*%
%FSLAX46Y46*%
G04 Gerber Fmt 4.6, Leading zero omitted, Abs format (unit mm)*
G04 Created by KiCad (PCBNEW 8.99.0-344-gfbc433deaa-dirty) date 2024-03-11 18:45:51*
%MOMM*%
%LPD*%
G01*
G04 APERTURE LIST*
G04 Aperture macros list*
%AMRoundRect*
0 Rectangle with rounded corners*
0 $1 Rounding radius*
0 $2 $3 $4 $5 $6 $7 $8 $9 X,Y pos of 4 corners*
0 Add a 4 corners polygon primitive as box body*
4,1,4,$2,$3,$4,$5,$6,$7,$8,$9,$2,$3,0*
0 Add four circle primitives for the rounded corners*
1,1,$1+$1,$2,$3*
1,1,$1+$1,$4,$5*
1,1,$1+$1,$6,$7*
1,1,$1+$1,$8,$9*
0 Add four rect primitives between the rounded corners*
20,1,$1+$1,$2,$3,$4,$5,0*
20,1,$1+$1,$4,$5,$6,$7,0*
20,1,$1+$1,$6,$7,$8,$9,0*
20,1,$1+$1,$8,$9,$2,$3,0*%
G04 Aperture macros list end*
%ADD10C,0.150000*%
%ADD11C,0.120000*%
%ADD12C,1.397000*%
%ADD13R,1.700000X1.700000*%
%ADD14O,1.700000X1.700000*%
%ADD15R,1.600000X1.600000*%
%ADD16C,1.600000*%
%ADD17R,2.400000X2.400000*%
%ADD18O,2.400000X2.400000*%
%ADD19R,5.500000X4.800600*%
%ADD20O,5.000000X4.800600*%
%ADD21O,3.500000X4.800600*%
%ADD22R,1.300000X1.300000*%
%ADD23C,1.300000*%
%ADD24O,1.600000X1.600000*%
%ADD25R,2.540000X3.810000*%
%ADD26R,3.000000X3.000000*%
%ADD27C,3.000000*%
%ADD28C,1.500000*%
%ADD29C,4.000000*%
%ADD30RoundRect,0.250000X0.250000X0.475000X-0.250000X0.475000X-0.250000X-0.475000X0.250000X-0.475000X0*%
%ADD31RoundRect,0.250000X0.475000X-0.250000X0.475000X0.250000X-0.475000X0.250000X-0.475000X-0.250000X0*%
%ADD32RoundRect,0.250000X-0.475000X0.250000X-0.475000X-0.250000X0.475000X-0.250000X0.475000X0.250000X0*%
%TA.AperFunction,Profile*%
%ADD33C,0.381000*%
%TD*%
G04 APERTURE END LIST*
D10*
X130592428Y-93302628D02*
X130621000Y-93331200D01*
X130621000Y-93331200D02*
X130706714Y-93359771D01*
X130706714Y-93359771D02*
X130763857Y-93359771D01*
X130763857Y-93359771D02*
X130849571Y-93331200D01*
X130849571Y-93331200D02*
X130906714Y-93274057D01*
X130906714Y-93274057D02*
X130935285Y-93216914D01*
X130935285Y-93216914D02*
X130963857Y-93102628D01*
X130963857Y-93102628D02*
X130963857Y-93016914D01*
X130963857Y-93016914D02*
X130935285Y-92902628D01*
X130935285Y-92902628D02*
X130906714Y-92845485D01*
X130906714Y-92845485D02*
X130849571Y-92788342D01*
X130849571Y-92788342D02*
X130763857Y-92759771D01*
X130763857Y-92759771D02*
X130706714Y-92759771D01*
X130706714Y-92759771D02*
X130621000Y-92788342D01*
X130621000Y-92788342D02*
X130592428Y-92816914D01*
X130021000Y-93359771D02*
X130363857Y-93359771D01*
X130192428Y-93359771D02*
X130192428Y-92759771D01*
X130192428Y-92759771D02*
X130249571Y-92845485D01*
X130249571Y-92845485D02*
X130306714Y-92902628D01*
X130306714Y-92902628D02*
X130363857Y-92931200D01*
X129449571Y-93359771D02*
X129792428Y-93359771D01*
X129620999Y-93359771D02*
X129620999Y-92759771D01*
X129620999Y-92759771D02*
X129678142Y-92845485D01*
X129678142Y-92845485D02*
X129735285Y-92902628D01*
X129735285Y-92902628D02*
X129792428Y-92931200D01*
X129220999Y-92816914D02*
X129192427Y-92788342D01*
X129192427Y-92788342D02*
X129135285Y-92759771D01*
X129135285Y-92759771D02*
X128992427Y-92759771D01*
X128992427Y-92759771D02*
X128935285Y-92788342D01*
X128935285Y-92788342D02*
X128906713Y-92816914D01*
X128906713Y-92816914D02*
X128878142Y-92874057D01*
X128878142Y-92874057D02*
X128878142Y-92931200D01*
X128878142Y-92931200D02*
X128906713Y-93016914D01*
X128906713Y-93016914D02*
X129249570Y-93359771D01*
X129249570Y-93359771D02*
X128878142Y-93359771D01*
X143850628Y-104103571D02*
X143879200Y-104074999D01*
X143879200Y-104074999D02*
X143907771Y-103989285D01*
X143907771Y-103989285D02*
X143907771Y-103932142D01*
X143907771Y-103932142D02*
X143879200Y-103846428D01*
X143879200Y-103846428D02*
X143822057Y-103789285D01*
X143822057Y-103789285D02*
X143764914Y-103760714D01*
X143764914Y-103760714D02*
X143650628Y-103732142D01*
X143650628Y-103732142D02*
X143564914Y-103732142D01*
X143564914Y-103732142D02*
X143450628Y-103760714D01*
X143450628Y-103760714D02*
X143393485Y-103789285D01*
X143393485Y-103789285D02*
X143336342Y-103846428D01*
X143336342Y-103846428D02*
X143307771Y-103932142D01*
X143307771Y-103932142D02*
X143307771Y-103989285D01*
X143307771Y-103989285D02*
X143336342Y-104074999D01*
X143336342Y-104074999D02*
X143364914Y-104103571D01*
X143907771Y-104674999D02*
X143907771Y-104332142D01*
X143907771Y-104503571D02*
X143307771Y-104503571D01*
X143307771Y-104503571D02*
X143393485Y-104446428D01*
X143393485Y-104446428D02*
X143450628Y-104389285D01*
X143450628Y-104389285D02*
X143479200Y-104332142D01*
X143907771Y-105246428D02*
X143907771Y-104903571D01*
X143907771Y-105075000D02*
X143307771Y-105075000D01*
X143307771Y-105075000D02*
X143393485Y-105017857D01*
X143393485Y-105017857D02*
X143450628Y-104960714D01*
X143450628Y-104960714D02*
X143479200Y-104903571D01*
X143307771Y-105446429D02*
X143307771Y-105846429D01*
X143307771Y-105846429D02*
X143907771Y-105589286D01*
X147277628Y-98642571D02*
X147306200Y-98613999D01*
X147306200Y-98613999D02*
X147334771Y-98528285D01*
X147334771Y-98528285D02*
X147334771Y-98471142D01*
X147334771Y-98471142D02*
X147306200Y-98385428D01*
X147306200Y-98385428D02*
X147249057Y-98328285D01*
X147249057Y-98328285D02*
X147191914Y-98299714D01*
X147191914Y-98299714D02*
X147077628Y-98271142D01*
X147077628Y-98271142D02*
X146991914Y-98271142D01*
X146991914Y-98271142D02*
X146877628Y-98299714D01*
X146877628Y-98299714D02*
X146820485Y-98328285D01*
X146820485Y-98328285D02*
X146763342Y-98385428D01*
X146763342Y-98385428D02*
X146734771Y-98471142D01*
X146734771Y-98471142D02*
X146734771Y-98528285D01*
X146734771Y-98528285D02*
X146763342Y-98613999D01*
X146763342Y-98613999D02*
X146791914Y-98642571D01*
X147334771Y-99213999D02*
X147334771Y-98871142D01*
X147334771Y-99042571D02*
X146734771Y-99042571D01*
X146734771Y-99042571D02*
X146820485Y-98985428D01*
X146820485Y-98985428D02*
X146877628Y-98928285D01*
X146877628Y-98928285D02*
X146906200Y-98871142D01*
X147334771Y-99785428D02*
X147334771Y-99442571D01*
X147334771Y-99614000D02*
X146734771Y-99614000D01*
X146734771Y-99614000D02*
X146820485Y-99556857D01*
X146820485Y-99556857D02*
X146877628Y-99499714D01*
X146877628Y-99499714D02*
X146906200Y-99442571D01*
X146991914Y-100128286D02*
X146963342Y-100071143D01*
X146963342Y-100071143D02*
X146934771Y-100042572D01*
X146934771Y-100042572D02*
X146877628Y-100014000D01*
X146877628Y-100014000D02*
X146849057Y-100014000D01*
X146849057Y-100014000D02*
X146791914Y-100042572D01*
X146791914Y-100042572D02*
X146763342Y-100071143D01*
X146763342Y-100071143D02*
X146734771Y-100128286D01*
X146734771Y-100128286D02*
X146734771Y-100242572D01*
X146734771Y-100242572D02*
X146763342Y-100299715D01*
X146763342Y-100299715D02*
X146791914Y-100328286D01*
X146791914Y-100328286D02*
X146849057Y-100356857D01*
X146849057Y-100356857D02*
X146877628Y-100356857D01*
X146877628Y-100356857D02*
X146934771Y-100328286D01*
X146934771Y-100328286D02*
X146963342Y-100299715D01*
X146963342Y-100299715D02*
X146991914Y-100242572D01*
X146991914Y-100242572D02*
X146991914Y-100128286D01*
X146991914Y-100128286D02*
X147020485Y-100071143D01*
X147020485Y-100071143D02*
X147049057Y-100042572D01*
X147049057Y-100042572D02*
X147106200Y-100014000D01*
X147106200Y-100014000D02*
X147220485Y-100014000D01*
X147220485Y-100014000D02*
X147277628Y-100042572D01*
X147277628Y-100042572D02*
X147306200Y-100071143D01*
X147306200Y-100071143D02*
X147334771Y-100128286D01*
X147334771Y-100128286D02*
X147334771Y-100242572D01*
X147334771Y-100242572D02*
X147306200Y-100299715D01*
X147306200Y-100299715D02*
X147277628Y-100328286D01*
X147277628Y-100328286D02*
X147220485Y-100356857D01*
X147220485Y-100356857D02*
X147106200Y-100356857D01*
X147106200Y-100356857D02*
X147049057Y-100328286D01*
X147049057Y-100328286D02*
X147020485Y-100299715D01*
X147020485Y-100299715D02*
X146991914Y-100242572D01*
X207858628Y-100166571D02*
X207887200Y-100137999D01*
X207887200Y-100137999D02*
X207915771Y-100052285D01*
X207915771Y-100052285D02*
X207915771Y-99995142D01*
X207915771Y-99995142D02*
X207887200Y-99909428D01*
X207887200Y-99909428D02*
X207830057Y-99852285D01*
X207830057Y-99852285D02*
X207772914Y-99823714D01*
X207772914Y-99823714D02*
X207658628Y-99795142D01*
X207658628Y-99795142D02*
X207572914Y-99795142D01*
X207572914Y-99795142D02*
X207458628Y-99823714D01*
X207458628Y-99823714D02*
X207401485Y-99852285D01*
X207401485Y-99852285D02*
X207344342Y-99909428D01*
X207344342Y-99909428D02*
X207315771Y-99995142D01*
X207315771Y-99995142D02*
X207315771Y-100052285D01*
X207315771Y-100052285D02*
X207344342Y-100137999D01*
X207344342Y-100137999D02*
X207372914Y-100166571D01*
X207315771Y-100366571D02*
X207315771Y-100737999D01*
X207315771Y-100737999D02*
X207544342Y-100537999D01*
X207544342Y-100537999D02*
X207544342Y-100623714D01*
X207544342Y-100623714D02*
X207572914Y-100680857D01*
X207572914Y-100680857D02*
X207601485Y-100709428D01*
X207601485Y-100709428D02*
X207658628Y-100737999D01*
X207658628Y-100737999D02*
X207801485Y-100737999D01*
X207801485Y-100737999D02*
X207858628Y-100709428D01*
X207858628Y-100709428D02*
X207887200Y-100680857D01*
X207887200Y-100680857D02*
X207915771Y-100623714D01*
X207915771Y-100623714D02*
X207915771Y-100452285D01*
X207915771Y-100452285D02*
X207887200Y-100395142D01*
X207887200Y-100395142D02*
X207858628Y-100366571D01*
X207315771Y-101109428D02*
X207315771Y-101166571D01*
X207315771Y-101166571D02*
X207344342Y-101223714D01*
X207344342Y-101223714D02*
X207372914Y-101252286D01*
X207372914Y-101252286D02*
X207430057Y-101280857D01*
X207430057Y-101280857D02*
X207544342Y-101309428D01*
X207544342Y-101309428D02*
X207687200Y-101309428D01*
X207687200Y-101309428D02*
X207801485Y-101280857D01*
X207801485Y-101280857D02*
X207858628Y-101252286D01*
X207858628Y-101252286D02*
X207887200Y-101223714D01*
X207887200Y-101223714D02*
X207915771Y-101166571D01*
X207915771Y-101166571D02*
X207915771Y-101109428D01*
X207915771Y-101109428D02*
X207887200Y-101052286D01*
X207887200Y-101052286D02*
X207858628Y-101023714D01*
X207858628Y-101023714D02*
X207801485Y-100995143D01*
X207801485Y-100995143D02*
X207687200Y-100966571D01*
X207687200Y-100966571D02*
X207544342Y-100966571D01*
X207544342Y-100966571D02*
X207430057Y-100995143D01*
X207430057Y-100995143D02*
X207372914Y-101023714D01*
X207372914Y-101023714D02*
X207344342Y-101052286D01*
X207344342Y-101052286D02*
X207315771Y-101109428D01*
X207915771Y-101880857D02*
X207915771Y-101538000D01*
X207915771Y-101709429D02*
X207315771Y-101709429D01*
X207315771Y-101709429D02*
X207401485Y-101652286D01*
X207401485Y-101652286D02*
X207458628Y-101595143D01*
X207458628Y-101595143D02*
X207487200Y-101538000D01*
X191679428Y-109177628D02*
X191708000Y-109206200D01*
X191708000Y-109206200D02*
X191793714Y-109234771D01*
X191793714Y-109234771D02*
X191850857Y-109234771D01*
X191850857Y-109234771D02*
X191936571Y-109206200D01*
X191936571Y-109206200D02*
X191993714Y-109149057D01*
X191993714Y-109149057D02*
X192022285Y-109091914D01*
X192022285Y-109091914D02*
X192050857Y-108977628D01*
X192050857Y-108977628D02*
X192050857Y-108891914D01*
X192050857Y-108891914D02*
X192022285Y-108777628D01*
X192022285Y-108777628D02*
X191993714Y-108720485D01*
X191993714Y-108720485D02*
X191936571Y-108663342D01*
X191936571Y-108663342D02*
X191850857Y-108634771D01*
X191850857Y-108634771D02*
X191793714Y-108634771D01*
X191793714Y-108634771D02*
X191708000Y-108663342D01*
X191708000Y-108663342D02*
X191679428Y-108691914D01*
X191479428Y-108634771D02*
X191108000Y-108634771D01*
X191108000Y-108634771D02*
X191308000Y-108863342D01*
X191308000Y-108863342D02*
X191222285Y-108863342D01*
X191222285Y-108863342D02*
X191165143Y-108891914D01*
X191165143Y-108891914D02*
X191136571Y-108920485D01*
X191136571Y-108920485D02*
X191108000Y-108977628D01*
X191108000Y-108977628D02*
X191108000Y-109120485D01*
X191108000Y-109120485D02*
X191136571Y-109177628D01*
X191136571Y-109177628D02*
X191165143Y-109206200D01*
X191165143Y-109206200D02*
X191222285Y-109234771D01*
X191222285Y-109234771D02*
X191393714Y-109234771D01*
X191393714Y-109234771D02*
X191450857Y-109206200D01*
X191450857Y-109206200D02*
X191479428Y-109177628D01*
X190736571Y-108634771D02*
X190679428Y-108634771D01*
X190679428Y-108634771D02*
X190622285Y-108663342D01*
X190622285Y-108663342D02*
X190593714Y-108691914D01*
X190593714Y-108691914D02*
X190565142Y-108749057D01*
X190565142Y-108749057D02*
X190536571Y-108863342D01*
X190536571Y-108863342D02*
X190536571Y-109006200D01*
X190536571Y-109006200D02*
X190565142Y-109120485D01*
X190565142Y-109120485D02*
X190593714Y-109177628D01*
X190593714Y-109177628D02*
X190622285Y-109206200D01*
X190622285Y-109206200D02*
X190679428Y-109234771D01*
X190679428Y-109234771D02*
X190736571Y-109234771D01*
X190736571Y-109234771D02*
X190793714Y-109206200D01*
X190793714Y-109206200D02*
X190822285Y-109177628D01*
X190822285Y-109177628D02*
X190850856Y-109120485D01*
X190850856Y-109120485D02*
X190879428Y-109006200D01*
X190879428Y-109006200D02*
X190879428Y-108863342D01*
X190879428Y-108863342D02*
X190850856Y-108749057D01*
X190850856Y-108749057D02*
X190822285Y-108691914D01*
X190822285Y-108691914D02*
X190793714Y-108663342D01*
X190793714Y-108663342D02*
X190736571Y-108634771D01*
X190307999Y-108691914D02*
X190279427Y-108663342D01*
X190279427Y-108663342D02*
X190222285Y-108634771D01*
X190222285Y-108634771D02*
X190079427Y-108634771D01*
X190079427Y-108634771D02*
X190022285Y-108663342D01*
X190022285Y-108663342D02*
X189993713Y-108691914D01*
X189993713Y-108691914D02*
X189965142Y-108749057D01*
X189965142Y-108749057D02*
X189965142Y-108806200D01*
X189965142Y-108806200D02*
X189993713Y-108891914D01*
X189993713Y-108891914D02*
X190336570Y-109234771D01*
X190336570Y-109234771D02*
X189965142Y-109234771D01*
X202016628Y-100166571D02*
X202045200Y-100137999D01*
X202045200Y-100137999D02*
X202073771Y-100052285D01*
X202073771Y-100052285D02*
X202073771Y-99995142D01*
X202073771Y-99995142D02*
X202045200Y-99909428D01*
X202045200Y-99909428D02*
X201988057Y-99852285D01*
X201988057Y-99852285D02*
X201930914Y-99823714D01*
X201930914Y-99823714D02*
X201816628Y-99795142D01*
X201816628Y-99795142D02*
X201730914Y-99795142D01*
X201730914Y-99795142D02*
X201616628Y-99823714D01*
X201616628Y-99823714D02*
X201559485Y-99852285D01*
X201559485Y-99852285D02*
X201502342Y-99909428D01*
X201502342Y-99909428D02*
X201473771Y-99995142D01*
X201473771Y-99995142D02*
X201473771Y-100052285D01*
X201473771Y-100052285D02*
X201502342Y-100137999D01*
X201502342Y-100137999D02*
X201530914Y-100166571D01*
X201473771Y-100366571D02*
X201473771Y-100737999D01*
X201473771Y-100737999D02*
X201702342Y-100537999D01*
X201702342Y-100537999D02*
X201702342Y-100623714D01*
X201702342Y-100623714D02*
X201730914Y-100680857D01*
X201730914Y-100680857D02*
X201759485Y-100709428D01*
X201759485Y-100709428D02*
X201816628Y-100737999D01*
X201816628Y-100737999D02*
X201959485Y-100737999D01*
X201959485Y-100737999D02*
X202016628Y-100709428D01*
X202016628Y-100709428D02*
X202045200Y-100680857D01*
X202045200Y-100680857D02*
X202073771Y-100623714D01*
X202073771Y-100623714D02*
X202073771Y-100452285D01*
X202073771Y-100452285D02*
X202045200Y-100395142D01*
X202045200Y-100395142D02*
X202016628Y-100366571D01*
X201473771Y-101109428D02*
X201473771Y-101166571D01*
X201473771Y-101166571D02*
X201502342Y-101223714D01*
X201502342Y-101223714D02*
X201530914Y-101252286D01*
X201530914Y-101252286D02*
X201588057Y-101280857D01*
X201588057Y-101280857D02*
X201702342Y-101309428D01*
X201702342Y-101309428D02*
X201845200Y-101309428D01*
X201845200Y-101309428D02*
X201959485Y-101280857D01*
X201959485Y-101280857D02*
X202016628Y-101252286D01*
X202016628Y-101252286D02*
X202045200Y-101223714D01*
X202045200Y-101223714D02*
X202073771Y-101166571D01*
X202073771Y-101166571D02*
X202073771Y-101109428D01*
X202073771Y-101109428D02*
X202045200Y-101052286D01*
X202045200Y-101052286D02*
X202016628Y-101023714D01*
X202016628Y-101023714D02*
X201959485Y-100995143D01*
X201959485Y-100995143D02*
X201845200Y-100966571D01*
X201845200Y-100966571D02*
X201702342Y-100966571D01*
X201702342Y-100966571D02*
X201588057Y-100995143D01*
X201588057Y-100995143D02*
X201530914Y-101023714D01*
X201530914Y-101023714D02*
X201502342Y-101052286D01*
X201502342Y-101052286D02*
X201473771Y-101109428D01*
X201473771Y-101509429D02*
X201473771Y-101880857D01*
X201473771Y-101880857D02*
X201702342Y-101680857D01*
X201702342Y-101680857D02*
X201702342Y-101766572D01*
X201702342Y-101766572D02*
X201730914Y-101823715D01*
X201730914Y-101823715D02*
X201759485Y-101852286D01*
X201759485Y-101852286D02*
X201816628Y-101880857D01*
X201816628Y-101880857D02*
X201959485Y-101880857D01*
X201959485Y-101880857D02*
X202016628Y-101852286D01*
X202016628Y-101852286D02*
X202045200Y-101823715D01*
X202045200Y-101823715D02*
X202073771Y-101766572D01*
X202073771Y-101766572D02*
X202073771Y-101595143D01*
X202073771Y-101595143D02*
X202045200Y-101538000D01*
X202045200Y-101538000D02*
X202016628Y-101509429D01*
X210142628Y-109818571D02*
X210171200Y-109789999D01*
X210171200Y-109789999D02*
X210199771Y-109704285D01*
X210199771Y-109704285D02*
X210199771Y-109647142D01*
X210199771Y-109647142D02*
X210171200Y-109561428D01*
X210171200Y-109561428D02*
X210114057Y-109504285D01*
X210114057Y-109504285D02*
X210056914Y-109475714D01*
X210056914Y-109475714D02*
X209942628Y-109447142D01*
X209942628Y-109447142D02*
X209856914Y-109447142D01*
X209856914Y-109447142D02*
X209742628Y-109475714D01*
X209742628Y-109475714D02*
X209685485Y-109504285D01*
X209685485Y-109504285D02*
X209628342Y-109561428D01*
X209628342Y-109561428D02*
X209599771Y-109647142D01*
X209599771Y-109647142D02*
X209599771Y-109704285D01*
X209599771Y-109704285D02*
X209628342Y-109789999D01*
X209628342Y-109789999D02*
X209656914Y-109818571D01*
X209599771Y-110018571D02*
X209599771Y-110389999D01*
X209599771Y-110389999D02*
X209828342Y-110189999D01*
X209828342Y-110189999D02*
X209828342Y-110275714D01*
X209828342Y-110275714D02*
X209856914Y-110332857D01*
X209856914Y-110332857D02*
X209885485Y-110361428D01*
X209885485Y-110361428D02*
X209942628Y-110389999D01*
X209942628Y-110389999D02*
X210085485Y-110389999D01*
X210085485Y-110389999D02*
X210142628Y-110361428D01*
X210142628Y-110361428D02*
X210171200Y-110332857D01*
X210171200Y-110332857D02*
X210199771Y-110275714D01*
X210199771Y-110275714D02*
X210199771Y-110104285D01*
X210199771Y-110104285D02*
X210171200Y-110047142D01*
X210171200Y-110047142D02*
X210142628Y-110018571D01*
X209599771Y-110761428D02*
X209599771Y-110818571D01*
X209599771Y-110818571D02*
X209628342Y-110875714D01*
X209628342Y-110875714D02*
X209656914Y-110904286D01*
X209656914Y-110904286D02*
X209714057Y-110932857D01*
X209714057Y-110932857D02*
X209828342Y-110961428D01*
X209828342Y-110961428D02*
X209971200Y-110961428D01*
X209971200Y-110961428D02*
X210085485Y-110932857D01*
X210085485Y-110932857D02*
X210142628Y-110904286D01*
X210142628Y-110904286D02*
X210171200Y-110875714D01*
X210171200Y-110875714D02*
X210199771Y-110818571D01*
X210199771Y-110818571D02*
X210199771Y-110761428D01*
X210199771Y-110761428D02*
X210171200Y-110704286D01*
X210171200Y-110704286D02*
X210142628Y-110675714D01*
X210142628Y-110675714D02*
X210085485Y-110647143D01*
X210085485Y-110647143D02*
X209971200Y-110618571D01*
X209971200Y-110618571D02*
X209828342Y-110618571D01*
X209828342Y-110618571D02*
X209714057Y-110647143D01*
X209714057Y-110647143D02*
X209656914Y-110675714D01*
X209656914Y-110675714D02*
X209628342Y-110704286D01*
X209628342Y-110704286D02*
X209599771Y-110761428D01*
X209799771Y-111475715D02*
X210199771Y-111475715D01*
X209571200Y-111332857D02*
X209999771Y-111190000D01*
X209999771Y-111190000D02*
X209999771Y-111561429D01*
X203284628Y-122772571D02*
X203313200Y-122743999D01*
X203313200Y-122743999D02*
X203341771Y-122658285D01*
X203341771Y-122658285D02*
X203341771Y-122601142D01*
X203341771Y-122601142D02*
X203313200Y-122515428D01*
X203313200Y-122515428D02*
X203256057Y-122458285D01*
X203256057Y-122458285D02*
X203198914Y-122429714D01*
X203198914Y-122429714D02*
X203084628Y-122401142D01*
X203084628Y-122401142D02*
X202998914Y-122401142D01*
X202998914Y-122401142D02*
X202884628Y-122429714D01*
X202884628Y-122429714D02*
X202827485Y-122458285D01*
X202827485Y-122458285D02*
X202770342Y-122515428D01*
X202770342Y-122515428D02*
X202741771Y-122601142D01*
X202741771Y-122601142D02*
X202741771Y-122658285D01*
X202741771Y-122658285D02*
X202770342Y-122743999D01*
X202770342Y-122743999D02*
X202798914Y-122772571D01*
X202741771Y-122972571D02*
X202741771Y-123343999D01*
X202741771Y-123343999D02*
X202970342Y-123143999D01*
X202970342Y-123143999D02*
X202970342Y-123229714D01*
X202970342Y-123229714D02*
X202998914Y-123286857D01*
X202998914Y-123286857D02*
X203027485Y-123315428D01*
X203027485Y-123315428D02*
X203084628Y-123343999D01*
X203084628Y-123343999D02*
X203227485Y-123343999D01*
X203227485Y-123343999D02*
X203284628Y-123315428D01*
X203284628Y-123315428D02*
X203313200Y-123286857D01*
X203313200Y-123286857D02*
X203341771Y-123229714D01*
X203341771Y-123229714D02*
X203341771Y-123058285D01*
X203341771Y-123058285D02*
X203313200Y-123001142D01*
X203313200Y-123001142D02*
X203284628Y-122972571D01*
X202741771Y-123715428D02*
X202741771Y-123772571D01*
X202741771Y-123772571D02*
X202770342Y-123829714D01*
X202770342Y-123829714D02*
X202798914Y-123858286D01*
X202798914Y-123858286D02*
X202856057Y-123886857D01*
X202856057Y-123886857D02*
X202970342Y-123915428D01*
X202970342Y-123915428D02*
X203113200Y-123915428D01*
X203113200Y-123915428D02*
X203227485Y-123886857D01*
X203227485Y-123886857D02*
X203284628Y-123858286D01*
X203284628Y-123858286D02*
X203313200Y-123829714D01*
X203313200Y-123829714D02*
X203341771Y-123772571D01*
X203341771Y-123772571D02*
X203341771Y-123715428D01*
X203341771Y-123715428D02*
X203313200Y-123658286D01*
X203313200Y-123658286D02*
X203284628Y-123629714D01*
X203284628Y-123629714D02*
X203227485Y-123601143D01*
X203227485Y-123601143D02*
X203113200Y-123572571D01*
X203113200Y-123572571D02*
X202970342Y-123572571D01*
X202970342Y-123572571D02*
X202856057Y-123601143D01*
X202856057Y-123601143D02*
X202798914Y-123629714D01*
X202798914Y-123629714D02*
X202770342Y-123658286D01*
X202770342Y-123658286D02*
X202741771Y-123715428D01*
X202741771Y-124458286D02*
X202741771Y-124172572D01*
X202741771Y-124172572D02*
X203027485Y-124144000D01*
X203027485Y-124144000D02*
X202998914Y-124172572D01*
X202998914Y-124172572D02*
X202970342Y-124229715D01*
X202970342Y-124229715D02*
X202970342Y-124372572D01*
X202970342Y-124372572D02*
X202998914Y-124429715D01*
X202998914Y-124429715D02*
X203027485Y-124458286D01*
X203027485Y-124458286D02*
X203084628Y-124486857D01*
X203084628Y-124486857D02*
X203227485Y-124486857D01*
X203227485Y-124486857D02*
X203284628Y-124458286D01*
X203284628Y-124458286D02*
X203313200Y-124429715D01*
X203313200Y-124429715D02*
X203341771Y-124372572D01*
X203341771Y-124372572D02*
X203341771Y-124229715D01*
X203341771Y-124229715D02*
X203313200Y-124172572D01*
X203313200Y-124172572D02*
X203284628Y-124144000D01*
X210142628Y-118708571D02*
X210171200Y-118679999D01*
X210171200Y-118679999D02*
X210199771Y-118594285D01*
X210199771Y-118594285D02*
X210199771Y-118537142D01*
X210199771Y-118537142D02*
X210171200Y-118451428D01*
X210171200Y-118451428D02*
X210114057Y-118394285D01*
X210114057Y-118394285D02*
X210056914Y-118365714D01*
X210056914Y-118365714D02*
X209942628Y-118337142D01*
X209942628Y-118337142D02*
X209856914Y-118337142D01*
X209856914Y-118337142D02*
X209742628Y-118365714D01*
X209742628Y-118365714D02*
X209685485Y-118394285D01*
X209685485Y-118394285D02*
X209628342Y-118451428D01*
X209628342Y-118451428D02*
X209599771Y-118537142D01*
X209599771Y-118537142D02*
X209599771Y-118594285D01*
X209599771Y-118594285D02*
X209628342Y-118679999D01*
X209628342Y-118679999D02*
X209656914Y-118708571D01*
X209599771Y-118908571D02*
X209599771Y-119279999D01*
X209599771Y-119279999D02*
X209828342Y-119079999D01*
X209828342Y-119079999D02*
X209828342Y-119165714D01*
X209828342Y-119165714D02*
X209856914Y-119222857D01*
X209856914Y-119222857D02*
X209885485Y-119251428D01*
X209885485Y-119251428D02*
X209942628Y-119279999D01*
X209942628Y-119279999D02*
X210085485Y-119279999D01*
X210085485Y-119279999D02*
X210142628Y-119251428D01*
X210142628Y-119251428D02*
X210171200Y-119222857D01*
X210171200Y-119222857D02*
X210199771Y-119165714D01*
X210199771Y-119165714D02*
X210199771Y-118994285D01*
X210199771Y-118994285D02*
X210171200Y-118937142D01*
X210171200Y-118937142D02*
X210142628Y-118908571D01*
X209599771Y-119651428D02*
X209599771Y-119708571D01*
X209599771Y-119708571D02*
X209628342Y-119765714D01*
X209628342Y-119765714D02*
X209656914Y-119794286D01*
X209656914Y-119794286D02*
X209714057Y-119822857D01*
X209714057Y-119822857D02*
X209828342Y-119851428D01*
X209828342Y-119851428D02*
X209971200Y-119851428D01*
X209971200Y-119851428D02*
X210085485Y-119822857D01*
X210085485Y-119822857D02*
X210142628Y-119794286D01*
X210142628Y-119794286D02*
X210171200Y-119765714D01*
X210171200Y-119765714D02*
X210199771Y-119708571D01*
X210199771Y-119708571D02*
X210199771Y-119651428D01*
X210199771Y-119651428D02*
X210171200Y-119594286D01*
X210171200Y-119594286D02*
X210142628Y-119565714D01*
X210142628Y-119565714D02*
X210085485Y-119537143D01*
X210085485Y-119537143D02*
X209971200Y-119508571D01*
X209971200Y-119508571D02*
X209828342Y-119508571D01*
X209828342Y-119508571D02*
X209714057Y-119537143D01*
X209714057Y-119537143D02*
X209656914Y-119565714D01*
X209656914Y-119565714D02*
X209628342Y-119594286D01*
X209628342Y-119594286D02*
X209599771Y-119651428D01*
X209599771Y-120365715D02*
X209599771Y-120251429D01*
X209599771Y-120251429D02*
X209628342Y-120194286D01*
X209628342Y-120194286D02*
X209656914Y-120165715D01*
X209656914Y-120165715D02*
X209742628Y-120108572D01*
X209742628Y-120108572D02*
X209856914Y-120080000D01*
X209856914Y-120080000D02*
X210085485Y-120080000D01*
X210085485Y-120080000D02*
X210142628Y-120108572D01*
X210142628Y-120108572D02*
X210171200Y-120137143D01*
X210171200Y-120137143D02*
X210199771Y-120194286D01*
X210199771Y-120194286D02*
X210199771Y-120308572D01*
X210199771Y-120308572D02*
X210171200Y-120365715D01*
X210171200Y-120365715D02*
X210142628Y-120394286D01*
X210142628Y-120394286D02*
X210085485Y-120422857D01*
X210085485Y-120422857D02*
X209942628Y-120422857D01*
X209942628Y-120422857D02*
X209885485Y-120394286D01*
X209885485Y-120394286D02*
X209856914Y-120365715D01*
X209856914Y-120365715D02*
X209828342Y-120308572D01*
X209828342Y-120308572D02*
X209828342Y-120194286D01*
X209828342Y-120194286D02*
X209856914Y-120137143D01*
X209856914Y-120137143D02*
X209885485Y-120108572D01*
X209885485Y-120108572D02*
X209942628Y-120080000D01*
X192362628Y-98388571D02*
X192391200Y-98359999D01*
X192391200Y-98359999D02*
X192419771Y-98274285D01*
X192419771Y-98274285D02*
X192419771Y-98217142D01*
X192419771Y-98217142D02*
X192391200Y-98131428D01*
X192391200Y-98131428D02*
X192334057Y-98074285D01*
X192334057Y-98074285D02*
X192276914Y-98045714D01*
X192276914Y-98045714D02*
X192162628Y-98017142D01*
X192162628Y-98017142D02*
X192076914Y-98017142D01*
X192076914Y-98017142D02*
X191962628Y-98045714D01*
X191962628Y-98045714D02*
X191905485Y-98074285D01*
X191905485Y-98074285D02*
X191848342Y-98131428D01*
X191848342Y-98131428D02*
X191819771Y-98217142D01*
X191819771Y-98217142D02*
X191819771Y-98274285D01*
X191819771Y-98274285D02*
X191848342Y-98359999D01*
X191848342Y-98359999D02*
X191876914Y-98388571D01*
X191819771Y-98588571D02*
X191819771Y-98959999D01*
X191819771Y-98959999D02*
X192048342Y-98759999D01*
X192048342Y-98759999D02*
X192048342Y-98845714D01*
X192048342Y-98845714D02*
X192076914Y-98902857D01*
X192076914Y-98902857D02*
X192105485Y-98931428D01*
X192105485Y-98931428D02*
X192162628Y-98959999D01*
X192162628Y-98959999D02*
X192305485Y-98959999D01*
X192305485Y-98959999D02*
X192362628Y-98931428D01*
X192362628Y-98931428D02*
X192391200Y-98902857D01*
X192391200Y-98902857D02*
X192419771Y-98845714D01*
X192419771Y-98845714D02*
X192419771Y-98674285D01*
X192419771Y-98674285D02*
X192391200Y-98617142D01*
X192391200Y-98617142D02*
X192362628Y-98588571D01*
X191819771Y-99331428D02*
X191819771Y-99388571D01*
X191819771Y-99388571D02*
X191848342Y-99445714D01*
X191848342Y-99445714D02*
X191876914Y-99474286D01*
X191876914Y-99474286D02*
X191934057Y-99502857D01*
X191934057Y-99502857D02*
X192048342Y-99531428D01*
X192048342Y-99531428D02*
X192191200Y-99531428D01*
X192191200Y-99531428D02*
X192305485Y-99502857D01*
X192305485Y-99502857D02*
X192362628Y-99474286D01*
X192362628Y-99474286D02*
X192391200Y-99445714D01*
X192391200Y-99445714D02*
X192419771Y-99388571D01*
X192419771Y-99388571D02*
X192419771Y-99331428D01*
X192419771Y-99331428D02*
X192391200Y-99274286D01*
X192391200Y-99274286D02*
X192362628Y-99245714D01*
X192362628Y-99245714D02*
X192305485Y-99217143D01*
X192305485Y-99217143D02*
X192191200Y-99188571D01*
X192191200Y-99188571D02*
X192048342Y-99188571D01*
X192048342Y-99188571D02*
X191934057Y-99217143D01*
X191934057Y-99217143D02*
X191876914Y-99245714D01*
X191876914Y-99245714D02*
X191848342Y-99274286D01*
X191848342Y-99274286D02*
X191819771Y-99331428D01*
X191819771Y-99731429D02*
X191819771Y-100131429D01*
X191819771Y-100131429D02*
X192419771Y-99874286D01*
X197571628Y-100166571D02*
X197600200Y-100137999D01*
X197600200Y-100137999D02*
X197628771Y-100052285D01*
X197628771Y-100052285D02*
X197628771Y-99995142D01*
X197628771Y-99995142D02*
X197600200Y-99909428D01*
X197600200Y-99909428D02*
X197543057Y-99852285D01*
X197543057Y-99852285D02*
X197485914Y-99823714D01*
X197485914Y-99823714D02*
X197371628Y-99795142D01*
X197371628Y-99795142D02*
X197285914Y-99795142D01*
X197285914Y-99795142D02*
X197171628Y-99823714D01*
X197171628Y-99823714D02*
X197114485Y-99852285D01*
X197114485Y-99852285D02*
X197057342Y-99909428D01*
X197057342Y-99909428D02*
X197028771Y-99995142D01*
X197028771Y-99995142D02*
X197028771Y-100052285D01*
X197028771Y-100052285D02*
X197057342Y-100137999D01*
X197057342Y-100137999D02*
X197085914Y-100166571D01*
X197028771Y-100366571D02*
X197028771Y-100737999D01*
X197028771Y-100737999D02*
X197257342Y-100537999D01*
X197257342Y-100537999D02*
X197257342Y-100623714D01*
X197257342Y-100623714D02*
X197285914Y-100680857D01*
X197285914Y-100680857D02*
X197314485Y-100709428D01*
X197314485Y-100709428D02*
X197371628Y-100737999D01*
X197371628Y-100737999D02*
X197514485Y-100737999D01*
X197514485Y-100737999D02*
X197571628Y-100709428D01*
X197571628Y-100709428D02*
X197600200Y-100680857D01*
X197600200Y-100680857D02*
X197628771Y-100623714D01*
X197628771Y-100623714D02*
X197628771Y-100452285D01*
X197628771Y-100452285D02*
X197600200Y-100395142D01*
X197600200Y-100395142D02*
X197571628Y-100366571D01*
X197028771Y-101109428D02*
X197028771Y-101166571D01*
X197028771Y-101166571D02*
X197057342Y-101223714D01*
X197057342Y-101223714D02*
X197085914Y-101252286D01*
X197085914Y-101252286D02*
X197143057Y-101280857D01*
X197143057Y-101280857D02*
X197257342Y-101309428D01*
X197257342Y-101309428D02*
X197400200Y-101309428D01*
X197400200Y-101309428D02*
X197514485Y-101280857D01*
X197514485Y-101280857D02*
X197571628Y-101252286D01*
X197571628Y-101252286D02*
X197600200Y-101223714D01*
X197600200Y-101223714D02*
X197628771Y-101166571D01*
X197628771Y-101166571D02*
X197628771Y-101109428D01*
X197628771Y-101109428D02*
X197600200Y-101052286D01*
X197600200Y-101052286D02*
X197571628Y-101023714D01*
X197571628Y-101023714D02*
X197514485Y-100995143D01*
X197514485Y-100995143D02*
X197400200Y-100966571D01*
X197400200Y-100966571D02*
X197257342Y-100966571D01*
X197257342Y-100966571D02*
X197143057Y-100995143D01*
X197143057Y-100995143D02*
X197085914Y-101023714D01*
X197085914Y-101023714D02*
X197057342Y-101052286D01*
X197057342Y-101052286D02*
X197028771Y-101109428D01*
X197285914Y-101652286D02*
X197257342Y-101595143D01*
X197257342Y-101595143D02*
X197228771Y-101566572D01*
X197228771Y-101566572D02*
X197171628Y-101538000D01*
X197171628Y-101538000D02*
X197143057Y-101538000D01*
X197143057Y-101538000D02*
X197085914Y-101566572D01*
X197085914Y-101566572D02*
X197057342Y-101595143D01*
X197057342Y-101595143D02*
X197028771Y-101652286D01*
X197028771Y-101652286D02*
X197028771Y-101766572D01*
X197028771Y-101766572D02*
X197057342Y-101823715D01*
X197057342Y-101823715D02*
X197085914Y-101852286D01*
X197085914Y-101852286D02*
X197143057Y-101880857D01*
X197143057Y-101880857D02*
X197171628Y-101880857D01*
X197171628Y-101880857D02*
X197228771Y-101852286D01*
X197228771Y-101852286D02*
X197257342Y-101823715D01*
X197257342Y-101823715D02*
X197285914Y-101766572D01*
X197285914Y-101766572D02*
X197285914Y-101652286D01*
X197285914Y-101652286D02*
X197314485Y-101595143D01*
X197314485Y-101595143D02*
X197343057Y-101566572D01*
X197343057Y-101566572D02*
X197400200Y-101538000D01*
X197400200Y-101538000D02*
X197514485Y-101538000D01*
X197514485Y-101538000D02*
X197571628Y-101566572D01*
X197571628Y-101566572D02*
X197600200Y-101595143D01*
X197600200Y-101595143D02*
X197628771Y-101652286D01*
X197628771Y-101652286D02*
X197628771Y-101766572D01*
X197628771Y-101766572D02*
X197600200Y-101823715D01*
X197600200Y-101823715D02*
X197571628Y-101852286D01*
X197571628Y-101852286D02*
X197514485Y-101880857D01*
X197514485Y-101880857D02*
X197400200Y-101880857D01*
X197400200Y-101880857D02*
X197343057Y-101852286D01*
X197343057Y-101852286D02*
X197314485Y-101823715D01*
X197314485Y-101823715D02*
X197285914Y-101766572D01*
X207221628Y-122772571D02*
X207250200Y-122743999D01*
X207250200Y-122743999D02*
X207278771Y-122658285D01*
X207278771Y-122658285D02*
X207278771Y-122601142D01*
X207278771Y-122601142D02*
X207250200Y-122515428D01*
X207250200Y-122515428D02*
X207193057Y-122458285D01*
X207193057Y-122458285D02*
X207135914Y-122429714D01*
X207135914Y-122429714D02*
X207021628Y-122401142D01*
X207021628Y-122401142D02*
X206935914Y-122401142D01*
X206935914Y-122401142D02*
X206821628Y-122429714D01*
X206821628Y-122429714D02*
X206764485Y-122458285D01*
X206764485Y-122458285D02*
X206707342Y-122515428D01*
X206707342Y-122515428D02*
X206678771Y-122601142D01*
X206678771Y-122601142D02*
X206678771Y-122658285D01*
X206678771Y-122658285D02*
X206707342Y-122743999D01*
X206707342Y-122743999D02*
X206735914Y-122772571D01*
X206678771Y-122972571D02*
X206678771Y-123343999D01*
X206678771Y-123343999D02*
X206907342Y-123143999D01*
X206907342Y-123143999D02*
X206907342Y-123229714D01*
X206907342Y-123229714D02*
X206935914Y-123286857D01*
X206935914Y-123286857D02*
X206964485Y-123315428D01*
X206964485Y-123315428D02*
X207021628Y-123343999D01*
X207021628Y-123343999D02*
X207164485Y-123343999D01*
X207164485Y-123343999D02*
X207221628Y-123315428D01*
X207221628Y-123315428D02*
X207250200Y-123286857D01*
X207250200Y-123286857D02*
X207278771Y-123229714D01*
X207278771Y-123229714D02*
X207278771Y-123058285D01*
X207278771Y-123058285D02*
X207250200Y-123001142D01*
X207250200Y-123001142D02*
X207221628Y-122972571D01*
X206678771Y-123715428D02*
X206678771Y-123772571D01*
X206678771Y-123772571D02*
X206707342Y-123829714D01*
X206707342Y-123829714D02*
X206735914Y-123858286D01*
X206735914Y-123858286D02*
X206793057Y-123886857D01*
X206793057Y-123886857D02*
X206907342Y-123915428D01*
X206907342Y-123915428D02*
X207050200Y-123915428D01*
X207050200Y-123915428D02*
X207164485Y-123886857D01*
X207164485Y-123886857D02*
X207221628Y-123858286D01*
X207221628Y-123858286D02*
X207250200Y-123829714D01*
X207250200Y-123829714D02*
X207278771Y-123772571D01*
X207278771Y-123772571D02*
X207278771Y-123715428D01*
X207278771Y-123715428D02*
X207250200Y-123658286D01*
X207250200Y-123658286D02*
X207221628Y-123629714D01*
X207221628Y-123629714D02*
X207164485Y-123601143D01*
X207164485Y-123601143D02*
X207050200Y-123572571D01*
X207050200Y-123572571D02*
X206907342Y-123572571D01*
X206907342Y-123572571D02*
X206793057Y-123601143D01*
X206793057Y-123601143D02*
X206735914Y-123629714D01*
X206735914Y-123629714D02*
X206707342Y-123658286D01*
X206707342Y-123658286D02*
X206678771Y-123715428D01*
X207278771Y-124201143D02*
X207278771Y-124315429D01*
X207278771Y-124315429D02*
X207250200Y-124372572D01*
X207250200Y-124372572D02*
X207221628Y-124401143D01*
X207221628Y-124401143D02*
X207135914Y-124458286D01*
X207135914Y-124458286D02*
X207021628Y-124486857D01*
X207021628Y-124486857D02*
X206793057Y-124486857D01*
X206793057Y-124486857D02*
X206735914Y-124458286D01*
X206735914Y-124458286D02*
X206707342Y-124429715D01*
X206707342Y-124429715D02*
X206678771Y-124372572D01*
X206678771Y-124372572D02*
X206678771Y-124258286D01*
X206678771Y-124258286D02*
X206707342Y-124201143D01*
X206707342Y-124201143D02*
X206735914Y-124172572D01*
X206735914Y-124172572D02*
X206793057Y-124144000D01*
X206793057Y-124144000D02*
X206935914Y-124144000D01*
X206935914Y-124144000D02*
X206993057Y-124172572D01*
X206993057Y-124172572D02*
X207021628Y-124201143D01*
X207021628Y-124201143D02*
X207050200Y-124258286D01*
X207050200Y-124258286D02*
X207050200Y-124372572D01*
X207050200Y-124372572D02*
X207021628Y-124429715D01*
X207021628Y-124429715D02*
X206993057Y-124458286D01*
X206993057Y-124458286D02*
X206935914Y-124486857D01*
X199347628Y-122772571D02*
X199376200Y-122743999D01*
X199376200Y-122743999D02*
X199404771Y-122658285D01*
X199404771Y-122658285D02*
X199404771Y-122601142D01*
X199404771Y-122601142D02*
X199376200Y-122515428D01*
X199376200Y-122515428D02*
X199319057Y-122458285D01*
X199319057Y-122458285D02*
X199261914Y-122429714D01*
X199261914Y-122429714D02*
X199147628Y-122401142D01*
X199147628Y-122401142D02*
X199061914Y-122401142D01*
X199061914Y-122401142D02*
X198947628Y-122429714D01*
X198947628Y-122429714D02*
X198890485Y-122458285D01*
X198890485Y-122458285D02*
X198833342Y-122515428D01*
X198833342Y-122515428D02*
X198804771Y-122601142D01*
X198804771Y-122601142D02*
X198804771Y-122658285D01*
X198804771Y-122658285D02*
X198833342Y-122743999D01*
X198833342Y-122743999D02*
X198861914Y-122772571D01*
X198804771Y-122972571D02*
X198804771Y-123343999D01*
X198804771Y-123343999D02*
X199033342Y-123143999D01*
X199033342Y-123143999D02*
X199033342Y-123229714D01*
X199033342Y-123229714D02*
X199061914Y-123286857D01*
X199061914Y-123286857D02*
X199090485Y-123315428D01*
X199090485Y-123315428D02*
X199147628Y-123343999D01*
X199147628Y-123343999D02*
X199290485Y-123343999D01*
X199290485Y-123343999D02*
X199347628Y-123315428D01*
X199347628Y-123315428D02*
X199376200Y-123286857D01*
X199376200Y-123286857D02*
X199404771Y-123229714D01*
X199404771Y-123229714D02*
X199404771Y-123058285D01*
X199404771Y-123058285D02*
X199376200Y-123001142D01*
X199376200Y-123001142D02*
X199347628Y-122972571D01*
X199404771Y-123915428D02*
X199404771Y-123572571D01*
X199404771Y-123744000D02*
X198804771Y-123744000D01*
X198804771Y-123744000D02*
X198890485Y-123686857D01*
X198890485Y-123686857D02*
X198947628Y-123629714D01*
X198947628Y-123629714D02*
X198976200Y-123572571D01*
X198804771Y-124286857D02*
X198804771Y-124344000D01*
X198804771Y-124344000D02*
X198833342Y-124401143D01*
X198833342Y-124401143D02*
X198861914Y-124429715D01*
X198861914Y-124429715D02*
X198919057Y-124458286D01*
X198919057Y-124458286D02*
X199033342Y-124486857D01*
X199033342Y-124486857D02*
X199176200Y-124486857D01*
X199176200Y-124486857D02*
X199290485Y-124458286D01*
X199290485Y-124458286D02*
X199347628Y-124429715D01*
X199347628Y-124429715D02*
X199376200Y-124401143D01*
X199376200Y-124401143D02*
X199404771Y-124344000D01*
X199404771Y-124344000D02*
X199404771Y-124286857D01*
X199404771Y-124286857D02*
X199376200Y-124229715D01*
X199376200Y-124229715D02*
X199347628Y-124201143D01*
X199347628Y-124201143D02*
X199290485Y-124172572D01*
X199290485Y-124172572D02*
X199176200Y-124144000D01*
X199176200Y-124144000D02*
X199033342Y-124144000D01*
X199033342Y-124144000D02*
X198919057Y-124172572D01*
X198919057Y-124172572D02*
X198861914Y-124201143D01*
X198861914Y-124201143D02*
X198833342Y-124229715D01*
X198833342Y-124229715D02*
X198804771Y-124286857D01*
X191679428Y-117051628D02*
X191708000Y-117080200D01*
X191708000Y-117080200D02*
X191793714Y-117108771D01*
X191793714Y-117108771D02*
X191850857Y-117108771D01*
X191850857Y-117108771D02*
X191936571Y-117080200D01*
X191936571Y-117080200D02*
X191993714Y-117023057D01*
X191993714Y-117023057D02*
X192022285Y-116965914D01*
X192022285Y-116965914D02*
X192050857Y-116851628D01*
X192050857Y-116851628D02*
X192050857Y-116765914D01*
X192050857Y-116765914D02*
X192022285Y-116651628D01*
X192022285Y-116651628D02*
X191993714Y-116594485D01*
X191993714Y-116594485D02*
X191936571Y-116537342D01*
X191936571Y-116537342D02*
X191850857Y-116508771D01*
X191850857Y-116508771D02*
X191793714Y-116508771D01*
X191793714Y-116508771D02*
X191708000Y-116537342D01*
X191708000Y-116537342D02*
X191679428Y-116565914D01*
X191479428Y-116508771D02*
X191108000Y-116508771D01*
X191108000Y-116508771D02*
X191308000Y-116737342D01*
X191308000Y-116737342D02*
X191222285Y-116737342D01*
X191222285Y-116737342D02*
X191165143Y-116765914D01*
X191165143Y-116765914D02*
X191136571Y-116794485D01*
X191136571Y-116794485D02*
X191108000Y-116851628D01*
X191108000Y-116851628D02*
X191108000Y-116994485D01*
X191108000Y-116994485D02*
X191136571Y-117051628D01*
X191136571Y-117051628D02*
X191165143Y-117080200D01*
X191165143Y-117080200D02*
X191222285Y-117108771D01*
X191222285Y-117108771D02*
X191393714Y-117108771D01*
X191393714Y-117108771D02*
X191450857Y-117080200D01*
X191450857Y-117080200D02*
X191479428Y-117051628D01*
X190536571Y-117108771D02*
X190879428Y-117108771D01*
X190707999Y-117108771D02*
X190707999Y-116508771D01*
X190707999Y-116508771D02*
X190765142Y-116594485D01*
X190765142Y-116594485D02*
X190822285Y-116651628D01*
X190822285Y-116651628D02*
X190879428Y-116680200D01*
X189965142Y-117108771D02*
X190307999Y-117108771D01*
X190136570Y-117108771D02*
X190136570Y-116508771D01*
X190136570Y-116508771D02*
X190193713Y-116594485D01*
X190193713Y-116594485D02*
X190250856Y-116651628D01*
X190250856Y-116651628D02*
X190307999Y-116680200D01*
D11*
%TO.C,C112*%
X129659748Y-90705000D02*
X130182252Y-90705000D01*
X129659748Y-92175000D02*
X130182252Y-92175000D01*
%TO.C,C117*%
X144553000Y-104513748D02*
X144553000Y-105036252D01*
X146023000Y-104513748D02*
X146023000Y-105036252D01*
%TO.C,C118*%
X144680000Y-99575252D02*
X144680000Y-99052748D01*
X146150000Y-99575252D02*
X146150000Y-99052748D01*
%TO.C,C301*%
X208561000Y-100576748D02*
X208561000Y-101099252D01*
X210031000Y-100576748D02*
X210031000Y-101099252D01*
%TO.C,C302*%
X190746748Y-106580000D02*
X191269252Y-106580000D01*
X190746748Y-108050000D02*
X191269252Y-108050000D01*
%TO.C,C303*%
X202719000Y-100576748D02*
X202719000Y-101099252D01*
X204189000Y-100576748D02*
X204189000Y-101099252D01*
%TO.C,C304*%
X207545000Y-110751252D02*
X207545000Y-110228748D01*
X209015000Y-110751252D02*
X209015000Y-110228748D01*
%TO.C,C305*%
X200687000Y-123705252D02*
X200687000Y-123182748D01*
X202157000Y-123705252D02*
X202157000Y-123182748D01*
%TO.C,C306*%
X207545000Y-119641252D02*
X207545000Y-119118748D01*
X209015000Y-119641252D02*
X209015000Y-119118748D01*
%TO.C,C307*%
X189765000Y-99321252D02*
X189765000Y-98798748D01*
X191235000Y-99321252D02*
X191235000Y-98798748D01*
%TO.C,C308*%
X198274000Y-100576748D02*
X198274000Y-101099252D01*
X199744000Y-100576748D02*
X199744000Y-101099252D01*
%TO.C,C309*%
X204624000Y-123705252D02*
X204624000Y-123182748D01*
X206094000Y-123705252D02*
X206094000Y-123182748D01*
%TO.C,C310*%
X196750000Y-123705252D02*
X196750000Y-123182748D01*
X198220000Y-123705252D02*
X198220000Y-123182748D01*
%TO.C,C311*%
X190746748Y-114454000D02*
X191269252Y-114454000D01*
X190746748Y-115924000D02*
X191269252Y-115924000D01*
%TD*%
%LPC*%
D12*
%TO.C,ABRT_SW101*%
X168529000Y-97790000D03*
X176149000Y-97790000D03*
X168529000Y-102870000D03*
X176149000Y-102870000D03*
%TD*%
D13*
%TO.C,ALLPST101*%
X152019000Y-102489000D03*
%TD*%
%TO.C,BDM_PORT101*%
X76327000Y-106299000D03*
D14*
X78867000Y-106299000D03*
X76327000Y-108839000D03*
X78867000Y-108839000D03*
X76327000Y-111379000D03*
X78867000Y-111379000D03*
X76327000Y-113919000D03*
X78867000Y-113919000D03*
X76327000Y-116459000D03*
X78867000Y-116459000D03*
X76327000Y-118999000D03*
X78867000Y-118999000D03*
X76327000Y-121539000D03*
X78867000Y-121539000D03*
X76327000Y-124079000D03*
X78867000Y-124079000D03*
X76327000Y-126619000D03*
X78867000Y-126619000D03*
X76327000Y-129159000D03*
X78867000Y-129159000D03*
X76327000Y-131699000D03*
X78867000Y-131699000D03*
X76327000Y-134239000D03*
X78867000Y-134239000D03*
X76327000Y-136779000D03*
X78867000Y-136779000D03*
%TD*%
D15*
%TO.C,C212*%
X88900000Y-87630000D03*
D16*
X88900000Y-82630000D03*
%TD*%
D15*
%TO.C,C215*%
X88900000Y-100330000D03*
D16*
X88900000Y-95330000D03*
%TD*%
D13*
%TO.C,CAN_TERM201*%
X96647000Y-95758000D03*
D14*
X96647000Y-93218000D03*
%TD*%
D13*
%TO.C,CLKOUT101*%
X83439000Y-134239000D03*
%TD*%
%TO.C,COM_SEL203*%
X114500000Y-78613000D03*
D14*
X114500000Y-76073000D03*
X114500000Y-73533000D03*
%TD*%
D13*
%TO.C,COM_SEL202*%
X110744000Y-78613000D03*
D14*
X110744000Y-76073000D03*
X110744000Y-73533000D03*
%TD*%
D13*
%TO.C,CT101*%
X91440000Y-134620000D03*
D14*
X88900000Y-134620000D03*
%TD*%
D17*
%TO.C,D201*%
X95000000Y-77000000D03*
D18*
X82300000Y-77000000D03*
%TD*%
D13*
%TO.C,GND101*%
X89535000Y-140970000D03*
%TD*%
D19*
%TO.C,J201*%
X104400000Y-67900000D03*
D20*
X104500000Y-60000000D03*
D21*
X98300000Y-63100000D03*
%TD*%
D22*
%TO.C,LV101*%
X186690000Y-89408000D03*
D23*
X187960000Y-88138000D03*
X189230000Y-89408000D03*
%TD*%
D13*
%TO.C,MCU_PORT201*%
X184404000Y-136906000D03*
D14*
X184404000Y-139446000D03*
X181864000Y-136906000D03*
X181864000Y-139446000D03*
X179324000Y-136906000D03*
X179324000Y-139446000D03*
X176784000Y-136906000D03*
X176784000Y-139446000D03*
X174244000Y-136906000D03*
X174244000Y-139446000D03*
X171704000Y-136906000D03*
X171704000Y-139446000D03*
X169164000Y-136906000D03*
X169164000Y-139446000D03*
X166624000Y-136906000D03*
X166624000Y-139446000D03*
X164084000Y-136906000D03*
X164084000Y-139446000D03*
X161544000Y-136906000D03*
X161544000Y-139446000D03*
X159004000Y-136906000D03*
X159004000Y-139446000D03*
X156464000Y-136906000D03*
X156464000Y-139446000D03*
X153924000Y-136906000D03*
X153924000Y-139446000D03*
X151384000Y-136906000D03*
X151384000Y-139446000D03*
X148844000Y-136906000D03*
X148844000Y-139446000D03*
X146304000Y-136906000D03*
X146304000Y-139446000D03*
X143764000Y-136906000D03*
X143764000Y-139446000D03*
X141224000Y-136906000D03*
X141224000Y-139446000D03*
X138684000Y-136906000D03*
X138684000Y-139446000D03*
X136144000Y-136906000D03*
X136144000Y-139446000D03*
X133604000Y-136906000D03*
X133604000Y-139446000D03*
X131064000Y-136906000D03*
X131064000Y-139446000D03*
X128524000Y-136906000D03*
X128524000Y-139446000D03*
X125984000Y-136906000D03*
X125984000Y-139446000D03*
X123444000Y-136906000D03*
X123444000Y-139446000D03*
X120904000Y-136906000D03*
X120904000Y-139446000D03*
X118364000Y-136906000D03*
X118364000Y-139446000D03*
X115824000Y-136906000D03*
X115824000Y-139446000D03*
X113284000Y-136906000D03*
X113284000Y-139446000D03*
X110744000Y-136906000D03*
X110744000Y-139446000D03*
%TD*%
D13*
%TO.C,P301*%
X223520000Y-63500000D03*
D14*
X223520000Y-66040000D03*
X223520000Y-68580000D03*
X223520000Y-71120000D03*
X223520000Y-73660000D03*
X223520000Y-76200000D03*
%TD*%
D13*
%TO.C,P303*%
X222250000Y-88900000D03*
D14*
X224790000Y-88900000D03*
X222250000Y-91440000D03*
X224790000Y-91440000D03*
X222250000Y-93980000D03*
X224790000Y-93980000D03*
X222250000Y-96520000D03*
X224790000Y-96520000D03*
X222250000Y-99060000D03*
X224790000Y-99060000D03*
X222250000Y-101600000D03*
X224790000Y-101600000D03*
X222250000Y-104140000D03*
X224790000Y-104140000D03*
X222250000Y-106680000D03*
X224790000Y-106680000D03*
X222250000Y-109220000D03*
X224790000Y-109220000D03*
X222250000Y-111760000D03*
X224790000Y-111760000D03*
X222250000Y-114300000D03*
X224790000Y-114300000D03*
X222250000Y-116840000D03*
X224790000Y-116840000D03*
X222250000Y-119380000D03*
X224790000Y-119380000D03*
X222250000Y-121920000D03*
X224790000Y-121920000D03*
X222250000Y-124460000D03*
X224790000Y-124460000D03*
X222250000Y-127000000D03*
X224790000Y-127000000D03*
X222250000Y-129540000D03*
X224790000Y-129540000D03*
X222250000Y-132080000D03*
X224790000Y-132080000D03*
X222250000Y-134620000D03*
X224790000Y-134620000D03*
X222250000Y-137160000D03*
X224790000Y-137160000D03*
%TD*%
D13*
%TO.C,PULUPEN201*%
X165227000Y-117983000D03*
D14*
X165227000Y-120523000D03*
X162687000Y-117983000D03*
X162687000Y-120523000D03*
X160147000Y-117983000D03*
X160147000Y-120523000D03*
X157607000Y-117983000D03*
X157607000Y-120523000D03*
%TD*%
D16*
%TO.C,R302*%
X207010000Y-134620000D03*
D24*
X217170000Y-134620000D03*
%TD*%
D13*
%TO.C,RS201*%
X100457000Y-95758000D03*
%TD*%
D12*
%TO.C,RST_SW101*%
X176149000Y-92329000D03*
X168529000Y-92329000D03*
X176149000Y-87249000D03*
X168529000Y-87249000D03*
%TD*%
%TO.C,SW201*%
X168529000Y-108077000D03*
X176149000Y-108077000D03*
X168529000Y-113157000D03*
X176149000Y-113157000D03*
%TD*%
%TO.C,SW202*%
X168656000Y-119761000D03*
X176276000Y-119761000D03*
X168656000Y-124841000D03*
X176276000Y-124841000D03*
%TD*%
D25*
%TO.C,SW_ONOFF201*%
X84420000Y-71374000D03*
X89500000Y-71374000D03*
X94580000Y-71374000D03*
%TD*%
D13*
%TO.C,TA-101*%
X83439000Y-138557000D03*
%TD*%
D26*
%TO.C,TB201*%
X76000000Y-65500000D03*
D27*
X76000000Y-70500000D03*
%TD*%
D13*
%TO.C,UART_EN201*%
X197485000Y-74549000D03*
D14*
X200025000Y-74549000D03*
X197485000Y-77089000D03*
X200025000Y-77089000D03*
X197485000Y-79629000D03*
X200025000Y-79629000D03*
X197485000Y-82169000D03*
X200025000Y-82169000D03*
%TD*%
D13*
%TO.C,UART_EN202*%
X169545000Y-74549000D03*
D14*
X172085000Y-74549000D03*
X169545000Y-77089000D03*
X172085000Y-77089000D03*
X169545000Y-79629000D03*
X172085000Y-79629000D03*
X169545000Y-82169000D03*
X172085000Y-82169000D03*
%TD*%
D13*
%TO.C,UART_EN203*%
X135763000Y-74549000D03*
D14*
X138303000Y-74549000D03*
X135763000Y-77089000D03*
X138303000Y-77089000D03*
X135763000Y-79629000D03*
X138303000Y-79629000D03*
X135763000Y-82169000D03*
X138303000Y-82169000D03*
%TD*%
D13*
%TO.C,VDDA101*%
X112014000Y-108458000D03*
D14*
X114554000Y-108458000D03*
%TD*%
D28*
%TO.C,Y101*%
X123444000Y-120777000D03*
X123444000Y-125677000D03*
%TD*%
D13*
%TO.C,CAN_EN201*%
X112522000Y-86233000D03*
D14*
X115062000Y-86233000D03*
X112522000Y-88773000D03*
X115062000Y-88773000D03*
%TD*%
D13*
%TO.C,VX_EN201*%
X181864000Y-130302000D03*
D14*
X184404000Y-130302000D03*
%TD*%
D13*
%TO.C,JP101*%
X112522000Y-93345000D03*
D14*
X115062000Y-93345000D03*
X112522000Y-95885000D03*
X115062000Y-95885000D03*
X112522000Y-98425000D03*
X115062000Y-98425000D03*
%TD*%
D13*
%TO.C,P302*%
X197500000Y-87000000D03*
D14*
X200040000Y-87000000D03*
X197500000Y-89540000D03*
X200040000Y-89540000D03*
%TD*%
D13*
%TO.C,COM_SEL201*%
X107000000Y-78613000D03*
D14*
X107000000Y-76073000D03*
X107000000Y-73533000D03*
%TD*%
D13*
%TO.C,JP201*%
X90500000Y-113000000D03*
D14*
X93040000Y-113000000D03*
%TD*%
D29*
%TO.C,UARTCAN201*%
X210540000Y-65080000D03*
X185540000Y-65080000D03*
D15*
X192500000Y-66500000D03*
D16*
X195270000Y-66500000D03*
X198040000Y-66500000D03*
X200810000Y-66500000D03*
X203580000Y-66500000D03*
X193885000Y-63660000D03*
X196655000Y-63660000D03*
X199425000Y-63660000D03*
X202195000Y-63660000D03*
%TD*%
D29*
%TO.C,UARTCAN202*%
X174540000Y-65080000D03*
X149540000Y-65080000D03*
D15*
X156500000Y-66500000D03*
D16*
X159270000Y-66500000D03*
X162040000Y-66500000D03*
X164810000Y-66500000D03*
X167580000Y-66500000D03*
X157885000Y-63660000D03*
X160655000Y-63660000D03*
X163425000Y-63660000D03*
X166195000Y-63660000D03*
%TD*%
D29*
%TO.C,UARTCAN203*%
X139540000Y-65080000D03*
X114540000Y-65080000D03*
D15*
X121500000Y-66500000D03*
D16*
X124270000Y-66500000D03*
X127040000Y-66500000D03*
X129810000Y-66500000D03*
X132580000Y-66500000D03*
X122885000Y-63660000D03*
X125655000Y-63660000D03*
X128425000Y-63660000D03*
X131195000Y-63660000D03*
%TD*%
D13*
%TO.C,VREF201*%
X95000000Y-86500000D03*
%TD*%
D30*
%TO.C,C112*%
X130871000Y-91440000D03*
X128971000Y-91440000D03*
%TD*%
D31*
%TO.C,C117*%
X145288000Y-105725000D03*
X145288000Y-103825000D03*
%TD*%
D32*
%TO.C,C118*%
X145415000Y-98364000D03*
X145415000Y-100264000D03*
%TD*%
D31*
%TO.C,C301*%
X209296000Y-101788000D03*
X209296000Y-99888000D03*
%TD*%
D30*
%TO.C,C302*%
X191958000Y-107315000D03*
X190058000Y-107315000D03*
%TD*%
D31*
%TO.C,C303*%
X203454000Y-101788000D03*
X203454000Y-99888000D03*
%TD*%
D32*
%TO.C,C304*%
X208280000Y-109540000D03*
X208280000Y-111440000D03*
%TD*%
%TO.C,C305*%
X201422000Y-122494000D03*
X201422000Y-124394000D03*
%TD*%
%TO.C,C306*%
X208280000Y-118430000D03*
X208280000Y-120330000D03*
%TD*%
%TO.C,C307*%
X190500000Y-98110000D03*
X190500000Y-100010000D03*
%TD*%
D31*
%TO.C,C308*%
X199009000Y-101788000D03*
X199009000Y-99888000D03*
%TD*%
D32*
%TO.C,C309*%
X205359000Y-122494000D03*
X205359000Y-124394000D03*
%TD*%
%TO.C,C310*%
X197485000Y-122494000D03*
X197485000Y-124394000D03*
%TD*%
D30*
%TO.C,C311*%
X191958000Y-115189000D03*
X190058000Y-115189000D03*
%TD*%
%LPD*%
D33*
X71120000Y-147320000D02*
X228600000Y-147320000D01*
X71120000Y-55880000D02*
X71120000Y-147320000D01*
X228600000Y-55880000D02*
X228600000Y-147320000D01*
X228600000Y-55880000D02*
X71120000Y-55880000D01*
M02*
