%TF.GenerationSoftware,KiCad,Pcbnew,8.99.0-344-gfbc433deaa-dirty*%
%TF.CreationDate,2024-03-11T18:46:53+01:00*%
%TF.ProjectId,kit-dev-coldfire-xilinx_5213,6b69742d-6465-4762-9d63-6f6c64666972,2*%
%TF.SameCoordinates,Original*%
%TF.FileFunction,Component,L1,Top*%
%TF.FilePolarity,Positive*%
%FSLAX46Y46*%
G04 Gerber Fmt 4.6, Leading zero omitted, Abs format (unit mm)*
G04 Created by KiCad (PCBNEW 8.99.0-344-gfbc433deaa-dirty) date 2024-03-11 18:46:53*
%MOMM*%
%LPD*%
G01*
G04 APERTURE LIST*
%TA.AperFunction,ComponentMain*%
%ADD10C,0.300000*%
%TD*%
%TA.AperFunction,ComponentOutline,Courtyard*%
%ADD11C,0.100000*%
%TD*%
%TA.AperFunction,ComponentPin*%
%ADD12P,0.360000X4X0.000000*%
%TD*%
%TA.AperFunction,ComponentPin*%
%ADD13C,0.100000*%
%TD*%
%TA.AperFunction,Profile*%
%ADD14C,0.381000*%
%TD*%
G04 APERTURE END LIST*
D10*
%TO.C,ABRT_SW101*%
%TO.CFtp,SW_PUSH_SMALL*%
%TO.CVal,SW_PUSH*%
%TO.CLbN,kit-dev-coldfire*%
%TO.CMnt,TH*%
%TO.CRot,0*%
X172339000Y-100330000D03*
D11*
X176838999Y-96330001D02*
X176838999Y-104329999D01*
X167839001Y-104329999D01*
X167839001Y-96330001D01*
X176838999Y-96330001D01*
D12*
%TO.P,ABRT_SW101,1,1*%
X168529000Y-97790000D03*
X176149000Y-97790000D03*
D13*
%TO.P,ABRT_SW101,2,2*%
X168529000Y-102870000D03*
X176149000Y-102870000D03*
%TD*%
D10*
%TO.C,ALLPST101*%
%TO.CFtp,PinHeader_1x01_P2.54mm_Vertical*%
%TO.CVal,CONN_1*%
%TO.CLbN,Connector_PinHeader_2.54mm*%
%TO.CMnt,TH*%
%TO.CRot,-90*%
X152019000Y-102489000D03*
D11*
X153818999Y-100689001D02*
X153818999Y-104288999D01*
X150219001Y-104288999D01*
X150219001Y-100689001D01*
X153818999Y-100689001D01*
D12*
%TO.P,ALLPST101,1,1*%
X152019000Y-102489000D03*
%TD*%
D10*
%TO.C,BDM_PORT101*%
%TO.CFtp,PinHeader_2x13_P2.54mm_Vertical*%
%TO.CVal,CONN_13X2*%
%TO.CLbN,Connector_PinHeader_2.54mm*%
%TO.CMnt,TH*%
%TO.CRot,0*%
X76327000Y-106299000D03*
D11*
X80676999Y-104499001D02*
X80676999Y-138548999D01*
X74527001Y-138548999D01*
X74527001Y-104499001D01*
X80676999Y-104499001D01*
D12*
%TO.P,BDM_PORT101,1,P1*%
X76327000Y-106299000D03*
D13*
%TO.P,BDM_PORT101,2,P2*%
X78867000Y-106299000D03*
%TO.P,BDM_PORT101,3,P3*%
X76327000Y-108839000D03*
%TO.P,BDM_PORT101,4,P4*%
X78867000Y-108839000D03*
%TO.P,BDM_PORT101,5,P5*%
X76327000Y-111379000D03*
%TO.P,BDM_PORT101,6,P6*%
X78867000Y-111379000D03*
%TO.P,BDM_PORT101,7,P7*%
X76327000Y-113919000D03*
%TO.P,BDM_PORT101,8,P8*%
X78867000Y-113919000D03*
%TO.P,BDM_PORT101,9,P9*%
X76327000Y-116459000D03*
%TO.P,BDM_PORT101,10,P10*%
X78867000Y-116459000D03*
%TO.P,BDM_PORT101,11,P11*%
X76327000Y-118999000D03*
%TO.P,BDM_PORT101,12,P12*%
X78867000Y-118999000D03*
%TO.P,BDM_PORT101,13,P13*%
X76327000Y-121539000D03*
%TO.P,BDM_PORT101,14,P14*%
X78867000Y-121539000D03*
%TO.P,BDM_PORT101,15,P15*%
X76327000Y-124079000D03*
%TO.P,BDM_PORT101,16,P16*%
X78867000Y-124079000D03*
%TO.P,BDM_PORT101,17,P17*%
X76327000Y-126619000D03*
%TO.P,BDM_PORT101,18,P18*%
X78867000Y-126619000D03*
%TO.P,BDM_PORT101,19,P19*%
X76327000Y-129159000D03*
%TO.P,BDM_PORT101,20,P20*%
X78867000Y-129159000D03*
%TO.P,BDM_PORT101,21,P21*%
X76327000Y-131699000D03*
%TO.P,BDM_PORT101,22,P22*%
X78867000Y-131699000D03*
%TO.P,BDM_PORT101,23,P23*%
X76327000Y-134239000D03*
%TO.P,BDM_PORT101,24,P20*%
X78867000Y-134239000D03*
%TO.P,BDM_PORT101,25,P24*%
X76327000Y-136779000D03*
%TO.P,BDM_PORT101,26,P22*%
X78867000Y-136779000D03*
%TD*%
D10*
%TO.C,C107*%
%TO.CFtp,C_0805_2012Metric*%
%TO.CVal,10pF*%
%TO.CLbN,Capacitor_SMD*%
%TO.CMnt,SMD*%
%TO.CRot,-90*%
X136652000Y-117729000D03*
D11*
X137631999Y-116029001D02*
X137631999Y-119428999D01*
X135672001Y-119428999D01*
X135672001Y-116029001D01*
X137631999Y-116029001D01*
D12*
%TO.P,C107,1*%
X136652000Y-116779000D03*
D13*
%TO.P,C107,2*%
X136652000Y-118679000D03*
%TD*%
D10*
%TO.C,C106*%
%TO.CFtp,C_0805_2012Metric*%
%TO.CVal,10pF*%
%TO.CLbN,Capacitor_SMD*%
%TO.CMnt,SMD*%
%TO.CRot,90*%
X136652000Y-123063000D03*
D11*
X137631999Y-121363001D02*
X137631999Y-124762999D01*
X135672001Y-124762999D01*
X135672001Y-121363001D01*
X137631999Y-121363001D01*
D12*
%TO.P,C106,1*%
X136652000Y-124013000D03*
D13*
%TO.P,C106,2*%
X136652000Y-122113000D03*
%TD*%
D10*
%TO.C,C105*%
%TO.CFtp,C_0805_2012Metric*%
%TO.CVal,1nF*%
%TO.CLbN,Capacitor_SMD*%
%TO.CMnt,SMD*%
%TO.CRot,90*%
X164846000Y-94361000D03*
D11*
X165825999Y-92661001D02*
X165825999Y-96060999D01*
X163866001Y-96060999D01*
X163866001Y-92661001D01*
X165825999Y-92661001D01*
D12*
%TO.P,C105,1*%
X164846000Y-95311000D03*
D13*
%TO.P,C105,2*%
X164846000Y-93411000D03*
%TD*%
D10*
%TO.C,C110*%
%TO.CFtp,C_0805_2012Metric*%
%TO.CVal,100nF*%
%TO.CLbN,Capacitor_SMD*%
%TO.CMnt,SMD*%
%TO.CRot,180*%
X141605000Y-91059000D03*
D11*
X143304999Y-90079001D02*
X143304999Y-92038999D01*
X139905001Y-92038999D01*
X139905001Y-90079001D01*
X143304999Y-90079001D01*
D12*
%TO.P,C110,1*%
X142555000Y-91059000D03*
D13*
%TO.P,C110,2*%
X140655000Y-91059000D03*
%TD*%
D10*
%TO.C,C111*%
%TO.CFtp,C_0805_2012Metric*%
%TO.CVal,100nF*%
%TO.CLbN,Capacitor_SMD*%
%TO.CMnt,SMD*%
%TO.CRot,180*%
X134493000Y-91440000D03*
D11*
X136192999Y-90460001D02*
X136192999Y-92419999D01*
X132793001Y-92419999D01*
X132793001Y-90460001D01*
X136192999Y-90460001D01*
D12*
%TO.P,C111,1*%
X135443000Y-91440000D03*
D13*
%TO.P,C111,2*%
X133543000Y-91440000D03*
%TD*%
D10*
%TO.C,C113*%
%TO.CFtp,C_0805_2012Metric*%
%TO.CVal,100nF*%
%TO.CLbN,Capacitor_SMD*%
%TO.CMnt,SMD*%
%TO.CRot,-90*%
X125349000Y-99822000D03*
D11*
X126328999Y-98122001D02*
X126328999Y-101521999D01*
X124369001Y-101521999D01*
X124369001Y-98122001D01*
X126328999Y-98122001D01*
D12*
%TO.P,C113,1*%
X125349000Y-98872000D03*
D13*
%TO.P,C113,2*%
X125349000Y-100772000D03*
%TD*%
D10*
%TO.C,C114*%
%TO.CFtp,C_0805_2012Metric*%
%TO.CVal,100nF*%
%TO.CLbN,Capacitor_SMD*%
%TO.CMnt,SMD*%
%TO.CRot,180*%
X124587000Y-103505000D03*
D11*
X126286999Y-102525001D02*
X126286999Y-104484999D01*
X122887001Y-104484999D01*
X122887001Y-102525001D01*
X126286999Y-102525001D01*
D12*
%TO.P,C114,1*%
X125537000Y-103505000D03*
D13*
%TO.P,C114,2*%
X123637000Y-103505000D03*
%TD*%
D10*
%TO.C,C115*%
%TO.CFtp,C_0805_2012Metric*%
%TO.CVal,100nF*%
%TO.CLbN,Capacitor_SMD*%
%TO.CMnt,SMD*%
%TO.CRot,180*%
X131953000Y-112268000D03*
D11*
X133652999Y-111288001D02*
X133652999Y-113247999D01*
X130253001Y-113247999D01*
X130253001Y-111288001D01*
X133652999Y-111288001D01*
D12*
%TO.P,C115,1*%
X132903000Y-112268000D03*
D13*
%TO.P,C115,2*%
X131003000Y-112268000D03*
%TD*%
D10*
%TO.C,C116*%
%TO.CFtp,C_0805_2012Metric*%
%TO.CVal,100nF*%
%TO.CLbN,Capacitor_SMD*%
%TO.CMnt,SMD*%
%TO.CRot,180*%
X137668000Y-111760000D03*
D11*
X139367999Y-110780001D02*
X139367999Y-112739999D01*
X135968001Y-112739999D01*
X135968001Y-110780001D01*
X139367999Y-110780001D01*
D12*
%TO.P,C116,1*%
X138618000Y-111760000D03*
D13*
%TO.P,C116,2*%
X136718000Y-111760000D03*
%TD*%
D10*
%TO.C,C101*%
%TO.CFtp,C_0805_2012Metric*%
%TO.CVal,100nF*%
%TO.CLbN,Capacitor_SMD*%
%TO.CMnt,SMD*%
%TO.CRot,0*%
X160401000Y-105537000D03*
D11*
X162100999Y-104557001D02*
X162100999Y-106516999D01*
X158701001Y-106516999D01*
X158701001Y-104557001D01*
X162100999Y-104557001D01*
D12*
%TO.P,C101,1*%
X159451000Y-105537000D03*
D13*
%TO.P,C101,2*%
X161351000Y-105537000D03*
%TD*%
D10*
%TO.C,C104*%
%TO.CFtp,C_0805_2012Metric*%
%TO.CVal,100nF*%
%TO.CLbN,Capacitor_SMD*%
%TO.CMnt,SMD*%
%TO.CRot,180*%
X160401000Y-111252000D03*
D11*
X162100999Y-110272001D02*
X162100999Y-112231999D01*
X158701001Y-112231999D01*
X158701001Y-110272001D01*
X162100999Y-110272001D01*
D12*
%TO.P,C104,1*%
X161351000Y-111252000D03*
D13*
%TO.P,C104,2*%
X159451000Y-111252000D03*
%TD*%
D10*
%TO.C,C108*%
%TO.CFtp,SM1206POL*%
%TO.CVal,10uF*%
%TO.CLbN,kit-dev-coldfire*%
%TO.CMnt,SMD*%
%TO.CRot,90*%
X120777000Y-106045000D03*
D11*
X122026999Y-103545001D02*
X122026999Y-108794999D01*
X119527001Y-108794999D01*
X119527001Y-103545001D01*
X122026999Y-103545001D01*
D12*
%TO.P,C108,1*%
X120777000Y-107696000D03*
D13*
%TO.P,C108,2*%
X120777000Y-104394000D03*
%TD*%
D10*
%TO.C,C119*%
%TO.CFtp,SM1206POL*%
%TO.CVal,100uF*%
%TO.CLbN,kit-dev-coldfire*%
%TO.CMnt,SMD*%
%TO.CRot,0*%
X150241000Y-120015000D03*
D11*
X152740999Y-118765001D02*
X152740999Y-121264999D01*
X147491001Y-121264999D01*
X147491001Y-118765001D01*
X152740999Y-118765001D01*
D12*
%TO.P,C119,1*%
X148590000Y-120015000D03*
D13*
%TO.P,C119,2*%
X151892000Y-120015000D03*
%TD*%
D10*
%TO.C,C109*%
%TO.CFtp,C_0805_2012Metric*%
%TO.CVal,100nF*%
%TO.CLbN,Capacitor_SMD*%
%TO.CMnt,SMD*%
%TO.CRot,0*%
X123825000Y-108712000D03*
D11*
X125524999Y-107732001D02*
X125524999Y-109691999D01*
X122125001Y-109691999D01*
X122125001Y-107732001D01*
X125524999Y-107732001D01*
D12*
%TO.P,C109,1*%
X122875000Y-108712000D03*
D13*
%TO.P,C109,2*%
X124775000Y-108712000D03*
%TD*%
D10*
%TO.C,C102*%
%TO.CFtp,C_0805_2012Metric*%
%TO.CVal,1nF*%
%TO.CLbN,Capacitor_SMD*%
%TO.CMnt,SMD*%
%TO.CRot,-90*%
X141732000Y-112395000D03*
D11*
X142711999Y-110695001D02*
X142711999Y-114094999D01*
X140752001Y-114094999D01*
X140752001Y-110695001D01*
X142711999Y-110695001D01*
D12*
%TO.P,C102,1*%
X141732000Y-111445000D03*
D13*
%TO.P,C102,2*%
X141732000Y-113345000D03*
%TD*%
D10*
%TO.C,C103*%
%TO.CFtp,C_0805_2012Metric*%
%TO.CVal,100nF*%
%TO.CLbN,Capacitor_SMD*%
%TO.CMnt,SMD*%
%TO.CRot,-90*%
X143891000Y-112395000D03*
D11*
X144870999Y-110695001D02*
X144870999Y-114094999D01*
X142911001Y-114094999D01*
X142911001Y-110695001D01*
X144870999Y-110695001D01*
D12*
%TO.P,C103,1*%
X143891000Y-111445000D03*
D13*
%TO.P,C103,2*%
X143891000Y-113345000D03*
%TD*%
D10*
%TO.C,C203*%
%TO.CFtp,C_0805_2012Metric*%
%TO.CVal,100nF*%
%TO.CLbN,Capacitor_SMD*%
%TO.CMnt,SMD*%
%TO.CRot,-90*%
X192532000Y-74168000D03*
D11*
X193511999Y-72468001D02*
X193511999Y-75867999D01*
X191552001Y-75867999D01*
X191552001Y-72468001D01*
X193511999Y-72468001D01*
D12*
%TO.P,C203,1*%
X192532000Y-73218000D03*
D13*
%TO.P,C203,2*%
X192532000Y-75118000D03*
%TD*%
D10*
%TO.C,C204*%
%TO.CFtp,C_0805_2012Metric*%
%TO.CVal,100nF*%
%TO.CLbN,Capacitor_SMD*%
%TO.CMnt,SMD*%
%TO.CRot,180*%
X189230000Y-71247000D03*
D11*
X190929999Y-70267001D02*
X190929999Y-72226999D01*
X187530001Y-72226999D01*
X187530001Y-70267001D01*
X190929999Y-70267001D01*
D12*
%TO.P,C204,1*%
X190180000Y-71247000D03*
D13*
%TO.P,C204,2*%
X188280000Y-71247000D03*
%TD*%
D10*
%TO.C,C205*%
%TO.CFtp,C_0805_2012Metric*%
%TO.CVal,100nF*%
%TO.CLbN,Capacitor_SMD*%
%TO.CMnt,SMD*%
%TO.CRot,-90*%
X181102000Y-73914000D03*
D11*
X182081999Y-72214001D02*
X182081999Y-75613999D01*
X180122001Y-75613999D01*
X180122001Y-72214001D01*
X182081999Y-72214001D01*
D12*
%TO.P,C205,1*%
X181102000Y-72964000D03*
D13*
%TO.P,C205,2*%
X181102000Y-74864000D03*
%TD*%
D10*
%TO.C,C206*%
%TO.CFtp,C_0805_2012Metric*%
%TO.CVal,100nF*%
%TO.CLbN,Capacitor_SMD*%
%TO.CMnt,SMD*%
%TO.CRot,-90*%
X181102000Y-78232000D03*
D11*
X182081999Y-76532001D02*
X182081999Y-79931999D01*
X180122001Y-79931999D01*
X180122001Y-76532001D01*
X182081999Y-76532001D01*
D12*
%TO.P,C206,1*%
X181102000Y-77282000D03*
D13*
%TO.P,C206,2*%
X181102000Y-79182000D03*
%TD*%
D10*
%TO.C,C202*%
%TO.CFtp,C_0805_2012Metric*%
%TO.CVal,100nF*%
%TO.CLbN,Capacitor_SMD*%
%TO.CMnt,SMD*%
%TO.CRot,0*%
X102616000Y-111252000D03*
D11*
X104315999Y-110272001D02*
X104315999Y-112231999D01*
X100916001Y-112231999D01*
X100916001Y-110272001D01*
X104315999Y-110272001D01*
D12*
%TO.P,C202,1*%
X101666000Y-111252000D03*
D13*
%TO.P,C202,2*%
X103566000Y-111252000D03*
%TD*%
D10*
%TO.C,C207*%
%TO.CFtp,C_0805_2012Metric*%
%TO.CVal,100nF*%
%TO.CLbN,Capacitor_SMD*%
%TO.CMnt,SMD*%
%TO.CRot,90*%
X178562000Y-78105000D03*
D11*
X179541999Y-76405001D02*
X179541999Y-79804999D01*
X177582001Y-79804999D01*
X177582001Y-76405001D01*
X179541999Y-76405001D01*
D12*
%TO.P,C207,1*%
X178562000Y-79055000D03*
D13*
%TO.P,C207,2*%
X178562000Y-77155000D03*
%TD*%
D10*
%TO.C,C208*%
%TO.CFtp,C_0805_2012Metric*%
%TO.CVal,100nF*%
%TO.CLbN,Capacitor_SMD*%
%TO.CMnt,SMD*%
%TO.CRot,-90*%
X164592000Y-74168000D03*
D11*
X165571999Y-72468001D02*
X165571999Y-75867999D01*
X163612001Y-75867999D01*
X163612001Y-72468001D01*
X165571999Y-72468001D01*
D12*
%TO.P,C208,1*%
X164592000Y-73218000D03*
D13*
%TO.P,C208,2*%
X164592000Y-75118000D03*
%TD*%
D10*
%TO.C,C209*%
%TO.CFtp,C_0805_2012Metric*%
%TO.CVal,100nF*%
%TO.CLbN,Capacitor_SMD*%
%TO.CMnt,SMD*%
%TO.CRot,180*%
X161290000Y-71247000D03*
D11*
X162989999Y-70267001D02*
X162989999Y-72226999D01*
X159590001Y-72226999D01*
X159590001Y-70267001D01*
X162989999Y-70267001D01*
D12*
%TO.P,C209,1*%
X162240000Y-71247000D03*
D13*
%TO.P,C209,2*%
X160340000Y-71247000D03*
%TD*%
D10*
%TO.C,C210*%
%TO.CFtp,C_0805_2012Metric*%
%TO.CVal,100nF*%
%TO.CLbN,Capacitor_SMD*%
%TO.CMnt,SMD*%
%TO.CRot,-90*%
X153162000Y-73787000D03*
D11*
X154141999Y-72087001D02*
X154141999Y-75486999D01*
X152182001Y-75486999D01*
X152182001Y-72087001D01*
X154141999Y-72087001D01*
D12*
%TO.P,C210,1*%
X153162000Y-72837000D03*
D13*
%TO.P,C210,2*%
X153162000Y-74737000D03*
%TD*%
D10*
%TO.C,C211*%
%TO.CFtp,C_0805_2012Metric*%
%TO.CVal,100nF*%
%TO.CLbN,Capacitor_SMD*%
%TO.CMnt,SMD*%
%TO.CRot,-90*%
X153035000Y-78105000D03*
D11*
X154014999Y-76405001D02*
X154014999Y-79804999D01*
X152055001Y-79804999D01*
X152055001Y-76405001D01*
X154014999Y-76405001D01*
D12*
%TO.P,C211,1*%
X153035000Y-77155000D03*
D13*
%TO.P,C211,2*%
X153035000Y-79055000D03*
%TD*%
D10*
%TO.C,C214*%
%TO.CFtp,C_0805_2012Metric*%
%TO.CVal,100nF*%
%TO.CLbN,Capacitor_SMD*%
%TO.CMnt,SMD*%
%TO.CRot,90*%
X150876000Y-78105000D03*
D11*
X151855999Y-76405001D02*
X151855999Y-79804999D01*
X149896001Y-79804999D01*
X149896001Y-76405001D01*
X151855999Y-76405001D01*
D12*
%TO.P,C214,1*%
X150876000Y-79055000D03*
D13*
%TO.P,C214,2*%
X150876000Y-77155000D03*
%TD*%
D10*
%TO.C,C219*%
%TO.CFtp,C_0805_2012Metric*%
%TO.CVal,100nF*%
%TO.CLbN,Capacitor_SMD*%
%TO.CMnt,SMD*%
%TO.CRot,0*%
X108458000Y-84328000D03*
D11*
X110157999Y-83348001D02*
X110157999Y-85307999D01*
X106758001Y-85307999D01*
X106758001Y-83348001D01*
X110157999Y-83348001D01*
D12*
%TO.P,C219,1*%
X107508000Y-84328000D03*
D13*
%TO.P,C219,2*%
X109408000Y-84328000D03*
%TD*%
D10*
%TO.C,C217*%
%TO.CFtp,C_0805_2012Metric*%
%TO.CVal,100nF*%
%TO.CLbN,Capacitor_SMD*%
%TO.CMnt,SMD*%
%TO.CRot,180*%
X128270000Y-71247000D03*
D11*
X129969999Y-70267001D02*
X129969999Y-72226999D01*
X126570001Y-72226999D01*
X126570001Y-70267001D01*
X129969999Y-70267001D01*
D12*
%TO.P,C217,1*%
X129220000Y-71247000D03*
D13*
%TO.P,C217,2*%
X127320000Y-71247000D03*
%TD*%
D10*
%TO.C,C220*%
%TO.CFtp,C_0805_2012Metric*%
%TO.CVal,100nF*%
%TO.CLbN,Capacitor_SMD*%
%TO.CMnt,SMD*%
%TO.CRot,-90*%
X120142000Y-78105000D03*
D11*
X121121999Y-76405001D02*
X121121999Y-79804999D01*
X119162001Y-79804999D01*
X119162001Y-76405001D01*
X121121999Y-76405001D01*
D12*
%TO.P,C220,1*%
X120142000Y-77155000D03*
D13*
%TO.P,C220,2*%
X120142000Y-79055000D03*
%TD*%
D10*
%TO.C,C212*%
%TO.CFtp,CP_Radial_D8.0mm_P5.00mm*%
%TO.CVal,10uF*%
%TO.CLbN,Capacitor_THT*%
%TO.CMnt,TH*%
%TO.CRot,90*%
X88900000Y-87630000D03*
D11*
X88797244Y-80878758D02*
X89208028Y-80888687D01*
X89615936Y-80938216D01*
X90017159Y-81026883D01*
X90407952Y-81153859D01*
X90784665Y-81317959D01*
X91143781Y-81517651D01*
X91143781Y-81517652D01*
X91481948Y-81751072D01*
X91796008Y-82016040D01*
X92083029Y-82310082D01*
X92340331Y-82630453D01*
X92565512Y-82974162D01*
X92565512Y-82974161D01*
X92756468Y-83337998D01*
X92911418Y-83718567D01*
X93028914Y-84112314D01*
X93107860Y-84515563D01*
X93147518Y-84924548D01*
X93149999Y-85130000D01*
X93147518Y-85335452D01*
X93107860Y-85744437D01*
X93028914Y-86147686D01*
X92911418Y-86541433D01*
X92756468Y-86922002D01*
X92565512Y-87285838D01*
X92340331Y-87629547D01*
X92083029Y-87949918D01*
X91796008Y-88243960D01*
X91481948Y-88508928D01*
X91143781Y-88742348D01*
X90784665Y-88942041D01*
X90407952Y-89106141D01*
X90017159Y-89233117D01*
X89615936Y-89321784D01*
X89208028Y-89371313D01*
X88797244Y-89381242D01*
X88387420Y-89351478D01*
X87982381Y-89282300D01*
X87585910Y-89174352D01*
X87201708Y-89028644D01*
X86833363Y-88846535D01*
X86833364Y-88846535D01*
X86484314Y-88629725D01*
X86157819Y-88380240D01*
X85856928Y-88100408D01*
X85584448Y-87792842D01*
X85342925Y-87460414D01*
X85134613Y-87106227D01*
X84961458Y-86733590D01*
X84825075Y-86345980D01*
X84726740Y-85947016D01*
X84667369Y-85540424D01*
X84647517Y-85130000D01*
X84667369Y-84719576D01*
X84726740Y-84312984D01*
X84825075Y-83914020D01*
X84961458Y-83526410D01*
X85134613Y-83153773D01*
X85342925Y-82799586D01*
X85584448Y-82467158D01*
X85856928Y-82159592D01*
X86157819Y-81879760D01*
X86484314Y-81630275D01*
X86833364Y-81413465D01*
X86833363Y-81413464D01*
X87201708Y-81231356D01*
X87585910Y-81085648D01*
X87982381Y-80977700D01*
X88387420Y-80908522D01*
X88797244Y-80878758D01*
D12*
%TO.P,C212,1*%
X88900000Y-87630000D03*
D13*
%TO.P,C212,2*%
X88900000Y-82630000D03*
%TD*%
D10*
%TO.C,C215*%
%TO.CFtp,CP_Radial_D8.0mm_P5.00mm*%
%TO.CVal,220uF*%
%TO.CLbN,Capacitor_THT*%
%TO.CMnt,TH*%
%TO.CRot,90*%
X88900000Y-100330000D03*
D11*
X88797244Y-93578758D02*
X89208028Y-93588687D01*
X89615936Y-93638216D01*
X90017159Y-93726883D01*
X90407952Y-93853859D01*
X90784665Y-94017959D01*
X91143781Y-94217651D01*
X91143781Y-94217652D01*
X91481948Y-94451072D01*
X91796008Y-94716040D01*
X92083029Y-95010082D01*
X92340331Y-95330453D01*
X92565512Y-95674162D01*
X92565512Y-95674161D01*
X92756468Y-96037998D01*
X92911418Y-96418567D01*
X93028914Y-96812314D01*
X93107860Y-97215563D01*
X93147518Y-97624548D01*
X93149999Y-97830000D01*
X93147518Y-98035452D01*
X93107860Y-98444437D01*
X93028914Y-98847686D01*
X92911418Y-99241433D01*
X92756468Y-99622002D01*
X92565512Y-99985838D01*
X92340331Y-100329547D01*
X92083029Y-100649918D01*
X91796008Y-100943960D01*
X91481948Y-101208928D01*
X91143781Y-101442348D01*
X90784665Y-101642041D01*
X90407952Y-101806141D01*
X90017159Y-101933117D01*
X89615936Y-102021784D01*
X89208028Y-102071313D01*
X88797244Y-102081242D01*
X88387420Y-102051478D01*
X87982381Y-101982300D01*
X87585910Y-101874352D01*
X87201708Y-101728644D01*
X86833363Y-101546535D01*
X86833364Y-101546535D01*
X86484314Y-101329725D01*
X86157819Y-101080240D01*
X85856928Y-100800408D01*
X85584448Y-100492842D01*
X85342925Y-100160414D01*
X85134613Y-99806227D01*
X84961458Y-99433590D01*
X84825075Y-99045980D01*
X84726740Y-98647016D01*
X84667369Y-98240424D01*
X84647517Y-97830000D01*
X84667369Y-97419576D01*
X84726740Y-97012984D01*
X84825075Y-96614020D01*
X84961458Y-96226410D01*
X85134613Y-95853773D01*
X85342925Y-95499586D01*
X85584448Y-95167158D01*
X85856928Y-94859592D01*
X86157819Y-94579760D01*
X86484314Y-94330275D01*
X86833364Y-94113465D01*
X86833363Y-94113464D01*
X87201708Y-93931356D01*
X87585910Y-93785648D01*
X87982381Y-93677700D01*
X88387420Y-93608522D01*
X88797244Y-93578758D01*
D12*
%TO.P,C215,1*%
X88900000Y-100330000D03*
D13*
%TO.P,C215,2*%
X88900000Y-95330000D03*
%TD*%
D10*
%TO.C,C213*%
%TO.CFtp,C_0805_2012Metric*%
%TO.CVal,100nF*%
%TO.CLbN,Capacitor_SMD*%
%TO.CMnt,SMD*%
%TO.CRot,90*%
X104000000Y-77500000D03*
D11*
X104979999Y-75800001D02*
X104979999Y-79199999D01*
X103020001Y-79199999D01*
X103020001Y-75800001D01*
X104979999Y-75800001D01*
D12*
%TO.P,C213,1*%
X104000000Y-78450000D03*
D13*
%TO.P,C213,2*%
X104000000Y-76550000D03*
%TD*%
D10*
%TO.C,C201*%
%TO.CFtp,C_0805_2012Metric*%
%TO.CVal,100nF*%
%TO.CLbN,Capacitor_SMD*%
%TO.CMnt,SMD*%
%TO.CRot,0*%
X183769000Y-125730000D03*
D11*
X185468999Y-124750001D02*
X185468999Y-126709999D01*
X182069001Y-126709999D01*
X182069001Y-124750001D01*
X185468999Y-124750001D01*
D12*
%TO.P,C201,1*%
X182819000Y-125730000D03*
D13*
%TO.P,C201,2*%
X184719000Y-125730000D03*
%TD*%
D10*
%TO.C,C218*%
%TO.CFtp,C_0805_2012Metric*%
%TO.CVal,100nF*%
%TO.CLbN,Capacitor_SMD*%
%TO.CMnt,SMD*%
%TO.CRot,-90*%
X120142000Y-73787000D03*
D11*
X121121999Y-72087001D02*
X121121999Y-75486999D01*
X119162001Y-75486999D01*
X119162001Y-72087001D01*
X121121999Y-72087001D01*
D12*
%TO.P,C218,1*%
X120142000Y-72837000D03*
D13*
%TO.P,C218,2*%
X120142000Y-74737000D03*
%TD*%
D10*
%TO.C,C221*%
%TO.CFtp,C_0805_2012Metric*%
%TO.CVal,100nF*%
%TO.CLbN,Capacitor_SMD*%
%TO.CMnt,SMD*%
%TO.CRot,90*%
X117602000Y-78105000D03*
D11*
X118581999Y-76405001D02*
X118581999Y-79804999D01*
X116622001Y-79804999D01*
X116622001Y-76405001D01*
X118581999Y-76405001D01*
D12*
%TO.P,C221,1*%
X117602000Y-79055000D03*
D13*
%TO.P,C221,2*%
X117602000Y-77155000D03*
%TD*%
D10*
%TO.C,C216*%
%TO.CFtp,C_0805_2012Metric*%
%TO.CVal,100nF*%
%TO.CLbN,Capacitor_SMD*%
%TO.CMnt,SMD*%
%TO.CRot,-90*%
X130937000Y-74549000D03*
D11*
X131916999Y-72849001D02*
X131916999Y-76248999D01*
X129957001Y-76248999D01*
X129957001Y-72849001D01*
X131916999Y-72849001D01*
D12*
%TO.P,C216,1*%
X130937000Y-73599000D03*
D13*
%TO.P,C216,2*%
X130937000Y-75499000D03*
%TD*%
D10*
%TO.C,CAN_TERM201*%
%TO.CFtp,PinHeader_1x02_P2.54mm_Vertical*%
%TO.CVal,JUMPER*%
%TO.CLbN,Connector_PinHeader_2.54mm*%
%TO.CMnt,TH*%
%TO.CRot,180*%
X96647000Y-95758000D03*
D11*
X98446999Y-91408001D02*
X98446999Y-97557999D01*
X94847001Y-97557999D01*
X94847001Y-91408001D01*
X98446999Y-91408001D01*
D12*
%TO.P,CAN_TERM201,1,1*%
X96647000Y-95758000D03*
D13*
%TO.P,CAN_TERM201,2,2*%
X96647000Y-93218000D03*
%TD*%
D10*
%TO.C,CLKOUT101*%
%TO.CFtp,PinHeader_1x01_P2.54mm_Vertical*%
%TO.CVal,CONN_1*%
%TO.CLbN,Connector_PinHeader_2.54mm*%
%TO.CMnt,TH*%
%TO.CRot,-90*%
X83439000Y-134239000D03*
D11*
X85238999Y-132439001D02*
X85238999Y-136038999D01*
X81639001Y-136038999D01*
X81639001Y-132439001D01*
X85238999Y-132439001D01*
D12*
%TO.P,CLKOUT101,1,1*%
X83439000Y-134239000D03*
%TD*%
D10*
%TO.C,COM_SEL203*%
%TO.CFtp,PinHeader_1x03_P2.54mm_Vertical*%
%TO.CVal,CONN_3*%
%TO.CLbN,Connector_PinHeader_2.54mm*%
%TO.CMnt,TH*%
%TO.CRot,180*%
X114500000Y-78613000D03*
D11*
X116299999Y-71763001D02*
X116299999Y-80412999D01*
X112700001Y-80412999D01*
X112700001Y-71763001D01*
X116299999Y-71763001D01*
D12*
%TO.P,COM_SEL203,1,P1*%
X114500000Y-78613000D03*
D13*
%TO.P,COM_SEL203,2,PM*%
X114500000Y-76073000D03*
%TO.P,COM_SEL203,3,P3*%
X114500000Y-73533000D03*
%TD*%
D10*
%TO.C,COM_SEL202*%
%TO.CFtp,PinHeader_1x03_P2.54mm_Vertical*%
%TO.CVal,CONN_3*%
%TO.CLbN,Connector_PinHeader_2.54mm*%
%TO.CMnt,TH*%
%TO.CRot,180*%
X110744000Y-78613000D03*
D11*
X112543999Y-71763001D02*
X112543999Y-80412999D01*
X108944001Y-80412999D01*
X108944001Y-71763001D01*
X112543999Y-71763001D01*
D12*
%TO.P,COM_SEL202,1,P1*%
X110744000Y-78613000D03*
D13*
%TO.P,COM_SEL202,2,PM*%
X110744000Y-76073000D03*
%TO.P,COM_SEL202,3,P3*%
X110744000Y-73533000D03*
%TD*%
D10*
%TO.C,CT101*%
%TO.CFtp,PinHeader_1x02_P2.54mm_Vertical*%
%TO.CVal,JUMPER*%
%TO.CLbN,Connector_PinHeader_2.54mm*%
%TO.CMnt,TH*%
%TO.CRot,-90*%
X91440000Y-134620000D03*
D11*
X93239999Y-132820001D02*
X93239999Y-136419999D01*
X87090001Y-136419999D01*
X87090001Y-132820001D01*
X93239999Y-132820001D01*
D12*
%TO.P,CT101,1,1*%
X91440000Y-134620000D03*
D13*
%TO.P,CT101,2,2*%
X88900000Y-134620000D03*
%TD*%
D10*
%TO.C,D101*%
%TO.CFtp,D_SOT-23_ANK*%
%TO.CVal,BAT54*%
%TO.CLbN,kit-dev-coldfire*%
%TO.CMnt,SMD*%
%TO.CRot,0*%
X160401000Y-102489000D03*
D11*
X162100999Y-100739001D02*
X162100999Y-104238999D01*
X158701001Y-104238999D01*
X158701001Y-100739001D01*
X162100999Y-100739001D01*
D12*
%TO.P,D101,1,K*%
X161401000Y-102489000D03*
D13*
%TO.P,D101,*%
X159401000Y-103439000D03*
%TO.P,D101,2,A*%
X159401000Y-101539000D03*
%TD*%
D10*
%TO.C,D102*%
%TO.CFtp,D_SOT-23_ANK*%
%TO.CVal,BAT54*%
%TO.CLbN,kit-dev-coldfire*%
%TO.CMnt,SMD*%
%TO.CRot,0*%
X161798000Y-95631000D03*
D11*
X163497999Y-93881001D02*
X163497999Y-97380999D01*
X160098001Y-97380999D01*
X160098001Y-93881001D01*
X163497999Y-93881001D01*
D12*
%TO.P,D102,1,K*%
X162798000Y-95631000D03*
D13*
%TO.P,D102,*%
X160798000Y-96581000D03*
%TO.P,D102,2,A*%
X160798000Y-94681000D03*
%TD*%
D10*
%TO.C,D201*%
%TO.CFtp,D_DO-15_P12.70mm_Horizontal*%
%TO.CVal,1N4004*%
%TO.CLbN,Diode_THT*%
%TO.CMnt,TH*%
%TO.CRot,180*%
X95000000Y-77000000D03*
D11*
X96449999Y-74950001D02*
X96449999Y-79049999D01*
X80850001Y-79049999D01*
X80850001Y-74950001D01*
X96449999Y-74950001D01*
D12*
%TO.P,D201,1,K*%
X95000000Y-77000000D03*
D13*
%TO.P,D201,2,A*%
X82300000Y-77000000D03*
%TD*%
D10*
%TO.C,D301*%
%TO.CFtp,LED_1206_3216Metric*%
%TO.CVal,LED*%
%TO.CLbN,LED_SMD*%
%TO.CMnt,SMD*%
%TO.CRot,180*%
X212090000Y-76835000D03*
D11*
X214369999Y-75715001D02*
X214369999Y-77954999D01*
X209810001Y-77954999D01*
X209810001Y-75715001D01*
X214369999Y-75715001D01*
D12*
%TO.P,D301,1,K*%
X213490000Y-76835000D03*
D13*
%TO.P,D301,2,A*%
X210690000Y-76835000D03*
%TD*%
D10*
%TO.C,D302*%
%TO.CFtp,LED_1206_3216Metric*%
%TO.CVal,LED*%
%TO.CLbN,LED_SMD*%
%TO.CMnt,SMD*%
%TO.CRot,180*%
X212090000Y-80645000D03*
D11*
X214369999Y-79525001D02*
X214369999Y-81764999D01*
X209810001Y-81764999D01*
X209810001Y-79525001D01*
X214369999Y-79525001D01*
D12*
%TO.P,D302,1,K*%
X213490000Y-80645000D03*
D13*
%TO.P,D302,2,A*%
X210690000Y-80645000D03*
%TD*%
D10*
%TO.C,F201*%
%TO.CFtp,FSUPCMS*%
%TO.CVal,FUSE*%
%TO.CLbN,kit-dev-coldfire*%
%TO.CMnt,SMD*%
%TO.CRot,-90*%
X99800000Y-77600000D03*
D11*
X102799999Y-71850001D02*
X102799999Y-83599999D01*
X96800001Y-83599999D01*
X96800001Y-71850001D01*
X102799999Y-71850001D01*
D12*
%TO.P,F201,1*%
X99800000Y-74425000D03*
D13*
%TO.P,F201,2*%
X99800000Y-80775000D03*
%TD*%
D10*
%TO.C,FB101*%
%TO.CFtp,R_1206_3216Metric_Pad1.30x1.75mm_HandSolder*%
%TO.CVal,BEAD*%
%TO.CLbN,Resistor_SMD*%
%TO.CMnt,SMD*%
%TO.CRot,180*%
X119634000Y-101346000D03*
D11*
X122083999Y-100226001D02*
X122083999Y-102465999D01*
X117184001Y-102465999D01*
X117184001Y-100226001D01*
X122083999Y-100226001D01*
D12*
%TO.P,FB101,1,1*%
X121184000Y-101346000D03*
D13*
%TO.P,FB101,2,2*%
X118084000Y-101346000D03*
%TD*%
D10*
%TO.C,GND101*%
%TO.CFtp,PinHeader_1x01_P2.54mm_Vertical*%
%TO.CVal,CONN_1*%
%TO.CLbN,Connector_PinHeader_2.54mm*%
%TO.CMnt,TH*%
%TO.CRot,-90*%
X89535000Y-140970000D03*
D11*
X91334999Y-139170001D02*
X91334999Y-142769999D01*
X87735001Y-142769999D01*
X87735001Y-139170001D01*
X91334999Y-139170001D01*
D12*
%TO.P,GND101,1,1*%
X89535000Y-140970000D03*
%TD*%
D10*
%TO.C,J201*%
%TO.CFtp,JACK_ALIM*%
%TO.CVal,JACK_2P*%
%TO.CLbN,kit-dev-coldfire*%
%TO.CMnt,TH*%
%TO.CRot,-90*%
X104500000Y-60000000D03*
D11*
X108999999Y-51750001D02*
X108999999Y-70499999D01*
X98750001Y-70499999D01*
X98750001Y-66749999D01*
X97500001Y-66749999D01*
X97500001Y-59750001D01*
X98750001Y-59750001D01*
X98750001Y-51750001D01*
X108999999Y-51750001D01*
D12*
%TO.P,J201,1*%
X104400000Y-67900000D03*
D13*
%TO.P,J201,2*%
X104500000Y-60000000D03*
%TO.P,J201,3*%
X98300000Y-63100000D03*
%TD*%
D10*
%TO.C,L102*%
%TO.CFtp,R_1206_3216Metric_Pad1.30x1.75mm_HandSolder*%
%TO.CVal,10uH*%
%TO.CLbN,Resistor_SMD*%
%TO.CMnt,SMD*%
%TO.CRot,0*%
X118999000Y-110236000D03*
D11*
X121448999Y-109116001D02*
X121448999Y-111355999D01*
X116549001Y-111355999D01*
X116549001Y-109116001D01*
X121448999Y-109116001D01*
D12*
%TO.P,L102,1,1*%
X117449000Y-110236000D03*
D13*
%TO.P,L102,2,2*%
X120549000Y-110236000D03*
%TD*%
D10*
%TO.C,L101*%
%TO.CFtp,R_1206_3216Metric_Pad1.30x1.75mm_HandSolder*%
%TO.CVal,10uH*%
%TO.CLbN,Resistor_SMD*%
%TO.CMnt,SMD*%
%TO.CRot,180*%
X151892000Y-109220000D03*
D11*
X154341999Y-108100001D02*
X154341999Y-110339999D01*
X149442001Y-110339999D01*
X149442001Y-108100001D01*
X154341999Y-108100001D01*
D12*
%TO.P,L101,1,1*%
X153442000Y-109220000D03*
D13*
%TO.P,L101,2,2*%
X150342000Y-109220000D03*
%TD*%
D10*
%TO.C,LED201*%
%TO.CFtp,LED_1206_3216Metric*%
%TO.CVal,LED*%
%TO.CLbN,LED_SMD*%
%TO.CMnt,SMD*%
%TO.CRot,0*%
X88392000Y-117094000D03*
D11*
X90671999Y-115974001D02*
X90671999Y-118213999D01*
X86112001Y-118213999D01*
X86112001Y-115974001D01*
X90671999Y-115974001D01*
D12*
%TO.P,LED201,1,K*%
X86992000Y-117094000D03*
D13*
%TO.P,LED201,2,A*%
X89792000Y-117094000D03*
%TD*%
D10*
%TO.C,LED202*%
%TO.CFtp,LED_1206_3216Metric*%
%TO.CVal,LED*%
%TO.CLbN,LED_SMD*%
%TO.CMnt,SMD*%
%TO.CRot,0*%
X88392000Y-121158000D03*
D11*
X90671999Y-120038001D02*
X90671999Y-122277999D01*
X86112001Y-122277999D01*
X86112001Y-120038001D01*
X90671999Y-120038001D01*
D12*
%TO.P,LED202,1,K*%
X86992000Y-121158000D03*
D13*
%TO.P,LED202,2,A*%
X89792000Y-121158000D03*
%TD*%
D10*
%TO.C,LED203*%
%TO.CFtp,LED_1206_3216Metric*%
%TO.CVal,LED*%
%TO.CLbN,LED_SMD*%
%TO.CMnt,SMD*%
%TO.CRot,0*%
X88392000Y-125349000D03*
D11*
X90671999Y-124229001D02*
X90671999Y-126468999D01*
X86112001Y-126468999D01*
X86112001Y-124229001D01*
X90671999Y-124229001D01*
D12*
%TO.P,LED203,1,K*%
X86992000Y-125349000D03*
D13*
%TO.P,LED203,2,A*%
X89792000Y-125349000D03*
%TD*%
D10*
%TO.C,LED204*%
%TO.CFtp,LED_1206_3216Metric*%
%TO.CVal,LED*%
%TO.CLbN,LED_SMD*%
%TO.CMnt,SMD*%
%TO.CRot,0*%
X88392000Y-129540000D03*
D11*
X90671999Y-128420001D02*
X90671999Y-130659999D01*
X86112001Y-130659999D01*
X86112001Y-128420001D01*
X90671999Y-128420001D01*
D12*
%TO.P,LED204,1,K*%
X86992000Y-129540000D03*
D13*
%TO.P,LED204,2,A*%
X89792000Y-129540000D03*
%TD*%
D10*
%TO.C,LED205*%
%TO.CFtp,LED_1206_3216Metric*%
%TO.CVal,LED*%
%TO.CLbN,LED_SMD*%
%TO.CMnt,SMD*%
%TO.CRot,90*%
X104140000Y-138176000D03*
D11*
X105259999Y-135896001D02*
X105259999Y-140455999D01*
X103020001Y-140455999D01*
X103020001Y-135896001D01*
X105259999Y-135896001D01*
D12*
%TO.P,LED205,1,K*%
X104140000Y-139576000D03*
D13*
%TO.P,LED205,2,A*%
X104140000Y-136776000D03*
%TD*%
D10*
%TO.C,LEDABRT101*%
%TO.CFtp,LED_1206_3216Metric*%
%TO.CVal,LED_RED*%
%TO.CLbN,LED_SMD*%
%TO.CMnt,SMD*%
%TO.CRot,90*%
X164846000Y-100457000D03*
D11*
X165965999Y-98177001D02*
X165965999Y-102736999D01*
X163726001Y-102736999D01*
X163726001Y-98177001D01*
X165965999Y-98177001D01*
D12*
%TO.P,LEDABRT101,1,K*%
X164846000Y-101857000D03*
D13*
%TO.P,LEDABRT101,2,A*%
X164846000Y-99057000D03*
%TD*%
D10*
%TO.C,LV101*%
%TO.CFtp,TO-92*%
%TO.CVal,DS1818*%
%TO.CLbN,Package_TO_SOT_THT*%
%TO.CMnt,TH*%
%TO.CRot,0*%
X186690000Y-89408000D03*
D11*
X190689999Y-86678001D02*
X190689999Y-91417999D01*
X185230001Y-91417999D01*
X185230001Y-86678001D01*
X190689999Y-86678001D01*
D12*
%TO.P,LV101,1,Rst*%
X186690000Y-89408000D03*
D13*
%TO.P,LV101,2,In*%
X187960000Y-88138000D03*
%TO.P,LV101,3,Gbd*%
X189230000Y-89408000D03*
%TD*%
D10*
%TO.C,MCU_PORT201*%
%TO.CFtp,PinHeader_2x30_P2.54mm_Vertical*%
%TO.CVal,CONN_30X2*%
%TO.CLbN,Connector_PinHeader_2.54mm*%
%TO.CMnt,TH*%
%TO.CRot,-90*%
X184404000Y-136906000D03*
D11*
X186203999Y-135106001D02*
X186203999Y-141255999D01*
X108954001Y-141255999D01*
X108954001Y-135106001D01*
X186203999Y-135106001D01*
D12*
%TO.P,MCU_PORT201,1,P1*%
X184404000Y-136906000D03*
D13*
%TO.P,MCU_PORT201,2,P2*%
X184404000Y-139446000D03*
%TO.P,MCU_PORT201,3,P3*%
X181864000Y-136906000D03*
%TO.P,MCU_PORT201,4,P4*%
X181864000Y-139446000D03*
%TO.P,MCU_PORT201,5,P5*%
X179324000Y-136906000D03*
%TO.P,MCU_PORT201,6,P6*%
X179324000Y-139446000D03*
%TO.P,MCU_PORT201,7,P7*%
X176784000Y-136906000D03*
%TO.P,MCU_PORT201,8,P8*%
X176784000Y-139446000D03*
%TO.P,MCU_PORT201,9,P9*%
X174244000Y-136906000D03*
%TO.P,MCU_PORT201,10,P10*%
X174244000Y-139446000D03*
%TO.P,MCU_PORT201,11,P11*%
X171704000Y-136906000D03*
%TO.P,MCU_PORT201,12,P12*%
X171704000Y-139446000D03*
%TO.P,MCU_PORT201,13,P13*%
X169164000Y-136906000D03*
%TO.P,MCU_PORT201,14,P14*%
X169164000Y-139446000D03*
%TO.P,MCU_PORT201,15,P15*%
X166624000Y-136906000D03*
%TO.P,MCU_PORT201,16,P16*%
X166624000Y-139446000D03*
%TO.P,MCU_PORT201,17,P17*%
X164084000Y-136906000D03*
%TO.P,MCU_PORT201,18,P18*%
X164084000Y-139446000D03*
%TO.P,MCU_PORT201,19,P19*%
X161544000Y-136906000D03*
%TO.P,MCU_PORT201,20,P20*%
X161544000Y-139446000D03*
%TO.P,MCU_PORT201,21,P21*%
X159004000Y-136906000D03*
%TO.P,MCU_PORT201,22,P22*%
X159004000Y-139446000D03*
%TO.P,MCU_PORT201,23,P23*%
X156464000Y-136906000D03*
%TO.P,MCU_PORT201,24,P24*%
X156464000Y-139446000D03*
%TO.P,MCU_PORT201,25*%
X153924000Y-136906000D03*
%TO.P,MCU_PORT201,26,P26*%
X153924000Y-139446000D03*
%TO.P,MCU_PORT201,27,P27*%
X151384000Y-136906000D03*
%TO.P,MCU_PORT201,28,P28*%
X151384000Y-139446000D03*
%TO.P,MCU_PORT201,29,P29*%
X148844000Y-136906000D03*
%TO.P,MCU_PORT201,30,P30*%
X148844000Y-139446000D03*
%TO.P,MCU_PORT201,31,P31*%
X146304000Y-136906000D03*
%TO.P,MCU_PORT201,32,P32*%
X146304000Y-139446000D03*
%TO.P,MCU_PORT201,33,P33*%
X143764000Y-136906000D03*
%TO.P,MCU_PORT201,34,P34*%
X143764000Y-139446000D03*
%TO.P,MCU_PORT201,35,P35*%
X141224000Y-136906000D03*
%TO.P,MCU_PORT201,36,P36*%
X141224000Y-139446000D03*
%TO.P,MCU_PORT201,37,P37*%
X138684000Y-136906000D03*
%TO.P,MCU_PORT201,38,P38*%
X138684000Y-139446000D03*
%TO.P,MCU_PORT201,39,P39*%
X136144000Y-136906000D03*
%TO.P,MCU_PORT201,40,P40*%
X136144000Y-139446000D03*
%TO.P,MCU_PORT201,41,P41*%
X133604000Y-136906000D03*
%TO.P,MCU_PORT201,42,P42*%
X133604000Y-139446000D03*
%TO.P,MCU_PORT201,43,P43*%
X131064000Y-136906000D03*
%TO.P,MCU_PORT201,44,P44*%
X131064000Y-139446000D03*
%TO.P,MCU_PORT201,45,P45*%
X128524000Y-136906000D03*
%TO.P,MCU_PORT201,46,P46*%
X128524000Y-139446000D03*
%TO.P,MCU_PORT201,47,P47*%
X125984000Y-136906000D03*
%TO.P,MCU_PORT201,48,P48*%
X125984000Y-139446000D03*
%TO.P,MCU_PORT201,49,P49*%
X123444000Y-136906000D03*
%TO.P,MCU_PORT201,50,P50*%
X123444000Y-139446000D03*
%TO.P,MCU_PORT201,51,P51*%
X120904000Y-136906000D03*
%TO.P,MCU_PORT201,52,P52*%
X120904000Y-139446000D03*
%TO.P,MCU_PORT201,53,P53*%
X118364000Y-136906000D03*
%TO.P,MCU_PORT201,54,P54*%
X118364000Y-139446000D03*
%TO.P,MCU_PORT201,55,P55*%
X115824000Y-136906000D03*
%TO.P,MCU_PORT201,56,P56*%
X115824000Y-139446000D03*
%TO.P,MCU_PORT201,57,P57*%
X113284000Y-136906000D03*
%TO.P,MCU_PORT201,58,P58*%
X113284000Y-139446000D03*
%TO.P,MCU_PORT201,59,P59*%
X110744000Y-136906000D03*
%TO.P,MCU_PORT201,60,P60*%
X110744000Y-139446000D03*
%TD*%
D10*
%TO.C,P301*%
%TO.CFtp,PinHeader_1x06_P2.54mm_Vertical*%
%TO.CVal,CONN_6*%
%TO.CLbN,Connector_PinHeader_2.54mm*%
%TO.CMnt,TH*%
%TO.CRot,0*%
X223520000Y-63500000D03*
D11*
X225319999Y-61700001D02*
X225319999Y-77999999D01*
X221720001Y-77999999D01*
X221720001Y-61700001D01*
X225319999Y-61700001D01*
D12*
%TO.P,P301,1,1*%
X223520000Y-63500000D03*
D13*
%TO.P,P301,2,2*%
X223520000Y-66040000D03*
%TO.P,P301,3,3*%
X223520000Y-68580000D03*
%TO.P,P301,4,4*%
X223520000Y-71120000D03*
%TO.P,P301,5,5*%
X223520000Y-73660000D03*
%TO.P,P301,6,6*%
X223520000Y-76200000D03*
%TD*%
D10*
%TO.C,P303*%
%TO.CFtp,PinHeader_2x20_P2.54mm_Vertical*%
%TO.CVal,CONN_20X2*%
%TO.CLbN,Connector_PinHeader_2.54mm*%
%TO.CMnt,TH*%
%TO.CRot,0*%
X222250000Y-88900000D03*
D11*
X226599999Y-87100001D02*
X226599999Y-138949999D01*
X220450001Y-138949999D01*
X220450001Y-87100001D01*
X226599999Y-87100001D01*
D12*
%TO.P,P303,1,P1*%
X222250000Y-88900000D03*
D13*
%TO.P,P303,2,P2*%
X224790000Y-88900000D03*
%TO.P,P303,3,P3*%
X222250000Y-91440000D03*
%TO.P,P303,4,P4*%
X224790000Y-91440000D03*
%TO.P,P303,5,P5*%
X222250000Y-93980000D03*
%TO.P,P303,6,P6*%
X224790000Y-93980000D03*
%TO.P,P303,7,P7*%
X222250000Y-96520000D03*
%TO.P,P303,8,P8*%
X224790000Y-96520000D03*
%TO.P,P303,9,P9*%
X222250000Y-99060000D03*
%TO.P,P303,10,P10*%
X224790000Y-99060000D03*
%TO.P,P303,11,P11*%
X222250000Y-101600000D03*
%TO.P,P303,12,P12*%
X224790000Y-101600000D03*
%TO.P,P303,13,P13*%
X222250000Y-104140000D03*
%TO.P,P303,14,P14*%
X224790000Y-104140000D03*
%TO.P,P303,15,P15*%
X222250000Y-106680000D03*
%TO.P,P303,16,P16*%
X224790000Y-106680000D03*
%TO.P,P303,17,P17*%
X222250000Y-109220000D03*
%TO.P,P303,18,P18*%
X224790000Y-109220000D03*
%TO.P,P303,19,P19*%
X222250000Y-111760000D03*
%TO.P,P303,20,P20*%
X224790000Y-111760000D03*
%TO.P,P303,21,P21*%
X222250000Y-114300000D03*
%TO.P,P303,22,P22*%
X224790000Y-114300000D03*
%TO.P,P303,23,P23*%
X222250000Y-116840000D03*
%TO.P,P303,24,P24*%
X224790000Y-116840000D03*
%TO.P,P303,25*%
X222250000Y-119380000D03*
%TO.P,P303,26,P26*%
X224790000Y-119380000D03*
%TO.P,P303,27,P27*%
X222250000Y-121920000D03*
%TO.P,P303,28,P28*%
X224790000Y-121920000D03*
%TO.P,P303,29,P29*%
X222250000Y-124460000D03*
%TO.P,P303,30,P30*%
X224790000Y-124460000D03*
%TO.P,P303,31,P31*%
X222250000Y-127000000D03*
%TO.P,P303,32,P32*%
X224790000Y-127000000D03*
%TO.P,P303,33,P33*%
X222250000Y-129540000D03*
%TO.P,P303,34,P34*%
X224790000Y-129540000D03*
%TO.P,P303,35,P35*%
X222250000Y-132080000D03*
%TO.P,P303,36,P36*%
X224790000Y-132080000D03*
%TO.P,P303,37,P37*%
X222250000Y-134620000D03*
%TO.P,P303,38,P38*%
X224790000Y-134620000D03*
%TO.P,P303,39,P39*%
X222250000Y-137160000D03*
%TO.P,P303,40,P40*%
X224790000Y-137160000D03*
%TD*%
D10*
%TO.C,PULUPEN201*%
%TO.CFtp,PinHeader_2x04_P2.54mm_Vertical*%
%TO.CVal,CONN_4X2*%
%TO.CLbN,Connector_PinHeader_2.54mm*%
%TO.CMnt,TH*%
%TO.CRot,-90*%
X165227000Y-117983000D03*
D11*
X167026999Y-116183001D02*
X167026999Y-122332999D01*
X155827001Y-122332999D01*
X155827001Y-116183001D01*
X167026999Y-116183001D01*
D12*
%TO.P,PULUPEN201,1,1*%
X165227000Y-117983000D03*
D13*
%TO.P,PULUPEN201,2,2*%
X165227000Y-120523000D03*
%TO.P,PULUPEN201,3,3*%
X162687000Y-117983000D03*
%TO.P,PULUPEN201,4,4*%
X162687000Y-120523000D03*
%TO.P,PULUPEN201,5,5*%
X160147000Y-117983000D03*
%TO.P,PULUPEN201,6,6*%
X160147000Y-120523000D03*
%TO.P,PULUPEN201,7,7*%
X157607000Y-117983000D03*
%TO.P,PULUPEN201,8,8*%
X157607000Y-120523000D03*
%TD*%
D10*
%TO.C,Q101*%
%TO.CFtp,SOT23EBC*%
%TO.CVal,3906*%
%TO.CLbN,kit-dev-coldfire*%
%TO.CMnt,SMD*%
%TO.CRot,90*%
X161798000Y-90043000D03*
D11*
X163297999Y-88293001D02*
X163297999Y-91792999D01*
X160298001Y-91792999D01*
X160298001Y-88293001D01*
X163297999Y-88293001D01*
D12*
%TO.P,Q101,1,E*%
X160782000Y-90932000D03*
D13*
%TO.P,Q101,2,B*%
X160782000Y-89154000D03*
%TO.P,Q101,3,C*%
X162814000Y-90043000D03*
%TD*%
D10*
%TO.C,R125*%
%TO.CFtp,R_0805_2012Metric*%
%TO.CVal,1M*%
%TO.CLbN,Resistor_SMD*%
%TO.CMnt,SMD*%
%TO.CRot,90*%
X128270000Y-121285000D03*
D11*
X129219999Y-119605001D02*
X129219999Y-122964999D01*
X127320001Y-122964999D01*
X127320001Y-119605001D01*
X129219999Y-119605001D01*
D12*
%TO.P,R125,1*%
X128270000Y-122197500D03*
D13*
%TO.P,R125,2*%
X128270000Y-120372500D03*
%TD*%
D10*
%TO.C,R102*%
%TO.CFtp,R_0805_2012Metric*%
%TO.CVal,4\u002C7K*%
%TO.CLbN,Resistor_SMD*%
%TO.CMnt,SMD*%
%TO.CRot,0*%
X104267000Y-96647000D03*
D11*
X105946999Y-95697001D02*
X105946999Y-97596999D01*
X102587001Y-97596999D01*
X102587001Y-95697001D01*
X105946999Y-95697001D01*
D12*
%TO.P,R102,1*%
X103354500Y-96647000D03*
D13*
%TO.P,R102,2*%
X105179500Y-96647000D03*
%TD*%
D10*
%TO.C,R118*%
%TO.CFtp,R_0805_2012Metric*%
%TO.CVal,10K*%
%TO.CLbN,Resistor_SMD*%
%TO.CMnt,SMD*%
%TO.CRot,180*%
X183769000Y-121158000D03*
D11*
X185448999Y-120208001D02*
X185448999Y-122107999D01*
X182089001Y-122107999D01*
X182089001Y-120208001D01*
X185448999Y-120208001D01*
D12*
%TO.P,R118,1*%
X184681500Y-121158000D03*
D13*
%TO.P,R118,2*%
X182856500Y-121158000D03*
%TD*%
D10*
%TO.C,R119*%
%TO.CFtp,R_0805_2012Metric*%
%TO.CVal,10K*%
%TO.CLbN,Resistor_SMD*%
%TO.CMnt,SMD*%
%TO.CRot,180*%
X183769000Y-123444000D03*
D11*
X185448999Y-122494001D02*
X185448999Y-124393999D01*
X182089001Y-124393999D01*
X182089001Y-122494001D01*
X185448999Y-122494001D01*
D12*
%TO.P,R119,1*%
X184681500Y-123444000D03*
D13*
%TO.P,R119,2*%
X182856500Y-123444000D03*
%TD*%
D10*
%TO.C,R120*%
%TO.CFtp,R_0805_2012Metric*%
%TO.CVal,10K*%
%TO.CLbN,Resistor_SMD*%
%TO.CMnt,SMD*%
%TO.CRot,0*%
X153035000Y-93853000D03*
D11*
X154714999Y-92903001D02*
X154714999Y-94802999D01*
X151355001Y-94802999D01*
X151355001Y-92903001D01*
X154714999Y-92903001D01*
D12*
%TO.P,R120,1*%
X152122500Y-93853000D03*
D13*
%TO.P,R120,2*%
X153947500Y-93853000D03*
%TD*%
D10*
%TO.C,R104*%
%TO.CFtp,R_0805_2012Metric*%
%TO.CVal,1K*%
%TO.CLbN,Resistor_SMD*%
%TO.CMnt,SMD*%
%TO.CRot,-90*%
X163957000Y-112268000D03*
D11*
X164906999Y-110588001D02*
X164906999Y-113947999D01*
X163007001Y-113947999D01*
X163007001Y-110588001D01*
X164906999Y-110588001D01*
D12*
%TO.P,R104,1*%
X163957000Y-111355500D03*
D13*
%TO.P,R104,2*%
X163957000Y-113180500D03*
%TD*%
D10*
%TO.C,R121*%
%TO.CFtp,R_0805_2012Metric*%
%TO.CVal,10K*%
%TO.CLbN,Resistor_SMD*%
%TO.CMnt,SMD*%
%TO.CRot,0*%
X169672000Y-117094000D03*
D11*
X171351999Y-116144001D02*
X171351999Y-118043999D01*
X167992001Y-118043999D01*
X167992001Y-116144001D01*
X171351999Y-116144001D01*
D12*
%TO.P,R121,1*%
X168759500Y-117094000D03*
D13*
%TO.P,R121,2*%
X170584500Y-117094000D03*
%TD*%
D10*
%TO.C,R113*%
%TO.CFtp,R_0805_2012Metric*%
%TO.CVal,0*%
%TO.CLbN,Resistor_SMD*%
%TO.CMnt,SMD*%
%TO.CRot,90*%
X141478000Y-85852000D03*
D11*
X142427999Y-84172001D02*
X142427999Y-87531999D01*
X140528001Y-87531999D01*
X140528001Y-84172001D01*
X142427999Y-84172001D01*
D12*
%TO.P,R113,1*%
X141478000Y-86764500D03*
D13*
%TO.P,R113,2*%
X141478000Y-84939500D03*
%TD*%
D10*
%TO.C,R122*%
%TO.CFtp,R_0805_2012Metric*%
%TO.CVal,10K*%
%TO.CLbN,Resistor_SMD*%
%TO.CMnt,SMD*%
%TO.CRot,180*%
X173863000Y-117094000D03*
D11*
X175542999Y-116144001D02*
X175542999Y-118043999D01*
X172183001Y-118043999D01*
X172183001Y-116144001D01*
X175542999Y-116144001D01*
D12*
%TO.P,R122,1*%
X174775500Y-117094000D03*
D13*
%TO.P,R122,2*%
X172950500Y-117094000D03*
%TD*%
D10*
%TO.C,R123*%
%TO.CFtp,R_0805_2012Metric*%
%TO.CVal,10K*%
%TO.CLbN,Resistor_SMD*%
%TO.CMnt,SMD*%
%TO.CRot,0*%
X153035000Y-98298000D03*
D11*
X154714999Y-97348001D02*
X154714999Y-99247999D01*
X151355001Y-99247999D01*
X151355001Y-97348001D01*
X154714999Y-97348001D01*
D12*
%TO.P,R123,1*%
X152122500Y-98298000D03*
D13*
%TO.P,R123,2*%
X153947500Y-98298000D03*
%TD*%
D10*
%TO.C,R105*%
%TO.CFtp,R_0805_2012Metric*%
%TO.CVal,20K*%
%TO.CLbN,Resistor_SMD*%
%TO.CMnt,SMD*%
%TO.CRot,180*%
X160401000Y-114046000D03*
D11*
X162080999Y-113096001D02*
X162080999Y-114995999D01*
X158721001Y-114995999D01*
X158721001Y-113096001D01*
X162080999Y-113096001D01*
D12*
%TO.P,R105,1*%
X161313500Y-114046000D03*
D13*
%TO.P,R105,2*%
X159488500Y-114046000D03*
%TD*%
D10*
%TO.C,R124*%
%TO.CFtp,R_0805_2012Metric*%
%TO.CVal,10K*%
%TO.CLbN,Resistor_SMD*%
%TO.CMnt,SMD*%
%TO.CRot,0*%
X153035000Y-96012000D03*
D11*
X154714999Y-95062001D02*
X154714999Y-96961999D01*
X151355001Y-96961999D01*
X151355001Y-95062001D01*
X154714999Y-95062001D01*
D12*
%TO.P,R124,1*%
X152122500Y-96012000D03*
D13*
%TO.P,R124,2*%
X153947500Y-96012000D03*
%TD*%
D10*
%TO.C,R103*%
%TO.CFtp,R_0805_2012Metric*%
%TO.CVal,270*%
%TO.CLbN,Resistor_SMD*%
%TO.CMnt,SMD*%
%TO.CRot,-90*%
X164846000Y-105410000D03*
D11*
X165795999Y-103730001D02*
X165795999Y-107089999D01*
X163896001Y-107089999D01*
X163896001Y-103730001D01*
X165795999Y-103730001D01*
D12*
%TO.P,R103,1*%
X164846000Y-104497500D03*
D13*
%TO.P,R103,2*%
X164846000Y-106322500D03*
%TD*%
D10*
%TO.C,R106*%
%TO.CFtp,R_0805_2012Metric*%
%TO.CVal,4\u002C7K*%
%TO.CLbN,Resistor_SMD*%
%TO.CMnt,SMD*%
%TO.CRot,90*%
X158623000Y-94869000D03*
D11*
X159572999Y-93189001D02*
X159572999Y-96548999D01*
X157673001Y-96548999D01*
X157673001Y-93189001D01*
X159572999Y-93189001D01*
D12*
%TO.P,R106,1*%
X158623000Y-95781500D03*
D13*
%TO.P,R106,2*%
X158623000Y-93956500D03*
%TD*%
D10*
%TO.C,R111*%
%TO.CFtp,R_0805_2012Metric*%
%TO.CVal,4\u002C7K*%
%TO.CLbN,Resistor_SMD*%
%TO.CMnt,SMD*%
%TO.CRot,180*%
X120142000Y-97282000D03*
D11*
X121821999Y-96332001D02*
X121821999Y-98231999D01*
X118462001Y-98231999D01*
X118462001Y-96332001D01*
X121821999Y-96332001D01*
D12*
%TO.P,R111,1*%
X121054500Y-97282000D03*
D13*
%TO.P,R111,2*%
X119229500Y-97282000D03*
%TD*%
D10*
%TO.C,R107*%
%TO.CFtp,R_0805_2012Metric*%
%TO.CVal,4\u002C7K*%
%TO.CLbN,Resistor_SMD*%
%TO.CMnt,SMD*%
%TO.CRot,180*%
X83312000Y-104267000D03*
D11*
X84991999Y-103317001D02*
X84991999Y-105216999D01*
X81632001Y-105216999D01*
X81632001Y-103317001D01*
X84991999Y-103317001D01*
D12*
%TO.P,R107,1*%
X84224500Y-104267000D03*
D13*
%TO.P,R107,2*%
X82399500Y-104267000D03*
%TD*%
D10*
%TO.C,R108*%
%TO.CFtp,R_0805_2012Metric*%
%TO.CVal,4\u002C7K*%
%TO.CLbN,Resistor_SMD*%
%TO.CMnt,SMD*%
%TO.CRot,180*%
X83312000Y-106553000D03*
D11*
X84991999Y-105603001D02*
X84991999Y-107502999D01*
X81632001Y-107502999D01*
X81632001Y-105603001D01*
X84991999Y-105603001D01*
D12*
%TO.P,R108,1*%
X84224500Y-106553000D03*
D13*
%TO.P,R108,2*%
X82399500Y-106553000D03*
%TD*%
D10*
%TO.C,R109*%
%TO.CFtp,R_0805_2012Metric*%
%TO.CVal,4\u002C7K*%
%TO.CLbN,Resistor_SMD*%
%TO.CMnt,SMD*%
%TO.CRot,180*%
X83312000Y-119126000D03*
D11*
X84991999Y-118176001D02*
X84991999Y-120075999D01*
X81632001Y-120075999D01*
X81632001Y-118176001D01*
X84991999Y-118176001D01*
D12*
%TO.P,R109,1*%
X84224500Y-119126000D03*
D13*
%TO.P,R109,2*%
X82399500Y-119126000D03*
%TD*%
D10*
%TO.C,R110*%
%TO.CFtp,R_0805_2012Metric*%
%TO.CVal,4\u002C7K*%
%TO.CLbN,Resistor_SMD*%
%TO.CMnt,SMD*%
%TO.CRot,180*%
X83312000Y-121412000D03*
D11*
X84991999Y-120462001D02*
X84991999Y-122361999D01*
X81632001Y-122361999D01*
X81632001Y-120462001D01*
X84991999Y-120462001D01*
D12*
%TO.P,R110,1*%
X84224500Y-121412000D03*
D13*
%TO.P,R110,2*%
X82399500Y-121412000D03*
%TD*%
D10*
%TO.C,R115*%
%TO.CFtp,R_0805_2012Metric*%
%TO.CVal,4.7K*%
%TO.CLbN,Resistor_SMD*%
%TO.CMnt,SMD*%
%TO.CRot,90*%
X158623000Y-90297000D03*
D11*
X159572999Y-88617001D02*
X159572999Y-91976999D01*
X157673001Y-91976999D01*
X157673001Y-88617001D01*
X159572999Y-88617001D01*
D12*
%TO.P,R115,1*%
X158623000Y-91209500D03*
D13*
%TO.P,R115,2*%
X158623000Y-89384500D03*
%TD*%
D10*
%TO.C,R116*%
%TO.CFtp,R_0805_2012Metric*%
%TO.CVal,270*%
%TO.CLbN,Resistor_SMD*%
%TO.CMnt,SMD*%
%TO.CRot,0*%
X161544000Y-86995000D03*
D11*
X163223999Y-86045001D02*
X163223999Y-87944999D01*
X159864001Y-87944999D01*
X159864001Y-86045001D01*
X163223999Y-86045001D01*
D12*
%TO.P,R116,1*%
X160631500Y-86995000D03*
D13*
%TO.P,R116,2*%
X162456500Y-86995000D03*
%TD*%
D10*
%TO.C,R215*%
%TO.CFtp,R_0805_2012Metric*%
%TO.CVal,10K*%
%TO.CLbN,Resistor_SMD*%
%TO.CMnt,SMD*%
%TO.CRot,180*%
X127889000Y-84455000D03*
D11*
X129568999Y-83505001D02*
X129568999Y-85404999D01*
X126209001Y-85404999D01*
X126209001Y-83505001D01*
X129568999Y-83505001D01*
D12*
%TO.P,R215,1*%
X128801500Y-84455000D03*
D13*
%TO.P,R215,2*%
X126976500Y-84455000D03*
%TD*%
D10*
%TO.C,R101*%
%TO.CFtp,R_0805_2012Metric*%
%TO.CVal,4\u002C7K*%
%TO.CLbN,Resistor_SMD*%
%TO.CMnt,SMD*%
%TO.CRot,0*%
X104267000Y-98933000D03*
D11*
X105946999Y-97983001D02*
X105946999Y-99882999D01*
X102587001Y-99882999D01*
X102587001Y-97983001D01*
X105946999Y-97983001D01*
D12*
%TO.P,R101,1*%
X103354500Y-98933000D03*
D13*
%TO.P,R101,2*%
X105179500Y-98933000D03*
%TD*%
D10*
%TO.C,R117*%
%TO.CFtp,R_0805_2012Metric*%
%TO.CVal,10K*%
%TO.CLbN,Resistor_SMD*%
%TO.CMnt,SMD*%
%TO.CRot,-90*%
X84836000Y-113792000D03*
D11*
X85785999Y-112112001D02*
X85785999Y-115471999D01*
X83886001Y-115471999D01*
X83886001Y-112112001D01*
X85785999Y-112112001D01*
D12*
%TO.P,R117,1*%
X84836000Y-112879500D03*
D13*
%TO.P,R117,2*%
X84836000Y-114704500D03*
%TD*%
D10*
%TO.C,R202*%
%TO.CFtp,R_0805_2012Metric*%
%TO.CVal,270*%
%TO.CLbN,Resistor_SMD*%
%TO.CMnt,SMD*%
%TO.CRot,0*%
X93218000Y-117094000D03*
D11*
X94897999Y-116144001D02*
X94897999Y-118043999D01*
X91538001Y-118043999D01*
X91538001Y-116144001D01*
X94897999Y-116144001D01*
D12*
%TO.P,R202,1*%
X92305500Y-117094000D03*
D13*
%TO.P,R202,2*%
X94130500Y-117094000D03*
%TD*%
D10*
%TO.C,R205*%
%TO.CFtp,R_0805_2012Metric*%
%TO.CVal,10K*%
%TO.CLbN,Resistor_SMD*%
%TO.CMnt,SMD*%
%TO.CRot,90*%
X192532000Y-82296000D03*
D11*
X193481999Y-80616001D02*
X193481999Y-83975999D01*
X191582001Y-83975999D01*
X191582001Y-80616001D01*
X193481999Y-80616001D01*
D12*
%TO.P,R205,1*%
X192532000Y-83208500D03*
D13*
%TO.P,R205,2*%
X192532000Y-81383500D03*
%TD*%
D10*
%TO.C,R203*%
%TO.CFtp,R_0805_2012Metric*%
%TO.CVal,270*%
%TO.CLbN,Resistor_SMD*%
%TO.CMnt,SMD*%
%TO.CRot,0*%
X93218000Y-121158000D03*
D11*
X94897999Y-120208001D02*
X94897999Y-122107999D01*
X91538001Y-122107999D01*
X91538001Y-120208001D01*
X94897999Y-120208001D01*
D12*
%TO.P,R203,1*%
X92305500Y-121158000D03*
D13*
%TO.P,R203,2*%
X94130500Y-121158000D03*
%TD*%
D10*
%TO.C,R204*%
%TO.CFtp,R_0805_2012Metric*%
%TO.CVal,270*%
%TO.CLbN,Resistor_SMD*%
%TO.CMnt,SMD*%
%TO.CRot,0*%
X93218000Y-125349000D03*
D11*
X94897999Y-124399001D02*
X94897999Y-126298999D01*
X91538001Y-126298999D01*
X91538001Y-124399001D01*
X94897999Y-124399001D01*
D12*
%TO.P,R204,1*%
X92305500Y-125349000D03*
D13*
%TO.P,R204,2*%
X94130500Y-125349000D03*
%TD*%
D10*
%TO.C,R206*%
%TO.CFtp,R_0805_2012Metric*%
%TO.CVal,270*%
%TO.CLbN,Resistor_SMD*%
%TO.CMnt,SMD*%
%TO.CRot,0*%
X93218000Y-129413000D03*
D11*
X94897999Y-128463001D02*
X94897999Y-130362999D01*
X91538001Y-130362999D01*
X91538001Y-128463001D01*
X94897999Y-128463001D01*
D12*
%TO.P,R206,1*%
X92305500Y-129413000D03*
D13*
%TO.P,R206,2*%
X94130500Y-129413000D03*
%TD*%
D10*
%TO.C,R201*%
%TO.CFtp,R_0805_2012Metric*%
%TO.CVal,10K*%
%TO.CLbN,Resistor_SMD*%
%TO.CMnt,SMD*%
%TO.CRot,180*%
X96520000Y-109728000D03*
D11*
X98199999Y-108778001D02*
X98199999Y-110677999D01*
X94840001Y-110677999D01*
X94840001Y-108778001D01*
X98199999Y-108778001D01*
D12*
%TO.P,R201,1*%
X97432500Y-109728000D03*
D13*
%TO.P,R201,2*%
X95607500Y-109728000D03*
%TD*%
D10*
%TO.C,R208*%
%TO.CFtp,R_0805_2012Metric*%
%TO.CVal,10K*%
%TO.CLbN,Resistor_SMD*%
%TO.CMnt,SMD*%
%TO.CRot,90*%
X164592000Y-82296000D03*
D11*
X165541999Y-80616001D02*
X165541999Y-83975999D01*
X163642001Y-83975999D01*
X163642001Y-80616001D01*
X165541999Y-80616001D01*
D12*
%TO.P,R208,1*%
X164592000Y-83208500D03*
D13*
%TO.P,R208,2*%
X164592000Y-81383500D03*
%TD*%
D10*
%TO.C,R210*%
%TO.CFtp,R_0805_2012Metric*%
%TO.CVal,1K*%
%TO.CLbN,Resistor_SMD*%
%TO.CMnt,SMD*%
%TO.CRot,0*%
X101854000Y-92837000D03*
D11*
X103533999Y-91887001D02*
X103533999Y-93786999D01*
X100174001Y-93786999D01*
X100174001Y-91887001D01*
X103533999Y-91887001D01*
D12*
%TO.P,R210,1*%
X100941500Y-92837000D03*
D13*
%TO.P,R210,2*%
X102766500Y-92837000D03*
%TD*%
D10*
%TO.C,R209*%
%TO.CFtp,R_0805_2012Metric*%
%TO.CVal,62*%
%TO.CLbN,Resistor_SMD*%
%TO.CMnt,SMD*%
%TO.CRot,180*%
X99695000Y-85471000D03*
D11*
X101374999Y-84521001D02*
X101374999Y-86420999D01*
X98015001Y-86420999D01*
X98015001Y-84521001D01*
X101374999Y-84521001D01*
D12*
%TO.P,R209,1*%
X100607500Y-85471000D03*
D13*
%TO.P,R209,2*%
X98782500Y-85471000D03*
%TD*%
D10*
%TO.C,R112*%
%TO.CFtp,R_0805_2012Metric*%
%TO.CVal,4\u002C7K*%
%TO.CLbN,Resistor_SMD*%
%TO.CMnt,SMD*%
%TO.CRot,90*%
X100584000Y-101473000D03*
D11*
X101533999Y-99793001D02*
X101533999Y-103152999D01*
X99634001Y-103152999D01*
X99634001Y-99793001D01*
X101533999Y-99793001D01*
D12*
%TO.P,R112,1*%
X100584000Y-102385500D03*
D13*
%TO.P,R112,2*%
X100584000Y-100560500D03*
%TD*%
D10*
%TO.C,R114*%
%TO.CFtp,R_0805_2012Metric*%
%TO.CVal,22*%
%TO.CLbN,Resistor_SMD*%
%TO.CMnt,SMD*%
%TO.CRot,-90*%
X134874000Y-113411000D03*
D11*
X135823999Y-111731001D02*
X135823999Y-115090999D01*
X133924001Y-115090999D01*
X133924001Y-111731001D01*
X135823999Y-111731001D01*
D12*
%TO.P,R114,1*%
X134874000Y-112498500D03*
D13*
%TO.P,R114,2*%
X134874000Y-114323500D03*
%TD*%
D10*
%TO.C,R214*%
%TO.CFtp,R_0805_2012Metric*%
%TO.CVal,4\u002C7K*%
%TO.CLbN,Resistor_SMD*%
%TO.CMnt,SMD*%
%TO.CRot,90*%
X157734000Y-125476000D03*
D11*
X158683999Y-123796001D02*
X158683999Y-127155999D01*
X156784001Y-127155999D01*
X156784001Y-123796001D01*
X158683999Y-123796001D01*
D12*
%TO.P,R214,1*%
X157734000Y-126388500D03*
D13*
%TO.P,R214,2*%
X157734000Y-124563500D03*
%TD*%
D10*
%TO.C,R213*%
%TO.CFtp,R_0805_2012Metric*%
%TO.CVal,4\u002C7K*%
%TO.CLbN,Resistor_SMD*%
%TO.CMnt,SMD*%
%TO.CRot,90*%
X160274000Y-125476000D03*
D11*
X161223999Y-123796001D02*
X161223999Y-127155999D01*
X159324001Y-127155999D01*
X159324001Y-123796001D01*
X161223999Y-123796001D01*
D12*
%TO.P,R213,1*%
X160274000Y-126388500D03*
D13*
%TO.P,R213,2*%
X160274000Y-124563500D03*
%TD*%
D10*
%TO.C,R212*%
%TO.CFtp,R_0805_2012Metric*%
%TO.CVal,4\u002C7K*%
%TO.CLbN,Resistor_SMD*%
%TO.CMnt,SMD*%
%TO.CRot,90*%
X162814000Y-125476000D03*
D11*
X163763999Y-123796001D02*
X163763999Y-127155999D01*
X161864001Y-127155999D01*
X161864001Y-123796001D01*
X163763999Y-123796001D01*
D12*
%TO.P,R212,1*%
X162814000Y-126388500D03*
D13*
%TO.P,R212,2*%
X162814000Y-124563500D03*
%TD*%
D10*
%TO.C,R211*%
%TO.CFtp,R_0805_2012Metric*%
%TO.CVal,4\u002C7K*%
%TO.CLbN,Resistor_SMD*%
%TO.CMnt,SMD*%
%TO.CRot,90*%
X165354000Y-125476000D03*
D11*
X166303999Y-123796001D02*
X166303999Y-127155999D01*
X164404001Y-127155999D01*
X164404001Y-123796001D01*
X166303999Y-123796001D01*
D12*
%TO.P,R211,1*%
X165354000Y-126388500D03*
D13*
%TO.P,R211,2*%
X165354000Y-124563500D03*
%TD*%
D10*
%TO.C,R207*%
%TO.CFtp,R_0805_2012Metric*%
%TO.CVal,270*%
%TO.CLbN,Resistor_SMD*%
%TO.CMnt,SMD*%
%TO.CRot,0*%
X105410000Y-133858000D03*
D11*
X107089999Y-132908001D02*
X107089999Y-134807999D01*
X103730001Y-134807999D01*
X103730001Y-132908001D01*
X107089999Y-132908001D01*
D12*
%TO.P,R207,1*%
X104497500Y-133858000D03*
D13*
%TO.P,R207,2*%
X106322500Y-133858000D03*
%TD*%
D10*
%TO.C,R301*%
%TO.CFtp,R_0805_2012Metric*%
%TO.CVal,4K7*%
%TO.CLbN,Resistor_SMD*%
%TO.CMnt,SMD*%
%TO.CRot,-90*%
X218250000Y-73000000D03*
D11*
X219199999Y-71320001D02*
X219199999Y-74679999D01*
X217300001Y-74679999D01*
X217300001Y-71320001D01*
X219199999Y-71320001D01*
D12*
%TO.P,R301,1*%
X218250000Y-72087500D03*
D13*
%TO.P,R301,2*%
X218250000Y-73912500D03*
%TD*%
D10*
%TO.C,R303*%
%TO.CFtp,R_0805_2012Metric*%
%TO.CVal,1K*%
%TO.CLbN,Resistor_SMD*%
%TO.CMnt,SMD*%
%TO.CRot,0*%
X206375000Y-76835000D03*
D11*
X208054999Y-75885001D02*
X208054999Y-77784999D01*
X204695001Y-77784999D01*
X204695001Y-75885001D01*
X208054999Y-75885001D01*
D12*
%TO.P,R303,1*%
X205462500Y-76835000D03*
D13*
%TO.P,R303,2*%
X207287500Y-76835000D03*
%TD*%
D10*
%TO.C,R304*%
%TO.CFtp,R_0805_2012Metric*%
%TO.CVal,1K*%
%TO.CLbN,Resistor_SMD*%
%TO.CMnt,SMD*%
%TO.CRot,0*%
X206375000Y-80645000D03*
D11*
X208054999Y-79695001D02*
X208054999Y-81594999D01*
X204695001Y-81594999D01*
X204695001Y-79695001D01*
X208054999Y-79695001D01*
D12*
%TO.P,R304,1*%
X205462500Y-80645000D03*
D13*
%TO.P,R304,2*%
X207287500Y-80645000D03*
%TD*%
D10*
%TO.C,R302*%
%TO.CFtp,R_Axial_DIN0207_L6.3mm_D2.5mm_P10.16mm_Horizontal*%
%TO.CVal,3\u002C3*%
%TO.CLbN,Resistor_THT*%
%TO.CMnt,TH*%
%TO.CRot,0*%
X207010000Y-134620000D03*
D11*
X218219999Y-133120001D02*
X218219999Y-136119999D01*
X205960001Y-136119999D01*
X205960001Y-133120001D01*
X218219999Y-133120001D01*
D12*
%TO.P,R302,1*%
X207010000Y-134620000D03*
D13*
%TO.P,R302,2*%
X217170000Y-134620000D03*
%TD*%
D10*
%TO.C,RCAN202*%
%TO.CFtp,R_0805_2012Metric*%
%TO.CVal,R*%
%TO.CLbN,Resistor_SMD*%
%TO.CMnt,SMD*%
%TO.CRot,0*%
X99695000Y-87757000D03*
D11*
X101374999Y-86807001D02*
X101374999Y-88706999D01*
X98015001Y-88706999D01*
X98015001Y-86807001D01*
X101374999Y-86807001D01*
D12*
%TO.P,RCAN202,1*%
X98782500Y-87757000D03*
D13*
%TO.P,RCAN202,2*%
X100607500Y-87757000D03*
%TD*%
D10*
%TO.C,RCAN201*%
%TO.CFtp,R_0805_2012Metric*%
%TO.CVal,R*%
%TO.CLbN,Resistor_SMD*%
%TO.CMnt,SMD*%
%TO.CRot,0*%
X99695000Y-90043000D03*
D11*
X101374999Y-89093001D02*
X101374999Y-90992999D01*
X98015001Y-90992999D01*
X98015001Y-89093001D01*
X101374999Y-89093001D01*
D12*
%TO.P,RCAN201,1*%
X98782500Y-90043000D03*
D13*
%TO.P,RCAN201,2*%
X100607500Y-90043000D03*
%TD*%
D10*
%TO.C,LED_RST101*%
%TO.CFtp,LED_1206_3216Metric*%
%TO.CVal,LED_RED*%
%TO.CLbN,LED_SMD*%
%TO.CMnt,SMD*%
%TO.CRot,90*%
X164846000Y-89281000D03*
D11*
X165965999Y-87001001D02*
X165965999Y-91560999D01*
X163726001Y-91560999D01*
X163726001Y-87001001D01*
X165965999Y-87001001D01*
D12*
%TO.P,LED_RST101,1,K*%
X164846000Y-90681000D03*
D13*
%TO.P,LED_RST101,2,A*%
X164846000Y-87881000D03*
%TD*%
D10*
%TO.C,RS201*%
%TO.CFtp,PinHeader_1x01_P2.54mm_Vertical*%
%TO.CVal,CONN_1*%
%TO.CLbN,Connector_PinHeader_2.54mm*%
%TO.CMnt,TH*%
%TO.CRot,-90*%
X100457000Y-95758000D03*
D11*
X102256999Y-93958001D02*
X102256999Y-97557999D01*
X98657001Y-97557999D01*
X98657001Y-93958001D01*
X102256999Y-93958001D01*
D12*
%TO.P,RS201,1,1*%
X100457000Y-95758000D03*
%TD*%
D10*
%TO.C,RST_SW101*%
%TO.CFtp,SW_PUSH_SMALL*%
%TO.CVal,SW_PUSH*%
%TO.CLbN,kit-dev-coldfire*%
%TO.CMnt,TH*%
%TO.CRot,180*%
X172339000Y-89789000D03*
D11*
X176838999Y-85789001D02*
X176838999Y-93788999D01*
X167839001Y-93788999D01*
X167839001Y-85789001D01*
X176838999Y-85789001D01*
D12*
%TO.P,RST_SW101,1,1*%
X176149000Y-92329000D03*
X168529000Y-92329000D03*
D13*
%TO.P,RST_SW101,2,2*%
X176149000Y-87249000D03*
X168529000Y-87249000D03*
%TD*%
D10*
%TO.C,SW201*%
%TO.CFtp,SW_PUSH_SMALL*%
%TO.CVal,SW_PUSH*%
%TO.CLbN,kit-dev-coldfire*%
%TO.CMnt,TH*%
%TO.CRot,0*%
X172339000Y-110617000D03*
D11*
X176838999Y-106617001D02*
X176838999Y-114616999D01*
X167839001Y-114616999D01*
X167839001Y-106617001D01*
X176838999Y-106617001D01*
D12*
%TO.P,SW201,1,1*%
X168529000Y-108077000D03*
X176149000Y-108077000D03*
D13*
%TO.P,SW201,2,2*%
X168529000Y-113157000D03*
X176149000Y-113157000D03*
%TD*%
D10*
%TO.C,SW202*%
%TO.CFtp,SW_PUSH_SMALL*%
%TO.CVal,SW_PUSH*%
%TO.CLbN,kit-dev-coldfire*%
%TO.CMnt,TH*%
%TO.CRot,0*%
X172466000Y-122301000D03*
D11*
X176965999Y-118301001D02*
X176965999Y-126300999D01*
X167966001Y-126300999D01*
X167966001Y-118301001D01*
X176965999Y-118301001D01*
D12*
%TO.P,SW202,1,1*%
X168656000Y-119761000D03*
X176276000Y-119761000D03*
D13*
%TO.P,SW202,2,2*%
X168656000Y-124841000D03*
X176276000Y-124841000D03*
%TD*%
D10*
%TO.C,SW_ONOFF201*%
%TO.CFtp,SW_SPDT*%
%TO.CVal,SWITCH_INV*%
%TO.CLbN,kit-dev-coldfire*%
%TO.CMnt,TH*%
%TO.CRot,90*%
X89500000Y-71374000D03*
D11*
X96249999Y-36374001D02*
X96249999Y-73873999D01*
X82750001Y-73873999D01*
X82750001Y-36374001D01*
X96249999Y-36374001D01*
D12*
%TO.P,SW_ONOFF201,1,1*%
X84420000Y-71374000D03*
D13*
%TO.P,SW_ONOFF201,2,2*%
X89500000Y-71374000D03*
%TO.P,SW_ONOFF201,3,3*%
X94580000Y-71374000D03*
%TD*%
D10*
%TO.C,TA-101*%
%TO.CFtp,PinHeader_1x01_P2.54mm_Vertical*%
%TO.CVal,CONN_1*%
%TO.CLbN,Connector_PinHeader_2.54mm*%
%TO.CMnt,TH*%
%TO.CRot,-90*%
X83439000Y-138557000D03*
D11*
X85238999Y-136757001D02*
X85238999Y-140356999D01*
X81639001Y-140356999D01*
X81639001Y-136757001D01*
X85238999Y-136757001D01*
D12*
%TO.P,TA-101,1,1*%
X83439000Y-138557000D03*
%TD*%
D10*
%TO.C,TB201*%
%TO.CFtp,Altech_AK300_1x02_P5.00mm_45-Degree*%
%TO.CVal,CONN_2*%
%TO.CLbN,TerminalBlock_Altech*%
%TO.CMnt,TH*%
%TO.CRot,-90*%
X76000000Y-65500000D03*
D11*
X82249999Y-62750001D02*
X82249999Y-73249999D01*
X69250001Y-73249999D01*
X69250001Y-62750001D01*
X82249999Y-62750001D01*
D12*
%TO.P,TB201,1,P1*%
X76000000Y-65500000D03*
D13*
%TO.P,TB201,2,PM*%
X76000000Y-70500000D03*
%TD*%
D10*
%TO.C,U102*%
%TO.CFtp,LQFP-100_14x14mm_P0.5mm*%
%TO.CVal,MCF5213-LQFP100*%
%TO.CLbN,Package_QFP*%
%TO.CMnt,SMD*%
%TO.CRot,-90*%
X135382000Y-101473000D03*
D11*
X141781999Y-92753001D02*
X141781999Y-94223001D01*
X142631999Y-94223001D01*
X142631999Y-95073001D01*
X144101999Y-95073001D01*
X144101999Y-107872999D01*
X142631999Y-107872999D01*
X142631999Y-108722999D01*
X141781999Y-108722999D01*
X141781999Y-110192999D01*
X128982001Y-110192999D01*
X128982001Y-108722999D01*
X128132001Y-108722999D01*
X128132001Y-107872999D01*
X126662001Y-107872999D01*
X126662001Y-95073001D01*
X128132001Y-95073001D01*
X128132001Y-94223001D01*
X128982001Y-94223001D01*
X128982001Y-92753001D01*
X141781999Y-92753001D01*
D12*
%TO.P,U102,1,VCC*%
X141382000Y-93798000D03*
D13*
%TO.P,U102,2,VCC*%
X140882000Y-93798000D03*
%TO.P,U102,3,GND*%
X140382000Y-93798000D03*
%TO.P,U102,4,~{URTS1}/SYNCB/UTXD2/PUB2*%
X139882000Y-93798000D03*
%TO.P,U102,5,TEST*%
X139382000Y-93798000D03*
%TO.P,U102,6,~{UCTS0}/CANRX/PUA3*%
X138882000Y-93798000D03*
%TO.P,U102,7,URXD0/PUA1*%
X138382000Y-93798000D03*
%TO.P,U102,8,UTXD0/PUA0*%
X137882000Y-93798000D03*
%TO.P,U102,9,~{URTS0}/CANTX/PUA2*%
X137382000Y-93798000D03*
%TO.P,U102,10,SCL/CANTX/PAS0/UTXD2*%
X136882000Y-93798000D03*
%TO.P,U102,11,SDA/CANRX/PAS1/URXD2*%
X136382000Y-93798000D03*
%TO.P,U102,12,QSPI_CS3/SYNCA/SYNCB/PQS6*%
X135882000Y-93798000D03*
%TO.P,U102,13,QSPI_CS2/PQS5*%
X135382000Y-93798000D03*
%TO.P,U102,14,VCC*%
X134882000Y-93798000D03*
%TO.P,U102,15,GND*%
X134382000Y-93798000D03*
%TO.P,U102,16,QSPI_DIN/EZPD/CANRX/RXD1/PQS1*%
X133882000Y-93798000D03*
%TO.P,U102,17,QSPI_DOUT/EZPQ/CANTX/RXD0/PQS0*%
X133382000Y-93798000D03*
%TO.P,U102,18,QSPI_CLK/EZPCK/SCL/RTS1/PQS2*%
X132882000Y-93798000D03*
%TO.P,U102,19,QSPI_CS1/PQS4*%
X132382000Y-93798000D03*
%TO.P,U102,20,QSPI_CS0/SDA/CTS1/PQS3*%
X131882000Y-93798000D03*
%TO.P,U102,21,RCON/EZPCS*%
X131382000Y-93798000D03*
%TO.P,U102,22,VCC*%
X130882000Y-93798000D03*
%TO.P,U102,23,VCC*%
X130382000Y-93798000D03*
%TO.P,U102,24,GND*%
X129882000Y-93798000D03*
%TO.P,U102,25,GND*%
X129382000Y-93798000D03*
%TO.P,U102,26,JTAG_EN*%
X127707000Y-95473000D03*
%TO.P,U102,27,~{UCTS2}/PUC3*%
X127707000Y-95973000D03*
%TO.P,U102,28,URXD2/PUC1*%
X127707000Y-96473000D03*
%TO.P,U102,29,UTXD2/PUC0*%
X127707000Y-96973000D03*
%TO.P,U102,30,~{URTS2}/PUC2*%
X127707000Y-97473000D03*
%TO.P,U102,31,DTIN2/DTOUT2/PWM4/PTC2*%
X127707000Y-97973000D03*
%TO.P,U102,32,DTIN3/DTOUT3/PWM6/PTC3*%
X127707000Y-98473000D03*
%TO.P,U102,33,PWM3/PTD1*%
X127707000Y-98973000D03*
%TO.P,U102,34,VCC*%
X127707000Y-99473000D03*
%TO.P,U102,35,GND*%
X127707000Y-99973000D03*
%TO.P,U102,36,DTIN0/DTOUT0/PWM0/PTC0*%
X127707000Y-100473000D03*
%TO.P,U102,37,DTIN1/DTOUT1/PWM2/PTC1*%
X127707000Y-100973000D03*
%TO.P,U102,38,PWM1/PTD0*%
X127707000Y-101473000D03*
%TO.P,U102,39,CLKMOD1*%
X127707000Y-101973000D03*
%TO.P,U102,40,CLKMOD0*%
X127707000Y-102473000D03*
%TO.P,U102,41,VCC*%
X127707000Y-102973000D03*
%TO.P,U102,42,GND*%
X127707000Y-103473000D03*
%TO.P,U102,43,AN0/PAN0*%
X127707000Y-103973000D03*
%TO.P,U102,44,AN1/PAN1*%
X127707000Y-104473000D03*
%TO.P,U102,45,AN2/PAN2*%
X127707000Y-104973000D03*
%TO.P,U102,46,AN3/PAN3*%
X127707000Y-105473000D03*
%TO.P,U102,47,VSSA*%
X127707000Y-105973000D03*
%TO.P,U102,48,VRL*%
X127707000Y-106473000D03*
%TO.P,U102,49,VRH*%
X127707000Y-106973000D03*
%TO.P,U102,50,VCCA*%
X127707000Y-107473000D03*
%TO.P,U102,51,AN7/PAN7*%
X129382000Y-109148000D03*
%TO.P,U102,52,AN6/PAN6*%
X129882000Y-109148000D03*
%TO.P,U102,53,AN5/PAN5*%
X130382000Y-109148000D03*
%TO.P,U102,54,AN4/PAN4*%
X130882000Y-109148000D03*
%TO.P,U102,55,VSTBY*%
X131382000Y-109148000D03*
%TO.P,U102,56,GND*%
X131882000Y-109148000D03*
%TO.P,U102,57,VCC*%
X132382000Y-109148000D03*
%TO.P,U102,58,GPT0/PWM1/PTA0*%
X132882000Y-109148000D03*
%TO.P,U102,59,GPT1/PWM3/PTA1*%
X133382000Y-109148000D03*
%TO.P,U102,60,PWM5/PTD2*%
X133882000Y-109148000D03*
%TO.P,U102,61,GPT2PWM5//PTA2*%
X134382000Y-109148000D03*
%TO.P,U102,62,GPT3/PWM7/PTA3*%
X134882000Y-109148000D03*
%TO.P,U102,63,PWM7/PTD3*%
X135382000Y-109148000D03*
%TO.P,U102,64,TCLK/PSTCLK/CLKOUT*%
X135882000Y-109148000D03*
%TO.P,U102,65,PST0/PDD0*%
X136382000Y-109148000D03*
%TO.P,U102,66,PST1/PDD1*%
X136882000Y-109148000D03*
%TO.P,U102,67,GND*%
X137382000Y-109148000D03*
%TO.P,U102,68,VCC*%
X137882000Y-109148000D03*
%TO.P,U102,69,PST2/PDD2*%
X138382000Y-109148000D03*
%TO.P,U102,70,PST3/PDD3*%
X138882000Y-109148000D03*
%TO.P,U102,71,GNDPLL*%
X139382000Y-109148000D03*
%TO.P,U102,72,XTAL*%
X139882000Y-109148000D03*
%TO.P,U102,73,CLKIN/EXTAL*%
X140382000Y-109148000D03*
%TO.P,U102,74,VCCPLL*%
X140882000Y-109148000D03*
%TO.P,U102,75,GND*%
X141382000Y-109148000D03*
%TO.P,U102,76,~{BKPT}/TMS*%
X143057000Y-107473000D03*
%TO.P,U102,77,DDATA0/PDD4*%
X143057000Y-106973000D03*
%TO.P,U102,78,DDATA1/PDD5*%
X143057000Y-106473000D03*
%TO.P,U102,79,DSI/TDI*%
X143057000Y-105973000D03*
%TO.P,U102,80,DSO/TDO*%
X143057000Y-105473000D03*
%TO.P,U102,81,VCC*%
X143057000Y-104973000D03*
%TO.P,U102,82,GND*%
X143057000Y-104473000D03*
%TO.P,U102,83,DDATA2/PDD6*%
X143057000Y-103973000D03*
%TO.P,U102,84,DDATA3/PDD7*%
X143057000Y-103473000D03*
%TO.P,U102,85,DSCLK/~{TRST}*%
X143057000Y-102973000D03*
%TO.P,U102,86,ALLPST*%
X143057000Y-102473000D03*
%TO.P,U102,87,~{IRQ1}/PNQ1/SYNCA/PWM1*%
X143057000Y-101973000D03*
%TO.P,U102,88,~{IRQ2}/PNQ2*%
X143057000Y-101473000D03*
%TO.P,U102,89,~{IRQ3}/PNQ3*%
X143057000Y-100973000D03*
%TO.P,U102,90,~{IRQ4}/PNQ4*%
X143057000Y-100473000D03*
%TO.P,U102,91,~{IRQ5}/PNQ5*%
X143057000Y-99973000D03*
%TO.P,U102,92,GND*%
X143057000Y-99473000D03*
%TO.P,U102,93,VCC*%
X143057000Y-98973000D03*
%TO.P,U102,94,~{IRQ6}/PNQ6*%
X143057000Y-98473000D03*
%TO.P,U102,95,~{IRQ7}/PNQ7*%
X143057000Y-97973000D03*
%TO.P,U102,96,RSTI*%
X143057000Y-97473000D03*
%TO.P,U102,97,RSTO*%
X143057000Y-96973000D03*
%TO.P,U102,98,~{UCTS1}/SYNCA/URXD2/PUB3*%
X143057000Y-96473000D03*
%TO.P,U102,99,UTXD1/PUB0*%
X143057000Y-95973000D03*
%TO.P,U102,100,URXD1/PUB1*%
X143057000Y-95473000D03*
%TD*%
D10*
%TO.C,U101*%
%TO.CFtp,SOT353*%
%TO.CVal,74AHC1G14*%
%TO.CLbN,kit-dev-coldfire*%
%TO.CMnt,SMD*%
%TO.CRot,0*%
X160528000Y-108331000D03*
D11*
X162027999Y-107081001D02*
X162027999Y-109580999D01*
X159028001Y-109580999D01*
X159028001Y-107081001D01*
X162027999Y-107081001D01*
D12*
%TO.P,U101,1*%
X159512000Y-107696000D03*
D13*
%TO.P,U101,2*%
X159512000Y-108331000D03*
%TO.P,U101,3,GND*%
X159512000Y-108966000D03*
%TO.P,U101,4*%
X161544000Y-108966000D03*
%TO.P,U101,5,VCC*%
X161544000Y-107696000D03*
%TD*%
D10*
%TO.C,U202*%
%TO.CFtp,SOIC-16_3.9x9.9mm_P1.27mm*%
%TO.CVal,MAX202*%
%TO.CLbN,Package_SO*%
%TO.CMnt,SMD*%
%TO.CRot,0*%
X186690000Y-77851000D03*
D11*
X190389999Y-72651001D02*
X190389999Y-83050999D01*
X182990001Y-83050999D01*
X182990001Y-72651001D01*
X190389999Y-72651001D01*
D12*
%TO.P,U202,1,C1+*%
X184215000Y-73406000D03*
D13*
%TO.P,U202,2,V+*%
X184215000Y-74676000D03*
%TO.P,U202,3,C1-*%
X184215000Y-75946000D03*
%TO.P,U202,4,C2+*%
X184215000Y-77216000D03*
%TO.P,U202,5,C2-*%
X184215000Y-78486000D03*
%TO.P,U202,6,V-*%
X184215000Y-79756000D03*
%TO.P,U202,7,T2OUT*%
X184215000Y-81026000D03*
%TO.P,U202,8,R2IN*%
X184215000Y-82296000D03*
%TO.P,U202,9,R2OUT*%
X189165000Y-82296000D03*
%TO.P,U202,10,T2IN*%
X189165000Y-81026000D03*
%TO.P,U202,11,T1IN*%
X189165000Y-79756000D03*
%TO.P,U202,12,R1OUT*%
X189165000Y-78486000D03*
%TO.P,U202,13,R1IN*%
X189165000Y-77216000D03*
%TO.P,U202,14,T1OUT*%
X189165000Y-75946000D03*
%TO.P,U202,15,GND*%
X189165000Y-74676000D03*
%TO.P,U202,16,VCC*%
X189165000Y-73406000D03*
%TD*%
D10*
%TO.C,U203*%
%TO.CFtp,SOIC-16_3.9x9.9mm_P1.27mm*%
%TO.CVal,MAX202*%
%TO.CLbN,Package_SO*%
%TO.CMnt,SMD*%
%TO.CRot,0*%
X158750000Y-77851000D03*
D11*
X162449999Y-72651001D02*
X162449999Y-83050999D01*
X155050001Y-83050999D01*
X155050001Y-72651001D01*
X162449999Y-72651001D01*
D12*
%TO.P,U203,1,C1+*%
X156275000Y-73406000D03*
D13*
%TO.P,U203,2,V+*%
X156275000Y-74676000D03*
%TO.P,U203,3,C1-*%
X156275000Y-75946000D03*
%TO.P,U203,4,C2+*%
X156275000Y-77216000D03*
%TO.P,U203,5,C2-*%
X156275000Y-78486000D03*
%TO.P,U203,6,V-*%
X156275000Y-79756000D03*
%TO.P,U203,7,T2OUT*%
X156275000Y-81026000D03*
%TO.P,U203,8,R2IN*%
X156275000Y-82296000D03*
%TO.P,U203,9,R2OUT*%
X161225000Y-82296000D03*
%TO.P,U203,10,T2IN*%
X161225000Y-81026000D03*
%TO.P,U203,11,T1IN*%
X161225000Y-79756000D03*
%TO.P,U203,12,R1OUT*%
X161225000Y-78486000D03*
%TO.P,U203,13,R1IN*%
X161225000Y-77216000D03*
%TO.P,U203,14,T1OUT*%
X161225000Y-75946000D03*
%TO.P,U203,15,GND*%
X161225000Y-74676000D03*
%TO.P,U203,16,VCC*%
X161225000Y-73406000D03*
%TD*%
D10*
%TO.C,U205*%
%TO.CFtp,SOIC-8_3.9x4.9mm_P1.27mm*%
%TO.CVal,PCA82C251*%
%TO.CLbN,Package_SO*%
%TO.CMnt,SMD*%
%TO.CRot,180*%
X105918000Y-88392000D03*
D11*
X109617999Y-85692001D02*
X109617999Y-91091999D01*
X102218001Y-91091999D01*
X102218001Y-85692001D01*
X109617999Y-85692001D01*
D12*
%TO.P,U205,1,TxD*%
X108393000Y-90297000D03*
D13*
%TO.P,U205,2,GND*%
X108393000Y-89027000D03*
%TO.P,U205,3,VCC*%
X108393000Y-87757000D03*
%TO.P,U205,4,RxD*%
X108393000Y-86487000D03*
%TO.P,U205,5,Vref*%
X103443000Y-86487000D03*
%TO.P,U205,6,CAN-*%
X103443000Y-87757000D03*
%TO.P,U205,7,CAN+*%
X103443000Y-89027000D03*
%TO.P,U205,8,Rsl*%
X103443000Y-90297000D03*
%TD*%
D10*
%TO.C,U204*%
%TO.CFtp,SOIC-16_3.9x9.9mm_P1.27mm*%
%TO.CVal,MAX202*%
%TO.CLbN,Package_SO*%
%TO.CMnt,SMD*%
%TO.CRot,0*%
X125730000Y-77851000D03*
D11*
X129429999Y-72651001D02*
X129429999Y-83050999D01*
X122030001Y-83050999D01*
X122030001Y-72651001D01*
X129429999Y-72651001D01*
D12*
%TO.P,U204,1,C1+*%
X123255000Y-73406000D03*
D13*
%TO.P,U204,2,V+*%
X123255000Y-74676000D03*
%TO.P,U204,3,C1-*%
X123255000Y-75946000D03*
%TO.P,U204,4,C2+*%
X123255000Y-77216000D03*
%TO.P,U204,5,C2-*%
X123255000Y-78486000D03*
%TO.P,U204,6,V-*%
X123255000Y-79756000D03*
%TO.P,U204,7,T2OUT*%
X123255000Y-81026000D03*
%TO.P,U204,8,R2IN*%
X123255000Y-82296000D03*
%TO.P,U204,9,R2OUT*%
X128205000Y-82296000D03*
%TO.P,U204,10,T2IN*%
X128205000Y-81026000D03*
%TO.P,U204,11,T1IN*%
X128205000Y-79756000D03*
%TO.P,U204,12,R1OUT*%
X128205000Y-78486000D03*
%TO.P,U204,13,R1IN*%
X128205000Y-77216000D03*
%TO.P,U204,14,T1OUT*%
X128205000Y-75946000D03*
%TO.P,U204,15,GND*%
X128205000Y-74676000D03*
%TO.P,U204,16,VCC*%
X128205000Y-73406000D03*
%TD*%
D10*
%TO.C,UART_EN201*%
%TO.CFtp,PinHeader_2x04_P2.54mm_Vertical*%
%TO.CVal,CONN_4X2*%
%TO.CLbN,Connector_PinHeader_2.54mm*%
%TO.CMnt,TH*%
%TO.CRot,0*%
X197485000Y-74549000D03*
D11*
X201834999Y-72749001D02*
X201834999Y-83948999D01*
X195685001Y-83948999D01*
X195685001Y-72749001D01*
X201834999Y-72749001D01*
D12*
%TO.P,UART_EN201,1,1*%
X197485000Y-74549000D03*
D13*
%TO.P,UART_EN201,2,2*%
X200025000Y-74549000D03*
%TO.P,UART_EN201,3,3*%
X197485000Y-77089000D03*
%TO.P,UART_EN201,4,4*%
X200025000Y-77089000D03*
%TO.P,UART_EN201,5,5*%
X197485000Y-79629000D03*
%TO.P,UART_EN201,6,6*%
X200025000Y-79629000D03*
%TO.P,UART_EN201,7,7*%
X197485000Y-82169000D03*
%TO.P,UART_EN201,8,8*%
X200025000Y-82169000D03*
%TD*%
D10*
%TO.C,UART_EN202*%
%TO.CFtp,PinHeader_2x04_P2.54mm_Vertical*%
%TO.CVal,CONN_4X2*%
%TO.CLbN,Connector_PinHeader_2.54mm*%
%TO.CMnt,TH*%
%TO.CRot,0*%
X169545000Y-74549000D03*
D11*
X173894999Y-72749001D02*
X173894999Y-83948999D01*
X167745001Y-83948999D01*
X167745001Y-72749001D01*
X173894999Y-72749001D01*
D12*
%TO.P,UART_EN202,1,1*%
X169545000Y-74549000D03*
D13*
%TO.P,UART_EN202,2,2*%
X172085000Y-74549000D03*
%TO.P,UART_EN202,3,3*%
X169545000Y-77089000D03*
%TO.P,UART_EN202,4,4*%
X172085000Y-77089000D03*
%TO.P,UART_EN202,5,5*%
X169545000Y-79629000D03*
%TO.P,UART_EN202,6,6*%
X172085000Y-79629000D03*
%TO.P,UART_EN202,7,7*%
X169545000Y-82169000D03*
%TO.P,UART_EN202,8,8*%
X172085000Y-82169000D03*
%TD*%
D10*
%TO.C,UART_EN203*%
%TO.CFtp,PinHeader_2x04_P2.54mm_Vertical*%
%TO.CVal,CONN_4X2*%
%TO.CLbN,Connector_PinHeader_2.54mm*%
%TO.CMnt,TH*%
%TO.CRot,0*%
X135763000Y-74549000D03*
D11*
X140112999Y-72749001D02*
X140112999Y-83948999D01*
X133963001Y-83948999D01*
X133963001Y-72749001D01*
X140112999Y-72749001D01*
D12*
%TO.P,UART_EN203,1,1*%
X135763000Y-74549000D03*
D13*
%TO.P,UART_EN203,2,2*%
X138303000Y-74549000D03*
%TO.P,UART_EN203,3,3*%
X135763000Y-77089000D03*
%TO.P,UART_EN203,4,4*%
X138303000Y-77089000D03*
%TO.P,UART_EN203,5,5*%
X135763000Y-79629000D03*
%TO.P,UART_EN203,6,6*%
X138303000Y-79629000D03*
%TO.P,UART_EN203,7,7*%
X135763000Y-82169000D03*
%TO.P,UART_EN203,8,8*%
X138303000Y-82169000D03*
%TD*%
D10*
%TO.C,VDDA101*%
%TO.CFtp,PinHeader_1x02_P2.54mm_Vertical*%
%TO.CVal,JUMPER*%
%TO.CLbN,Connector_PinHeader_2.54mm*%
%TO.CMnt,TH*%
%TO.CRot,90*%
X112014000Y-108458000D03*
D11*
X116363999Y-106658001D02*
X116363999Y-110257999D01*
X110214001Y-110257999D01*
X110214001Y-106658001D01*
X116363999Y-106658001D01*
D12*
%TO.P,VDDA101,1,1*%
X112014000Y-108458000D03*
D13*
%TO.P,VDDA101,2,2*%
X114554000Y-108458000D03*
%TD*%
D10*
%TO.C,VR201*%
%TO.CFtp,TO-263-5_TabPin3*%
%TO.CVal,LT1129_QPACK*%
%TO.CLbN,Package_TO_SOT_SMD*%
%TO.CMnt,SMD*%
%TO.CRot,90*%
X78105000Y-88265000D03*
D11*
X83754999Y-81815001D02*
X83754999Y-98464999D01*
X72455001Y-98464999D01*
X72455001Y-81815001D01*
X83754999Y-81815001D01*
D12*
%TO.P,VR201,1,OUT*%
X74705000Y-95915000D03*
D13*
%TO.P,VR201,2,SENSE*%
X76405000Y-95915000D03*
%TO.P,VR201,3,GND*%
X78105000Y-95915000D03*
X75330000Y-89190000D03*
X80880000Y-89190000D03*
X78105000Y-86765000D03*
X75330000Y-84340000D03*
X80880000Y-84340000D03*
%TO.P,VR201,4,SHDN*%
X79805000Y-95915000D03*
%TO.P,VR201,5,IN*%
X81505000Y-95915000D03*
%TD*%
D10*
%TO.C,Y101*%
%TO.CFtp,Crystal_HC18-U_Horizontal*%
%TO.CVal,8MHz*%
%TO.CLbN,Crystal*%
%TO.CMnt,TH*%
%TO.CRot,-90*%
X123444000Y-120777000D03*
D11*
X124443999Y-116677001D02*
X124443999Y-129776999D01*
X107144001Y-129776999D01*
X107144001Y-116677001D01*
X124443999Y-116677001D01*
D12*
%TO.P,Y101,1,1*%
X123444000Y-120777000D03*
D13*
%TO.P,Y101,2,2*%
X123444000Y-125677000D03*
%TD*%
D10*
%TO.C,U301*%
%TO.CFtp,TQFP-144_20x20mm_P0.5mm*%
%TO.CVal,XCR3256-TQ144*%
%TO.CLbN,Package_QFP*%
%TO.CMnt,SMD*%
%TO.CRot,-90*%
X201930000Y-111760000D03*
D11*
X211079999Y-100110001D02*
X211079999Y-101510001D01*
X212179999Y-101510001D01*
X212179999Y-102610001D01*
X213579999Y-102610001D01*
X213579999Y-120909999D01*
X212179999Y-120909999D01*
X212179999Y-122009999D01*
X211079999Y-122009999D01*
X211079999Y-123409999D01*
X192780001Y-123409999D01*
X192780001Y-122009999D01*
X191680001Y-122009999D01*
X191680001Y-120909999D01*
X190280001Y-120909999D01*
X190280001Y-102610001D01*
X191680001Y-102610001D01*
X191680001Y-101510001D01*
X192780001Y-101510001D01*
X192780001Y-100110001D01*
X211079999Y-100110001D01*
D12*
%TO.P,U301,1,I1*%
X210680000Y-101097500D03*
D13*
%TO.P,U301,2,I0*%
X210180000Y-101097500D03*
%TO.P,U301,3,GND*%
X209680000Y-101097500D03*
%TO.P,U301,4,J0/TDI*%
X209180000Y-101097500D03*
%TO.P,U301,5,J2*%
X208680000Y-101097500D03*
%TO.P,U301,6,J3*%
X208180000Y-101097500D03*
%TO.P,U301,7,J4*%
X207680000Y-101097500D03*
%TO.P,U301,8,J11*%
X207180000Y-101097500D03*
%TO.P,U301,9,J13*%
X206680000Y-101097500D03*
%TO.P,U301,10,J14*%
X206180000Y-101097500D03*
%TO.P,U301,11,J15*%
X205680000Y-101097500D03*
%TO.P,U301,12,L2*%
X205180000Y-101097500D03*
%TO.P,U301,13,PORT_EN*%
X204680000Y-101097500D03*
%TO.P,U301,14,L3*%
X204180000Y-101097500D03*
%TO.P,U301,15,L4*%
X203680000Y-101097500D03*
%TO.P,U301,16,L11*%
X203180000Y-101097500D03*
%TO.P,U301,17,GND*%
X202680000Y-101097500D03*
%TO.P,U301,18,L13*%
X202180000Y-101097500D03*
%TO.P,U301,19,L14*%
X201680000Y-101097500D03*
%TO.P,U301,20,N0/TMS*%
X201180000Y-101097500D03*
%TO.P,U301,21,N2*%
X200680000Y-101097500D03*
%TO.P,U301,22,N3*%
X200180000Y-101097500D03*
%TO.P,U301,23,N4*%
X199680000Y-101097500D03*
%TO.P,U301,24,VCC*%
X199180000Y-101097500D03*
%TO.P,U301,25,N11*%
X198680000Y-101097500D03*
%TO.P,U301,26,N13*%
X198180000Y-101097500D03*
%TO.P,U301,27,N14*%
X197680000Y-101097500D03*
%TO.P,U301,28,N15*%
X197180000Y-101097500D03*
%TO.P,U301,29,P2*%
X196680000Y-101097500D03*
%TO.P,U301,30,P3*%
X196180000Y-101097500D03*
%TO.P,U301,31,P4*%
X195680000Y-101097500D03*
%TO.P,U301,32,P11*%
X195180000Y-101097500D03*
%TO.P,U301,33,GND*%
X194680000Y-101097500D03*
%TO.P,U301,34,P13*%
X194180000Y-101097500D03*
%TO.P,U301,35,P14*%
X193680000Y-101097500D03*
%TO.P,U301,36,P15*%
X193180000Y-101097500D03*
%TO.P,U301,37,O15*%
X191267500Y-103010000D03*
%TO.P,U301,38,O13*%
X191267500Y-103510000D03*
%TO.P,U301,39,O12*%
X191267500Y-104010000D03*
%TO.P,U301,40,O4*%
X191267500Y-104510000D03*
%TO.P,U301,41,O3*%
X191267500Y-105010000D03*
%TO.P,U301,42,O2*%
X191267500Y-105510000D03*
%TO.P,U301,43,O1*%
X191267500Y-106010000D03*
%TO.P,U301,44,O0*%
X191267500Y-106510000D03*
%TO.P,U301,45,M15*%
X191267500Y-107010000D03*
%TO.P,U301,46,M13*%
X191267500Y-107510000D03*
%TO.P,U301,47,M12*%
X191267500Y-108010000D03*
%TO.P,U301,48,M11*%
X191267500Y-108510000D03*
%TO.P,U301,49,M4*%
X191267500Y-109010000D03*
%TO.P,U301,50,VCC*%
X191267500Y-109510000D03*
%TO.P,U301,51,VCC*%
X191267500Y-110010000D03*
%TO.P,U301,52,GND*%
X191267500Y-110510000D03*
%TO.P,U301,53,M2*%
X191267500Y-111010000D03*
%TO.P,U301,54,M1*%
X191267500Y-111510000D03*
%TO.P,U301,55,F1*%
X191267500Y-112010000D03*
%TO.P,U301,56,F2*%
X191267500Y-112510000D03*
%TO.P,U301,57,GND*%
X191267500Y-113010000D03*
%TO.P,U301,58,VCC*%
X191267500Y-113510000D03*
%TO.P,U301,59,GND*%
X191267500Y-114010000D03*
%TO.P,U301,60,F4*%
X191267500Y-114510000D03*
%TO.P,U301,61,F11*%
X191267500Y-115010000D03*
%TO.P,U301,62,F12*%
X191267500Y-115510000D03*
%TO.P,U301,63,F13*%
X191267500Y-116010000D03*
%TO.P,U301,64,GND*%
X191267500Y-116510000D03*
%TO.P,U301,65,F15*%
X191267500Y-117010000D03*
%TO.P,U301,66,H0*%
X191267500Y-117510000D03*
%TO.P,U301,67,H1*%
X191267500Y-118010000D03*
%TO.P,U301,68,H2*%
X191267500Y-118510000D03*
%TO.P,U301,69,H3*%
X191267500Y-119010000D03*
%TO.P,U301,70,H11*%
X191267500Y-119510000D03*
%TO.P,U301,71,H13*%
X191267500Y-120010000D03*
%TO.P,U301,72,H15*%
X191267500Y-120510000D03*
%TO.P,U301,73,VCC*%
X193180000Y-122422500D03*
%TO.P,U301,74,G14*%
X193680000Y-122422500D03*
%TO.P,U301,75,G13*%
X194180000Y-122422500D03*
%TO.P,U301,76,VCC*%
X194680000Y-122422500D03*
%TO.P,U301,77,G11*%
X195180000Y-122422500D03*
%TO.P,U301,78,G4*%
X195680000Y-122422500D03*
%TO.P,U301,79,G3*%
X196180000Y-122422500D03*
%TO.P,U301,80,G2*%
X196680000Y-122422500D03*
%TO.P,U301,81,G0*%
X197180000Y-122422500D03*
%TO.P,U301,82,E14*%
X197680000Y-122422500D03*
%TO.P,U301,83,E13*%
X198180000Y-122422500D03*
%TO.P,U301,84,E11*%
X198680000Y-122422500D03*
%TO.P,U301,85,GND*%
X199180000Y-122422500D03*
%TO.P,U301,86,E4*%
X199680000Y-122422500D03*
%TO.P,U301,87,E3*%
X200180000Y-122422500D03*
%TO.P,U301,88,E2*%
X200680000Y-122422500D03*
%TO.P,U301,89,E0/TCK*%
X201180000Y-122422500D03*
%TO.P,U301,90,C14*%
X201680000Y-122422500D03*
%TO.P,U301,91,C13*%
X202180000Y-122422500D03*
%TO.P,U301,92,C11*%
X202680000Y-122422500D03*
%TO.P,U301,93,C4*%
X203180000Y-122422500D03*
%TO.P,U301,94,C3*%
X203680000Y-122422500D03*
%TO.P,U301,95,VCC*%
X204180000Y-122422500D03*
%TO.P,U301,96,C2*%
X204680000Y-122422500D03*
%TO.P,U301,97,C1*%
X205180000Y-122422500D03*
%TO.P,U301,98,C0*%
X205680000Y-122422500D03*
%TO.P,U301,99,A13*%
X206180000Y-122422500D03*
%TO.P,U301,100,A12*%
X206680000Y-122422500D03*
%TO.P,U301,101,A11*%
X207180000Y-122422500D03*
%TO.P,U301,102,A4*%
X207680000Y-122422500D03*
%TO.P,U301,103,A3*%
X208180000Y-122422500D03*
%TO.P,U301,104,A2/TDO*%
X208680000Y-122422500D03*
%TO.P,U301,105,GND*%
X209180000Y-122422500D03*
%TO.P,U301,106,A0*%
X209680000Y-122422500D03*
%TO.P,U301,107,B0*%
X210180000Y-122422500D03*
%TO.P,U301,108,B1*%
X210680000Y-122422500D03*
%TO.P,U301,109,B4*%
X212592500Y-120510000D03*
%TO.P,U301,110,B11*%
X212592500Y-120010000D03*
%TO.P,U301,111,B12*%
X212592500Y-119510000D03*
%TO.P,U301,112,B14*%
X212592500Y-119010000D03*
%TO.P,U301,113,B15*%
X212592500Y-118510000D03*
%TO.P,U301,114,D0*%
X212592500Y-118010000D03*
%TO.P,U301,115,VCC*%
X212592500Y-117510000D03*
%TO.P,U301,116,D1*%
X212592500Y-117010000D03*
%TO.P,U301,117,D2*%
X212592500Y-116510000D03*
%TO.P,U301,118,D4*%
X212592500Y-116010000D03*
%TO.P,U301,119,D11*%
X212592500Y-115510000D03*
%TO.P,U301,120,D12*%
X212592500Y-115010000D03*
%TO.P,U301,121,D13*%
X212592500Y-114510000D03*
%TO.P,U301,122,D15*%
X212592500Y-114010000D03*
%TO.P,U301,123,VCC*%
X212592500Y-113510000D03*
%TO.P,U301,124,GND*%
X212592500Y-113010000D03*
%TO.P,U301,125,CLK3/IN3*%
X212592500Y-112510000D03*
%TO.P,U301,126,CLK2/IN2*%
X212592500Y-112010000D03*
%TO.P,U301,127,CLK1/IN1*%
X212592500Y-111510000D03*
%TO.P,U301,128,CLK0/IN0*%
X212592500Y-111010000D03*
%TO.P,U301,129,GND*%
X212592500Y-110510000D03*
%TO.P,U301,130,VCC*%
X212592500Y-110010000D03*
%TO.P,U301,131,K15*%
X212592500Y-109510000D03*
%TO.P,U301,132,K14*%
X212592500Y-109010000D03*
%TO.P,U301,133,K13*%
X212592500Y-108510000D03*
%TO.P,U301,134,K12*%
X212592500Y-108010000D03*
%TO.P,U301,135,GND*%
X212592500Y-107510000D03*
%TO.P,U301,136,K11*%
X212592500Y-107010000D03*
%TO.P,U301,137,K4*%
X212592500Y-106510000D03*
%TO.P,U301,138,K2*%
X212592500Y-106010000D03*
%TO.P,U301,139,I15*%
X212592500Y-105510000D03*
%TO.P,U301,140,I14*%
X212592500Y-105010000D03*
%TO.P,U301,141,I13*%
X212592500Y-104510000D03*
%TO.P,U301,142,I12*%
X212592500Y-104010000D03*
%TO.P,U301,143,I4*%
X212592500Y-103510000D03*
%TO.P,U301,144,VCC*%
X212592500Y-103010000D03*
%TD*%
D10*
%TO.C,CAN_EN201*%
%TO.CFtp,PinHeader_2x02_P2.54mm_Vertical*%
%TO.CVal,CONN_2X2*%
%TO.CLbN,Connector_PinHeader_2.54mm*%
%TO.CMnt,TH*%
%TO.CRot,0*%
X112522000Y-86233000D03*
D11*
X116871999Y-84433001D02*
X116871999Y-90582999D01*
X110722001Y-90582999D01*
X110722001Y-84433001D01*
X116871999Y-84433001D01*
D12*
%TO.P,CAN_EN201,1,1*%
X112522000Y-86233000D03*
D13*
%TO.P,CAN_EN201,2,2*%
X115062000Y-86233000D03*
%TO.P,CAN_EN201,3,3*%
X112522000Y-88773000D03*
%TO.P,CAN_EN201,4,4*%
X115062000Y-88773000D03*
%TD*%
D10*
%TO.C,VX_EN201*%
%TO.CFtp,PinHeader_1x02_P2.54mm_Vertical*%
%TO.CVal,JUMPER*%
%TO.CLbN,Connector_PinHeader_2.54mm*%
%TO.CMnt,TH*%
%TO.CRot,90*%
X181864000Y-130302000D03*
D11*
X186213999Y-128502001D02*
X186213999Y-132101999D01*
X180064001Y-132101999D01*
X180064001Y-128502001D01*
X186213999Y-128502001D01*
D12*
%TO.P,VX_EN201,1,1*%
X181864000Y-130302000D03*
D13*
%TO.P,VX_EN201,2,2*%
X184404000Y-130302000D03*
%TD*%
D10*
%TO.C,U201*%
%TO.CFtp,SOIC-14_3.9x8.7mm_P1.27mm*%
%TO.CVal,74HC125*%
%TO.CLbN,Package_SO*%
%TO.CMnt,SMD*%
%TO.CRot,0*%
X100203000Y-117602000D03*
D11*
X103902999Y-113022001D02*
X103902999Y-122181999D01*
X96503001Y-122181999D01*
X96503001Y-113022001D01*
X103902999Y-113022001D01*
D12*
%TO.P,U201,1,E*%
X97728000Y-113792000D03*
D13*
%TO.P,U201,2,D*%
X97728000Y-115062000D03*
%TO.P,U201,3,O*%
X97728000Y-116332000D03*
%TO.P,U201,4,E*%
X97728000Y-117602000D03*
%TO.P,U201,5,D*%
X97728000Y-118872000D03*
%TO.P,U201,6,O*%
X97728000Y-120142000D03*
%TO.P,U201,7,GND*%
X97728000Y-121412000D03*
%TO.P,U201,8,O*%
X102678000Y-121412000D03*
%TO.P,U201,9,D*%
X102678000Y-120142000D03*
%TO.P,U201,10,E*%
X102678000Y-118872000D03*
%TO.P,U201,11,O*%
X102678000Y-117602000D03*
%TO.P,U201,12,D*%
X102678000Y-116332000D03*
%TO.P,U201,13,E*%
X102678000Y-115062000D03*
%TO.P,U201,14,VCC*%
X102678000Y-113792000D03*
%TD*%
D10*
%TO.C,JP101*%
%TO.CFtp,PinHeader_2x03_P2.54mm_Vertical*%
%TO.CVal,JUMPER_TRIPLE*%
%TO.CLbN,Connector_PinHeader_2.54mm*%
%TO.CMnt,TH*%
%TO.CRot,0*%
X112522000Y-93345000D03*
D11*
X116871999Y-91545001D02*
X116871999Y-100194999D01*
X110722001Y-100194999D01*
X110722001Y-91545001D01*
X116871999Y-91545001D01*
D12*
%TO.P,JP101,1,1*%
X112522000Y-93345000D03*
D13*
%TO.P,JP101,2,2*%
X115062000Y-93345000D03*
%TO.P,JP101,3,3*%
X112522000Y-95885000D03*
%TO.P,JP101,4,4*%
X115062000Y-95885000D03*
%TO.P,JP101,5,5*%
X112522000Y-98425000D03*
%TO.P,JP101,6,6*%
X115062000Y-98425000D03*
%TD*%
D10*
%TO.C,P302*%
%TO.CFtp,PinHeader_2x02_P2.54mm_Vertical*%
%TO.CVal,CONN_2X2*%
%TO.CLbN,Connector_PinHeader_2.54mm*%
%TO.CMnt,TH*%
%TO.CRot,0*%
X197500000Y-87000000D03*
D11*
X201849999Y-85200001D02*
X201849999Y-91349999D01*
X195700001Y-91349999D01*
X195700001Y-85200001D01*
X201849999Y-85200001D01*
D12*
%TO.P,P302,1,1*%
X197500000Y-87000000D03*
D13*
%TO.P,P302,2,2*%
X200040000Y-87000000D03*
%TO.P,P302,3,3*%
X197500000Y-89540000D03*
%TO.P,P302,4,4*%
X200040000Y-89540000D03*
%TD*%
D10*
%TO.C,COM_SEL201*%
%TO.CFtp,PinHeader_1x03_P2.54mm_Vertical*%
%TO.CVal,CONN_3*%
%TO.CLbN,Connector_PinHeader_2.54mm*%
%TO.CMnt,TH*%
%TO.CRot,180*%
X107000000Y-78613000D03*
D11*
X108799999Y-71763001D02*
X108799999Y-80412999D01*
X105200001Y-80412999D01*
X105200001Y-71763001D01*
X108799999Y-71763001D01*
D12*
%TO.P,COM_SEL201,1,P1*%
X107000000Y-78613000D03*
D13*
%TO.P,COM_SEL201,2,PM*%
X107000000Y-76073000D03*
%TO.P,COM_SEL201,3,P3*%
X107000000Y-73533000D03*
%TD*%
D10*
%TO.C,JP201*%
%TO.CFtp,PinHeader_1x02_P2.54mm_Vertical*%
%TO.CVal,JUMPER*%
%TO.CLbN,Connector_PinHeader_2.54mm*%
%TO.CMnt,TH*%
%TO.CRot,90*%
X90500000Y-113000000D03*
D11*
X94849999Y-111200001D02*
X94849999Y-114799999D01*
X88700001Y-114799999D01*
X88700001Y-111200001D01*
X94849999Y-111200001D01*
D12*
%TO.P,JP201,1,1*%
X90500000Y-113000000D03*
D13*
%TO.P,JP201,2,2*%
X93040000Y-113000000D03*
%TD*%
D10*
%TO.C,UARTCAN201*%
%TO.CFtp,DSUB-9_Female_Horizontal_P2.77x2.84mm_EdgePinOffset7.70mm_Housed_MountingHolesOffset9.12mm*%
%TO.CVal,DB9*%
%TO.CLbN,Connector_Dsub*%
%TO.CMnt,TH*%
%TO.CRot,180*%
X192500000Y-66500000D03*
D11*
X213999999Y-48850001D02*
X213999999Y-68849999D01*
X182100001Y-68849999D01*
X182100001Y-48850001D01*
X213999999Y-48850001D01*
D12*
%TO.P,UARTCAN201,1,1*%
X192500000Y-66500000D03*
D13*
%TO.P,UARTCAN201,0*%
X210540000Y-65080000D03*
X185540000Y-65080000D03*
%TO.P,UARTCAN201,2,2*%
X195270000Y-66500000D03*
%TO.P,UARTCAN201,3,3*%
X198040000Y-66500000D03*
%TO.P,UARTCAN201,4,4*%
X200810000Y-66500000D03*
%TO.P,UARTCAN201,5,5*%
X203580000Y-66500000D03*
%TO.P,UARTCAN201,6,P6*%
X193885000Y-63660000D03*
%TO.P,UARTCAN201,7,P7*%
X196655000Y-63660000D03*
%TO.P,UARTCAN201,8,P8*%
X199425000Y-63660000D03*
%TO.P,UARTCAN201,9,P9*%
X202195000Y-63660000D03*
%TD*%
D10*
%TO.C,UARTCAN202*%
%TO.CFtp,DSUB-9_Female_Horizontal_P2.77x2.84mm_EdgePinOffset7.70mm_Housed_MountingHolesOffset9.12mm*%
%TO.CVal,DB9*%
%TO.CLbN,Connector_Dsub*%
%TO.CMnt,TH*%
%TO.CRot,180*%
X156500000Y-66500000D03*
D11*
X177999999Y-48850001D02*
X177999999Y-68849999D01*
X146100001Y-68849999D01*
X146100001Y-48850001D01*
X177999999Y-48850001D01*
D12*
%TO.P,UARTCAN202,1,1*%
X156500000Y-66500000D03*
D13*
%TO.P,UARTCAN202,0*%
X174540000Y-65080000D03*
X149540000Y-65080000D03*
%TO.P,UARTCAN202,2,2*%
X159270000Y-66500000D03*
%TO.P,UARTCAN202,3,3*%
X162040000Y-66500000D03*
%TO.P,UARTCAN202,4,4*%
X164810000Y-66500000D03*
%TO.P,UARTCAN202,5,5*%
X167580000Y-66500000D03*
%TO.P,UARTCAN202,6,P6*%
X157885000Y-63660000D03*
%TO.P,UARTCAN202,7,P7*%
X160655000Y-63660000D03*
%TO.P,UARTCAN202,8,P8*%
X163425000Y-63660000D03*
%TO.P,UARTCAN202,9,P9*%
X166195000Y-63660000D03*
%TD*%
D10*
%TO.C,UARTCAN203*%
%TO.CFtp,DSUB-9_Female_Horizontal_P2.77x2.84mm_EdgePinOffset7.70mm_Housed_MountingHolesOffset9.12mm*%
%TO.CVal,DB9*%
%TO.CLbN,Connector_Dsub*%
%TO.CMnt,TH*%
%TO.CRot,180*%
X121500000Y-66500000D03*
D11*
X142999999Y-48850001D02*
X142999999Y-68849999D01*
X111100001Y-68849999D01*
X111100001Y-48850001D01*
X142999999Y-48850001D01*
D12*
%TO.P,UARTCAN203,1,1*%
X121500000Y-66500000D03*
D13*
%TO.P,UARTCAN203,0*%
X139540000Y-65080000D03*
X114540000Y-65080000D03*
%TO.P,UARTCAN203,2,2*%
X124270000Y-66500000D03*
%TO.P,UARTCAN203,3,3*%
X127040000Y-66500000D03*
%TO.P,UARTCAN203,4,4*%
X129810000Y-66500000D03*
%TO.P,UARTCAN203,5,5*%
X132580000Y-66500000D03*
%TO.P,UARTCAN203,6,P6*%
X122885000Y-63660000D03*
%TO.P,UARTCAN203,7,P7*%
X125655000Y-63660000D03*
%TO.P,UARTCAN203,8,P8*%
X128425000Y-63660000D03*
%TO.P,UARTCAN203,9,P9*%
X131195000Y-63660000D03*
%TD*%
D10*
%TO.C,VREF201*%
%TO.CFtp,PinHeader_1x01_P2.54mm_Vertical*%
%TO.CVal,CONN_1*%
%TO.CLbN,Connector_PinHeader_2.54mm*%
%TO.CMnt,TH*%
%TO.CRot,-90*%
X95000000Y-86500000D03*
D11*
X96799999Y-84700001D02*
X96799999Y-88299999D01*
X93200001Y-88299999D01*
X93200001Y-84700001D01*
X96799999Y-84700001D01*
D12*
%TO.P,VREF201,1,1*%
X95000000Y-86500000D03*
%TD*%
D14*
X71120000Y-147320000D02*
X228600000Y-147320000D01*
X71120000Y-55880000D02*
X71120000Y-147320000D01*
X228600000Y-55880000D02*
X228600000Y-147320000D01*
X228600000Y-55880000D02*
X71120000Y-55880000D01*
M02*
