%TF.GenerationSoftware,KiCad,Pcbnew,8.99.0-344-gfbc433deaa-dirty*%
%TF.CreationDate,2024-03-11T18:45:51+01:00*%
%TF.ProjectId,kit-dev-coldfire-xilinx_5213,6b69742d-6465-4762-9d63-6f6c64666972,2*%
%TF.SameCoordinates,Original*%
%TF.FileFunction,Paste,Top*%
%TF.FilePolarity,Positive*%
%FSLAX46Y46*%
G04 Gerber Fmt 4.6, Leading zero omitted, Abs format (unit mm)*
G04 Created by KiCad (PCBNEW 8.99.0-344-gfbc433deaa-dirty) date 2024-03-11 18:45:51*
%MOMM*%
%LPD*%
G01*
G04 APERTURE LIST*
G04 Aperture macros list*
%AMRoundRect*
0 Rectangle with rounded corners*
0 $1 Rounding radius*
0 $2 $3 $4 $5 $6 $7 $8 $9 X,Y pos of 4 corners*
0 Add a 4 corners polygon primitive as box body*
4,1,4,$2,$3,$4,$5,$6,$7,$8,$9,$2,$3,0*
0 Add four circle primitives for the rounded corners*
1,1,$1+$1,$2,$3*
1,1,$1+$1,$4,$5*
1,1,$1+$1,$6,$7*
1,1,$1+$1,$8,$9*
0 Add four rect primitives between the rounded corners*
20,1,$1+$1,$2,$3,$4,$5,0*
20,1,$1+$1,$4,$5,$6,$7,0*
20,1,$1+$1,$6,$7,$8,$9,0*
20,1,$1+$1,$8,$9,$2,$3,0*%
G04 Aperture macros list end*
%ADD10RoundRect,0.250000X-0.475000X0.250000X-0.475000X-0.250000X0.475000X-0.250000X0.475000X0.250000X0*%
%ADD11RoundRect,0.250000X0.475000X-0.250000X0.475000X0.250000X-0.475000X0.250000X-0.475000X-0.250000X0*%
%ADD12RoundRect,0.250000X0.250000X0.475000X-0.250000X0.475000X-0.250000X-0.475000X0.250000X-0.475000X0*%
%ADD13RoundRect,0.250000X-0.250000X-0.475000X0.250000X-0.475000X0.250000X0.475000X-0.250000X0.475000X0*%
%ADD14R,2.032000X1.524000*%
%ADD15R,1.524000X2.032000*%
%ADD16R,0.900000X0.800000*%
%ADD17RoundRect,0.250000X0.375000X0.625000X-0.375000X0.625000X-0.375000X-0.625000X0.375000X-0.625000X0*%
%ADD18R,3.556000X4.191000*%
%ADD19RoundRect,0.250000X0.400000X0.625000X-0.400000X0.625000X-0.400000X-0.625000X0.400000X-0.625000X0*%
%ADD20RoundRect,0.250000X-0.400000X-0.625000X0.400000X-0.625000X0.400000X0.625000X-0.400000X0.625000X0*%
%ADD21RoundRect,0.250000X-0.375000X-0.625000X0.375000X-0.625000X0.375000X0.625000X-0.375000X0.625000X0*%
%ADD22RoundRect,0.250000X0.625000X-0.375000X0.625000X0.375000X-0.625000X0.375000X-0.625000X-0.375000X0*%
%ADD23R,0.914400X0.914400*%
%ADD24RoundRect,0.250000X0.450000X-0.262500X0.450000X0.262500X-0.450000X0.262500X-0.450000X-0.262500X0*%
%ADD25RoundRect,0.250000X-0.262500X-0.450000X0.262500X-0.450000X0.262500X0.450000X-0.262500X0.450000X0*%
%ADD26RoundRect,0.250000X0.262500X0.450000X-0.262500X0.450000X-0.262500X-0.450000X0.262500X-0.450000X0*%
%ADD27RoundRect,0.250000X-0.450000X0.262500X-0.450000X-0.262500X0.450000X-0.262500X0.450000X0.262500X0*%
%ADD28RoundRect,0.075000X-0.075000X0.725000X-0.075000X-0.725000X0.075000X-0.725000X0.075000X0.725000X0*%
%ADD29RoundRect,0.075000X-0.725000X0.075000X-0.725000X-0.075000X0.725000X-0.075000X0.725000X0.075000X0*%
%ADD30R,0.508000X0.304800*%
%ADD31RoundRect,0.150000X-0.825000X-0.150000X0.825000X-0.150000X0.825000X0.150000X-0.825000X0.150000X0*%
%ADD32RoundRect,0.150000X0.825000X0.150000X-0.825000X0.150000X-0.825000X-0.150000X0.825000X-0.150000X0*%
%ADD33RoundRect,0.088235X-0.886765X-0.211765X0.886765X-0.211765X0.886765X0.211765X-0.886765X0.211765X0*%
%ADD34RoundRect,0.250000X0.300000X-2.050000X0.300000X2.050000X-0.300000X2.050000X-0.300000X-2.050000X0*%
%ADD35RoundRect,0.250000X2.375000X-2.025000X2.375000X2.025000X-2.375000X2.025000X-2.375000X-2.025000X0*%
%ADD36RoundRect,0.075000X-0.075000X0.662500X-0.075000X-0.662500X0.075000X-0.662500X0.075000X0.662500X0*%
%ADD37RoundRect,0.075000X-0.662500X0.075000X-0.662500X-0.075000X0.662500X-0.075000X0.662500X0.075000X0*%
%TA.AperFunction,Profile*%
%ADD38C,0.381000*%
%TD*%
G04 APERTURE END LIST*
D10*
%TO.C,C107*%
X136652000Y-116779000D03*
X136652000Y-118679000D03*
%TD*%
D11*
%TO.C,C106*%
X136652000Y-124013000D03*
X136652000Y-122113000D03*
%TD*%
%TO.C,C105*%
X164846000Y-95311000D03*
X164846000Y-93411000D03*
%TD*%
D12*
%TO.C,C110*%
X142555000Y-91059000D03*
X140655000Y-91059000D03*
%TD*%
%TO.C,C111*%
X135443000Y-91440000D03*
X133543000Y-91440000D03*
%TD*%
D10*
%TO.C,C113*%
X125349000Y-98872000D03*
X125349000Y-100772000D03*
%TD*%
D12*
%TO.C,C114*%
X125537000Y-103505000D03*
X123637000Y-103505000D03*
%TD*%
%TO.C,C115*%
X132903000Y-112268000D03*
X131003000Y-112268000D03*
%TD*%
%TO.C,C116*%
X138618000Y-111760000D03*
X136718000Y-111760000D03*
%TD*%
D13*
%TO.C,C101*%
X159451000Y-105537000D03*
X161351000Y-105537000D03*
%TD*%
D12*
%TO.C,C104*%
X161351000Y-111252000D03*
X159451000Y-111252000D03*
%TD*%
D14*
%TO.C,C108*%
X120777000Y-107696000D03*
X120777000Y-104394000D03*
%TD*%
D15*
%TO.C,C119*%
X148590000Y-120015000D03*
X151892000Y-120015000D03*
%TD*%
D13*
%TO.C,C109*%
X122875000Y-108712000D03*
X124775000Y-108712000D03*
%TD*%
D10*
%TO.C,C102*%
X141732000Y-111445000D03*
X141732000Y-113345000D03*
%TD*%
%TO.C,C103*%
X143891000Y-111445000D03*
X143891000Y-113345000D03*
%TD*%
%TO.C,C203*%
X192532000Y-73218000D03*
X192532000Y-75118000D03*
%TD*%
D12*
%TO.C,C204*%
X190180000Y-71247000D03*
X188280000Y-71247000D03*
%TD*%
D10*
%TO.C,C205*%
X181102000Y-72964000D03*
X181102000Y-74864000D03*
%TD*%
%TO.C,C206*%
X181102000Y-77282000D03*
X181102000Y-79182000D03*
%TD*%
D13*
%TO.C,C202*%
X101666000Y-111252000D03*
X103566000Y-111252000D03*
%TD*%
D11*
%TO.C,C207*%
X178562000Y-79055000D03*
X178562000Y-77155000D03*
%TD*%
D10*
%TO.C,C208*%
X164592000Y-73218000D03*
X164592000Y-75118000D03*
%TD*%
D12*
%TO.C,C209*%
X162240000Y-71247000D03*
X160340000Y-71247000D03*
%TD*%
D10*
%TO.C,C210*%
X153162000Y-72837000D03*
X153162000Y-74737000D03*
%TD*%
%TO.C,C211*%
X153035000Y-77155000D03*
X153035000Y-79055000D03*
%TD*%
D11*
%TO.C,C214*%
X150876000Y-79055000D03*
X150876000Y-77155000D03*
%TD*%
D13*
%TO.C,C219*%
X107508000Y-84328000D03*
X109408000Y-84328000D03*
%TD*%
D12*
%TO.C,C217*%
X129220000Y-71247000D03*
X127320000Y-71247000D03*
%TD*%
D10*
%TO.C,C220*%
X120142000Y-77155000D03*
X120142000Y-79055000D03*
%TD*%
D11*
%TO.C,C213*%
X104000000Y-78450000D03*
X104000000Y-76550000D03*
%TD*%
D13*
%TO.C,C201*%
X182819000Y-125730000D03*
X184719000Y-125730000D03*
%TD*%
D10*
%TO.C,C218*%
X120142000Y-72837000D03*
X120142000Y-74737000D03*
%TD*%
D11*
%TO.C,C221*%
X117602000Y-79055000D03*
X117602000Y-77155000D03*
%TD*%
D10*
%TO.C,C216*%
X130937000Y-73599000D03*
X130937000Y-75499000D03*
%TD*%
D16*
%TO.C,D101*%
X159401000Y-103439000D03*
X161401000Y-102489000D03*
X159401000Y-101539000D03*
%TD*%
%TO.C,D102*%
X160798000Y-96581000D03*
X162798000Y-95631000D03*
X160798000Y-94681000D03*
%TD*%
D17*
%TO.C,D301*%
X213490000Y-76835000D03*
X210690000Y-76835000D03*
%TD*%
%TO.C,D302*%
X213490000Y-80645000D03*
X210690000Y-80645000D03*
%TD*%
D18*
%TO.C,F201*%
X99800000Y-74425000D03*
X99800000Y-80775000D03*
%TD*%
D19*
%TO.C,FB101*%
X121184000Y-101346000D03*
X118084000Y-101346000D03*
%TD*%
D20*
%TO.C,L102*%
X117449000Y-110236000D03*
X120549000Y-110236000D03*
%TD*%
D19*
%TO.C,L101*%
X153442000Y-109220000D03*
X150342000Y-109220000D03*
%TD*%
D21*
%TO.C,LED201*%
X86992000Y-117094000D03*
X89792000Y-117094000D03*
%TD*%
%TO.C,LED202*%
X86992000Y-121158000D03*
X89792000Y-121158000D03*
%TD*%
%TO.C,LED203*%
X86992000Y-125349000D03*
X89792000Y-125349000D03*
%TD*%
%TO.C,LED204*%
X86992000Y-129540000D03*
X89792000Y-129540000D03*
%TD*%
D22*
%TO.C,LED205*%
X104140000Y-139576000D03*
X104140000Y-136776000D03*
%TD*%
%TO.C,LEDABRT101*%
X164846000Y-101857000D03*
X164846000Y-99057000D03*
%TD*%
D23*
%TO.C,Q101*%
X160782000Y-90932000D03*
X160782000Y-89154000D03*
X162814000Y-90043000D03*
%TD*%
D24*
%TO.C,R125*%
X128270000Y-122197500D03*
X128270000Y-120372500D03*
%TD*%
D25*
%TO.C,R102*%
X103354500Y-96647000D03*
X105179500Y-96647000D03*
%TD*%
D26*
%TO.C,R118*%
X184681500Y-121158000D03*
X182856500Y-121158000D03*
%TD*%
%TO.C,R119*%
X184681500Y-123444000D03*
X182856500Y-123444000D03*
%TD*%
D25*
%TO.C,R120*%
X152122500Y-93853000D03*
X153947500Y-93853000D03*
%TD*%
D27*
%TO.C,R104*%
X163957000Y-111355500D03*
X163957000Y-113180500D03*
%TD*%
D25*
%TO.C,R121*%
X168759500Y-117094000D03*
X170584500Y-117094000D03*
%TD*%
D24*
%TO.C,R113*%
X141478000Y-86764500D03*
X141478000Y-84939500D03*
%TD*%
D26*
%TO.C,R122*%
X174775500Y-117094000D03*
X172950500Y-117094000D03*
%TD*%
D25*
%TO.C,R123*%
X152122500Y-98298000D03*
X153947500Y-98298000D03*
%TD*%
D26*
%TO.C,R105*%
X161313500Y-114046000D03*
X159488500Y-114046000D03*
%TD*%
D25*
%TO.C,R124*%
X152122500Y-96012000D03*
X153947500Y-96012000D03*
%TD*%
D27*
%TO.C,R103*%
X164846000Y-104497500D03*
X164846000Y-106322500D03*
%TD*%
D24*
%TO.C,R106*%
X158623000Y-95781500D03*
X158623000Y-93956500D03*
%TD*%
D26*
%TO.C,R111*%
X121054500Y-97282000D03*
X119229500Y-97282000D03*
%TD*%
%TO.C,R107*%
X84224500Y-104267000D03*
X82399500Y-104267000D03*
%TD*%
%TO.C,R108*%
X84224500Y-106553000D03*
X82399500Y-106553000D03*
%TD*%
%TO.C,R109*%
X84224500Y-119126000D03*
X82399500Y-119126000D03*
%TD*%
%TO.C,R110*%
X84224500Y-121412000D03*
X82399500Y-121412000D03*
%TD*%
D24*
%TO.C,R115*%
X158623000Y-91209500D03*
X158623000Y-89384500D03*
%TD*%
D25*
%TO.C,R116*%
X160631500Y-86995000D03*
X162456500Y-86995000D03*
%TD*%
D26*
%TO.C,R215*%
X128801500Y-84455000D03*
X126976500Y-84455000D03*
%TD*%
D25*
%TO.C,R101*%
X103354500Y-98933000D03*
X105179500Y-98933000D03*
%TD*%
D27*
%TO.C,R117*%
X84836000Y-112879500D03*
X84836000Y-114704500D03*
%TD*%
D25*
%TO.C,R202*%
X92305500Y-117094000D03*
X94130500Y-117094000D03*
%TD*%
D24*
%TO.C,R205*%
X192532000Y-83208500D03*
X192532000Y-81383500D03*
%TD*%
D25*
%TO.C,R203*%
X92305500Y-121158000D03*
X94130500Y-121158000D03*
%TD*%
%TO.C,R204*%
X92305500Y-125349000D03*
X94130500Y-125349000D03*
%TD*%
%TO.C,R206*%
X92305500Y-129413000D03*
X94130500Y-129413000D03*
%TD*%
D26*
%TO.C,R201*%
X97432500Y-109728000D03*
X95607500Y-109728000D03*
%TD*%
D24*
%TO.C,R208*%
X164592000Y-83208500D03*
X164592000Y-81383500D03*
%TD*%
D25*
%TO.C,R210*%
X100941500Y-92837000D03*
X102766500Y-92837000D03*
%TD*%
D26*
%TO.C,R209*%
X100607500Y-85471000D03*
X98782500Y-85471000D03*
%TD*%
D24*
%TO.C,R112*%
X100584000Y-102385500D03*
X100584000Y-100560500D03*
%TD*%
D27*
%TO.C,R114*%
X134874000Y-112498500D03*
X134874000Y-114323500D03*
%TD*%
D24*
%TO.C,R214*%
X157734000Y-126388500D03*
X157734000Y-124563500D03*
%TD*%
%TO.C,R213*%
X160274000Y-126388500D03*
X160274000Y-124563500D03*
%TD*%
%TO.C,R212*%
X162814000Y-126388500D03*
X162814000Y-124563500D03*
%TD*%
%TO.C,R211*%
X165354000Y-126388500D03*
X165354000Y-124563500D03*
%TD*%
D25*
%TO.C,R207*%
X104497500Y-133858000D03*
X106322500Y-133858000D03*
%TD*%
D27*
%TO.C,R301*%
X218250000Y-72087500D03*
X218250000Y-73912500D03*
%TD*%
D25*
%TO.C,R303*%
X205462500Y-76835000D03*
X207287500Y-76835000D03*
%TD*%
%TO.C,R304*%
X205462500Y-80645000D03*
X207287500Y-80645000D03*
%TD*%
%TO.C,RCAN202*%
X98782500Y-87757000D03*
X100607500Y-87757000D03*
%TD*%
%TO.C,RCAN201*%
X98782500Y-90043000D03*
X100607500Y-90043000D03*
%TD*%
D22*
%TO.C,LED_RST101*%
X164846000Y-90681000D03*
X164846000Y-87881000D03*
%TD*%
D28*
%TO.C,U102*%
X141382000Y-93798000D03*
X140882000Y-93798000D03*
X140382000Y-93798000D03*
X139882000Y-93798000D03*
X139382000Y-93798000D03*
X138882000Y-93798000D03*
X138382000Y-93798000D03*
X137882000Y-93798000D03*
X137382000Y-93798000D03*
X136882000Y-93798000D03*
X136382000Y-93798000D03*
X135882000Y-93798000D03*
X135382000Y-93798000D03*
X134882000Y-93798000D03*
X134382000Y-93798000D03*
X133882000Y-93798000D03*
X133382000Y-93798000D03*
X132882000Y-93798000D03*
X132382000Y-93798000D03*
X131882000Y-93798000D03*
X131382000Y-93798000D03*
X130882000Y-93798000D03*
X130382000Y-93798000D03*
X129882000Y-93798000D03*
X129382000Y-93798000D03*
D29*
X127707000Y-95473000D03*
X127707000Y-95973000D03*
X127707000Y-96473000D03*
X127707000Y-96973000D03*
X127707000Y-97473000D03*
X127707000Y-97973000D03*
X127707000Y-98473000D03*
X127707000Y-98973000D03*
X127707000Y-99473000D03*
X127707000Y-99973000D03*
X127707000Y-100473000D03*
X127707000Y-100973000D03*
X127707000Y-101473000D03*
X127707000Y-101973000D03*
X127707000Y-102473000D03*
X127707000Y-102973000D03*
X127707000Y-103473000D03*
X127707000Y-103973000D03*
X127707000Y-104473000D03*
X127707000Y-104973000D03*
X127707000Y-105473000D03*
X127707000Y-105973000D03*
X127707000Y-106473000D03*
X127707000Y-106973000D03*
X127707000Y-107473000D03*
D28*
X129382000Y-109148000D03*
X129882000Y-109148000D03*
X130382000Y-109148000D03*
X130882000Y-109148000D03*
X131382000Y-109148000D03*
X131882000Y-109148000D03*
X132382000Y-109148000D03*
X132882000Y-109148000D03*
X133382000Y-109148000D03*
X133882000Y-109148000D03*
X134382000Y-109148000D03*
X134882000Y-109148000D03*
X135382000Y-109148000D03*
X135882000Y-109148000D03*
X136382000Y-109148000D03*
X136882000Y-109148000D03*
X137382000Y-109148000D03*
X137882000Y-109148000D03*
X138382000Y-109148000D03*
X138882000Y-109148000D03*
X139382000Y-109148000D03*
X139882000Y-109148000D03*
X140382000Y-109148000D03*
X140882000Y-109148000D03*
X141382000Y-109148000D03*
D29*
X143057000Y-107473000D03*
X143057000Y-106973000D03*
X143057000Y-106473000D03*
X143057000Y-105973000D03*
X143057000Y-105473000D03*
X143057000Y-104973000D03*
X143057000Y-104473000D03*
X143057000Y-103973000D03*
X143057000Y-103473000D03*
X143057000Y-102973000D03*
X143057000Y-102473000D03*
X143057000Y-101973000D03*
X143057000Y-101473000D03*
X143057000Y-100973000D03*
X143057000Y-100473000D03*
X143057000Y-99973000D03*
X143057000Y-99473000D03*
X143057000Y-98973000D03*
X143057000Y-98473000D03*
X143057000Y-97973000D03*
X143057000Y-97473000D03*
X143057000Y-96973000D03*
X143057000Y-96473000D03*
X143057000Y-95973000D03*
X143057000Y-95473000D03*
%TD*%
D30*
%TO.C,U101*%
X159512000Y-107696000D03*
X159512000Y-108331000D03*
X159512000Y-108966000D03*
X161544000Y-108966000D03*
X161544000Y-107696000D03*
%TD*%
D31*
%TO.C,U202*%
X184215000Y-73406000D03*
X184215000Y-74676000D03*
X184215000Y-75946000D03*
X184215000Y-77216000D03*
X184215000Y-78486000D03*
X184215000Y-79756000D03*
X184215000Y-81026000D03*
X184215000Y-82296000D03*
X189165000Y-82296000D03*
X189165000Y-81026000D03*
X189165000Y-79756000D03*
X189165000Y-78486000D03*
X189165000Y-77216000D03*
X189165000Y-75946000D03*
X189165000Y-74676000D03*
X189165000Y-73406000D03*
%TD*%
%TO.C,U203*%
X156275000Y-73406000D03*
X156275000Y-74676000D03*
X156275000Y-75946000D03*
X156275000Y-77216000D03*
X156275000Y-78486000D03*
X156275000Y-79756000D03*
X156275000Y-81026000D03*
X156275000Y-82296000D03*
X161225000Y-82296000D03*
X161225000Y-81026000D03*
X161225000Y-79756000D03*
X161225000Y-78486000D03*
X161225000Y-77216000D03*
X161225000Y-75946000D03*
X161225000Y-74676000D03*
X161225000Y-73406000D03*
%TD*%
D32*
%TO.C,U205*%
X108393000Y-90297000D03*
X108393000Y-89027000D03*
X108393000Y-87757000D03*
X108393000Y-86487000D03*
X103443000Y-86487000D03*
X103443000Y-87757000D03*
X103443000Y-89027000D03*
X103443000Y-90297000D03*
%TD*%
D33*
%TO.C,U204*%
X123255000Y-73406000D03*
D31*
X123255000Y-74676000D03*
X123255000Y-75946000D03*
X123255000Y-77216000D03*
X123255000Y-78486000D03*
X123255000Y-79756000D03*
X123255000Y-81026000D03*
X123255000Y-82296000D03*
X128205000Y-82296000D03*
X128205000Y-81026000D03*
X128205000Y-79756000D03*
X128205000Y-78486000D03*
X128205000Y-77216000D03*
X128205000Y-75946000D03*
X128205000Y-74676000D03*
X128205000Y-73406000D03*
%TD*%
D34*
%TO.C,VR201*%
X74705000Y-95915000D03*
X76405000Y-95915000D03*
X78105000Y-95915000D03*
D35*
X75330000Y-89190000D03*
X80880000Y-89190000D03*
X75330000Y-84340000D03*
X80880000Y-84340000D03*
D34*
X79805000Y-95915000D03*
X81505000Y-95915000D03*
%TD*%
D36*
%TO.C,U301*%
X210680000Y-101097500D03*
X210180000Y-101097500D03*
X209680000Y-101097500D03*
X209180000Y-101097500D03*
X208680000Y-101097500D03*
X208180000Y-101097500D03*
X207680000Y-101097500D03*
X207180000Y-101097500D03*
X206680000Y-101097500D03*
X206180000Y-101097500D03*
X205680000Y-101097500D03*
X205180000Y-101097500D03*
X204680000Y-101097500D03*
X204180000Y-101097500D03*
X203680000Y-101097500D03*
X203180000Y-101097500D03*
X202680000Y-101097500D03*
X202180000Y-101097500D03*
X201680000Y-101097500D03*
X201180000Y-101097500D03*
X200680000Y-101097500D03*
X200180000Y-101097500D03*
X199680000Y-101097500D03*
X199180000Y-101097500D03*
X198680000Y-101097500D03*
X198180000Y-101097500D03*
X197680000Y-101097500D03*
X197180000Y-101097500D03*
X196680000Y-101097500D03*
X196180000Y-101097500D03*
X195680000Y-101097500D03*
X195180000Y-101097500D03*
X194680000Y-101097500D03*
X194180000Y-101097500D03*
X193680000Y-101097500D03*
X193180000Y-101097500D03*
D37*
X191267500Y-103010000D03*
X191267500Y-103510000D03*
X191267500Y-104010000D03*
X191267500Y-104510000D03*
X191267500Y-105010000D03*
X191267500Y-105510000D03*
X191267500Y-106010000D03*
X191267500Y-106510000D03*
X191267500Y-107010000D03*
X191267500Y-107510000D03*
X191267500Y-108010000D03*
X191267500Y-108510000D03*
X191267500Y-109010000D03*
X191267500Y-109510000D03*
X191267500Y-110010000D03*
X191267500Y-110510000D03*
X191267500Y-111010000D03*
X191267500Y-111510000D03*
X191267500Y-112010000D03*
X191267500Y-112510000D03*
X191267500Y-113010000D03*
X191267500Y-113510000D03*
X191267500Y-114010000D03*
X191267500Y-114510000D03*
X191267500Y-115010000D03*
X191267500Y-115510000D03*
X191267500Y-116010000D03*
X191267500Y-116510000D03*
X191267500Y-117010000D03*
X191267500Y-117510000D03*
X191267500Y-118010000D03*
X191267500Y-118510000D03*
X191267500Y-119010000D03*
X191267500Y-119510000D03*
X191267500Y-120010000D03*
X191267500Y-120510000D03*
D36*
X193180000Y-122422500D03*
X193680000Y-122422500D03*
X194180000Y-122422500D03*
X194680000Y-122422500D03*
X195180000Y-122422500D03*
X195680000Y-122422500D03*
X196180000Y-122422500D03*
X196680000Y-122422500D03*
X197180000Y-122422500D03*
X197680000Y-122422500D03*
X198180000Y-122422500D03*
X198680000Y-122422500D03*
X199180000Y-122422500D03*
X199680000Y-122422500D03*
X200180000Y-122422500D03*
X200680000Y-122422500D03*
X201180000Y-122422500D03*
X201680000Y-122422500D03*
X202180000Y-122422500D03*
X202680000Y-122422500D03*
X203180000Y-122422500D03*
X203680000Y-122422500D03*
X204180000Y-122422500D03*
X204680000Y-122422500D03*
X205180000Y-122422500D03*
X205680000Y-122422500D03*
X206180000Y-122422500D03*
X206680000Y-122422500D03*
X207180000Y-122422500D03*
X207680000Y-122422500D03*
X208180000Y-122422500D03*
X208680000Y-122422500D03*
X209180000Y-122422500D03*
X209680000Y-122422500D03*
X210180000Y-122422500D03*
X210680000Y-122422500D03*
D37*
X212592500Y-120510000D03*
X212592500Y-120010000D03*
X212592500Y-119510000D03*
X212592500Y-119010000D03*
X212592500Y-118510000D03*
X212592500Y-118010000D03*
X212592500Y-117510000D03*
X212592500Y-117010000D03*
X212592500Y-116510000D03*
X212592500Y-116010000D03*
X212592500Y-115510000D03*
X212592500Y-115010000D03*
X212592500Y-114510000D03*
X212592500Y-114010000D03*
X212592500Y-113510000D03*
X212592500Y-113010000D03*
X212592500Y-112510000D03*
X212592500Y-112010000D03*
X212592500Y-111510000D03*
X212592500Y-111010000D03*
X212592500Y-110510000D03*
X212592500Y-110010000D03*
X212592500Y-109510000D03*
X212592500Y-109010000D03*
X212592500Y-108510000D03*
X212592500Y-108010000D03*
X212592500Y-107510000D03*
X212592500Y-107010000D03*
X212592500Y-106510000D03*
X212592500Y-106010000D03*
X212592500Y-105510000D03*
X212592500Y-105010000D03*
X212592500Y-104510000D03*
X212592500Y-104010000D03*
X212592500Y-103510000D03*
X212592500Y-103010000D03*
%TD*%
D31*
%TO.C,U201*%
X97728000Y-113792000D03*
X97728000Y-115062000D03*
X97728000Y-116332000D03*
X97728000Y-117602000D03*
X97728000Y-118872000D03*
X97728000Y-120142000D03*
X97728000Y-121412000D03*
X102678000Y-121412000D03*
X102678000Y-120142000D03*
X102678000Y-118872000D03*
X102678000Y-117602000D03*
X102678000Y-116332000D03*
X102678000Y-115062000D03*
X102678000Y-113792000D03*
%TD*%
D38*
X71120000Y-147320000D02*
X228600000Y-147320000D01*
X71120000Y-55880000D02*
X71120000Y-147320000D01*
X228600000Y-55880000D02*
X228600000Y-147320000D01*
X228600000Y-55880000D02*
X71120000Y-55880000D01*
M02*
