%TF.GenerationSoftware,KiCad,Pcbnew,8.99.0-344-gfbc433deaa-dirty*%
%TF.CreationDate,2024-03-11T18:46:53+01:00*%
%TF.ProjectId,kit-dev-coldfire-xilinx_5213,6b69742d-6465-4762-9d63-6f6c64666972,2*%
%TF.SameCoordinates,Original*%
%TF.FileFunction,Component,L4,Bot*%
%TF.FilePolarity,Positive*%
%FSLAX46Y46*%
G04 Gerber Fmt 4.6, Leading zero omitted, Abs format (unit mm)*
G04 Created by KiCad (PCBNEW 8.99.0-344-gfbc433deaa-dirty) date 2024-03-11 18:46:53*
%MOMM*%
%LPD*%
G01*
G04 APERTURE LIST*
%TA.AperFunction,ComponentMain*%
%ADD10C,0.300000*%
%TD*%
%TA.AperFunction,ComponentOutline,Courtyard*%
%ADD11C,0.100000*%
%TD*%
%TA.AperFunction,ComponentPin*%
%ADD12P,0.360000X4X0.000000*%
%TD*%
%TA.AperFunction,ComponentPin*%
%ADD13C,0.100000*%
%TD*%
%TA.AperFunction,Profile*%
%ADD14C,0.381000*%
%TD*%
G04 APERTURE END LIST*
D10*
%TO.C,C112*%
%TO.CFtp,C_0805_2012Metric*%
%TO.CVal,100nF*%
%TO.CLbN,Capacitor_SMD*%
%TO.CMnt,SMD*%
%TO.CRot,0*%
X129921000Y-91440000D03*
D11*
X131620999Y-90460001D02*
X131620999Y-92419999D01*
X128221001Y-92419999D01*
X128221001Y-90460001D01*
X131620999Y-90460001D01*
D12*
%TO.P,C112,1*%
X130871000Y-91440000D03*
D13*
%TO.P,C112,2*%
X128971000Y-91440000D03*
%TD*%
D10*
%TO.C,C117*%
%TO.CFtp,C_0805_2012Metric*%
%TO.CVal,100nF*%
%TO.CLbN,Capacitor_SMD*%
%TO.CMnt,SMD*%
%TO.CRot,-90*%
X145288000Y-104775000D03*
D11*
X146267999Y-103075001D02*
X146267999Y-106474999D01*
X144308001Y-106474999D01*
X144308001Y-103075001D01*
X146267999Y-103075001D01*
D12*
%TO.P,C117,1*%
X145288000Y-105725000D03*
D13*
%TO.P,C117,2*%
X145288000Y-103825000D03*
%TD*%
D10*
%TO.C,C118*%
%TO.CFtp,C_0805_2012Metric*%
%TO.CVal,100nF*%
%TO.CLbN,Capacitor_SMD*%
%TO.CMnt,SMD*%
%TO.CRot,90*%
X145415000Y-99314000D03*
D11*
X146394999Y-97614001D02*
X146394999Y-101013999D01*
X144435001Y-101013999D01*
X144435001Y-97614001D01*
X146394999Y-97614001D01*
D12*
%TO.P,C118,1*%
X145415000Y-98364000D03*
D13*
%TO.P,C118,2*%
X145415000Y-100264000D03*
%TD*%
D10*
%TO.C,C301*%
%TO.CFtp,C_0805_2012Metric*%
%TO.CVal,100nF*%
%TO.CLbN,Capacitor_SMD*%
%TO.CMnt,SMD*%
%TO.CRot,-90*%
X209296000Y-100838000D03*
D11*
X210275999Y-99138001D02*
X210275999Y-102537999D01*
X208316001Y-102537999D01*
X208316001Y-99138001D01*
X210275999Y-99138001D01*
D12*
%TO.P,C301,1*%
X209296000Y-101788000D03*
D13*
%TO.P,C301,2*%
X209296000Y-99888000D03*
%TD*%
D10*
%TO.C,C302*%
%TO.CFtp,C_0805_2012Metric*%
%TO.CVal,100nF*%
%TO.CLbN,Capacitor_SMD*%
%TO.CMnt,SMD*%
%TO.CRot,0*%
X191008000Y-107315000D03*
D11*
X192707999Y-106335001D02*
X192707999Y-108294999D01*
X189308001Y-108294999D01*
X189308001Y-106335001D01*
X192707999Y-106335001D01*
D12*
%TO.P,C302,1*%
X191958000Y-107315000D03*
D13*
%TO.P,C302,2*%
X190058000Y-107315000D03*
%TD*%
D10*
%TO.C,C303*%
%TO.CFtp,C_0805_2012Metric*%
%TO.CVal,100nF*%
%TO.CLbN,Capacitor_SMD*%
%TO.CMnt,SMD*%
%TO.CRot,-90*%
X203454000Y-100838000D03*
D11*
X204433999Y-99138001D02*
X204433999Y-102537999D01*
X202474001Y-102537999D01*
X202474001Y-99138001D01*
X204433999Y-99138001D01*
D12*
%TO.P,C303,1*%
X203454000Y-101788000D03*
D13*
%TO.P,C303,2*%
X203454000Y-99888000D03*
%TD*%
D10*
%TO.C,C304*%
%TO.CFtp,C_0805_2012Metric*%
%TO.CVal,100nF*%
%TO.CLbN,Capacitor_SMD*%
%TO.CMnt,SMD*%
%TO.CRot,90*%
X208280000Y-110490000D03*
D11*
X209259999Y-108790001D02*
X209259999Y-112189999D01*
X207300001Y-112189999D01*
X207300001Y-108790001D01*
X209259999Y-108790001D01*
D12*
%TO.P,C304,1*%
X208280000Y-109540000D03*
D13*
%TO.P,C304,2*%
X208280000Y-111440000D03*
%TD*%
D10*
%TO.C,C305*%
%TO.CFtp,C_0805_2012Metric*%
%TO.CVal,100nF*%
%TO.CLbN,Capacitor_SMD*%
%TO.CMnt,SMD*%
%TO.CRot,90*%
X201422000Y-123444000D03*
D11*
X202401999Y-121744001D02*
X202401999Y-125143999D01*
X200442001Y-125143999D01*
X200442001Y-121744001D01*
X202401999Y-121744001D01*
D12*
%TO.P,C305,1*%
X201422000Y-122494000D03*
D13*
%TO.P,C305,2*%
X201422000Y-124394000D03*
%TD*%
D10*
%TO.C,C306*%
%TO.CFtp,C_0805_2012Metric*%
%TO.CVal,100nF*%
%TO.CLbN,Capacitor_SMD*%
%TO.CMnt,SMD*%
%TO.CRot,90*%
X208280000Y-119380000D03*
D11*
X209259999Y-117680001D02*
X209259999Y-121079999D01*
X207300001Y-121079999D01*
X207300001Y-117680001D01*
X209259999Y-117680001D01*
D12*
%TO.P,C306,1*%
X208280000Y-118430000D03*
D13*
%TO.P,C306,2*%
X208280000Y-120330000D03*
%TD*%
D10*
%TO.C,C307*%
%TO.CFtp,C_0805_2012Metric*%
%TO.CVal,100nF*%
%TO.CLbN,Capacitor_SMD*%
%TO.CMnt,SMD*%
%TO.CRot,90*%
X190500000Y-99060000D03*
D11*
X191479999Y-97360001D02*
X191479999Y-100759999D01*
X189520001Y-100759999D01*
X189520001Y-97360001D01*
X191479999Y-97360001D01*
D12*
%TO.P,C307,1*%
X190500000Y-98110000D03*
D13*
%TO.P,C307,2*%
X190500000Y-100010000D03*
%TD*%
D10*
%TO.C,C308*%
%TO.CFtp,C_0805_2012Metric*%
%TO.CVal,100nF*%
%TO.CLbN,Capacitor_SMD*%
%TO.CMnt,SMD*%
%TO.CRot,-90*%
X199009000Y-100838000D03*
D11*
X199988999Y-99138001D02*
X199988999Y-102537999D01*
X198029001Y-102537999D01*
X198029001Y-99138001D01*
X199988999Y-99138001D01*
D12*
%TO.P,C308,1*%
X199009000Y-101788000D03*
D13*
%TO.P,C308,2*%
X199009000Y-99888000D03*
%TD*%
D10*
%TO.C,C309*%
%TO.CFtp,C_0805_2012Metric*%
%TO.CVal,100nF*%
%TO.CLbN,Capacitor_SMD*%
%TO.CMnt,SMD*%
%TO.CRot,90*%
X205359000Y-123444000D03*
D11*
X206338999Y-121744001D02*
X206338999Y-125143999D01*
X204379001Y-125143999D01*
X204379001Y-121744001D01*
X206338999Y-121744001D01*
D12*
%TO.P,C309,1*%
X205359000Y-122494000D03*
D13*
%TO.P,C309,2*%
X205359000Y-124394000D03*
%TD*%
D10*
%TO.C,C310*%
%TO.CFtp,C_0805_2012Metric*%
%TO.CVal,100nF*%
%TO.CLbN,Capacitor_SMD*%
%TO.CMnt,SMD*%
%TO.CRot,90*%
X197485000Y-123444000D03*
D11*
X198464999Y-121744001D02*
X198464999Y-125143999D01*
X196505001Y-125143999D01*
X196505001Y-121744001D01*
X198464999Y-121744001D01*
D12*
%TO.P,C310,1*%
X197485000Y-122494000D03*
D13*
%TO.P,C310,2*%
X197485000Y-124394000D03*
%TD*%
D10*
%TO.C,C311*%
%TO.CFtp,C_0805_2012Metric*%
%TO.CVal,100nF*%
%TO.CLbN,Capacitor_SMD*%
%TO.CMnt,SMD*%
%TO.CRot,0*%
X191008000Y-115189000D03*
D11*
X192707999Y-114209001D02*
X192707999Y-116168999D01*
X189308001Y-116168999D01*
X189308001Y-114209001D01*
X192707999Y-114209001D01*
D12*
%TO.P,C311,1*%
X191958000Y-115189000D03*
D13*
%TO.P,C311,2*%
X190058000Y-115189000D03*
%TD*%
D14*
X71120000Y-147320000D02*
X228600000Y-147320000D01*
X71120000Y-55880000D02*
X71120000Y-147320000D01*
X228600000Y-55880000D02*
X228600000Y-147320000D01*
X228600000Y-55880000D02*
X71120000Y-55880000D01*
M02*
