<svg width="8.601774878283162in" height="7.657088209626775in" viewBox="0 0 8.601774878283162 7.657088209626775" xmlns="http://www.w3.org/2000/svg" xmlnsXlink="http://www.w3.org/1999/xlink">
        <g transform="translate(0 7.657088209626775)">
          <g transform="scale(1, -1)"><g fill="rgb(153,153,153)" stroke="none"><g transform="matrix(1,0,0,-1,5.9000554084632855,4.204113281510513)"><path class="fill" d="M 2.61859373287003 -0.8303971858730781 C 2.5600096397656493 -0.9336428704483338 2.547248336540571 -1.0574842352344165 2.5829210347053007 -1.1711688262179 C 2.6667366922035076 -1.4362472582896935 2.573350057286491 -1.7256930380370217 2.349745860696205 -1.8907109141602516 C 2.2546226253461277 -1.961186154137617 2.192263894960138 -2.068781135564892 2.179790663974489 -2.1876926042947424 C 2.1493381614680978 -2.464665153056422 1.946615489965393 -2.691165663579745 1.6757310658514706 -2.750331840796789 C 1.560591264586329 -2.7755634051906157 1.4596620371941214 -2.8489371864636936 1.4002137273714503 -2.951603756743187 C 1.2598453315293827 -3.1920327085338176 0.9828727827677038 -3.316163630467781 0.7111271117523914 -3.2596034675816674 C 0.5959873104872492 -3.2358219162899227 0.4741802702785878 -3.261923637035843 0.37847049609049493 -3.330948863911127 C 0.15283123246856234 -3.493650282851308 -0.15023858231368564 -3.493650282851308 -0.3758629968511121 -3.330948863911127 C -0.4715727710392049 -3.261923637035843 -0.5928006969521044 -3.235825628561049 -0.7085196125130085 -3.2596034675816674 C -0.9802727080705746 -3.3161576908339785 -1.2572378322900006 -3.192028253808466 -1.3976062281320676 -2.951603756743187 C -1.4570604775885418 -2.849226743611575 -1.5579911898891992 -2.775560435373714 -1.6731235666120878 -2.750331840796789 C -1.9440005661837567 -2.690877591340315 -2.146727692411814 -2.4643681713662873 -2.1780518361787493 -2.1876926042947424 C -2.1908131394038284 -2.069657231550789 -2.2531659301560154 -1.9611846692291663 -2.348007032900465 -1.8907109141602516 C -2.5716119719449764 -1.7259751706426494 -2.6649978644077676 -1.4362472582896937 -2.5811822069095607 -1.1711688262179 C -2.545509508744831 -1.0574842352344171 -2.55827081196991 -0.9336428704483343 -2.61685490507429 -0.8303971858730785 C -2.754327729437546 -0.5882308911951614 -2.7224244713748487 -0.2863193050044378 -2.5382587007801973 -0.07747435595961041 C -2.4596624964861045 0.011560754742709803 -2.421091999479887 0.13047222347256035 -2.432689134479639 0.24850759621651355 C -2.459370711975547 0.5231562632528907 -2.3108820942709776 0.783883913564214 -2.062330693255169 0.9004715005687616 C -2.062330693255169 0.9004715005687616 -2.672538971974507 2.7795488994722195 -2.672538971974507 2.7795488994722195 C -2.6858801319495735 2.8204417932952883 -2.673989133567434 2.8656884386957286 -2.6429566258202106 2.8952678150331237 C -2.611633966961726 2.92485016118742 -2.5658082072655235 2.933260682652029 -2.5257899245199007 2.917599353222787 C -2.5257899245199007 2.917599353222787 -1.5948265713708052 2.548688697737722 -1.5948265713708052 2.548688697737722 C -1.5948265713708052 2.548688697737722 -1.0356694451855861 3.402511056874384 -1.0356694451855861 3.402511056874384 C -1.0147879200980048 3.434413572482856 -0.979985378285369 3.4529749281162614 -0.9428626670185577 3.4529749281162614 C -0.9376423228693735 3.4529749281162614 -0.9332916895997485 3.4529749281162614 -0.9280714939414095 3.45210484600959 C -0.8857285870162592 3.4463044223741504 -0.8500544039430787 3.417302304196954 -0.836712501513787 3.376411637736562 C -0.836712501513787 3.376411637736562 -0.3741263964180507 1.9523844335416782 -0.3741263964180507 1.9523844335416782 C -0.3051011695427669 1.946584009906239 -0.23607445775903257 1.929473038602028 -0.16995148445058825 1.9004705491977187 C -0.062355018114862396 1.8529074466142295 0.06177590381910149 1.8529074466142295 0.16995148445058983 1.9004705491977187 C 0.23607594266748477 1.929473038602028 0.30510042708854346 1.9465836386791262 0.3741263964180523 1.9523844335416782 C 0.3741263964180523 1.9523844335416782 0.8367125015137885 3.376411637736563 0.8367125015137885 3.376411637736563 C 0.8500536614888552 3.417304531559632 0.8857263596535847 3.4468868777139283 0.9280714939414112 3.452104846009591 C 0.9332918380905953 3.452104846009591 0.9376424713602203 3.4529749281162623 0.9428626670185593 3.4529749281162623 C 0.9799853782853706 3.4529749281162623 1.0156580764501002 3.434413572482857 1.0356694451855877 3.402511056874385 C 1.0356694451855877 3.402511056874385 1.5948265713708067 2.5486886977377234 1.5948265713708067 2.5486886977377234 C 1.5948265713708067 2.5486886977377234 2.525789924519902 2.917599353222788 2.525789924519902 2.917599353222788 C 2.565812661990877 2.9332606826520298 2.611053367757514 2.9251397183353034 2.6429566258202124 2.895267815033125 C 2.6742792846786974 2.8656854688788287 2.6858793894953505 2.821022392499502 2.6725389719745087 2.7795488994722204 C 2.6725389719745087 2.7795488994722204 2.0623306932551704 0.9004715005687626 2.0623306932551704 0.9004715005687626 C 2.3111716514188605 0.7838839135642145 2.4596624964861062 0.5234458204007729 2.43268913447964 0.2485075962165146 C 2.420797987606655 0.1304722234725614 2.459371454429774 0.011560754742710858 2.5382587007801978 -0.07747435595960936 C 2.7224244713748496 -0.28542093539178015 2.754327729437547 -0.588201193026147 2.6168549050742906 -0.8303971858730775 C 2.6168549050742906 -0.8303971858730775 2.61859373287003 -0.8303971858730781 2.61859373287003 -0.8303971858730781 M 2.212270808970273 0.2699199760752111 C 2.229962008251585 0.4526305363882035 2.130482051507234 0.6254887291309836 1.965174618236123 0.7006028231082502 C 1.801025413556537 0.7748482456418729 1.6748601670451513 0.9166718517655993 1.617728314405529 1.0880748342267201 C 1.5605942344032302 1.2617942738708905 1.399342828565131 1.3792579568613348 1.2175009396957819 1.380705742600741 C 1.037106836565839 1.3815758247074124 0.8639665112174308 1.4593019468948338 0.7430281424524127 1.5930031037933814 C 0.6206419879479889 1.7281520464313351 0.42603731094511044 1.7696255394586167 0.2595642245402219 1.6962487883686377 C 0.1771963527814208 1.6599962334539202 0.08874035637486256 1.6420147345705025 -0.00029475432745761055 1.6420147345705025 C -0.08932986502977779 1.6420147345705025 -0.17778586143633598 1.6597059338518143 -0.26015373319513707 1.6962487883686377 C -0.426337262452145 1.7696240545501667 -0.6209419394550233 1.7281513039771095 -0.7436176511073279 1.5930031037933814 C -0.8645560198723461 1.4593019468948338 -1.0376963452207542 1.3821609528823997 -1.2180904483506971 1.380705742600741 C -1.3999323372200458 1.3798357347394918 -1.5603172989771776 1.2617942738708905 -1.6183178230604436 1.0880748342267201 C -1.6748720463127547 0.9166718517655987 -1.8016149222114515 0.7754347844798879 -1.9657641268910377 0.7006028231082496 C -2.131368541852283 0.6249096148352211 -2.230842558962831 0.4517618649445597 -2.2128603176251875 0.26991997607521057 C -2.195169118343876 0.09010498724102958 -2.2537532114482564 -0.09028911588891339 -2.3732452793823193 -0.2254380585268671 C -2.4941836481473376 -0.36203478690422597 -2.5150688855060452 -0.5609902456675752 -2.425159163726279 -0.7207960931289448 C -2.3361240530239584 -0.8774093874213686 -2.3166940259469095 -1.0667946112201332 -2.3709251099281436 -1.2390662651248983 C -2.426609176828361 -1.4136618007549657 -2.3651246862927042 -1.6036261388494928 -2.218083483100428 -1.7126703909246246 C -2.0733643054978907 -1.8196877429645886 -1.9782336456055598 -1.9844234864821908 -1.9590931756763919 -2.163941493626237 C -1.9390818069409046 -2.3457833824955863 -1.806251548848676 -2.4942742275628316 -1.6278917702961544 -2.533720820554945 C -1.4518484489266816 -2.572293544923838 -1.2990068220989657 -2.6845281228052396 -1.2076478296713435 -2.84027274565402 C -1.1157097229479584 -2.9983338256858496 -0.9344469483743724 -3.0792539117052447 -0.7563767269697315 -3.0421312004384333 C -0.5797542913044963 -3.005878645523716 -0.39471984926620196 -3.0450313751334415 -0.24855288592425853 -3.150596338217803 C -0.10093071230065634 -3.2576136902577666 0.09744563216693025 -3.2576136902577666 0.24506038124827884 -3.150596338217803 C 0.39123476913247535 -3.045026771917245 0.5762617866285166 -3.005008489171622 0.7528842222937517 -3.0421312004384333 C 0.9309544436983926 -3.0792539117052447 1.1122172182719785 -2.9974681240591075 1.2041553249953643 -2.84027274565402 C 1.2946456459793438 -2.6842385656573584 1.448355944250703 -2.572291317561162 1.6243992656201758 -2.533720820554945 C 1.8018903727290547 -2.494277939833958 1.9355915296276023 -2.3457908070378393 1.955600671000413 -2.163941493626237 C 1.9756120397359005 -1.9841265047920562 2.0698718008219124 -1.8202668572603504 2.214590978424449 -1.7126703909246246 C 2.361634037752289 -1.6042052531452553 2.4231166721523816 -1.4142409150507278 2.3674326052521644 -1.2390662651248983 C 2.312618694704041 -1.0667946112201332 2.3326300634395287 -0.8782780588650119 2.4216666590502993 -0.7207960931289448 C 2.5115704411962625 -0.5618663416534719 2.4915620422776774 -0.3629108828901233 2.36975277470634 -0.2254380585268671 C 2.250262191680728 -0.09028911588891339 2.1916825533016997 0.09010498724102958 2.2093678129492083 0.26991997607521057 C 2.2093678129492083 0.26991997607521057 2.212270808970273 0.2699199760752111 2.212270808970273 0.2699199760752111 M 1.5930788341243667 2.307065879552752 C 1.54406497598457 2.287634367567253 1.487509267823809 2.305615792205248 1.4587985629300568 2.349408786477903 C 1.4587985629300568 2.349408786477903 0.9770719879051524 3.0851957728706116 0.9770719879051524 3.0851957728706116 C 0.9770719879051524 3.0851957728706116 0.6020732077723306 1.9300112436699755 0.6020732077723306 1.9300112436699755 C 0.7172130090374729 1.8981087280615037 0.8239408039295556 1.8348880083198982 0.9086251328714056 1.7420812301528696 C 0.9880900086091422 1.6544939051899552 1.1017820241348786 1.6040292914938519 1.218948725435188 1.6031606200502082 C 1.4965003884926293 1.601710532702704 1.741569679191612 1.4227665169202652 1.8291570041545264 1.1576880848484716 C 1.8410481510275118 1.1205653735816603 1.8587393503088228 1.0863426885190128 1.879620875396404 1.0553110717168592 C 1.879620875396404 1.0553110717168592 2.388899926723535 2.6225576959791015 2.388899926723535 2.6225576959791015 C 2.388899926723535 2.6225576959791015 1.5930788341243667 2.307065879552752 1.5930788341243667 2.307065879552752 M -1.4576655777821907 2.349408786477903 C -1.478547102869772 2.317506270869431 -1.5142198010345018 2.2989449152360257 -1.550472355949219 2.2989449152360257 C -1.56468367227638 2.2989449152360257 -1.5780240897972209 2.3012650846902014 -1.5913652497722877 2.3070658795527534 C -1.5913652497722877 2.3070658795527534 -2.3872019339101893 2.62260892532065 -2.3872019339101893 2.62260892532065 C -2.3872019339101893 2.62260892532065 -1.8779228825830576 1.055362301058408 -1.8779228825830576 1.055362301058408 C -1.8570413574954763 1.0872648166668797 -1.8393501582141647 1.1214867592753028 -1.8274590113411795 1.1577393141900203 C -1.7398716863782648 1.42194907481817 -1.494802395679283 1.600895392208708 -1.2172507326218411 1.6032118493917569 C -1.099215359877888 1.6032118493917569 -0.9863920157957946 1.6545458769857293 -0.9069271400580585 1.7421324594944183 C -0.8222428111162086 1.8349392376614468 -0.7155150162241259 1.8972905435051828 -0.6003752149589837 1.9291938015678802 C -0.6003752149589837 1.9291938015678802 -0.9759531093875674 3.085195030416386 -0.9759531093875674 3.085195030416386 C -0.9759531093875674 3.085195030416386 -1.4576655777821907 2.349408786477903 -1.4576655777821907 2.349408786477903"></path></g></g><g fill="rgb(153,153,153)" stroke="none"><g transform="matrix(1,0,0,-1,5.900607051952711,4.936506509639213)"><path class="fill" d="M 0 -2.1797713601646307 C -1.2021076362418863 -2.1797713601646307 -2.1797713601646307 -1.2018106545517515 -2.1797713601646307 -5.275454564470489e-16 C -2.1797713601646307 1.2021076362418854 -1.2018106545517515 2.179771360164629 0 2.179771360164629 C 1.2021076362418863 2.179771360164629 2.179771360164631 1.2018106545517504 2.179771360164631 -1.0550909128940977e-15 C 2.179771360164631 -1.2021076362418868 1.2018106545517524 -2.179771360164631 5.275454564470491e-16 -2.179771360164631 C 5.275454564470491e-16 -2.179771360164631 0 -2.1797713601646307 0 -2.1797713601646307 M 0 1.9571093379862947 C -1.0794541982163415 1.9571093379862947 -1.9570350925637625 1.0789344802586047 -1.9570350925637625 0.00007424542253292215 C -1.9570350925637625 -1.078785989413539 -1.0788602348360727 -1.956960847141229 0 -1.956960847141229 C 1.0788602348360727 -1.956960847141229 1.957035092563763 -1.0787859894135392 1.957035092563763 0.00007424542253292215 C 1.957035092563763 1.0789344802586047 1.0788602348360727 1.9571093379862947 5.275454564470491e-16 1.9571093379862947 C 5.275454564470491e-16 1.9571093379862947 0 1.9571093379862947 0 1.9571093379862947"></path></g></g><g fill="rgb(153,153,153)" stroke="none"><g transform="matrix(1,0,0,-1,5.90060705195271,4.9364322642166805)"><path class="fill" d="M 1.7604332136947292 -5.27545456447049e-16 C 1.7604332136947292 -0.9709816358947189 0.9703876725144496 -1.7604332136947294 0 -1.7604332136947294 C -0.9703876725144496 -1.7604332136947294 -1.7604332136947292 -0.9703876725144499 -1.7604332136947292 -5.27545456447049e-16 C -1.7604332136947292 0.9703876725144488 -0.9703876725144496 1.7604332136947283 0 1.7604332136947283 C 0.9703876725144496 1.7604332136947283 1.7604332136947292 0.9703876725144488 1.7604332136947292 -5.27545456447049e-16 C 1.7604332136947292 -5.27545456447049e-16 1.7604332136947292 -5.27545456447049e-16 1.7604332136947292 -5.27545456447049e-16 M -1.537696946093861 -5.27545456447049e-16 C -1.537696946093861 -0.8480312161790396 -0.8480237916367859 -1.5376969460938612 0 -1.5376969460938612 C 0.8480237916367859 -1.5376969460938612 1.537696946093861 -0.8480237916367863 1.537696946093861 -5.27545456447049e-16 C 1.537696946093861 0.8480237916367852 0.8480237916367859 1.53769694609386 0 1.53769694609386 C -0.8480237916367859 1.53769694609386 -1.537696946093861 0.8480237916367852 -1.537696946093861 -5.27545456447049e-16 C -1.537696946093861 -5.27545456447049e-16 -1.537696946093861 -5.27545456447049e-16 -1.537696946093861 -5.27545456447049e-16"></path></g></g><g fill="rgb(153,153,153)" stroke="none"><g transform="matrix(1,0,0,-1,5.900038808690283,4.753174432527974)"><path class="fill" d="M -0.2474114679998753 0.9675462175824506 C -0.21260892618723962 0.9675462175824506 -0.17693622802251013 0.9660961302349463 -0.13981500166414937 0.9637759607807707 C -0.13981500166414937 0.9637759607807707 -0.1389449195574779 0.9637759607807707 -0.1389449195574779 0.9637759607807707 C -0.12705377268449305 0.9629058786740992 -0.11603352461782707 0.9594256244928356 -0.10559239084692411 0.955654996464043 C -0.10414222925399753 0.955654996464043 -0.1026921419064933 0.9542049091165387 -0.10124205455898906 0.9542049091165387 C -0.09080166324231115 0.9489844907219321 -0.08123068582350149 0.9431839185956477 -0.07310972150677424 0.9347733971310391 C -0.07310972150677424 0.9347733971310391 -0.07165955991384766 0.9339033150243677 -0.07078955205259853 0.933323309783535 C 0.016797772910316006 0.8486389808416849 0.0858237422398254 0.7624994416181756 0.14005259885838317 0.6757807880989043 C 0.14005259885838317 0.6757807880989043 0.14237276831255888 0.6757807880989043 0.14237276831255888 0.6757807880989043 C 0.270854472006993 0.6757807880989043 0.3903376304903519 0.6453282855925138 0.5008370928471428 0.5838426813755191 C 1.075370446039076 0.265396639586558 1.1609234464245692 -0.7755167597925794 1.164695113889277 -0.8192473136648833 C 1.1670152833434526 -0.8496998161712741 1.1565741495725492 -0.8792814198713452 1.1365627808370617 -0.9024838568673277 C 1.1156812557494804 -0.9253952518069782 1.087548922697265 -0.9381565550320574 1.0565187908035625 -0.9387364117820449 C 1.0179460664346691 -0.9396064938887164 0.21026946476533054 -0.9549775979612749 -0.2412911950841637 -0.5941931039725153 C -0.5324743177187788 -0.8198323675944483 -0.8419218142966648 -0.9512096427676935 -0.8648339516905412 -0.9602007634365154 C -0.8929662847427561 -0.9720919103095005 -0.9248680578970034 -0.9712217539574064 -0.9524212766534558 -0.9593306813298439 C -0.9805536097056706 -0.9465693781047647 -1.0023045486911206 -0.9236579831651142 -1.0118755261099304 -0.8946562362150305 C -1.0266666991870785 -0.8531834856419743 -1.3712085220881578 0.13290041165030775 -0.9756229711952129 0.6569246038926175 C -0.819009676902789 0.8640025118811445 -0.5748164821897036 0.968695982195806 -0.24795843402768275 0.968695982195806 C -0.24795843402768275 0.968695982195806 -0.2474114679998753 0.9675462175824506 -0.2474114679998753 0.9675462175824506 M 0.043482097486858634 0.14795099823378913 C 0.07161443053907346 0.2955731718573914 0.0324611069659676 0.44580135981192337 -0.07368460381345139 0.5971952009002338 C -0.19781552574741534 0.04789786682747921 -0.5548320645425937 -0.29954101246086184 -0.5725247487323561 -0.31609774168585963 C -0.6171878251116822 -0.35844064861100994 -0.6876645499974985 -0.3569906355089286 -0.7300067144684232 -0.31232741063875735 C -0.7723496213935735 -0.2676643342594313 -0.7708996082914922 -0.19718760937361504 -0.7262363834213209 -0.15484544490269028 C -0.7224661266196409 -0.15107518810101034 -0.35878093821791535 0.20303976533613155 -0.272641398994406 0.7436726585992123 C -0.5130703507850367 0.7384523144500281 -0.6891136721545096 0.6642077828614756 -0.7975788099338788 0.5209363909983441 C -1.0516392213016825 0.1853842038576361 -0.9118499397553773 -0.4442541019387514 -0.8384717037569477 -0.7050040258768345 C -0.595726294783268 -0.5846447714075789 -0.03595293159101945 -0.265330058174974 0.04289570713968828 0.14792738818942344 C 0.04289570713968828 0.14792738818942344 0.043482097486858634 0.14795099823378913 0.043482097486858634 0.14795099823378913 M 0.39412095448639856 0.38837995002441983 C 0.3480078650049906 0.41361151441824634 0.2989977191363212 0.43072285694957013 0.24707789515855874 0.44116399072047363 C 0.2775303976649493 0.33066452836368276 0.2833304500732763 0.21929639456324862 0.2627392245878012 0.1061909178755281 C 0.25316824716899206 0.056307645837863116 0.238377816546069 0.00816468650438578 0.2198164609126633 -0.03852825972700915 C 0.4239913728801259 -0.19223855799836853 0.6020615942847669 -0.2583615313068129 0.6038063617143069 -0.2583615313068129 C 0.6618105980686997 -0.2792430563943943 0.6913936866772215 -0.3430458602486629 0.670511419135415 -0.40105380887418246 C 0.6496291515936086 -0.459061757499702 0.585827090193565 -0.488641133837097 0.5278191415680454 -0.46775886629529057 C 0.5188287633534489 -0.4648586916002821 0.33321446456516685 -0.39641346996583104 0.11192598270370428 -0.23603147802560073 C 0.06001209835974481 -0.31172468629862915 -0.0017586082797787644 -0.3816193270717817 -0.0684681204262387 -0.4460049574929391 C 0.22561057368718787 -0.6591709901292232 0.7044267281487739 -0.7049952649169755 0.928647904200315 -0.7148550570294403 C 0.8900751798314217 -0.44687362893658233 0.762464374943307 0.18507370950060104 0.39327158685261443 0.38924862146806355 C 0.39327158685261443 0.38924862146806355 0.39412095448639856 0.38837995002441983 0.39412095448639856 0.38837995002441983"></path></g></g></g>
        </g>
      </svg>