<svg width="9.01431938527908in" height="6.6898079004329025in" viewBox="0 0 9.01431938527908 6.6898079004329025" xmlns="http://www.w3.org/2000/svg" xmlnsXlink="http://www.w3.org/1999/xlink">
        <g transform="translate(0 6.6898079004329025)">
          <g transform="scale(1, -1)"><g fill="none" stroke="rgb(0,0,0)"><g transform="matrix(1,0,0,-1,6.381663135279081,3.781214150432902)"><path class="outline" d="M 2.4980729166666666 0.6671354166666668 C 2.4980729166666666 0.6671354166666668 -2.4980729166666666 0.6671354166666668 -2.4980729166666666 0.6671354166666668 C -2.5668229166666667 0.6671354166666668 -2.6230729166666666 0.6108854166666664 -2.6230729166666666 0.5421354166666668 C -2.6230729166666666 0.5421354166666668 -2.6230729166666666 -0.5421354166666668 -2.6230729166666666 -0.5421354166666668 C -2.6230729166666666 -0.6108854166666667 -2.5668229166666667 -0.6671354166666665 -2.4980729166666666 -0.6671354166666665 C -2.4980729166666666 -0.6671354166666665 2.4980729166666666 -0.6671354166666665 2.4980729166666666 -0.6671354166666665 C 2.5668229166666667 -0.6671354166666665 2.6230729166666666 -0.6108854166666667 2.6230729166666666 -0.5421354166666668 C 2.6230729166666666 -0.5421354166666668 2.6230729166666666 0.5421354166666668 2.6230729166666666 0.5421354166666668 C 2.6230729166666666 0.6108854166666664 2.5668229166666667 0.6671354166666668 2.4980729166666666 0.6671354166666668 C 2.4980729166666666 0.6671354166666668 2.4980729166666666 0.6671354166666668 2.4980729166666666 0.6671354166666668" stroke-width="0.01"></path></g></g><g fill="none" stroke="rgb(0,0,0)"><g transform="matrix(1,0,0,-1,6.381715218612413,5.782412067099569)"><path class="outline" d="M 0.7823958333333334 0.9073958333333333 C 0.7823958333333334 0.9073958333333333 -0.7823958333333328 0.9073958333333333 -0.7823958333333328 0.9073958333333333 C -0.8511458333333325 0.9073958333333333 -0.9073958333333328 0.8511458333333333 -0.9073958333333328 0.7823958333333333 C -0.9073958333333328 0.7823958333333333 -0.9073958333333328 -0.7823958333333334 -0.9073958333333328 -0.7823958333333334 C -0.9073958333333328 -0.8511458333333334 -0.8511458333333325 -0.9073958333333334 -0.7823958333333328 -0.9073958333333334 C -0.7823958333333328 -0.9073958333333334 0.7823958333333334 -0.9073958333333334 0.7823958333333334 -0.9073958333333334 C 0.8511458333333336 -0.9073958333333334 0.9073958333333334 -0.8511458333333334 0.9073958333333334 -0.7823958333333334 C 0.9073958333333334 -0.7823958333333334 0.9073958333333334 0.7823958333333333 0.9073958333333334 0.7823958333333333 C 0.9073958333333334 0.8511458333333333 0.8511458333333336 0.9073958333333333 0.7823958333333334 0.9073958333333333 C 0.7823958333333334 0.9073958333333333 0.7823958333333334 0.9073958333333333 0.7823958333333334 0.9073958333333333" stroke-width="0.01"></path></g></g><g fill="none" stroke="rgb(0,0,0)"><g transform="matrix(1,0,0,-1,6.391194385279081,2.1009016504329034)"><path class="outline" d="M 2.4980208333333334 0.6671354166666668 C 2.4980208333333334 0.6671354166666668 -2.4981249999999995 0.6671354166666668 -2.4981249999999995 0.6671354166666668 C -2.5668749999999996 0.6671354166666668 -2.6231249999999995 0.610885416666667 -2.6231249999999995 0.5421354166666668 C -2.6231249999999995 0.5421354166666668 -2.6231249999999995 -0.5421354166666668 -2.6231249999999995 -0.5421354166666668 C -2.6231249999999995 -0.6108854166666664 -2.5668749999999996 -0.6671354166666668 -2.4981249999999995 -0.6671354166666668 C -2.4981249999999995 -0.6671354166666668 2.498125 -0.6671354166666668 2.498125 -0.6671354166666668 C 2.566875 -0.6671354166666668 2.623125 -0.6108854166666664 2.623125 -0.5421354166666668 C 2.623125 -0.5421354166666668 2.623125 0.5421354166666668 2.623125 0.5421354166666668 C 2.6230208333333334 0.610885416666667 2.5667708333333334 0.6671354166666668 2.4980208333333334 0.6671354166666668 C 2.4980208333333334 0.6671354166666668 2.4980208333333334 0.6671354166666668 2.4980208333333334 0.6671354166666668" stroke-width="0.01"></path></g></g><g fill="none" stroke="rgb(0,0,0)"><g transform="matrix(1,0,0,-1,5.909423551945748,5.876868543496509)"><path class="outline" d="M 0.19302083333333303 -0.3511685236030595 C 0.19302083333333303 -0.3511685236030595 0.19302083333333303 0.35112314306360715 0.19302083333333303 0.35112314306360715 C 0.19302083333333303 0.3984148097302737 0.14177083333333287 0.4279981430636071 0.1008333333333328 0.4043523097302737 C 0.1008333333333328 0.4043523097302737 -0.16208333333333336 0.2524773097302738 -0.16208333333333336 0.2524773097302738 C -0.18104166666666663 0.2415398097302737 -0.1928125000000005 0.22122730973027385 -0.1928125000000005 0.1993523097302739 C -0.1928125000000005 0.1993523097302739 -0.19302083333333364 -0.1989810236030595 -0.19302083333333364 -0.1989810236030595 C -0.19302083333333364 -0.22096019026972616 -0.18135416666666693 -0.24127269026972617 -0.16229166666666708 -0.25221019026972613 C -0.16229166666666708 -0.25221019026972613 0.1008333333333328 -0.4042935236030596 0.1008333333333328 -0.4042935236030596 C 0.14187500000000003 -0.4280435236030596 0.19302083333333303 -0.39846019026972623 0.19302083333333303 -0.3511685236030595 C 0.19302083333333303 -0.3511685236030595 0.19302083333333303 -0.3511685236030595 0.19302083333333303 -0.3511685236030595" stroke-width="0.01"></path></g></g><g fill="none" stroke="rgb(0,0,0)"><g transform="matrix(1,0,0,-1,6.8538506352790804,5.972151650432902)"><path class="outline" d="M 0.16234375000000037 0.15734375000000003 C 0.16234375000000037 0.15734375000000003 -0.10088541666666669 0.3093229166666667 -0.10088541666666669 0.3093229166666667 C -0.14182291666666674 0.33296874999999987 -0.19307291666666632 0.30338541666666646 -0.19307291666666632 0.2560937499999999 C -0.19307291666666632 0.2560937499999999 -0.19307291666666632 -0.25609375000000006 -0.19307291666666632 -0.25609375000000006 C -0.19307291666666632 -0.30338541666666663 -0.14192708333333331 -0.33296875000000004 -0.10088541666666669 -0.3093229166666667 C -0.10088541666666669 -0.3093229166666667 0.16223958333333321 -0.15755208333333331 0.16223958333333321 -0.15755208333333331 C 0.18130208333333364 -0.14661458333333335 0.19296875000000036 -0.12630208333333331 0.19296875000000036 -0.10432291666666667 C 0.19296875000000036 -0.10432291666666667 0.19307291666666693 0.10421874999999994 0.19307291666666693 0.10421874999999994 C 0.19307291666666693 0.12609375000000003 0.18130208333333364 0.1464062499999999 0.16234375000000037 0.15734375000000003 C 0.16234375000000037 0.15734375000000003 0.16234375000000037 0.15734375000000003 0.16234375000000037 0.15734375000000003" stroke-width="0.01"></path></g></g><g fill="none" stroke="rgb(0,0,0)"><g transform="matrix(1,0,0,-1,6.381663135279079,5.782466241012695)"><path class="outline" d="M -0.1044270833333325 -0.6530708260868743 C -0.1044270833333325 -0.6530708260868743 -0.1044270833333325 -0.6530708260868743 -0.1044270833333325 -0.6530708260868743 C -0.16890624999999915 -0.6158833260868742 -0.20859374999999916 -0.5470291594202077 -0.20859374999999916 -0.4726541594202077 C -0.20859374999999916 -0.4726541594202077 -0.20859374999999916 0.650262507246459 -0.20859374999999916 0.650262507246459 C -0.20859374999999916 0.6739083405797921 -0.18296874999999937 0.688700007246459 -0.16255208333333293 0.6768250072464588 C -0.16255208333333293 0.6768250072464588 -0.09859374999999915 0.6398458405797923 -0.09859374999999915 0.6398458405797923 C 0.09151041666666751 0.5300541739131255 0.20859375000000036 0.3272416739131255 0.20859375000000036 0.10765834057979232 C 0.20859375000000036 0.10765834057979232 0.20859375000000036 -0.4723416594202077 0.20859375000000036 -0.4723416594202077 C 0.20859375000000036 -0.5468208260868743 0.16880208333333374 -0.615674992753541 0.10432291666666711 -0.652862492753541 C 0.10432291666666711 -0.652862492753541 0.10380208333333366 -0.6531749927535411 0.10380208333333366 -0.6531749927535411 C 0.03942708333333418 -0.6903624927535411 -0.03994791666666586 -0.6902583260868743 -0.1044270833333325 -0.6530708260868743 C -0.1044270833333325 -0.6530708260868743 -0.1044270833333325 -0.6530708260868743 -0.1044270833333325 -0.6530708260868743" stroke-width="0.01"></path></g></g><g fill="none" stroke="rgb(0,0,0)"><g transform="matrix(1,0,0,-1,4.502027718612416,3.8805892745939436)"><path class="outline" d="M -0.2329166666666668 -0.16973945917229175 C -0.2329166666666668 -0.16973945917229175 -0.2329166666666668 0.16869804082770773 -0.2329166666666668 0.16869804082770773 C -0.2329166666666668 0.3542188741610411 -0.11666666666666685 0.3878647074943746 0.014791666666666831 0.3878647074943746 C 0.12489583333333341 0.3878647074943746 0.2329166666666668 0.3878647074943746 0.2329166666666668 0.3878647074943746 C 0.2329166666666668 0.3878647074943746 0.2329166666666668 0.25838554082770787 0.2329166666666668 0.25838554082770787 C 0.2329166666666668 0.2472397074943746 0.22375000000000017 0.238073040827708 0.21249999999999974 0.238073040827708 C 0.21249999999999974 0.238073040827708 0.005520833333333049 0.238073040827708 0.005520833333333049 0.238073040827708 C -0.042395833333333556 0.238073040827708 -0.059687500000000185 0.22171887416104138 -0.059687500000000185 0.16869804082770773 C -0.059687500000000185 0.16869804082770773 -0.059687500000000185 0.060677207494374955 -0.059687500000000185 0.060677207494374955 C -0.059687500000000185 0.060677207494374955 0.20437500000000003 0.060677207494374955 0.20437500000000003 0.060677207494374955 C 0.21562499999999987 0.060677207494374955 0.2247916666666665 0.05151054082770774 0.2247916666666665 0.040260540827707914 C 0.2247916666666665 0.040260540827707914 0.2247916666666665 -0.0566144591722922 0.2247916666666665 -0.0566144591722922 C 0.2247916666666665 -0.06786445917229203 0.21562499999999987 -0.07703112583895866 0.20437500000000003 -0.07703112583895866 C 0.20437500000000003 -0.07703112583895866 -0.059687500000000185 -0.07703112583895866 -0.059687500000000185 -0.07703112583895866 C -0.059687500000000185 -0.07703112583895866 -0.059687500000000185 -0.16973945917229175 -0.059687500000000185 -0.16973945917229175 C -0.059687500000000185 -0.2227602925056254 -0.042395833333333556 -0.23911445917229202 0.005520833333333049 -0.23911445917229202 C 0.005520833333333049 -0.23911445917229202 0.21249999999999974 -0.23911445917229202 0.21249999999999974 -0.23911445917229202 C 0.22375000000000017 -0.23911445917229202 0.2329166666666668 -0.2482811258389586 0.2329166666666668 -0.25942695917229186 C 0.2329166666666668 -0.25942695917229186 0.2329166666666668 -0.38786445917229173 0.2329166666666668 -0.38786445917229173 C 0.2329166666666668 -0.38786445917229173 0.12583333333333316 -0.38786445917229173 0.015729166666666572 -0.38786445917229173 C -0.11562500000000023 -0.3879686258389589 -0.2329166666666668 -0.35536445917229165 -0.2329166666666668 -0.16973945917229175 C -0.2329166666666668 -0.16973945917229175 -0.2329166666666668 -0.16973945917229175 -0.2329166666666668 -0.16973945917229175" stroke-width="0.01"></path></g></g><g fill="none" stroke="rgb(0,0,0)"><g transform="matrix(1,0,0,-1,4.935777718612416,3.880641233766235)"><path class="outline" d="M 0.06322916666666659 -0.39093750000000027 C 0.06322916666666659 -0.39093750000000027 -0.06114583333333338 -0.39093750000000027 -0.06114583333333338 -0.39093750000000027 C -0.07239583333333321 -0.39093750000000027 -0.08260416666666673 -0.38177083333333367 -0.08260416666666673 -0.37052083333333385 C -0.08260416666666673 -0.37052083333333385 -0.08260416666666673 0.36958333333333293 -0.08260416666666673 0.36958333333333293 C -0.08260416666666673 0.38083333333333275 -0.07239583333333321 0.3909374999999997 -0.06114583333333338 0.3909374999999997 C -0.06114583333333338 0.3909374999999997 0.06322916666666659 0.3909374999999997 0.06322916666666659 0.3909374999999997 C 0.07447916666666642 0.3909374999999997 0.08260416666666673 0.3807291666666662 0.08260416666666673 0.36958333333333293 C 0.08260416666666673 0.36958333333333293 0.08260416666666673 -0.37052083333333385 0.08260416666666673 -0.37052083333333385 C 0.08260416666666673 -0.38177083333333367 0.07437499999999984 -0.39093750000000027 0.06322916666666659 -0.39093750000000027 C 0.06322916666666659 -0.39093750000000027 0.06322916666666659 -0.39093750000000027 0.06322916666666659 -0.39093750000000027" stroke-width="0.01"></path></g></g><g fill="none" stroke="rgb(0,0,0)"><g transform="matrix(1,0,0,-1,5.380204801945747,3.7812662337662353)"><path class="outline" d="M 0.003072916666666832 -0.3007291666666667 C -0.15901041666666652 -0.3007291666666667 -0.2548437499999997 -0.19677083333333317 -0.2548437499999997 -0.032604166666666615 C -0.2548437499999997 -0.032604166666666615 -0.2548437499999997 0.03874999999999969 -0.2548437499999997 0.03874999999999969 C -0.2548437499999997 0.23552083333333346 -0.12234374999999946 0.3007291666666667 0.0009895833333336175 0.3007291666666667 C 0.08963541666666684 0.3007291666666667 0.14473958333333373 0.2926041666666664 0.20994791666666696 0.2762499999999998 C 0.22723958333333388 0.2721874999999999 0.23130208333333374 0.26510416666666653 0.23130208333333374 0.24874999999999994 C 0.23130208333333374 0.24874999999999994 0.23130208333333374 0.17124999999999996 0.23130208333333374 0.17124999999999996 C 0.23130208333333374 0.1601041666666667 0.22317708333333403 0.15489583333333337 0.2119270833333336 0.15489583333333337 C 0.2108854166666673 0.15489583333333337 0.20994791666666696 0.15489583333333337 0.20890625000000065 0.15489583333333337 C 0.16817708333333373 0.15895833333333323 0.07734375000000071 0.1640625 0.013177083333333783 0.1640625 C -0.06734374999999973 0.1640625 -0.09182291666666605 0.11104166666666633 -0.09182291666666605 0.0529166666666665 C -0.09182291666666605 0.0529166666666665 -0.09182291666666605 0.050833333333333286 -0.09182291666666605 0.050833333333333286 C -0.09182291666666605 0.050833333333333286 0.23338541666666696 0.050833333333333286 0.23338541666666696 0.050833333333333286 C 0.24661458333333403 0.050833333333333286 0.2548437500000003 0.041666666666666664 0.2548437500000003 0.02635416666666638 C 0.2548437500000003 0.02635416666666638 0.2548437500000003 -0.03281249999999976 0.2548437500000003 -0.03281249999999976 C 0.2548437500000003 -0.18656250000000024 0.17026041666666694 -0.3007291666666667 0.003072916666666832 -0.3007291666666667 C 0.003072916666666832 -0.3007291666666667 0.003072916666666832 -0.3007291666666667 0.003072916666666832 -0.3007291666666667 M 0.09380208333333387 -0.05093749999999986 C 0.09380208333333387 -0.05093749999999986 -0.09171874999999947 -0.05093749999999986 -0.09171874999999947 -0.05093749999999986 C -0.09171874999999947 -0.05093749999999986 -0.09171874999999947 -0.055000000000000306 -0.09171874999999947 -0.055000000000000306 C -0.09171874999999947 -0.12937500000000016 -0.054010416666666096 -0.16812499999999986 0.002031250000000521 -0.16812499999999986 C 0.05911458333333404 -0.16812499999999986 0.09380208333333387 -0.13041666666666646 0.09380208333333387 -0.055000000000000306 C 0.09380208333333387 -0.055000000000000306 0.09380208333333387 -0.05093749999999986 0.09380208333333387 -0.05093749999999986 C 0.09380208333333387 -0.05093749999999986 0.09380208333333387 -0.05093749999999986 0.09380208333333387 -0.05093749999999986" stroke-width="0.01"></path></g></g><g fill="none" stroke="rgb(0,0,0)"><g transform="matrix(1,0,0,-1,5.994371468612415,3.686422483766236)"><path class="outline" d="M -0.0035937499999996914 -0.3955729166666669 C -0.06505208333333337 -0.3955729166666669 -0.18265624999999963 -0.37661458333333364 -0.23088541666666682 -0.36828125000000017 C -0.24328125000000012 -0.36619791666666696 -0.2523437500000002 -0.35536458333333343 -0.2523437500000002 -0.34276041666666696 C -0.2523437500000002 -0.34276041666666696 -0.2523437500000002 0.37515624999999986 -0.2523437500000002 0.37515624999999986 C -0.2523437500000002 0.3864062499999997 -0.243177083333333 0.3955729166666663 -0.23192708333333314 0.3955729166666663 C -0.23192708333333314 0.3955729166666663 -0.10755208333333319 0.3955729166666663 -0.10755208333333319 0.3955729166666663 C -0.09630208333333336 0.3955729166666663 -0.08713541666666674 0.3864062499999997 -0.08713541666666674 0.37515624999999986 C -0.08713541666666674 0.37515624999999986 -0.08713541666666674 0.20588541666666652 -0.08713541666666674 0.20588541666666652 C -0.08713541666666674 0.20588541666666652 -0.02390625000000016 0.20588541666666652 -0.0034895833333331194 0.20588541666666652 C 0.16880208333333313 0.20588541666666652 0.2523437500000002 0.10494791666666656 0.2523437500000002 -0.05505208333333359 C 0.2523437500000002 -0.05505208333333359 0.2523437500000002 -0.1345312500000002 0.2523437500000002 -0.1345312500000002 C 0.25223958333333363 -0.29973958333333367 0.16151041666666657 -0.3955729166666669 -0.0035937499999996914 -0.3955729166666669 C -0.0035937499999996914 -0.3955729166666669 -0.0035937499999996914 -0.3955729166666669 -0.0035937499999996914 -0.3955729166666669 M 0.08713541666666674 -0.05505208333333359 C 0.08713541666666674 0.016302083333333307 0.06880208333333351 0.07036458333333329 -0.0035937499999996914 0.07036458333333329 C -0.02807291666666659 0.07036458333333329 -0.06276041666666642 0.06734374999999973 -0.08723958333333331 0.06421874999999962 C -0.08723958333333331 0.06421874999999962 -0.08723958333333331 -0.25380208333333343 -0.08723958333333331 -0.25380208333333343 C -0.06786458333333317 -0.25682291666666696 -0.03734374999999978 -0.25890625000000017 -0.0035937499999996914 -0.25890625000000017 C 0.06880208333333351 -0.25890625000000017 0.08713541666666674 -0.20692708333333343 0.08713541666666674 -0.1345312500000002 C 0.08713541666666674 -0.1345312500000002 0.08713541666666674 -0.05505208333333359 0.08713541666666674 -0.05505208333333359 C 0.08713541666666674 -0.05505208333333359 0.08713541666666674 -0.05505208333333359 0.08713541666666674 -0.05505208333333359" stroke-width="0.01"></path></g></g><g fill="none" stroke="rgb(0,0,0)"><g transform="matrix(1,0,0,-1,6.601298676182563,3.8807454004329016)"><path class="outline" d="M 0.07041654242985136 -0.2012500000000005 C 0.009270709096518573 -0.2012500000000005 -0.03354179090348157 -0.18906250000000036 -0.08552095757014833 -0.15541666666666742 C -0.08552095757014833 -0.15541666666666742 -0.08552095757014833 -0.37052083333333385 -0.08552095757014833 -0.37052083333333385 C -0.08552095757014833 -0.38177083333333367 -0.09468762423681494 -0.39093750000000027 -0.10593762423681477 -0.39093750000000027 C -0.10593762423681477 -0.39093750000000027 -0.23031262423681476 -0.39093750000000027 -0.23031262423681476 -0.39093750000000027 C -0.24156262423681518 -0.39093750000000027 -0.2507292909034818 -0.38177083333333367 -0.2507292909034818 -0.37052083333333385 C -0.2507292909034818 -0.37052083333333385 -0.2507292909034818 0.36958333333333293 -0.2507292909034818 0.36958333333333293 C -0.2507292909034818 0.38083333333333275 -0.24052095757014827 0.3909374999999997 -0.229375124236815 0.3909374999999997 C -0.229375124236815 0.3909374999999997 -0.10604179090348194 0.3909374999999997 -0.10604179090348194 0.3909374999999997 C -0.09479179090348151 0.3909374999999997 -0.0856251242368149 0.3807291666666662 -0.0856251242368149 0.36958333333333293 C -0.0856251242368149 0.36958333333333293 -0.0856251242368149 -0.032083333333333755 -0.0856251242368149 -0.032083333333333755 C -0.05093762423681507 -0.05041666666666699 -0.019375124236814756 -0.06468750000000037 0.010208209096518317 -0.06468750000000037 C 0.0723957090965186 -0.06468750000000037 0.08562487576318507 -0.04125000000000037 0.08562487576318507 0.030104166666665932 C 0.08562487576318507 0.030104166666665932 0.08562487576318507 0.36958333333333293 0.08562487576318507 0.36958333333333293 C 0.08562487576318507 0.38083333333333275 0.0947915424298517 0.3909374999999997 0.10604154242985153 0.3909374999999997 C 0.10604154242985153 0.3909374999999997 0.2293748757631852 0.3909374999999997 0.2293748757631852 0.3909374999999997 C 0.24062487576318503 0.3909374999999997 0.2507290424298514 0.3807291666666662 0.2507290424298514 0.36958333333333293 C 0.2507290424298514 0.36958333333333293 0.2507290424298514 0.030104166666665932 0.2507290424298514 0.030104166666665932 C 0.2508332090965186 -0.09822916666666731 0.21822904242985192 -0.2012500000000005 0.07041654242985136 -0.2012500000000005 C 0.07041654242985136 -0.2012500000000005 0.07041654242985136 -0.2012500000000005 0.07041654242985136 -0.2012500000000005" stroke-width="0.01"></path></g></g><g fill="none" stroke="rgb(0,0,0)"><g transform="matrix(1,0,0,-1,7.1894756352790825,3.781370400432901)"><path class="outline" d="M -0.00307291666666624 -0.30062500000000014 C -0.07036458333333329 -0.30062500000000014 -0.1417187500000002 -0.28843749999999996 -0.17942708333333357 -0.27927083333333336 C -0.19161458333333373 -0.2762500000000004 -0.1988020833333337 -0.2680208333333335 -0.1988020833333337 -0.25687500000000024 C -0.1988020833333337 -0.25687500000000024 -0.1988020833333337 -0.1742708333333335 -0.1988020833333337 -0.1742708333333335 C -0.1988020833333337 -0.16104166666666703 -0.19067708333333339 -0.15593750000000028 -0.18046874999999987 -0.15593750000000028 C -0.18046874999999987 -0.15593750000000028 -0.1753645833333337 -0.15593750000000028 -0.1753645833333337 -0.15593750000000028 C -0.1438020833333334 -0.15895833333333323 -0.07140625000000018 -0.16312500000000024 -0.006093750000000378 -0.16312500000000024 C 0.04182291666666652 -0.16312500000000024 0.07036458333333329 -0.1508333333333335 0.07036458333333329 -0.09281250000000026 C 0.07036458333333329 -0.09281250000000026 0.07036458333333329 -0.05614583333333319 0.07036458333333329 -0.05614583333333319 C 0.07036458333333329 -0.05614583333333319 0.01536458333333357 -0.05614583333333319 0.01536458333333357 -0.05614583333333319 C -0.15901041666666652 -0.05614583333333319 -0.23546875000000017 -0.0031250000000001277 -0.23546875000000017 0.11614583333333309 C -0.23546875000000017 0.11614583333333309 -0.23546875000000017 0.12531249999999972 -0.23546875000000017 0.12531249999999972 C -0.23546875000000017 0.2578125 -0.1498437499999999 0.30062500000000014 -0.061197916666666664 0.30062500000000014 C -0.000052083333333285964 0.30062500000000014 0.040781249999999616 0.28333333333333316 0.08046875000000023 0.2547916666666664 C 0.08046875000000023 0.2547916666666664 0.08046875000000023 0.27114583333333303 0.08046875000000023 0.27114583333333303 C 0.08046875000000023 0.28239583333333346 0.08963541666666684 0.29156250000000006 0.10088541666666609 0.29156250000000006 C 0.10088541666666609 0.29156250000000006 0.21505208333333314 0.29156250000000006 0.21505208333333314 0.29156250000000006 C 0.22630208333333357 0.29156250000000006 0.23546875000000017 0.28239583333333346 0.23546875000000017 0.27114583333333303 C 0.23546875000000017 0.27114583333333303 0.23546875000000017 -0.09281250000000026 0.23546875000000017 -0.09281250000000026 C 0.23546875000000017 -0.24145833333333339 0.14369791666666623 -0.30062500000000014 -0.00307291666666624 -0.30062500000000014 C -0.00307291666666624 -0.30062500000000014 -0.00307291666666624 -0.30062500000000014 -0.00307291666666624 -0.30062500000000014 M 0.07338541666666623 0.1540624999999996 C 0.04890624999999933 0.16624999999999976 0.020364583333333762 0.1764583333333333 -0.010156250000000236 0.1764583333333333 C -0.05296875000000038 0.1764583333333333 -0.07442708333333373 0.168333333333333 -0.07442708333333373 0.12552083333333344 C -0.07442708333333373 0.12552083333333344 -0.07442708333333373 0.11635416666666623 -0.07442708333333373 0.11635416666666623 C -0.07442708333333373 0.06645833333333329 -0.0560937499999999 0.04197916666666638 0.015260416666666998 0.04197916666666638 C 0.015260416666666998 0.04197916666666638 0.07338541666666623 0.04197916666666638 0.07338541666666623 0.04197916666666638 C 0.07338541666666623 0.04197916666666638 0.07338541666666623 0.1540624999999996 0.07338541666666623 0.1540624999999996 C 0.07338541666666623 0.1540624999999996 0.07338541666666623 0.1540624999999996 0.07338541666666623 0.1540624999999996" stroke-width="0.01"></path></g></g><g fill="none" stroke="rgb(0,0,0)"><g transform="matrix(1,0,0,-1,7.798069385279078,3.785849567099568)"><path class="outline" d="M 0.0703124999999988 -0.296145833333334 C 0.005104166666665577 -0.296145833333334 -0.039791666666667176 -0.28291666666666754 -0.09583333333333378 -0.24312500000000092 C -0.09583333333333378 -0.24312500000000092 -0.09583333333333378 -0.2676041666666672 -0.09583333333333378 -0.2676041666666672 C -0.09583333333333378 -0.278854166666667 -0.1050000000000004 -0.2880208333333343 -0.11625000000000082 -0.2880208333333343 C -0.11625000000000082 -0.2880208333333343 -0.23041666666666785 -0.2880208333333343 -0.23041666666666785 -0.2880208333333343 C -0.24166666666666708 -0.2880208333333343 -0.2508333333333337 -0.278854166666667 -0.2508333333333337 -0.2676041666666672 C -0.2508333333333337 -0.2676041666666672 -0.2508333333333337 0.274791666666666 -0.2508333333333337 0.274791666666666 C -0.2508333333333337 0.2860416666666658 -0.24062500000000137 0.2961458333333328 -0.22937500000000094 0.2961458333333328 C -0.22937500000000094 0.2961458333333328 -0.10604166666666731 0.2961458333333328 -0.10604166666666731 0.2961458333333328 C -0.09479166666666808 0.2961458333333328 -0.08562500000000027 0.28593749999999923 -0.08562500000000027 0.274791666666666 C -0.08562500000000027 0.274791666666666 -0.08562500000000027 -0.12687500000000065 -0.08562500000000027 -0.12687500000000065 C -0.05093750000000104 -0.14520833333333388 -0.01937500000000132 -0.15947916666666728 0.010208333333332336 -0.15947916666666728 C 0.0723958333333326 -0.15947916666666728 0.08562499999999908 -0.13604166666666728 0.08562499999999908 -0.06468750000000037 C 0.08562499999999908 -0.06468750000000037 0.08562499999999908 0.274791666666666 0.08562499999999908 0.274791666666666 C 0.08562499999999908 0.2860416666666658 0.09479166666666569 0.2961458333333328 0.10604166666666612 0.2961458333333328 C 0.10604166666666612 0.2961458333333328 0.22937499999999858 0.2961458333333328 0.22937499999999858 0.2961458333333328 C 0.240624999999999 0.2961458333333328 0.2508333333333325 0.28593749999999923 0.2508333333333325 0.274791666666666 C 0.2508333333333325 0.274791666666666 0.2508333333333325 -0.06468750000000037 0.2508333333333325 -0.06468750000000037 C 0.25072916666666595 -0.1931250000000008 0.21812499999999935 -0.296145833333334 0.0703124999999988 -0.296145833333334 C 0.0703124999999988 -0.296145833333334 0.0703124999999988 -0.296145833333334 0.0703124999999988 -0.296145833333334" stroke-width="0.01"></path></g></g><g fill="none" stroke="rgb(0,0,0)"><g transform="matrix(1,0,0,-1,8.307131885279073,3.839964150432902)"><path class="outline" d="M 0.1657291666666675 0.23411458333333296 C 0.1657291666666675 0.23411458333333296 0.1157291666666668 0.23411458333333296 0.1157291666666668 0.23411458333333296 C 0.08510416666666742 0.23411458333333296 0.08208333333333329 0.226927083333333 0.08208333333333329 0.18619791666666666 C 0.08208333333333329 0.18619791666666666 0.08208333333333329 -0.11046875000000018 0.08208333333333329 -0.11046875000000018 C 0.08208333333333329 -0.11046875000000018 0.1657291666666675 -0.11046875000000018 0.1657291666666675 -0.11046875000000018 C 0.17697916666666674 -0.11046875000000018 0.18614583333333337 -0.11963541666666681 0.18614583333333337 -0.13088541666666664 C 0.18614583333333337 -0.13088541666666664 0.18614583333333337 -0.21348958333333337 0.18614583333333337 -0.21348958333333337 C 0.18614583333333337 -0.22473958333333321 0.17697916666666674 -0.23390625000000043 0.1657291666666675 -0.23390625000000043 C 0.1657291666666675 -0.23390625000000043 0.08208333333333329 -0.23390625000000043 0.08208333333333329 -0.23390625000000043 C 0.08208333333333329 -0.23390625000000043 0.08208333333333329 -0.34203125000000034 0.08208333333333329 -0.34203125000000034 C 0.08208333333333329 -0.3522395833333333 0.07395833333333357 -0.3593229166666667 0.06375000000000004 -0.3593229166666667 C 0.06270833333333314 -0.3593229166666667 0.061666666666667425 -0.3593229166666667 0.06072916666666709 -0.3593229166666667 C 0.06072916666666709 -0.3593229166666667 -0.06364583333333347 -0.33796874999999993 -0.06364583333333347 -0.33796874999999993 C -0.07489583333333272 -0.3358854166666667 -0.08406249999999933 -0.3288020833333333 -0.08406249999999933 -0.31755208333333346 C -0.08406249999999933 -0.31755208333333346 -0.08406249999999933 -0.23473958333333358 -0.08406249999999933 -0.23473958333333358 C -0.08406249999999933 -0.23473958333333358 -0.16864583333333272 -0.23473958333333358 -0.16864583333333272 -0.23473958333333358 C -0.17885416666666623 -0.23473958333333358 -0.18708333333333252 -0.2265104166666667 -0.18708333333333252 -0.21630208333333317 C -0.18708333333333252 -0.21630208333333317 -0.18708333333333252 -0.21255208333333364 -0.18708333333333252 -0.21255208333333364 C -0.18708333333333252 -0.21255208333333364 -0.18708333333333252 -0.1452604166666666 -0.18708333333333252 -0.1452604166666666 C -0.18708333333333252 -0.1452604166666666 -0.18708333333333252 -0.12901041666666657 -0.18708333333333252 -0.12901041666666657 C -0.18708333333333252 -0.11880208333333364 -0.17885416666666623 -0.11057291666666676 -0.16864583333333272 -0.11057291666666676 C -0.16864583333333272 -0.11057291666666676 -0.08406249999999933 -0.11057291666666676 -0.08406249999999933 -0.11057291666666676 C -0.08406249999999933 -0.11057291666666676 -0.08406249999999933 0.18505208333333317 -0.08406249999999933 0.18505208333333317 C -0.08406249999999933 0.3298437499999996 -0.024895833333333187 0.3593229166666667 0.08718750000000004 0.3593229166666667 C 0.11677083333333371 0.3593229166666667 0.13718750000000077 0.35630208333333313 0.16770833333333357 0.3511979166666664 C 0.17989583333333314 0.34921874999999974 0.1870833333333337 0.34098958333333346 0.1870833333333337 0.3307812499999999 C 0.1870833333333337 0.3307812499999999 0.1870833333333337 0.2513020833333333 0.1870833333333337 0.2513020833333333 C 0.1870833333333337 0.24015625000000004 0.178958333333334 0.23411458333333296 0.1657291666666675 0.23411458333333296 C 0.1657291666666675 0.23411458333333296 0.1657291666666675 0.23411458333333296 0.1657291666666675 0.23411458333333296" stroke-width="0.01"></path></g></g><g fill="none" stroke="rgb(0,0,0)"><g transform="matrix(1,0,0,-1,4.6548402186124145,2.0957454004329024)"><path class="outline" d="M 0.1355208333333338 0.07229166666666664 C 0.20989583333333367 0.04270833333333298 0.2670833333333338 -0.023541666666666572 0.2670833333333338 -0.13156249999999994 C 0.2670833333333338 -0.13156249999999994 0.2670833333333338 -0.144791666666667 0.2670833333333338 -0.144791666666667 C 0.2670833333333338 -0.3252083333333336 0.1335416666666672 -0.3833333333333334 -0.03979166666666659 -0.3833333333333334 C -0.1132291666666661 -0.3833333333333334 -0.199895833333333 -0.3771874999999998 -0.246770833333333 -0.37010416666666696 C -0.278333333333333 -0.3650000000000002 -0.2926041666666664 -0.35583333333333356 -0.2926041666666664 -0.32114583333333313 C -0.2926041666666664 -0.32114583333333313 -0.2926041666666664 0.3629166666666664 -0.2926041666666664 0.3629166666666664 C -0.2926041666666664 0.3741666666666668 -0.2834374999999998 0.3833333333333334 -0.27218749999999964 0.3833333333333334 C -0.27218749999999964 0.3833333333333334 -0.13968749999999966 0.3833333333333334 -0.13968749999999966 0.3833333333333334 C -0.12843749999999982 0.3833333333333334 -0.11927083333333321 0.3741666666666668 -0.11927083333333321 0.3629166666666664 C -0.11927083333333321 0.3629166666666664 -0.11927083333333321 0.10395833333333351 -0.11927083333333321 0.10395833333333351 C -0.09989583333333307 0.10395833333333351 -0.06833333333333276 0.10593750000000016 -0.0468749999999994 0.10593750000000016 C -0.0468749999999994 0.10593750000000016 -0.035624999999999574 0.10489583333333326 -0.035624999999999574 0.10489583333333326 C -0.035624999999999574 0.10489583333333326 0.10093750000000057 0.3628124999999998 0.10093750000000057 0.3628124999999998 C 0.10604166666666674 0.37302083333333336 0.11010416666666718 0.38322916666666684 0.12135416666666701 0.38322916666666684 C 0.12135416666666701 0.38322916666666684 0.2772916666666667 0.38322916666666684 0.2772916666666667 0.38322916666666684 C 0.28854166666666714 0.38322916666666684 0.292604166666667 0.3781250000000001 0.292604166666667 0.3710416666666667 C 0.292604166666667 0.3680208333333332 0.29156250000000006 0.3638541666666667 0.2895833333333334 0.35979166666666684 C 0.2895833333333334 0.35979166666666684 0.1355208333333338 0.07229166666666664 0.1355208333333338 0.07229166666666664 C 0.1355208333333338 0.07229166666666664 0.1355208333333338 0.07229166666666664 0.1355208333333338 0.07229166666666664 M 0.09375000000000058 -0.13156249999999994 C 0.09375000000000058 -0.062291666666666856 0.06010416666666707 -0.03468749999999983 -0.0468749999999994 -0.03468749999999983 C -0.05812499999999983 -0.03468749999999983 -0.10802083333333279 -0.035729166666666735 -0.11927083333333321 -0.03677083333333364 C -0.11927083333333321 -0.03677083333333364 -0.11927083333333321 -0.23249999999999993 -0.11927083333333321 -0.23249999999999993 C -0.10708333333333304 -0.23354166666666684 -0.05406249999999938 -0.23552083333333346 -0.03979166666666659 -0.23552083333333346 C 0.04583333333333369 -0.23552083333333346 0.09375000000000058 -0.20697916666666671 0.09375000000000058 -0.144791666666667 C 0.09375000000000058 -0.144791666666667 0.09375000000000058 -0.13156249999999994 0.09375000000000058 -0.13156249999999994 C 0.09375000000000058 -0.13156249999999994 0.09375000000000058 -0.13156249999999994 0.09375000000000058 -0.13156249999999994" stroke-width="0.01"></path></g></g><g fill="none" stroke="rgb(0,0,0)"><g transform="matrix(1,0,0,-1,5.253590218612414,2.004026650432905)"><path class="outline" d="M 0.0005208333333334517 -0.30078125 C -0.16468750000000001 -0.30078125 -0.25541666666666646 -0.19786458333333337 -0.25541666666666646 -0.03567708333333345 C -0.25541666666666646 -0.03567708333333345 -0.25541666666666646 0.03567708333333345 -0.25541666666666646 0.03567708333333345 C -0.25541666666666646 0.1977604166666668 -0.16468750000000001 0.30078125 0.0005208333333334517 0.30078125 C 0.16562500000000033 0.30078125 0.25541666666666707 0.19786458333333337 0.25541666666666707 0.03567708333333345 C 0.25541666666666707 0.03567708333333345 0.25541666666666707 -0.03567708333333345 0.25541666666666707 -0.03567708333333345 C 0.25541666666666707 -0.1977604166666668 0.16562500000000033 -0.30078125 0.0005208333333334517 -0.30078125 C 0.0005208333333334517 -0.30078125 0.0005208333333334517 -0.30078125 0.0005208333333334517 -0.30078125 M 0.0912499999999999 0.03567708333333345 C 0.0912499999999999 0.11828124999999959 0.059687500000000185 0.16109374999999973 0.0005208333333334517 0.16109374999999973 C -0.058645833333333286 0.16109374999999973 -0.0912499999999999 0.11828124999999959 -0.0912499999999999 0.03567708333333345 C -0.0912499999999999 0.03567708333333345 -0.0912499999999999 -0.03567708333333345 -0.0912499999999999 -0.03567708333333345 C -0.0912499999999999 -0.11828125000000017 -0.058645833333333286 -0.16005208333333343 0.0005208333333334517 -0.16005208333333343 C 0.059687500000000185 -0.16005208333333343 0.0912499999999999 -0.11828125000000017 0.0912499999999999 -0.03567708333333345 C 0.0912499999999999 -0.03567708333333345 0.0912499999999999 0.03567708333333345 0.0912499999999999 0.03567708333333345 C 0.0912499999999999 0.03567708333333345 0.0912499999999999 0.03567708333333345 0.0912499999999999 0.03567708333333345" stroke-width="0.01"></path></g></g><g fill="none" stroke="rgb(0,0,0)"><g transform="matrix(1,0,0,-1,5.867392301945747,2.0989745670995705)"><path class="outline" d="M -0.0036979166666668553 -0.2058333333333338 C -0.024114583333333304 -0.2058333333333338 -0.05776041666666682 -0.20281250000000087 -0.08734374999999989 -0.19875000000000043 C -0.08734374999999989 -0.19875000000000043 -0.08734374999999989 -0.3751041666666671 -0.08734374999999989 -0.3751041666666671 C -0.08734374999999989 -0.38635416666666755 -0.0965104166666665 -0.3955208333333342 -0.10765624999999976 -0.3955208333333342 C -0.10765624999999976 -0.3955208333333342 -0.2309895833333334 -0.3955208333333342 -0.2309895833333334 -0.3955208333333342 C -0.24223958333333323 -0.3955208333333342 -0.2523437500000002 -0.38635416666666755 -0.2523437500000002 -0.3751041666666671 C -0.2523437500000002 -0.3751041666666671 -0.2523437500000002 0.3394791666666658 -0.2523437500000002 0.3394791666666658 C -0.2523437500000002 0.3558333333333324 -0.24828124999999973 0.3629166666666658 -0.22078124999999987 0.36906249999999946 C -0.16265625000000006 0.38333333333333225 -0.08213541666666654 0.395520833333333 -0.0035937499999996914 0.395520833333333 C 0.16161458333333314 0.395520833333333 0.2523437500000002 0.2996874999999992 0.2523437500000002 0.1345833333333329 C 0.2523437500000002 0.1345833333333329 0.2523437500000002 0.05510416666666629 0.2523437500000002 0.05510416666666629 C 0.25213541666666645 -0.10489583333333385 0.16848958333333341 -0.2058333333333338 -0.0036979166666668553 -0.2058333333333338 C -0.0036979166666668553 -0.2058333333333338 -0.0036979166666668553 -0.2058333333333338 -0.0036979166666668553 -0.2058333333333338 M 0.08703125000000017 0.13468749999999946 C 0.08703125000000017 0.20708333333333268 0.06869791666666694 0.26010416666666575 -0.0036979166666668553 0.26010416666666575 C -0.03734374999999978 0.26010416666666575 -0.06796874999999974 0.2570833333333328 -0.08734374999999989 0.2539583333333327 C -0.08734374999999989 0.2539583333333327 -0.08734374999999989 -0.06406250000000036 -0.08734374999999989 -0.06406250000000036 C -0.06286458333333358 -0.0670833333333339 -0.028177083333333162 -0.06916666666666711 -0.0036979166666668553 -0.06916666666666711 C 0.06869791666666694 -0.06916666666666711 0.08703125000000017 -0.01614583333333404 0.08703125000000017 0.05520833333333286 C 0.08703125000000017 0.05520833333333286 0.08703125000000017 0.13468749999999946 0.08703125000000017 0.13468749999999946 C 0.08703125000000017 0.13468749999999946 0.08703125000000017 0.13468749999999946 0.08703125000000017 0.13468749999999946" stroke-width="0.01"></path></g></g><g fill="none" stroke="rgb(0,0,0)"><g transform="matrix(1,0,0,-1,6.46244438527908,2.004026650432903)"><path class="outline" d="M 0.0005208333333334517 -0.30078125 C -0.16468750000000001 -0.30078125 -0.25541666666666646 -0.19786458333333337 -0.25541666666666646 -0.03567708333333345 C -0.25541666666666646 -0.03567708333333345 -0.25541666666666646 0.03567708333333345 -0.25541666666666646 0.03567708333333345 C -0.25541666666666646 0.1977604166666668 -0.16468750000000001 0.30078125 0.0005208333333334517 0.30078125 C 0.16562499999999974 0.30078125 0.25541666666666646 0.19786458333333337 0.25541666666666646 0.03567708333333345 C 0.25541666666666646 0.03567708333333345 0.25541666666666646 -0.03567708333333345 0.25541666666666646 -0.03567708333333345 C 0.25541666666666646 -0.1977604166666668 0.1657291666666669 -0.30078125 0.0005208333333334517 -0.30078125 C 0.0005208333333334517 -0.30078125 0.0005208333333334517 -0.30078125 0.0005208333333334517 -0.30078125 M 0.0912499999999999 0.03567708333333345 C 0.0912499999999999 0.11828124999999959 0.059687500000000185 0.16109374999999973 0.0005208333333334517 0.16109374999999973 C -0.058645833333333286 0.16109374999999973 -0.0912499999999999 0.11828124999999959 -0.0912499999999999 0.03567708333333345 C -0.0912499999999999 0.03567708333333345 -0.0912499999999999 -0.03567708333333345 -0.0912499999999999 -0.03567708333333345 C -0.0912499999999999 -0.11828125000000017 -0.058645833333333286 -0.16005208333333343 0.0005208333333334517 -0.16005208333333343 C 0.059687500000000185 -0.16005208333333343 0.0912499999999999 -0.11828125000000017 0.0912499999999999 -0.03567708333333345 C 0.0912499999999999 -0.03567708333333345 0.0912499999999999 0.03567708333333345 0.0912499999999999 0.03567708333333345 C 0.0912499999999999 0.03567708333333345 0.0912499999999999 0.03567708333333345 0.0912499999999999 0.03567708333333345" stroke-width="0.01"></path></g></g><g fill="none" stroke="rgb(0,0,0)"><g transform="matrix(1,0,0,-1,6.95275688527908,2.062724567099569)"><path class="outline" d="M 0.16562500000000036 0.2340624999999991 C 0.16562500000000036 0.2340624999999991 0.1157291666666668 0.2340624999999991 0.1157291666666668 0.2340624999999991 C 0.08510416666666683 0.2340624999999991 0.08208333333333329 0.2268749999999991 0.08208333333333329 0.1861458333333328 C 0.08208333333333329 0.1861458333333328 0.08208333333333329 -0.11052083333333407 0.08208333333333329 -0.11052083333333407 C 0.08208333333333329 -0.11052083333333407 0.16562500000000036 -0.11052083333333407 0.16562500000000036 -0.11052083333333407 C 0.1768750000000002 -0.11052083333333407 0.1860416666666668 -0.11968750000000067 0.1860416666666668 -0.1309375000000011 C 0.1860416666666668 -0.1309375000000011 0.1860416666666668 -0.21354166666666724 0.1860416666666668 -0.21354166666666724 C 0.1860416666666668 -0.22479166666666767 0.1768750000000002 -0.2339583333333343 0.16562500000000036 -0.2339583333333343 C 0.16562500000000036 -0.2339583333333343 0.08208333333333329 -0.2339583333333343 0.08208333333333329 -0.2339583333333343 C 0.08208333333333329 -0.2339583333333343 0.08208333333333329 -0.34208333333333424 0.08208333333333329 -0.34208333333333424 C 0.08208333333333329 -0.3522916666666678 0.07395833333333357 -0.35937500000000056 0.06375000000000004 -0.35937500000000056 C 0.06270833333333314 -0.35937500000000056 0.06177083333333341 -0.35937500000000056 0.0607291666666665 -0.35937500000000056 C 0.0607291666666665 -0.35937500000000056 -0.06364583333333347 -0.3380208333333344 -0.06364583333333347 -0.3380208333333344 C -0.0748958333333333 -0.33593750000000056 -0.08406249999999993 -0.3288541666666678 -0.08406249999999993 -0.31760416666666735 C -0.08406249999999993 -0.31760416666666735 -0.08406249999999993 -0.2339583333333343 -0.08406249999999993 -0.2339583333333343 C -0.08406249999999993 -0.2339583333333343 -0.16562499999999974 -0.2339583333333343 -0.16562499999999974 -0.2339583333333343 C -0.16562499999999974 -0.2339583333333343 -0.1686458333333333 -0.2339583333333343 -0.1686458333333333 -0.2339583333333343 C -0.17885416666666681 -0.2339583333333343 -0.1870833333333331 -0.2257291666666674 -0.1870833333333331 -0.21552083333333388 C -0.1870833333333331 -0.21552083333333388 -0.1870833333333331 -0.21250000000000094 -0.1870833333333331 -0.21250000000000094 C -0.1870833333333331 -0.21250000000000094 -0.1870833333333331 -0.14520833333333388 -0.1870833333333331 -0.14520833333333388 C -0.1870833333333331 -0.14520833333333388 -0.1870833333333331 -0.12822916666666728 -0.1870833333333331 -0.12822916666666728 C -0.1870833333333331 -0.11802083333333435 -0.17885416666666681 -0.10979166666666747 -0.1686458333333333 -0.10979166666666747 C -0.1686458333333333 -0.10979166666666747 -0.08406249999999993 -0.10979166666666747 -0.08406249999999993 -0.10979166666666747 C -0.08406249999999993 -0.10979166666666747 -0.08406249999999993 0.18510416666666588 -0.08406249999999993 0.18510416666666588 C -0.08406249999999993 0.3298958333333323 -0.024895833333333187 0.3593749999999994 0.08718750000000004 0.3593749999999994 C 0.11677083333333371 0.3593749999999994 0.13708333333333358 0.35635416666666525 0.16770833333333357 0.3512499999999997 C 0.17989583333333314 0.3492708333333324 0.1870833333333337 0.3410416666666662 0.1870833333333337 0.33083333333333265 C 0.1870833333333337 0.33083333333333265 0.1870833333333337 0.251354166666666 0.1870833333333337 0.251354166666666 C 0.1870833333333337 0.24010416666666556 0.1789583333333334 0.2340624999999991 0.16562500000000036 0.2340624999999991 C 0.16562500000000036 0.2340624999999991 0.16562500000000036 0.2340624999999991 0.16562500000000036 0.2340624999999991" stroke-width="0.01"></path></g></g><g fill="none" stroke="rgb(0,0,0)"><g transform="matrix(1,0,0,-1,7.319163574822885,2.43069331709957)"><path class="outline" d="M 0.06630164378952941 -0.06776041666666661 C 0.06630164378952941 -0.06776041666666661 -0.06619835621046968 -0.06776041666666661 -0.06619835621046968 -0.06776041666666661 C -0.07744835621047011 -0.06776041666666661 -0.08661502287713674 -0.05859375 -0.08661502287713674 -0.047343749999999574 C -0.08661502287713674 -0.047343749999999574 -0.08661502287713674 0.047447916666666735 -0.08661502287713674 0.047447916666666735 C -0.08661502287713674 0.05859375 -0.07744835621047011 0.06776041666666661 -0.06619835621046968 0.06776041666666661 C -0.06619835621046968 0.06776041666666661 0.06630164378952941 0.06776041666666661 0.06630164378952941 0.06776041666666661 C 0.07744747712286326 0.06776041666666661 0.08661414378952988 0.05859375 0.08661414378952988 0.047447916666666735 C 0.08661414378952988 0.047447916666666735 0.08661414378952988 -0.047343749999999574 0.08661414378952988 -0.047343749999999574 C 0.08671831045619645 -0.05859375 0.07755164378952983 -0.06776041666666661 0.06630164378952941 -0.06776041666666661 C 0.06630164378952941 -0.06776041666666661 0.06630164378952941 -0.06776041666666661 0.06630164378952941 -0.06776041666666661" stroke-width="0.01"></path></g></g><g fill="none" stroke="rgb(0,0,0)"><g transform="matrix(1,0,0,-1,7.319215218612413,2.0045995670995693)"><path class="outline" d="M 0.0621874999999991 -0.29208333333333353 C 0.0621874999999991 -0.29208333333333353 -0.062187500000000284 -0.29208333333333353 -0.062187500000000284 -0.29208333333333353 C -0.07343750000000071 -0.29208333333333353 -0.08260416666666733 -0.2829166666666669 -0.08260416666666733 -0.2716666666666665 C -0.08260416666666733 -0.2716666666666665 -0.08260416666666733 0.2716666666666665 -0.08260416666666733 0.2716666666666665 C -0.08260416666666733 0.2829166666666669 -0.07343750000000071 0.29208333333333353 -0.062187500000000284 0.29208333333333353 C -0.062187500000000284 0.29208333333333353 0.0621874999999991 0.29208333333333353 0.0621874999999991 0.29208333333333353 C 0.07343749999999952 0.29208333333333353 0.08260416666666615 0.2829166666666669 0.08260416666666615 0.2716666666666665 C 0.08260416666666615 0.2716666666666665 0.08260416666666615 -0.2716666666666665 0.08260416666666615 -0.2716666666666665 C 0.08260416666666615 -0.28281250000000036 0.07333333333333295 -0.29208333333333353 0.0621874999999991 -0.29208333333333353 C 0.0621874999999991 -0.29208333333333353 0.0621874999999991 -0.29208333333333353 0.0621874999999991 -0.29208333333333353" stroke-width="0.01"></path></g></g><g fill="none" stroke="rgb(0,0,0)"><g transform="matrix(1,0,0,-1,7.710100635279076,2.004078733766235)"><path class="outline" d="M 0.17588541666666774 -0.2854166666666676 C 0.14734375000000097 -0.292500000000001 0.10140625000000132 -0.30072916666666727 0.04026041666666794 -0.30072916666666727 C -0.10348958333333277 -0.30072916666666727 -0.19723958333333275 -0.20895833333333394 -0.19723958333333275 -0.04281250000000073 C -0.19723958333333275 -0.04281250000000073 -0.19723958333333275 0.042812499999998956 -0.19723958333333275 0.042812499999998956 C -0.19723958333333275 0.20895833333333275 -0.10348958333333277 0.3007291666666661 0.04026041666666794 0.3007291666666661 C 0.10140625000000132 0.3007291666666661 0.14734375000000097 0.2926041666666664 0.17588541666666774 0.2854166666666658 C 0.19119791666666802 0.28135416666666596 0.19723958333333394 0.2772916666666661 0.19723958333333394 0.2619791666666658 C 0.19723958333333394 0.2619791666666658 0.19723958333333394 0.17124999999999937 0.19723958333333394 0.17124999999999937 C 0.19723958333333394 0.16104166666666586 0.1880729166666673 0.15395833333333245 0.1778645833333338 0.15395833333333245 C 0.1778645833333338 0.15395833333333245 0.17682291666666808 0.15395833333333245 0.17588541666666774 0.15395833333333245 C 0.13817708333333437 0.1580208333333323 0.10963541666666761 0.16114583333333243 0.05151041666666718 0.16114583333333243 C 0.005677083333334089 0.16114583333333243 -0.03203124999999929 0.13364583333333258 -0.03203124999999929 0.04291666666666612 C -0.03203124999999929 0.04291666666666612 -0.03203124999999929 -0.04270833333333416 -0.03203124999999929 -0.04270833333333416 C -0.03203124999999929 -0.1334375000000006 0.005677083333334089 -0.16093750000000107 0.05151041666666718 -0.16093750000000107 C 0.10963541666666761 -0.16093750000000107 0.13817708333333437 -0.1579166666666675 0.17588541666666774 -0.1537500000000005 C 0.17692708333333465 -0.1537500000000005 0.1778645833333338 -0.1537500000000005 0.1778645833333338 -0.1537500000000005 C 0.1880729166666673 -0.1537500000000005 0.19723958333333394 -0.16093750000000107 0.19723958333333394 -0.171145833333334 C 0.19723958333333394 -0.171145833333334 0.19723958333333394 -0.261875000000001 0.19723958333333394 -0.261875000000001 C 0.19723958333333394 -0.27729166666666727 0.19119791666666802 -0.2813541666666671 0.17588541666666774 -0.2854166666666676 C 0.17588541666666774 -0.2854166666666676 0.17588541666666774 -0.2854166666666676 0.17588541666666774 -0.2854166666666676" stroke-width="0.01"></path></g></g><g fill="none" stroke="rgb(0,0,0)"><g transform="matrix(1,0,0,-1,8.206402938768543,2.004182900432905)"><path class="outline" d="M 0.11072894651052914 -0.027395833333333876 C 0.11072894651052914 -0.027395833333333876 -0.015729386822804038 -0.09979166666666708 -0.015729386822804038 -0.09979166666666708 C -0.036146053489471086 -0.11197916666666666 -0.047291886822803754 -0.12020833333333353 -0.047291886822803754 -0.1355208333333338 C -0.047291886822803754 -0.1589583333333338 -0.033021053489470376 -0.16510416666666689 0.006770613177195628 -0.16510416666666689 C 0.058749779843862385 -0.16510416666666689 0.1464581131771953 -0.15593750000000028 0.17593727984386237 -0.15187500000000043 C 0.17697894651052928 -0.15187500000000043 0.1780206131771962 -0.15187500000000043 0.17895811317719534 -0.15187500000000043 C 0.18916644651052886 -0.15187500000000043 0.19624977984386285 -0.15895833333333384 0.19624977984386285 -0.17125000000000057 C 0.19624977984386285 -0.17125000000000057 0.19624977984386285 -0.2538541666666667 0.19624977984386285 -0.2538541666666667 C 0.19624977984386285 -0.2660416666666669 0.18906227984386229 -0.27427083333333374 0.1768747798438627 -0.2772916666666667 C 0.12489561317719595 -0.2905208333333338 0.07593727984386214 -0.3007291666666667 -0.00458355348947137 -0.3007291666666667 C -0.14531272015613794 -0.3007291666666667 -0.21354188682280412 -0.245729166666667 -0.21354188682280412 -0.1427083333333338 C -0.21354188682280412 -0.07645833333333366 -0.1798960534894706 -0.0244791666666669 -0.12281272015613709 0.008124999999999716 C -0.12281272015613709 0.008124999999999716 0.00968727984386201 0.08458333333333279 0.00968727984386201 0.08458333333333279 C 0.03822894651052877 0.10093749999999997 0.047395613177195386 0.11208333333333324 0.047395613177195386 0.12739583333333293 C 0.047395613177195386 0.1538541666666665 0.03614561317719615 0.16718749999999952 -0.012708553489471086 0.16718749999999952 C -0.0453127201561377 0.16718749999999952 -0.13093772015613797 0.15999999999999956 -0.18604188682280426 0.15291666666666615 C -0.18708355348947117 0.15291666666666615 -0.1890627201561372 0.15291666666666615 -0.19010438682280412 0.15291666666666615 C -0.2022918868228037 0.15291666666666615 -0.20947938682280426 0.16208333333333277 -0.20947938682280426 0.1722916666666663 C -0.20947938682280426 0.1722916666666663 -0.20947938682280426 0.254895833333333 -0.20947938682280426 0.254895833333333 C -0.20947938682280426 0.2670833333333332 -0.2022918868228037 0.27531249999999946 -0.19010438682280412 0.278333333333333 C -0.13812522015613737 0.2926041666666658 -0.060625220156137985 0.3007291666666667 -0.00458355348947137 0.3007291666666667 C 0.14427061317719608 0.3007291666666667 0.2135414465105292 0.22531249999999994 0.2135414465105292 0.12947916666666615 C 0.21364561317719577 0.074583333333333 0.1953122798438625 0.02156249999999993 0.11072894651052914 -0.027395833333333876 C 0.11072894651052914 -0.027395833333333876 0.11072894651052914 -0.027395833333333876 0.11072894651052914 -0.027395833333333876" stroke-width="0.01"></path></g></g></g>
        </g>
      </svg>