<?xml version="1.0" encoding="UTF-8" standalone="no" ?>
<!DOCTYPE svg PUBLIC "-//W3C//DTD SVG 1.1//EN" "http://www.w3.org/Graphics/SVG/1.1/DTD/svg11.dtd">
<svg xmlns="http://www.w3.org/2000/svg" xmlns:xlink="http://www.w3.org/1999/xlink" version="1.1" width="2338" height="1098" viewBox="-510.2191 -107.6659 3855.6747 1810.7489" xml:space="preserve">
<desc>Created with Fabric.js 6.5.3</desc>
<defs>
</defs>
<g transform="matrix(0.8259 0 0 0.8259 1089.6225 466.0098)"  >
<path style="stroke: rgb(0,0,0); stroke-width: 1; stroke-dasharray: none; stroke-linecap: butt; stroke-dashoffset: 0; stroke-linejoin: miter; stroke-miterlimit: 10; fill: none; fill-rule: nonzero; opacity: 1;"  transform=" translate(-439.185, -314.375)" d="M 679 378.42 L 199.37 378.42 C 192.77 378.42 187.37 373.02 187.37 366.42 L 187.37 262.33 C 187.37 255.73 192.77 250.33 199.37 250.33 L 679 250.33 C 685.6 250.33 691 255.73 691 262.33 L 691 366.42 C 691 373.02 685.6 378.42 679 378.42 Z" stroke-linecap="round" />
</g>
<g transform="matrix(0.5976 0.5701 -0.5701 0.5976 1669.7967 415.5639)"  >
<path style="stroke: rgb(0,0,0); stroke-width: 1; stroke-dasharray: none; stroke-linecap: butt; stroke-dashoffset: 0; stroke-linejoin: miter; stroke-miterlimit: 10; fill: none; fill-rule: nonzero; opacity: 1;"  transform=" translate(-439.19, -122.26)" d="M 514.3 209.37 L 364.08 209.37 C 357.48 209.37 352.08 203.97 352.08 197.37 L 352.08 47.15 C 352.08 40.55 357.48 35.15 364.08 35.15 L 514.3 35.15 C 520.9 35.15 526.3 40.55 526.3 47.15 L 526.3 197.37 C 526.3 203.97 520.9 209.37 514.3 209.37 Z" stroke-linecap="round" />
</g>
<g transform="matrix(0.8259 0 0 0.8259 1046.0229 150.3645)"  >
<path style="stroke: rgb(0,0,0); stroke-width: 1; stroke-dasharray: none; stroke-linecap: butt; stroke-dashoffset: 0; stroke-linejoin: miter; stroke-miterlimit: 10; fill: none; fill-rule: nonzero; opacity: 1;"  transform=" translate(-440.1, -475.685)" d="M 679.91 539.73 L 200.28 539.73 C 193.68 539.73 188.28 534.33 188.28 527.73 L 188.28 423.64 C 188.28 417.04 193.68 411.64 200.28 411.64 L 679.92 411.64 C 686.52 411.64 691.92 417.04 691.92 423.64 L 691.92 527.73 C 691.91 534.33 686.51 539.73 679.91 539.73 Z" stroke-linecap="round" />
</g>
<g transform="matrix(0.5976 0.5701 -0.5701 0.5976 1647.8731 384.297)"  >
<path style="stroke: rgb(0,0,0); stroke-width: 1; stroke-dasharray: none; stroke-linecap: butt; stroke-dashoffset: 0; stroke-linejoin: miter; stroke-miterlimit: 10; fill: none; fill-rule: nonzero; opacity: 1;"  transform=" translate(-393.85, -113.1922)" d="M 412.38 79.48 L 412.38 146.9 C 412.38 151.44 407.46 154.28 403.53 152.01 L 378.29 137.43 C 376.47 136.38 375.34 134.43 375.34 132.33 L 375.32 94.09 C 375.32 91.98 376.44 90.03 378.27 88.98 L 403.53 74.38 C 407.47 72.1 412.38 74.94 412.38 79.48 Z" stroke-linecap="round" />
</g>
<g transform="matrix(0.5976 0.5701 -0.5701 0.5976 1707.267 430.5227)"  >
<path style="stroke: rgb(0,0,0); stroke-width: 1; stroke-dasharray: none; stroke-linecap: butt; stroke-dashoffset: 0; stroke-linejoin: miter; stroke-miterlimit: 10; fill: none; fill-rule: nonzero; opacity: 1;"  transform=" translate(-484.515, -104.045)" d="M 500.1 119.15 L 474.83 133.74 C 470.9 136.01 465.98 133.17 465.98 128.63 L 465.98 79.46 C 465.98 74.92 470.89 72.08 474.83 74.35 L 500.09 88.92 C 501.92 89.97 503.04 91.92 503.04 94.03 L 503.05 114.05 C 503.05 116.15 501.92 118.1 500.1 119.15 Z" stroke-linecap="round" />
</g>
<g transform="matrix(0.5976 0.5701 -0.5701 0.5976 1669.7975 415.5593)"  >
<path style="stroke: rgb(0,0,0); stroke-width: 1; stroke-dasharray: none; stroke-linecap: butt; stroke-dashoffset: 0; stroke-linejoin: miter; stroke-miterlimit: 10; fill: none; fill-rule: nonzero; opacity: 1;"  transform=" translate(-439.185, -122.2548)" d="M 429.16 59.56 L 429.16 59.56 C 422.97 63.13 419.16 69.74 419.16 76.88 L 419.16 184.68 C 419.16 186.95 421.62 188.37 423.58 187.23 L 429.72 183.68 C 447.97 173.14 459.21 153.67 459.21 132.59 L 459.21 76.91 C 459.21 69.76 455.39 63.15 449.2 59.58 L 449.15 59.55 C 442.97 55.98 435.35 55.99 429.16 59.56 Z" stroke-linecap="round" />
</g>
<g transform="matrix(0.8259 0 0 0.8259 940.594 458.1311)"  >
<path style="stroke: rgb(0,0,0); stroke-width: 1; stroke-dasharray: none; stroke-linecap: butt; stroke-dashoffset: 0; stroke-linejoin: miter; stroke-miterlimit: 10; fill: none; fill-rule: nonzero; opacity: 1;"  transform=" translate(-258.74, -304.835)" d="M 236.38 288.54 L 236.38 321.03 C 236.38 338.84 247.54 342.07 260.16 342.07 C 270.73 342.07 281.1 342.07 281.1 342.07 L 281.1 329.64 C 281.1 328.57 280.22 327.69 279.14 327.69 L 259.27 327.69 C 254.67 327.69 253.01 326.12 253.01 321.03 L 253.01 310.66 L 278.36 310.66 C 279.44 310.66 280.32 309.78 280.32 308.7 L 280.32 299.4 C 280.32 298.32 279.44 297.44 278.36 297.44 L 253.01 297.44 L 253.01 288.54 C 253.01 283.45 254.67 281.88 259.27 281.88 L 279.14 281.88 C 280.22 281.88 281.1 281 281.1 279.93 L 281.1 267.6 C 281.1 267.6 270.82 267.6 260.25 267.6 C 247.64 267.59 236.38 270.72 236.38 288.54 Z" stroke-linecap="round" />
</g>
<g transform="matrix(0.8259 0 0 0.8259 974.9857 458.1271)"  >
<path style="stroke: rgb(0,0,0); stroke-width: 1; stroke-dasharray: none; stroke-linecap: butt; stroke-dashoffset: 0; stroke-linejoin: miter; stroke-miterlimit: 10; fill: none; fill-rule: nonzero; opacity: 1;"  transform=" translate(-300.38, -304.83)" d="M 306.45 267.3 L 294.51 267.3 C 293.43 267.3 292.45 268.18 292.45 269.26 L 292.45 340.31 C 292.45 341.39 293.43 342.36 294.51 342.36 L 306.45 342.36 C 307.53 342.36 308.31 341.38 308.31 340.31 L 308.31 269.26 C 308.31 268.18 307.52 267.3 306.45 267.3 Z" stroke-linecap="round" />
</g>
<g transform="matrix(0.8259 0 0 0.8259 1010.2234 466.0065)"  >
<path style="stroke: rgb(0,0,0); stroke-width: 1; stroke-dasharray: none; stroke-linecap: butt; stroke-dashoffset: 0; stroke-linejoin: miter; stroke-miterlimit: 10; fill: none; fill-rule: nonzero; opacity: 1;"  transform=" translate(-343.045, -314.37)" d="M 343.34 285.5 C 327.78 285.5 318.58 295.48 318.58 311.24 L 318.58 318.09 C 318.58 336.98 331.3 343.24 343.14 343.24 C 351.65 343.24 356.94 342.46 363.2 340.89 C 364.86 340.5 365.25 339.82 365.25 338.25 L 365.25 330.81 C 365.25 329.74 364.47 329.24 363.39 329.24 C 363.29 329.24 363.2 329.24 363.1 329.24 C 359.19 329.63 350.47 330.12 344.31 330.12 C 336.58 330.12 334.23 325.03 334.23 319.45 L 334.23 319.25 L 365.45 319.25 C 366.72 319.25 367.51 318.37 367.51 316.9 L 367.51 311.22 C 367.51 296.46 359.39 285.5 343.34 285.5 Z M 352.05 309.48 L 334.24 309.48 L 334.24 309.09 C 334.24 301.95 337.86 298.23 343.24 298.23 C 348.72 298.23 352.05 301.85 352.05 309.09 L 352.05 309.48 Z" stroke-linecap="round" />
</g>
<g transform="matrix(0.8259 0 0 0.8259 1058.9199 473.5263)"  >
<path style="stroke: rgb(0,0,0); stroke-width: 1; stroke-dasharray: none; stroke-linecap: butt; stroke-dashoffset: 0; stroke-linejoin: miter; stroke-miterlimit: 10; fill: none; fill-rule: nonzero; opacity: 1;"  transform=" translate(-402.005, -323.475)" d="M 401.66 285.5 C 395.76 285.5 384.47 287.32 379.84 288.12 C 378.65 288.32 377.78 289.36 377.78 290.57 L 377.78 359.49 C 377.78 360.57 378.66 361.45 379.74 361.45 L 391.68 361.45 C 392.76 361.45 393.64 360.57 393.64 359.49 L 393.64 343.24 C 393.64 343.24 399.71 343.24 401.67 343.24 C 418.21 343.24 426.23 333.55 426.23 318.19 L 426.23 310.56 C 426.22 294.7 417.51 285.5 401.66 285.5 Z M 410.37 318.19 C 410.37 325.04 408.61 330.23 401.66 330.23 C 399.31 330.23 395.98 329.94 393.63 329.64 L 393.63 299.11 C 395.49 298.82 398.42 298.62 401.66 298.62 C 408.61 298.62 410.37 303.61 410.37 310.56 L 410.37 318.19 Z" stroke-linecap="round" />
</g>
<g transform="matrix(0.8259 0 0 0.8259 1107.0423 458.1188)"  >
<path style="stroke: rgb(0,0,0); stroke-width: 1; stroke-dasharray: none; stroke-linecap: butt; stroke-dashoffset: 0; stroke-linejoin: miter; stroke-miterlimit: 10; fill: none; fill-rule: nonzero; opacity: 1;"  transform=" translate(-460.27, -304.82)" d="M 467.03 285.5 C 461.16 285.5 457.05 286.67 452.06 289.9 L 452.06 269.25 C 452.06 268.17 451.18 267.29 450.1 267.29 L 438.16 267.29 C 437.08 267.29 436.2 268.17 436.2 269.25 L 436.2 340.3 C 436.2 341.38 437.18 342.35 438.25 342.35 L 450.09 342.35 C 451.17 342.35 452.05 341.37 452.05 340.3 L 452.05 301.74 C 455.38 299.98 458.41 298.61 461.25 298.61 C 467.22 298.61 468.49 300.86 468.49 307.71 L 468.49 340.3 C 468.49 341.38 469.37 342.35 470.45 342.35 L 482.29 342.35 C 483.37 342.35 484.34 341.37 484.34 340.3 L 484.34 307.71 C 484.35 295.39 481.22 285.5 467.03 285.5 Z" stroke-linecap="round" />
</g>
<g transform="matrix(0.8259 0 0 0.8259 1153.678 465.9982)"  >
<path style="stroke: rgb(0,0,0); stroke-width: 1; stroke-dasharray: none; stroke-linecap: butt; stroke-dashoffset: 0; stroke-linejoin: miter; stroke-miterlimit: 10; fill: none; fill-rule: nonzero; opacity: 1;"  transform=" translate(-516.735, -314.36)" d="M 516.44 285.5 C 509.98 285.5 503.13 286.67 499.51 287.55 C 498.34 287.84 497.65 288.63 497.65 289.7 L 497.65 297.63 C 497.65 298.9 498.43 299.39 499.41 299.39 L 499.9 299.39 C 502.93 299.1 509.88 298.7 516.15 298.7 C 520.75 298.7 523.49 299.88 523.49 305.45 L 523.49 308.97 L 518.21 308.97 C 501.47 308.97 494.13 314.06 494.13 325.51 L 494.13 326.39 C 494.13 339.11 502.35 343.22 510.86 343.22 C 516.73 343.22 520.65 341.56 524.46 338.82 L 524.46 340.39 C 524.46 341.47 525.34 342.35 526.42 342.35 L 537.38 342.35 C 538.46 342.35 539.34 341.47 539.34 340.39 L 539.34 305.45 C 539.34 291.18 530.53 285.5 516.44 285.5 Z M 523.78 329.15 C 521.43 330.32 518.69 331.3 515.76 331.3 C 511.65 331.3 509.59 330.52 509.59 326.41 L 509.59 325.53 C 509.59 320.74 511.35 318.39 518.2 318.39 L 523.78 318.39 L 523.78 329.15 Z" stroke-linecap="round" />
</g>
<g transform="matrix(0.8259 0 0 0.8259 1201.9325 465.6431)"  >
<path style="stroke: rgb(0,0,0); stroke-width: 1; stroke-dasharray: none; stroke-linecap: butt; stroke-dashoffset: 0; stroke-linejoin: miter; stroke-miterlimit: 10; fill: none; fill-rule: nonzero; opacity: 1;"  transform=" translate(-575.16, -313.93)" d="M 581.91 285.5 C 575.65 285.5 571.34 286.77 565.96 290.59 L 565.96 288.24 C 565.96 287.16 565.08 286.28 564 286.28 L 553.04 286.28 C 551.96 286.28 551.08 287.16 551.08 288.24 L 551.08 340.31 C 551.08 341.39 552.06 342.36 553.14 342.36 L 564.98 342.36 C 566.06 342.36 566.94 341.38 566.94 340.31 L 566.94 301.75 C 570.27 299.99 573.3 298.62 576.14 298.62 C 582.11 298.62 583.38 300.87 583.38 307.72 L 583.38 340.31 C 583.38 341.39 584.26 342.36 585.34 342.36 L 597.18 342.36 C 598.26 342.36 599.24 341.38 599.24 340.31 L 599.24 307.72 C 599.23 295.39 596.1 285.5 581.91 285.5 Z" stroke-linecap="round" />
</g>
<g transform="matrix(0.8259 0 0 0.8259 1242.2955 461.3524)"  >
<path style="stroke: rgb(0,0,0); stroke-width: 1; stroke-dasharray: none; stroke-linecap: butt; stroke-dashoffset: 0; stroke-linejoin: miter; stroke-miterlimit: 10; fill: none; fill-rule: nonzero; opacity: 1;"  transform=" translate(-624.03, -308.735)" d="M 639.94 331.21 L 635.14 331.21 C 632.2 331.21 631.91 330.52 631.91 326.61 L 631.91 298.13 L 639.94 298.13 C 641.02 298.13 641.9 297.25 641.9 296.17 L 641.9 288.24 C 641.9 287.16 641.02 286.28 639.94 286.28 L 631.91 286.28 L 631.91 275.9 C 631.91 274.92 631.13 274.24 630.15 274.24 C 630.05 274.24 629.95 274.24 629.86 274.24 L 617.92 276.29 C 616.84 276.49 615.96 277.17 615.96 278.25 L 615.96 286.2 L 607.84 286.2 C 606.86 286.2 606.07 286.99 606.07 287.97 L 606.07 288.33 L 606.07 294.79 L 606.07 296.35 C 606.07 297.33 606.86 298.12 607.84 298.12 L 615.96 298.12 L 615.96 326.5 C 615.96 340.4 621.64 343.23 632.4 343.23 C 635.24 343.23 637.2 342.94 640.13 342.45 C 641.3 342.26 641.99 341.47 641.99 340.49 L 641.99 332.86 C 641.99 331.79 641.21 331.21 639.94 331.21 Z" stroke-linecap="round" />
</g>
<g transform="matrix(0.8259 0 0 0.8259 908.355 150.774)"  >
<path style="stroke: rgb(0,0,0); stroke-width: 1; stroke-dasharray: none; stroke-linecap: butt; stroke-dashoffset: 0; stroke-linejoin: miter; stroke-miterlimit: 10; fill: none; fill-rule: nonzero; opacity: 1;"  transform=" translate(-273.41, -476.18)" d="M 286.42 483.12 C 293.56 480.28 299.05 473.92 299.05 463.55 L 299.05 462.28 C 299.05 444.96 286.23 439.38 269.59 439.38 C 262.54 439.38 254.22 439.97 249.72 440.65 C 246.69 441.14 245.32 442.02 245.32 445.35 L 245.32 511.02 C 245.32 512.1 246.2 512.98 247.28 512.98 L 260 512.98 C 261.08 512.98 261.96 512.1 261.96 511.02 L 261.96 486.16 C 263.82 486.16 266.85 486.35 268.91 486.35 L 269.99 486.25 L 283.1 511.01 C 283.59 511.99 283.98 512.97 285.06 512.97 L 300.03 512.97 C 301.11 512.97 301.5 512.48 301.5 511.8 C 301.5 511.51 301.4 511.11 301.21 510.72 L 286.42 483.12 Z M 282.41 463.55 C 282.41 470.2 279.18 472.85 268.91 472.85 C 267.83 472.85 263.04 472.75 261.96 472.65 L 261.96 453.86 C 263.13 453.76 268.22 453.57 269.59 453.57 C 277.81 453.57 282.41 456.31 282.41 462.28 L 282.41 463.55 Z" stroke-linecap="round" />
</g>
<g transform="matrix(0.8259 0 0 0.8259 955.8291 158.0464)"  >
<path style="stroke: rgb(0,0,0); stroke-width: 1; stroke-dasharray: none; stroke-linecap: butt; stroke-dashoffset: 0; stroke-linejoin: miter; stroke-miterlimit: 10; fill: none; fill-rule: nonzero; opacity: 1;"  transform=" translate(-330.89, -484.985)" d="M 330.94 456.11 C 315.08 456.11 306.37 465.99 306.37 481.56 L 306.37 488.41 C 306.37 503.97 315.08 513.86 330.94 513.86 C 346.79 513.86 355.41 503.98 355.41 488.41 L 355.41 481.56 C 355.41 466 346.79 456.11 330.94 456.11 Z M 339.65 488.41 C 339.65 496.34 336.62 500.45 330.94 500.45 C 325.26 500.45 322.13 496.34 322.13 488.41 L 322.13 481.56 C 322.13 473.63 325.26 469.62 330.94 469.62 C 336.62 469.62 339.65 473.63 339.65 481.56 L 339.65 488.41 Z" stroke-linecap="round" />
</g>
<g transform="matrix(0.8259 0 0 0.8259 1004.4966 150.518)"  >
<path style="stroke: rgb(0,0,0); stroke-width: 1; stroke-dasharray: none; stroke-linecap: butt; stroke-dashoffset: 0; stroke-linejoin: miter; stroke-miterlimit: 10; fill: none; fill-rule: nonzero; opacity: 1;"  transform=" translate(-389.815, -475.87)" d="M 389.46 456.11 C 387.5 456.11 384.27 456.4 381.43 456.79 L 381.43 439.86 C 381.43 438.78 380.55 437.9 379.48 437.9 L 367.64 437.9 C 366.56 437.9 365.59 438.78 365.59 439.86 L 365.59 508.46 C 365.59 510.03 365.98 510.71 368.62 511.3 C 374.2 512.67 381.93 513.84 389.47 513.84 C 405.33 513.84 414.04 504.64 414.04 488.79 L 414.04 481.16 C 414.02 465.8 405.99 456.11 389.46 456.11 Z M 398.17 488.8 C 398.17 495.75 396.41 500.84 389.46 500.84 C 386.23 500.84 383.29 500.55 381.43 500.25 L 381.43 469.72 C 383.78 469.43 387.11 469.23 389.46 469.23 C 396.41 469.23 398.17 474.32 398.17 481.17 L 398.17 488.8 Z" stroke-linecap="round" />
</g>
<g transform="matrix(0.8259 0 0 0.8259 1051.6774 158.0464)"  >
<path style="stroke: rgb(0,0,0); stroke-width: 1; stroke-dasharray: none; stroke-linecap: butt; stroke-dashoffset: 0; stroke-linejoin: miter; stroke-miterlimit: 10; fill: none; fill-rule: nonzero; opacity: 1;"  transform=" translate(-446.94, -484.985)" d="M 446.99 456.11 C 431.13 456.11 422.42 465.99 422.42 481.56 L 422.42 488.41 C 422.42 503.97 431.13 513.86 446.99 513.86 C 462.84 513.86 471.46 503.98 471.46 488.41 L 471.46 481.56 C 471.46 466 462.85 456.11 446.99 456.11 Z M 455.7 488.41 C 455.7 496.34 452.67 500.45 446.99 500.45 C 441.31 500.45 438.18 496.34 438.18 488.41 L 438.18 481.56 C 438.18 473.63 441.31 469.62 446.99 469.62 C 452.67 469.62 455.7 473.63 455.7 481.56 L 455.7 488.41 Z" stroke-linecap="round" />
</g>
<g transform="matrix(0.8259 0 0 0.8259 1090.5538 153.3922)"  >
<path style="stroke: rgb(0,0,0); stroke-width: 1; stroke-dasharray: none; stroke-linecap: butt; stroke-dashoffset: 0; stroke-linejoin: miter; stroke-miterlimit: 10; fill: none; fill-rule: nonzero; opacity: 1;"  transform=" translate(-494.01, -479.35)" d="M 509.91 501.82 L 505.12 501.82 C 502.18 501.82 501.89 501.13 501.89 497.22 L 501.89 468.74 L 509.91 468.74 C 510.99 468.74 511.87 467.86 511.87 466.78 L 511.87 458.85 C 511.87 457.77 510.99 456.89 509.91 456.89 L 501.89 456.89 L 501.89 446.51 C 501.89 445.53 501.11 444.85 500.13 444.85 C 500.03 444.85 499.94 444.85 499.84 444.85 L 487.9 446.9 C 486.82 447.1 485.94 447.78 485.94 448.86 L 485.94 456.89 L 478.11 456.89 L 477.82 456.89 C 476.84 456.89 476.05 457.68 476.05 458.66 L 476.05 458.95 L 476.05 465.41 L 476.05 467.04 C 476.05 468.02 476.84 468.81 477.82 468.81 L 485.94 468.81 L 485.94 497.12 C 485.94 511.02 491.62 513.85 502.38 513.85 C 505.22 513.85 507.17 513.56 510.11 513.07 C 511.28 512.88 511.97 512.09 511.97 511.11 L 511.97 503.48 C 511.97 502.4 511.19 501.82 509.91 501.82 Z" stroke-linecap="round" />
</g>
<g transform="matrix(0.8259 0 0 0.8259 1119.6058 124.2171)"  >
<path style="stroke: rgb(0,0,0); stroke-width: 1; stroke-dasharray: none; stroke-linecap: butt; stroke-dashoffset: 0; stroke-linejoin: miter; stroke-miterlimit: 10; fill: none; fill-rule: nonzero; opacity: 1;"  transform=" translate(-529.185, -444.025)" d="M 535.55 437.52 L 522.83 437.52 C 521.75 437.52 520.87 438.4 520.87 439.48 L 520.87 448.58 C 520.87 449.65 521.75 450.53 522.83 450.53 L 535.55 450.53 C 536.62 450.53 537.5 449.65 537.5 448.58 L 537.5 439.48 C 537.51 438.4 536.63 437.52 535.55 437.52 Z" stroke-linecap="round" />
</g>
<g transform="matrix(0.8259 0 0 0.8259 1119.6099 158.001)"  >
<path style="stroke: rgb(0,0,0); stroke-width: 1; stroke-dasharray: none; stroke-linecap: butt; stroke-dashoffset: 0; stroke-linejoin: miter; stroke-miterlimit: 10; fill: none; fill-rule: nonzero; opacity: 1;"  transform=" translate(-529.19, -484.93)" d="M 535.16 456.89 L 523.22 456.89 C 522.14 456.89 521.26 457.77 521.26 458.85 L 521.26 511.01 C 521.26 512.09 522.14 512.97 523.22 512.97 L 535.16 512.97 C 536.24 512.97 537.12 512.09 537.12 511.01 L 537.12 458.85 C 537.12 457.78 536.23 456.89 535.16 456.89 Z" stroke-linecap="round" />
</g>
<g transform="matrix(0.8259 0 0 0.8259 1150.6025 158.0423)"  >
<path style="stroke: rgb(0,0,0); stroke-width: 1; stroke-dasharray: none; stroke-linecap: butt; stroke-dashoffset: 0; stroke-linejoin: miter; stroke-miterlimit: 10; fill: none; fill-rule: nonzero; opacity: 1;"  transform=" translate(-566.715, -484.98)" d="M 583.6 457.58 C 580.86 456.9 576.45 456.11 570.58 456.11 C 556.78 456.11 547.78 464.92 547.78 480.87 L 547.78 489.09 C 547.78 505.04 556.78 513.85 570.58 513.85 C 576.45 513.85 580.86 513.07 583.6 512.38 C 585.07 511.99 585.65 511.6 585.65 510.13 L 585.65 501.42 C 585.65 500.44 584.77 499.76 583.79 499.76 C 583.79 499.76 583.69 499.76 583.6 499.76 C 579.98 500.15 577.24 500.45 571.66 500.45 C 567.26 500.45 563.64 497.81 563.64 489.1 L 563.64 480.88 C 563.64 472.17 567.26 469.53 571.66 469.53 C 577.24 469.53 579.98 469.82 583.6 470.22 C 583.7 470.22 583.79 470.22 583.79 470.22 C 584.77 470.22 585.65 469.53 585.65 468.55 L 585.65 459.84 C 585.65 458.36 585.07 457.97 583.6 457.58 Z" stroke-linecap="round" />
</g>
<g transform="matrix(0.8259 0 0 0.8259 1189.9535 158.034)"  >
<path style="stroke: rgb(0,0,0); stroke-width: 1; stroke-dasharray: none; stroke-linecap: butt; stroke-dashoffset: 0; stroke-linejoin: miter; stroke-miterlimit: 10; fill: none; fill-rule: nonzero; opacity: 1;"  transform=" translate(-614.36, -484.97)" d="M 624.99 482.34 L 612.85 475.39 C 610.89 474.22 609.82 473.43 609.82 471.96 C 609.82 469.71 611.19 469.12 615.01 469.12 C 620 469.12 628.42 470 631.25 470.39 C 631.35 470.39 631.45 470.39 631.54 470.39 C 632.52 470.39 633.2 469.71 633.2 468.53 L 633.2 460.6 C 633.2 459.43 632.51 458.64 631.34 458.35 C 626.35 457.08 621.65 456.1 613.92 456.1 C 600.41 456.1 593.86 461.38 593.86 471.27 C 593.86 477.63 597.09 482.62 602.57 485.75 L 615.29 493.09 C 618.03 494.66 618.91 495.73 618.91 497.2 C 618.91 499.74 617.83 501.02 613.14 501.02 C 610.01 501.02 601.79 500.33 596.5 499.65 C 596.4 499.65 596.21 499.65 596.11 499.65 C 594.94 499.65 594.25 500.53 594.25 501.51 L 594.25 509.44 C 594.25 510.61 594.94 511.4 596.11 511.69 C 601.1 513.06 608.54 513.84 613.92 513.84 C 628.21 513.84 634.86 506.6 634.86 497.4 C 634.87 492.13 633.11 487.04 624.99 482.34 Z" stroke-linecap="round" />
</g>
<g transform="matrix(34.3603 0 0 34.3603 766.1296 820.9835)"  >
<path style="stroke: rgb(0,0,0); stroke-width: 0.01; stroke-dasharray: none; stroke-linecap: round; stroke-dashoffset: 0; stroke-linejoin: round; stroke-miterlimit: 4; fill: none; fill-rule: nonzero; opacity: 1;"  transform=" translate(-6.0023, -6.4435)" d="M 9.2008 10.4558 L 9.1996 6.5463 C 9.6047 6.4178 10.0395 6.4178 10.4446 6.5463 L 10.4481 10.4624 C 10.4534 10.5209 10.5018 10.566 10.5605 10.5671 L 11.3887 10.5677 C 11.4487 10.5623 11.4962 10.5146 11.5016 10.4546 L 11.5029 5.1819 L 11.503 5.1817 C 11.4885 5.1244 11.4337 5.0869 11.375 5.0941 L 9.2571 5.097 L 9.2571 4.097 L 11.3957 4.0997 C 11.4544 4.0951 11.5001 4.047 11.5019 3.9882 L 11.5016 2.431 C 11.4962 2.3709 11.4485 2.3232 11.3884 2.3178 C 10.5276 2.3178 9.5947 2.3178 8.6278 2.3178 C 6.9805 2.3178 5.2347 2.3178 3.5789 2.3178 C 3.5201 2.3227 3.4745 2.371 3.473 2.43 L 3.4714 2.8178 L 0.9714 2.8178 L 0.972 2.4248 C 0.9671 2.3658 0.9184 2.32 0.8592 2.3185 C 0.8575 2.3183 0.8558 2.3183 0.8541 2.3183 C 0.7737 2.3178 0.6936 2.3178 0.6141 2.3178 C 0.5546 2.3229 0.5072 2.3698 0.5016 2.4292 L 0.5017 10.4539 C 0.5072 10.5142 0.5549 10.5621 0.6153 10.5676 L 5.2487 10.5575 C 5.3913 10.4892 5.7164 10.2563 5.9926 10.2563 C 6.2687 10.2563 6.6748 10.5085 6.7098 10.5691 L 8.565 10.5678 L 9.0952 10.5671 C 9.1537 10.5624 9.1991 10.5144 9.2008 10.4558" stroke-linecap="round" />
</g>
<g transform="matrix(34.3603 0 0 34.3603 528.3596 218.1677)"  >
<path style="stroke: rgb(0,0,0); stroke-width: 0.01; stroke-dasharray: none; stroke-linecap: round; stroke-dashoffset: 0; stroke-linejoin: round; stroke-miterlimit: 4; fill: none; fill-rule: nonzero; opacity: 1;"  transform=" translate(-6.0016, -9.089)" d="M 4.2216 9.3763 L 7.7816 9.3763 L 7.7816 8.8017 L 4.2216 8.8017 L 4.2216 9.3763" stroke-linecap="round" />
</g>
<g transform="matrix(34.3603 0 0 34.3603 476.2546 366.4253)"  >
<path style="stroke: rgb(0,0,0); stroke-width: 0.01; stroke-dasharray: none; stroke-linecap: round; stroke-dashoffset: 0; stroke-linejoin: round; stroke-miterlimit: 4; fill: none; fill-rule: nonzero; opacity: 1;"  transform=" translate(-4.4852, -13.4038)" d="M 1.5074 15.0913 L 7.4629 15.0913 L 7.4629 11.7163 L 1.5074 11.7163 L 1.5074 15.0913" stroke-linecap="round" />
</g>
<g transform="matrix(34.3603 0 0 34.3603 1435.1042 966.7206)"  >
<path style="stroke: rgb(0,0,0); stroke-width: 0.01; stroke-dasharray: none; stroke-linecap: round; stroke-dashoffset: 0; stroke-linejoin: round; stroke-miterlimit: 4; fill: none; fill-rule: nonzero; opacity: 1;"  transform=" translate(-5.747, -17.2943)" d="M 3.9969 18.0774 C 4.0024 18.1374 4.0501 18.1849 4.1101 18.1902 L 7.3841 18.1902 C 7.4441 18.1848 7.4916 18.1372 7.497 18.0773 L 7.4973 16.1398 L 8.9388 16.1314 L 8.9388 12.6307 L 10.3139 23.7061 L 10.1992 16.1281 L 10.997 16.1215 L 10.997 11.0324 C 10.997 10.9926 10.9812 10.9545 10.953 10.9264 C 10.9249 10.8982 10.8868 10.8824 10.847 10.8824 L 0.647 10.8824 C 0.6072 10.8824 0.569 10.8982 0.5409 10.9264 C 0.5128 10.9545 0.497 10.9926 0.497 11.0324 L 0.497 16.1215 L 3.9962 16.1398 L 3.9948 16.6681 L 3.9947 16.6699 L 6.4428 16.6699 L 6.4433 16.9283 C 6.311 17.1771 6.0522 17.3325 5.7705 17.3325 C 5.4887 17.3325 5.2299 17.1771 5.0976 16.9283 L 3.9947 16.9261 L 3.9969 18.0774" stroke-linecap="round" />
</g>
</svg>